<svg id="Layer_1" data-name="Layer 1" xmlns="http://www.w3.org/2000/svg" viewBox="0 0 351 90"><defs><style>.cls-1{fill:#8b0021;}.cls-2{fill:#777677;}</style></defs><title>UChicago CDIS Logo</title><path class="cls-1" d="M62.34,21.24c-.16.12.19.29.16.28a2.92,2.92,0,0,0,.11,1.26c.11.16.44.28.5.13a2.12,2.12,0,0,1,.37-.52c.1-.09,0-.18-.08-.09s-.29.11-.42,0a1.79,1.79,0,0,1,0-.79l.41,0c.07,0,.06-.2,0-.2s-.41,0-.42,0a5.06,5.06,0,0,1,.07-.78c0-.15-.06-.2-.1-.06a3.08,3.08,0,0,1-.56.88Zm.89-1.79c.2,0,.51.1.87.08s.74-.68.56-1.18-.7-.4-1.06-.51-.47-.3-.11-.53.95.16,1,.25.14.14.14,0c0-.4,0-.17-.06-.54,0-.14-.11-.15-.12,0s-.17.09-.29.09a1.39,1.39,0,0,0-.77.11c-.2.11-.64.46-.39.88.14.24,1,.44,1.21.58a.43.43,0,0,1,.05.66,1.17,1.17,0,0,1-1.05-.09.82.82,0,0,1-.22-.46c0-.19-.18-.17-.18,0a7.86,7.86,0,0,0,.07.87c0,.14.17.09.18,0s.08-.13.17-.14Zm1,.55a.83.83,0,0,1-.43.39,5.14,5.14,0,0,0,.43.35,5.66,5.66,0,0,1,.42-.43.54.54,0,0,1-.42-.31Zm-2.13-.22a3.54,3.54,0,0,0,.31-.35c.11-.09,0-.18-.08-.1s-.26-.09-.27-.1a3.78,3.78,0,0,1-.12-1.07l.7-.08c.07,0,.07-.19,0-.19a3.11,3.11,0,0,1-.59,0,1.13,1.13,0,0,1,.06-.75c.08-.13,0-.25-.05-.12a2.27,2.27,0,0,1-.69.83c-.2.09-.18.13,0,.17s.21.14.19.14a3.2,3.2,0,0,0,.09,1.37c.1.17.37.34.49.23Zm-1.71,1a6.35,6.35,0,0,1-.51.46.9.9,0,0,1,.31.48c0,.21,0,1.19,0,1.44.17,0,.14,0,.43,0,0-.17,0-1.44,0-1.62a1.64,1.64,0,0,1,.25-.21c.09.07.3.12.3.26a6.24,6.24,0,0,1,0,1,1,1,0,0,0,.11.74c.12-.12.53-.41.62-.49s.05-.13-.07-.1-.15.05-.15,0,0-.81-.06-1.23a.63.63,0,0,0-.34-.61c-.13.14-.4.31-.56.45-.12-.09-.18-.3-.32-.51Zm-1.64.29a1.84,1.84,0,0,0,.4.59,8.33,8.33,0,0,1-.74.57c-.23-.28-.35-.74.34-1.16ZM58,22a1.45,1.45,0,0,0,1,1.42,3.46,3.46,0,0,1,.45-.68c.14-.17,0-.21-.13-.08s-.67,0-.8-.23l1.14-.93a2,2,0,0,1-.5-.83c-.25.17-1,.5-1.17,1.33Zm-.21-3.83a1.15,1.15,0,0,0,.06,1.55.94.94,0,0,0,.91.27,2.55,2.55,0,0,1,.31-.48,1,1,0,0,1-.83-.19.93.93,0,0,1-.2-1.22c.27-.4.65.17.72.25a2.84,2.84,0,0,1,.39-.38c-.14-.19-.27-.38-.37-.5a2.31,2.31,0,0,0-1,.7ZM60.07,17a.39.39,0,0,1-.12-.23c0-.06,0-.75,0-.83s-.16-.07-.16,0a.94.94,0,0,1-.1.49.72.72,0,0,1-1.28.09,1.38,1.38,0,0,1-.18-.68,1.48,1.48,0,0,1,.19-.66.73.73,0,0,1,1.28.1,3.33,3.33,0,0,1,.08.52c0,.08.16.07.16,0s0-1.11,0-1.18-.14-.09-.14,0-.1.18-.23.14a1.73,1.73,0,0,0-1.17,0,1.37,1.37,0,0,0-.73,1.08,1,1,0,0,0,.69,1.13,1.63,1.63,0,0,0,1.26,0c.17-.05.19.06.27.18s.26.07.16-.08Zm.24,2.4v.17a1.28,1.28,0,0,0-.21.07c-.12-.09-.67-.27-.31-.56.22.13.31,0,.52-.1v.42Zm0-.57c-.32.21-.42.2-.63,0a.47.47,0,0,1,0-.45c.09-.15.27-.31.35-.31a.76.76,0,0,1,.31.45c0,.07,0,.21,0,.35Zm0-1.15a1.25,1.25,0,0,0-.82.64.94.94,0,0,0,.08.57l.09.08c-.18.17-.36.32-.35.58a.72.72,0,0,0,.46.58.9.9,0,0,1,.57-.39.57.57,0,0,0,.2.44c.09-.1.46-.42.53-.49s0-.17-.07-.08-.19,0-.23-.09a10.62,10.62,0,0,1,0-1.29c-.17-.18-.33-.57-.51-.55Zm2.05-2.77c.11-.11,0-.19-.1-.09-.08-.09-.27-.28-.37-.4a3.76,3.76,0,0,1-.49.31c-.1-.12-.23-.12-.45-.29a3.32,3.32,0,0,0-.52.45c.25.08.44.09.45.31s0,1.24,0,1.43a1.85,1.85,0,0,0,.48,0c0-.15,0-1.49,0-1.64a1.18,1.18,0,0,0,.18-.11c.08.06.24.28.36.36a4.43,4.43,0,0,0,.45-.34Zm.75.47c-.16-.53-.1-.71.23-1a.91.91,0,0,0,.37.38c-.19.18-.48.5-.6.59Zm1.07.65a.86.86,0,0,1-1-.49c.26-.27.71-.71,1-.93-.18-.17-.25-.44-.57-.47a1.27,1.27,0,0,0-1,1.15,1.18,1.18,0,0,0,1.22,1.25c.2,0,.44-.26.57-.32s.16-.25-.14-.19ZM66,15l-.27.22a.79.79,0,0,1-.22,0,.67.67,0,0,1-.43-.33c-.1-.14.17-.26.3-.25A1.52,1.52,0,0,1,66,15Zm-.47.63a3.36,3.36,0,0,1,.47.23c.23.13.11.38-.14.5s-.73-.21-.8-.35c.09-.08.27-.23.47-.38Zm1.12-.92a1.38,1.38,0,0,0-.81-.44,1.5,1.5,0,0,0-1.09.62c-.22.33.05.62.32.83l-.65.6a1.71,1.71,0,0,0,.87.33,1.8,1.8,0,0,0,1.06-.42c.45-.35.29-.72-.16-1a.28.28,0,0,0-.12,0,5.92,5.92,0,0,0,.58-.5Zm.54,2.54L66.92,17l-.27.24v.33l.17.17H67l.2-.18v-.28Zm-.12-1.86c-.1,0-.26.27.36.25.1,0,.17-.22-.36-.25Zm0,.37c-.11,0-.27.18.35.25.1,0,.23-.22-.35-.25Zm.4,4.14.23-.24c-.26-.05-.26,0-.4-.16V18.34L67.08,18H67l-.52.48c-.13.12,0,.18.14,0l.27.17v1.11c0,.14.15.18.31.35l.29-.25ZM65.88,22a.67.67,0,0,0,.54.09c0,.13,0,.25,0,.31a.44.44,0,0,0,0,.15,2.8,2.8,0,0,0-.41.13c-.11-.1-.52-.38-.16-.68Zm.55,0a.8.8,0,0,1-.61-.26.48.48,0,0,1,0-.38c.1-.16.1-.21.19-.2s.49.25.47.39a2.36,2.36,0,0,1,0,.45Zm-.73-.09a1,1,0,0,0-.32.66.65.65,0,0,0,.35.62,2.32,2.32,0,0,1,.81-.42,3.06,3.06,0,0,0,.48.38,5.4,5.4,0,0,1,.45-.41c.07-.08,0-.18-.08-.08s-.26,0-.32-.07a11.83,11.83,0,0,1,0-1.3c-.17-.18-.45-.59-.64-.57a1.55,1.55,0,0,0-.78.55,1,1,0,0,0,.07.61l0,0ZM65,19.19a1,1,0,0,0,.89.67,5.07,5.07,0,0,1,.35-.54c.14-.18,0-.29-.1-.08s-.47,0-.61-.16-.31-.64-.16-.81.38-.09.66-.1.23-.18.27-.27-.23-.12-.41-.22a4.33,4.33,0,0,0-.59.46,1,1,0,0,0-.3,1.05Zm-.11,3.56.23-.24c-.26-.05-.14-.05-.27-.17v-1l-.33-.48h-.12l-.51.48c-.14.12,0,.18.14.05l.34.17v1.09c0,.13.15.16.32.33l.21-.22Zm4.28,5.91s.21-.22.21-.38a.59.59,0,0,0-.21-.38,4,4,0,0,1,.74.39l-.74.37Zm1.31-.39v0a6.25,6.25,0,0,1-1.24-.55A1.17,1.17,0,0,0,68,28c0,.16.16.24.63-.06a.52.52,0,0,0,0,.77,1.57,1.57,0,0,1-.51-.15c0,.15.18.21.28.28.78.32,1.3-.43,2-.56Zm5.28-7.14a6.32,6.32,0,0,0-.52.48.38.38,0,0,1,.37.2,5.1,5.1,0,0,1,0,1.05c0,.25.17.3.36.5a4.28,4.28,0,0,0,.91-.4.59.59,0,0,0,.39.47c.1-.11.21-.17.35-.3-.14-.1-.12-.11-.17-.3a9.42,9.42,0,0,1,0-1.18,2.17,2.17,0,0,0-.49-.52,5.78,5.78,0,0,0-.53.51c.16,0,.47,0,.48.18a4.65,4.65,0,0,1,0,.84c0,.29-.83.16-.84,0s0-.79,0-1.07a1.27,1.27,0,0,0-.39-.42Zm.4-2.29a.85.85,0,0,1,.36-.5c.13.15.26.31.47.31a.68.68,0,0,0,.46-.17c-.16-.13-.53-.52-.61-.59-.18.1-1,.53-1.06,1a1.27,1.27,0,0,0,.44,1.26.61.61,0,0,0,.61.19c.14-.1.68-.6.74-.66s0-.12-.09-.06,0,.09-.13.1a1.21,1.21,0,0,1-.67,0,.88.88,0,0,1-.52-.86Zm-2.27-.08A1.63,1.63,0,0,1,73.34,20c.48-.12.54-.41.8-.74a2.19,2.19,0,0,0,.6.58,5.85,5.85,0,0,0,.61-.61,1.73,1.73,0,0,1-.95-.66.45.45,0,0,1,0-.51c.1.13.75.43,1-.08a1.38,1.38,0,0,1-.71-.5,5.48,5.48,0,0,1-.54.49.71.71,0,0,0-.52-.4,4.65,4.65,0,0,1-.8.57c-.08,0-.05.19,0,.15s.25-.16.43-.24a.76.76,0,0,1,.47.73Zm-.09,2.32c-.2.1.26.27.23.27A4.56,4.56,0,0,0,74.05,23a.49.49,0,0,0,.52.2c.16-.06.37-.38.43-.43s0-.18-.09-.09-.36,0-.39-.07a7.33,7.33,0,0,1,0-1.23s.32,0,.41,0,.07-.21,0-.21-.37,0-.39-.07a1.23,1.23,0,0,1,.08-.58c.07-.14-.06-.2-.11-.06a1.92,1.92,0,0,1-.73.66Zm-1.83.33c.11-.16.18-.19.26-.19s.38.21.37.35,0,.28,0,.47a.67.67,0,0,1-.65-.16.75.75,0,0,1,0-.47Zm.13.75c.17.1.26,0,.51,0v.39a4,4,0,0,1-.42.23c-.13-.11-.31-.19-.09-.63Zm-.2-.15a1.24,1.24,0,0,0-.39.73.93.93,0,0,0,.28.65,3.24,3.24,0,0,1,.84-.59c.06.2.2.23.36.35.1-.11.46-.55.54-.63s0-.15-.08-.07-.19,0-.38-.18c0-.11,0-1,0-1.07-.17-.19-.33-.44-.54-.42s-.68.54-.77.68a.66.66,0,0,0,.06.52l0,0Zm-1.75-1.72c0,.24.1,2.35.08,2.65s.2.34.41.48a3.58,3.58,0,0,1,.5-.57c.1-.09,0-.14,0-.11s-.33,0-.34-.17,0-2,0-2.27ZM70,18.76c0,.86.35.93.75,1.16a2.14,2.14,0,0,0,1.46,0c.18-.05.28-.06.27.09a.07.07,0,0,0,.13,0c0-.07,0-.8,0-.88s-.13-.07-.13,0a.43.43,0,0,1-.12.33,1,1,0,0,1-1.56-.12c-.15-.2-.28-.47-.11-.52a5.41,5.41,0,0,1,1,.09,4.78,4.78,0,0,1,.74.09s.13.09.13,0,0-.44,0-.54-.08-.05-.14,0a6.63,6.63,0,0,1-.77.16,4.16,4.16,0,0,1-1,0c-.17-.06-.11-.4,0-.59A1,1,0,0,1,72.35,18a.47.47,0,0,1,.11.34c0,.07.12.08.12,0s0-1,0-1-.12-.09-.12,0-.15.1-.28.06a2.69,2.69,0,0,0-1.43.24,1.42,1.42,0,0,0-.8,1.12Zm3.4-5a5.74,5.74,0,0,0-.9.06c-.19,0-.19.12,0,.14s.19.05.28.27a4.48,4.48,0,0,1-.41,1.44,7,7,0,0,1-.52-1.2c0-.09.18-.18.26-.2s.15-.15,0-.17c-.32-.05-1.45-.14-1.65-.17s-.21.16,0,.16a.53.53,0,0,1,.57.24,13.56,13.56,0,0,1,1.12,2.51c.08-.13.8-2.21.84-2.43a.65.65,0,0,1,.41-.48c.22-.06.2-.15,0-.17Zm1,.38.21-.19v-.29l-.28-.28L74,13.6v.34l.17.18Zm.33,2.7.38-.49a.82.82,0,0,1-.58-.31V14.8l-.38-.39-.13,0-.61.53c-.06.09.1.09.18,0l.44.25,0,1.18a1,1,0,0,0,.33.45Zm2.51-2.09a6.55,6.55,0,0,1-.91,0,.82.82,0,0,1,.07-.65c.06-.14-.07-.2-.12-.06a2.07,2.07,0,0,1-.84.85c-.2.08.26.27.22.26a6.49,6.49,0,0,0,.19,1.6c.07.18.27.48.42.39s.29-.46.36-.51,0-.25-.09-.15-.19-.06-.22-.15A6.09,6.09,0,0,1,76.17,15l1-.11c.07,0,.07-.2,0-.2Zm1.41,2.2a1,1,0,0,0-.39.12.8.8,0,0,1-.23-1l-.1-.06a4,4,0,0,0,.72.31c0,.18,0,.35,0,.41s0,.14,0,.2Zm0-.72a4.36,4.36,0,0,1-.89-.45s0-.06,0-.15.24-.31.33-.3.56.26.54.4a3.27,3.27,0,0,1,0,.5Zm.29,1.23.49-.53a2.77,2.77,0,0,1-.34-.33,12.33,12.33,0,0,1,0-1.24,1,1,0,0,0-.79-.35c-.3,0-.61.43-.7.55a.22.22,0,0,0,0,.28l.21.15,0,0a1.27,1.27,0,0,0-.33.77,1.3,1.3,0,0,0,.39.77,1.86,1.86,0,0,1,.8-.43.61.61,0,0,0,.27.39Zm0,2.83a1.81,1.81,0,0,1-.69-.69.75.75,0,0,1,.25-1c.31.11.66.41.69.68a1.41,1.41,0,0,1-.25,1Zm.41-.14a2,2,0,0,0,.32-.93,1.22,1.22,0,0,0-.78-1.09,1.56,1.56,0,0,0-1.12,1.41c0,.38.3,1.14,1,1.15a4.36,4.36,0,0,1,.62-.54ZM80,22a3,3,0,0,0-.5-.42,3,3,0,0,1-.49.34,4.1,4.1,0,0,0-.47-.47c-.14.1-.52.45-.69.54.24,0,.59.08.6.3s0,1.28,0,1.48a1.79,1.79,0,0,0,.52,0c0-.15,0-1.42,0-1.58a.75.75,0,0,0,.2-.11,4.15,4.15,0,0,0,.47.42l.46-.4c.12-.12,0-.2-.11-.1Zm0-2.33a1.89,1.89,0,0,0,.41.06c.1,0,.07-.16,0-.19a1.87,1.87,0,0,0-.37-.07.1.1,0,0,0,0,.2Zm.41-.51a1.35,1.35,0,0,0-.37-.07.1.1,0,0,0,0,.2,1.89,1.89,0,0,0,.41.06c.11,0,.07-.16,0-.19Zm2.79,27a7.51,7.51,0,0,1-1.23,3c-.44.65-.63-.61-.24-1.84a3.6,3.6,0,0,0,1.47-1.13Zm-.61.22c-1.43,1.41-3.58.9-5.28,1.66-1.53.55-2.64,2-4.25,2.33-.48.15-.56.39-.25.38a2.6,2.6,0,0,0,2.72.23c.53-.26,2.16-1.17,2.43-1.22a12.6,12.6,0,0,1-2.11,2,7.6,7.6,0,0,1-4.41.59c-.86-.17-1.53.63-1.31.61a1.2,1.2,0,0,1,1.3.35c.57.45,1.39,1,2.1.17a1.7,1.7,0,0,1,2.42.22c-1.13-.06-1,2-3.15,1.72-.79,0-2.53-1.8-3-1.25-.88,1,1.89,1.93.69,3.17S68,56.47,68,56.47c.67.28,1.92.46,1.37-.64a3.08,3.08,0,0,1-.63-1.63c-.09-.4-2.58,3.19-4.22,1.57a12.81,12.81,0,0,0-3.13-2.57c3.13-.27,3.61,1,3.76,1.19,1,1.35,1.93,0,2.14-.27s.79-.88.62-1a4.5,4.5,0,0,0-3.64-.22c2.22-3,4-.19,4-.19.24.15-.06-1.81-2.26-1.92C64.63,50.77,63.42,52,62.48,52a6.22,6.22,0,0,1-3.65-3c1.35,1,3.09,1.59,4.16.95,2-1.21,4.59.61,4.71.4-.57-.45-1.86-2.17-5.34-1.19-1.35.77-1.92-.57-2.75-.6A2.65,2.65,0,0,1,62.49,48c.12,0-.59-.58-1.08-.64a23.08,23.08,0,0,1-6.29-1.45s.32-.78,2-.22c0,0-1.49-.9-1.47-2.07,0-.72.39-1.49-.16-2.08,2.24-.1.65,3,2.22,3.81a1.06,1.06,0,0,1,.23-1.32,2.5,2.5,0,0,0,1.69,1.53,1.19,1.19,0,0,0,.29-.35,5.16,5.16,0,0,1-.51-3.41l0,0c.13,0,.35.45.5.78a9.31,9.31,0,0,0,1,2.53,6.27,6.27,0,0,0,.91,1.14,2.22,2.22,0,0,0,0-1,2.16,2.16,0,0,1,.5-2.27c.43,1.22,1,.86,1.08,1.45a3,3,0,0,1,0,1.31c0,.87.83,1.11,1.53,1.67,1.58.86,2.63,1.32,3.31,2.42.34-1.86-4.67-2.23-4-5.8-.06-1.43.18-1.55-.83-2.42,2,.06,3.1,3.35,3.21,4,.2,1.11.88,1.16,1.8,2.61.13,0-1.65-3.84.47-7.17a5.37,5.37,0,0,1,.38,2.86,4.78,4.78,0,0,0,0,1.87,3.86,3.86,0,0,1,1.43-2.62c.09.76.82,1.94.13,3.21-.84,1.53-.91,1-.92,2.87a8.18,8.18,0,0,1,.88-2c1.22-1.53.34-2.35,1.54-3.67.09.66.26.4.33,1,.16,1.32-1.22,2.76-.91,2.72s.91-.36,1.1-1.36c0,0,.51.92,0,1.22A1.63,1.63,0,0,0,72,48.86c.67-.81,1.6-1.7,1.44-2.85.08-.69.83-1,1-2.58a1.11,1.11,0,0,1,.56-.74c-.12.91.58,1.84-.22,3,.19.1.86-.86,1.85-.51-2,.35-1.4,2.5-2.93,3.5-.45.3-.38.63-.51.67,1.36-.08,2.4-1.69,2.58-1.81,1.37-.93,1.67-1.07,2.21-2.56.22-.57.06-.82.82-1.59A4.9,4.9,0,0,1,78.48,46c-.24.72-1.1,1.35-.92,1.35,3.66-1.61,3.62-2.7,4.49-3.85a4.64,4.64,0,0,1,2.06-1.28c-.12.24-.63.64-.65,1.08a3.74,3.74,0,0,1-.72,2c.23.28.67-.53,1.11-.12-.59.19-.85.85-1.31,1.24Zm-3.35-1.15a7.68,7.68,0,0,0,.15-1,1.41,1.41,0,0,0,0-.25s1,.86,1.09.89a4.89,4.89,0,0,1-.73.67c-.18-.15-.56-.3-.55-.34Zm.31.56c-.48.42-.79.57-.68.36a6.43,6.43,0,0,0,.26-.6c0-.06.42.24.42.24Zm4.68-4.05a4,4,0,0,0-1.86,1,14,14,0,0,0-.92-5.51c-.5-1.15.23,2.67.28,3.55,0,0-4.13-5.3-1.64-1.19a7.34,7.34,0,0,0,1.66,1.78,5,5,0,0,1-.18,1.68c-.25.21-5.62-7.13-2.65-2.05a30.63,30.63,0,0,0,2.5,2.58,3.71,3.71,0,0,1-.71,1c-.06-.06-1.24-.93-1.25-1-.09-.57-.09-1.11-.79-.7,0,0-2.65-3.08-1.42-.92a3.6,3.6,0,0,0,1,1.21,3.58,3.58,0,0,0-.54,1.15c-.05.23-2.29-2.48-1.41-.78.28.55,1.3,1.15,1.29,1.18a6.19,6.19,0,0,1-.32.93,22.09,22.09,0,0,1-2.11,1.85,4.18,4.18,0,0,1,1.22-1.85,5.78,5.78,0,0,1,.8-.47.69.69,0,0,0-.41-.56,3.91,3.91,0,0,0-1.22.06c.09-.46-.32-1.46-.32-2.57a2.07,2.07,0,0,0-1.11.89c-.11,1.82-.51,1.28-.88,2.59-.4-.55,0-1.34-.37-1.86a3.34,3.34,0,0,1-.71-2.06c.13-.07.69-.68.18-2-.08-2,.83-2.8-.8-4.22.14,0,.24-1.06.24-1.06,1.19.64,1-.73,1.42-1,.74-.43.61-.87.27-1.43,2.12.6-.09,2,.86,2.07a1.48,1.48,0,0,0,1.46-.61c.32-.5-.05-.8.84-1.6.09-.08.33-.61-.38-.75-.16,0,0-.64,0-.64-.57.48-.75,1.15-1.66.73a.93.93,0,0,0-1,.09.43.43,0,0,1,.29-.52c1-.33,1.24-.73,1.19-.95-.14-.52-.18,0-.15-.54a1.9,1.9,0,0,1,.48-.77c.68-.82,1.16-.51,1.33-.44a2.36,2.36,0,0,1,.83-.43,4.79,4.79,0,0,1,2.75.52,2,2,0,0,0,1.24.17.41.41,0,0,1-.31.39c-.24.07-.52,0-.5.17s.33.12.54.17c1.12.31,2.58,1.32,1.62,1.11-.11,0,.7.6,1.3,1.41l2.15,2.09c-.1.12-.85,0-3.24-2.23-.34.31,2.91,2.75,4.25,5.34A5.39,5.39,0,0,1,85,35.67c-.93-1-2-3.39-2.43-3,0,0,1.76,2.84,2.66,4.51a7.83,7.83,0,0,1,.86,3c.14,4.51-.54,4.16-.54,4.16-1.06-3.55-1.55-7.68-3.1-9.58-.61-.76,1.65,3.33,1.75,7Zm1.67-24.16c0-.07,0-.18,0-.33s-.7-.36-1.17-.16c-.66.29-2.32,1.24-2.93,1.06V15.81a3.37,3.37,0,0,0,2.56.06,1.47,1.47,0,0,1,1.55,1.37c0,.15,0,.26,0,.33Zm-1.53,3.19c1.29-.19,1.49,1.34,1.49,1.34h0A1.28,1.28,0,0,0,84.41,22a5.68,5.68,0,0,1-2.75.94V20.62s.27.49,2.66.14Zm-3.1,4.73c-2.35.16-7.23-1.17-8.46-1.17a6.37,6.37,0,0,0-3.8,1v-12s3.36-1.58,5.81-.68a15.11,15.11,0,0,0,6.45.62V25.49ZM71.48,27.3a.49.49,0,0,1-.35.58.93.93,0,0,0,1.12-.49c.26,1.07-.82,1.13-1.16,1.19,0,0,.55.16.58.52.07.9.65.82.78.75,0,.11-.2.66-.86.17-.11.1.18.27.24.72s.06,1.1.71,1.44c-.4.32-.87-.51-.92-.41s.56.42-.1,2c-.31-.18-.14-.14-.49-.56-.27-.23-.38-.28-.15.09a2.72,2.72,0,0,1,.35,1.92c-.33-.14-.24-.4-.62-.75a1.84,1.84,0,0,0,.51,1.25,3.1,3.1,0,0,1,.94,1.5,14.48,14.48,0,0,1-.19,2c-.33,0-.61-1-.69-.92a1.81,1.81,0,0,0,.66,1.48c.3.87.18,1.34.1,1.37s-.44-.89-.62-.72a4,4,0,0,1,0,3.7c-.18-.71-.27-1.24-.5-2-.48.38-.59.94-1.18,1.45a9.31,9.31,0,0,0-1-3.63s-.75,2-1.09,2.86a5.11,5.11,0,0,0,0,3.71c-1.08-1.54-1.2-4.41-.26-4.8.08-.2-.06-.88-.27-.8a1.62,1.62,0,0,1-.29.94c-.72-.21-.39-1.09-.33-1.38.93-1.11.35-1.37.31-1.34-.1.25-.19.57-.48.68-.6-1-.21-2.64.92-3.84,0-.45-.5.33-.87.31a2,2,0,0,1,1.83-2.43c-.31-.09-.47-.14-.55-.4.49-.07,2-.19,1.76-1.39a1.86,1.86,0,0,1-.59.6.49.49,0,0,1-.71,0c.71-.24.48-1.09-.44-.84a.65.65,0,0,1-.72-.55c.21.21.62.06.86-.1a1.24,1.24,0,0,1,1.81.51s.47-1-1-1.23a1.27,1.27,0,0,0-1.45-.87c-.33-1.16-1.33-.59-1.3-.07-1.06-.78,0-1.76.45-1.91.29,0,.23,1,.75.8.13,0-.4-.64-.2-.92.48-.27.47.35.7.12a1.14,1.14,0,0,1,1-.68c1.08-.15,1.93,1,3,.45Zm-3.08-2a9.43,9.43,0,0,0-3.47-1c-1.81-.12-5.46,1.32-8.26,1.13V13.14s3.2.43,4.51-.08c4.47-1.72,7.22.2,7.22.2v12ZM56.1,22.73H54.58V21.24H56.1v1.49Zm0-5.21H54.58V16H56.1v1.49Zm-3.32,5.64a1.31,1.31,0,1,1,0-2.61,1.31,1.31,0,0,1,0,2.61Zm0-5.22a1.31,1.31,0,0,1,0-2.61,1.31,1.31,0,0,1,0,2.61ZM64.29,30.15c-.32-.55.38-1.06.38-1.06,0,1.52,1.94.47,3,1a1.11,1.11,0,0,1,.52.55c-1.1-.75-3.13.79-3.86-.45ZM59,43.09a4.72,4.72,0,0,0,.13,1.44c.25.8.12.55-.22.28a2.86,2.86,0,0,1-.65-.89c0-.25.17-.26.74-.83Zm-3.94-10.8,0,0s-2.54,1.58-4.17.82c1.22-.67,5.42-3.34,6.57-4.09a1,1,0,0,0,.93-.2c-.44,0-1.89.25-1.16-1.05.29,1.17,2.33.09,3.06-.08,2-.46,2,1.71,1.86,2.62-.07.33.62.57,1,.52-.58,1.44-1.58.08-1.7.63-.05.23-.72.4-.72,1,0,.76.3.35.33.93s-.24.13-.18.74c.1,1,1.71-.13,2.38.14.33.13.56.43.88.37.1-.08.05-.45,0-.58,0-.31-.61-.35-.88-.77s.27-1.48.54-1.8c.38,1.83,2.1,1.25,2.36,3.18.16.54-.59,1.15,0,2-.46.43-1,2.52-.05,3.5a1.74,1.74,0,0,0,.47,2.06,2.92,2.92,0,0,0,0,2.1c-.53,0-.42-2.95-3.57-3-.07,0-.09.33,0,.49.38.66.88.62.78,2.18,0,.54-.35-.09-.52-.24a1.71,1.71,0,0,1-.84-1.48A2.81,2.81,0,0,0,61.36,45s-.28-.77-.61-1.56c0,0,1.31-1.63,1.51-2C64.92,36.7,60.55,43,60.54,43A6.27,6.27,0,0,0,60,41.84a10.58,10.58,0,0,0,1.09-1.57c2.06-4.27-1.22,1.43-1.34,1.32s-.45-.5-.61-.4c0,.66-.19.57-.15,1.24A8.28,8.28,0,0,1,57.36,44a11.84,11.84,0,0,1-.09-1.23c.26-.31,1.27-1.4,1.48-1.72,3.37-5.29-1.58,1.27-1.59,1.22a2.26,2.26,0,0,0-.6-.85,21.83,21.83,0,0,0,1.36-2c2.06-4.21-1.64,1.86-1.68,1.84L56,41.1a7.93,7.93,0,0,1,.26-1.92c.28-1.4-.47-.27-.67,2a2,2,0,0,0-.83.24c.12.59.26.13.51.7s-.42,1.81.2,2.63c.24.31.26.26.21.47-.38,0-.62,0-.86.29a16.4,16.4,0,0,1-.34-5.32,16.63,16.63,0,0,0,.22-2.5c-.14,0-2.37,5.72-2.91,6.84-.94-.31.59-5.28,2.53-7.67.18-.77-1,.77-1.74,1.38s-1.49,1.29-2.39,1c1.16-1.23,3.83-3.53,4.13-4.11s-1.82,1.53-4,.78c1.41-.76,4.72-2.44,4.72-3.61Zm0,14a7.8,7.8,0,0,0,1.19.52c.49,1.28,0,2.53-.26,2A12.82,12.82,0,0,1,55,46.27Zm33.72-7.1V10.72a200.43,200.43,0,0,0-40.17,0V39.17c1.83,19.28,19.92,21.55,20.09,21.52,3.23-.58,18.4-3.63,20.08-21.52ZM99.4,46.06a13.14,13.14,0,0,0,5.81,11.23A17.92,17.92,0,0,0,115.39,60a24,24,0,0,0,6.46-.94,8.5,8.5,0,0,1,1.44-.4,15.49,15.49,0,0,0,2-5.6.86.86,0,0,0-1.06-.16,8.74,8.74,0,0,1-8.55,5.84c-6.71,0-12.15-4.74-12.15-13.31S108.81,33,115.06,33c5.93,0,7.78,3.19,8.39,6a.85.85,0,0,0,1.1-.08c-.32-2.49-.53-5.06-.57-6a3.12,3.12,0,0,1-1.14-.16,31.24,31.24,0,0,0-7.24-1,17.65,17.65,0,0,0-11,3.47A13.55,13.55,0,0,0,99.4,46.06ZM111,10.69v0l0,0c-.07-.13-.26-.14-.31-.14a.52.52,0,0,0-.17,0l0,0,0,0c-.22.38-.31.41-1.22.41h-7c-.77,0-1.11,0-1.18-.42v0l0,0a.29.29,0,0,0-.23-.07.53.53,0,0,0-.25.06l0,0v0a18.29,18.29,0,0,1-.64,2.52l0,0,0,.05a.48.48,0,0,0,.64.16l0,0v0a3.15,3.15,0,0,1,.74-1.13,3.42,3.42,0,0,1,2-.39h.93c.39,0,.39,0,.39.41v7.61c0,1.84-.11,1.92-.94,2l-.61,0-.06,0a.42.42,0,0,0,0,.65H103c1,0,1.67,0,2.36,0s1.22,0,2.23,0h.07a.38.38,0,0,0,.16-.33.32.32,0,0,0-.12-.32l-.6-.07c-.85-.08-.91-.19-.91-2V12.14a1,1,0,0,1,0-.37,1,1,0,0,1,.34,0h1.21a3.31,3.31,0,0,1,1.9.4,2,2,0,0,1,.37,1.15v0l0,0a.39.39,0,0,0,.31.12.37.37,0,0,0,.35-.18l0,0v0a10.37,10.37,0,0,1,.26-2.54Zm14,9.07V13.64c0-1.82,0-1.93.91-2l.35,0,.06,0a.35.35,0,0,0,.12-.33.4.4,0,0,0-.17-.33h-.06c-.82,0-1.39,0-2,0s-1.33,0-2,0h-.06a.4.4,0,0,0-.17.33.35.35,0,0,0,.12.33l.38,0c.87.09.92.2.92,2v1.95c0,.41,0,.41-.72.41h-4.87c-.73,0-.73,0-.73-.41V13.64c0-1.82,0-1.93.91-2l.32,0,.06,0a.35.35,0,0,0,.12-.33.4.4,0,0,0-.17-.33h-.06c-.78,0-1.35,0-2,0-.45,0-.84,0-1.26,0l-.89,0H114a.38.38,0,0,0-.16.33.37.37,0,0,0,.11.33h0l.48,0c.75.06.88.21.88,2v6.12c0,1.77,0,1.85-.88,2l-.33.06,0,0a.42.42,0,0,0-.1.37.35.35,0,0,0,.16.26h.06l.69,0c.4,0,.82,0,1.29,0,.64,0,1.18,0,2.16,0h.06a.42.42,0,0,0,.17-.33.34.34,0,0,0-.12-.32l-.55-.07c-.82-.09-.93-.17-.93-2v-2.4c0-.41,0-.41.73-.41h4.87c.72,0,.72,0,.72.41v2.4c0,1.81,0,1.85-.93,2l-.36.06,0,0a.42.42,0,0,0-.1.37.35.35,0,0,0,.16.26h.07c.81,0,1.41,0,2,0s1.27,0,2.06,0h.06a.37.37,0,0,0,.17-.33.33.33,0,0,0-.12-.32l-.46-.07c-.87-.11-.91-.2-.91-2Zm14.25.26v-.08a.45.45,0,0,0-.4-.23.38.38,0,0,0-.22.06l0,.05a4,4,0,0,1-1.16,1.59,5,5,0,0,1-2.12.24c-1.42,0-1.79-.17-2-.35s-.29-.81-.29-1.68v-2.4c0-.32,0-.32.44-.32h1a5.75,5.75,0,0,1,1.28.08c.23.06.35.21.43.55l.15.66,0,0a.4.4,0,0,0,.32.13.39.39,0,0,0,.34-.16v-.07c0-.16,0-.38,0-.63s0-.66,0-1,0-.72,0-1,0-.5,0-.68v-.06a.39.39,0,0,0-.34-.16.39.39,0,0,0-.32.12l-.17.76c-.07.39-.17.44-.32.49a6.22,6.22,0,0,1-1.4.1h-1c-.44,0-.44,0-.44-.35v-3.4c0-.55,0-.55.39-.55h1.22a8.21,8.21,0,0,1,1.62.1c.78.19.94.68,1.17,1.43l0,.1,0,0a.36.36,0,0,0,.28.11.46.46,0,0,0,.36-.15l0,0,0-.25A15.33,15.33,0,0,0,137.9,11l0-.11-.12,0c-.19,0-1.24,0-2.27,0h-3.2c-.66,0-1.22,0-2,0h-.06c-.14.07-.16.27-.17.33a.37.37,0,0,0,.12.33l.33,0c.87.1.93.22.93,2v6.12c0,1.84-.11,1.92-.94,2l-.61,0,0,0a.42.42,0,0,0-.1.37.35.35,0,0,0,.16.26H130c1,0,1.57,0,2.31,0h1.53c1.49,0,3,0,4.57,0h.08l0-.07a15,15,0,0,0,.78-2.4Zm1.65,13.3a.8.8,0,0,0-.09-1c-1.75.08-3.15.12-4.74.12-1.76,0-3.15-.08-5.16-.12a.81.81,0,0,0-.08,1l1.07.08c2.12.16,2.41.86,2.41,5.14v14.7c0,4.29-.08,4.7-2.37,5.11l-.7.12a.8.8,0,0,0,.08,1c1.6,0,3-.12,4.75-.12,1.59,0,3,0,5.19.12.25-.12.33-.86.09-1l-1.19-.12c-2.29-.25-2.5-.82-2.5-5.11V47.49c0-1.23.09-1.31,2-1.31h11.7c2,0,2,.08,2,1.31v5.75c0,4.29,0,4.7-2.49,5.11l-.78.12a.8.8,0,0,0,.08,1c1.8-.08,3.28-.12,4.95-.12s3,0,5,.12c.25-.12.33-.86.08-1l-1-.12c-2.37-.29-2.45-.82-2.45-5.11V38.54c0-4.28.08-4.9,2.45-5.14l.86-.08c.25-.17.17-.9-.08-1-1.84.08-3.23.12-4.83.12s-3.07,0-4.95-.12a.81.81,0,0,0-.08,1l.78.08c2.41.24,2.49.86,2.49,5.14v4.7c0,1.27-.08,1.31-2,1.31h-11.7c-2,0-2,0-2-1.31v-4.7c0-4.28.09-4.9,2.46-5.14l.78-.08Zm19.59-21.8a.44.44,0,0,0,.09-.35.34.34,0,0,0-.16-.25l0,0h0c-.59,0-1.05,0-1.78,0s-1.29,0-1.94,0h0l0,0a.4.4,0,0,0-.15.27.38.38,0,0,0,.09.33l0,.05.48,0c.4,0,.66.14.75.3a10.67,10.67,0,0,1,.31,3.45v2c0,2-.57,4.39-3.28,4.39-2.27,0-3.33-1.4-3.33-4.41V13.62c0-1.81.06-1.94.9-2l.45,0,0,0a.35.35,0,0,0,.11-.32.38.38,0,0,0-.16-.32h-.07c-.8,0-1.38,0-2.09,0s-1.3,0-2.1,0h-.07a.4.4,0,0,0-.17.32.35.35,0,0,0,.12.32l0,0,.46,0c.84.08.9.21.9,2v4c0,2.06.43,3.33,1.38,4.12a4.93,4.93,0,0,0,3.27,1,4.63,4.63,0,0,0,3.35-1.28A5.85,5.85,0,0,0,159,17.28V15.35a15.44,15.44,0,0,1,.23-3.41.88.88,0,0,1,.74-.34l.46,0,0-.05Zm15.28,0a.46.46,0,0,0,.11-.35.41.41,0,0,0-.17-.28l0,0h0c-.56,0-1,0-1.75,0s-1.17,0-2,0h-.05a.31.31,0,0,0-.19.25.43.43,0,0,0,.12.4l0,0,.33,0c.58.07.88.16,1,.28a10.5,10.5,0,0,1,.32,3.45V19c0,.17,0,.36,0,.49-.59-.61-1.21-1.3-2-2.16l-2.37-2.66A18.94,18.94,0,0,1,166.19,11l0-.09h-.1a5.74,5.74,0,0,1-.77,0c-.3,0-1.2,0-1.91,0h-.07a.35.35,0,0,0-.17.26.42.42,0,0,0,.1.38l0,0,.34,0a1.66,1.66,0,0,1,1,.37,1.41,1.41,0,0,1,.34,1.13V18.2a15.29,15.29,0,0,1-.21,3.29c0,.09-.18.21-.64.27l-.51,0,0,0a.45.45,0,0,0,0,.62l0,0h0c.6,0,1,0,1.77,0s1.15,0,2,0h0l0,0a.4.4,0,0,0,.15-.26.45.45,0,0,0-.09-.35l0-.05-.59,0c-.41,0-.7-.13-.77-.26a11.77,11.77,0,0,1-.28-3.46V14.33a7.59,7.59,0,0,1,0-.86c.27.3.72.84,1.13,1.32l.7.82,4,4.49c1.31,1.49,1.94,2.23,2.17,2.56l0,.05H174a.42.42,0,0,0,.44-.27v-.06c0-.2-.05-.87-.05-3v-4.3a12.56,12.56,0,0,1,.24-3.21c0-.05.23-.19.86-.29l.28,0,0,0Zm-2.11,41.61V38.63c0-4.33.08-5,2.5-5.23l1-.08a.81.81,0,0,0-.08-1c-2.05.08-3.44.12-5.08.12s-3.1,0-5.15-.12c-.24.12-.33.85-.08,1l1,.08c2.41.2,2.5.9,2.5,5.23V53.16c0,4.33-.09,4.9-2.5,5.19l-1,.12a.79.79,0,0,0,.08,1c2.05-.08,3.44-.12,5.15-.12s3,0,5.08.12c.24-.12.32-.86.08-1l-1-.12c-2.42-.29-2.5-.86-2.5-5.19Zm8.56-33.43V13.67c0-1.84.06-2,.92-2.05l.46,0h0a.35.35,0,0,0,.12-.33.4.4,0,0,0-.17-.33h-.06c-.8,0-1.41,0-2.11,0s-1.31,0-2.14,0h-.06a.4.4,0,0,0-.17.33.35.35,0,0,0,.12.33h0l.46,0c.86.07.92.21.92,2.05v6.06c0,1.83-.05,1.92-.93,2l-.47,0,0,0a.41.41,0,0,0-.09.37.35.35,0,0,0,.16.26h.06c.87,0,1.44,0,2.14,0s1.26,0,2.11,0h.06a.37.37,0,0,0,.17-.33.33.33,0,0,0-.12-.32l-.48-.07c-.88-.11-.92-.2-.92-2Zm5.23,15.51a13.56,13.56,0,0,0-5.16,10.82,13.17,13.17,0,0,0,5.81,11.23A18,18,0,0,0,198.31,60a24,24,0,0,0,6.46-.94,8.39,8.39,0,0,1,1.43-.4,15.3,15.3,0,0,0,2-5.6.85.85,0,0,0-1.06-.16,8.72,8.72,0,0,1-8.55,5.84c-6.71,0-12.15-4.74-12.15-13.31S191.72,33,198,33c5.93,0,7.77,3.19,8.38,6a.86.86,0,0,0,1.11-.08c-.33-2.49-.53-5.06-.57-6a3.17,3.17,0,0,1-1.15-.16,31.09,31.09,0,0,0-7.24-1,17.62,17.62,0,0,0-11,3.47Zm11.12-23.69a.46.46,0,0,0,.1-.37.34.34,0,0,0-.16-.26l0,0h0c-.57,0-1.09,0-1.65,0s-1.31,0-1.76,0h0l0,0a.37.37,0,0,0-.18.3.41.41,0,0,0,.12.34l0,0,.35,0c.59.07.65.19.65.19a1.87,1.87,0,0,1-.14.62c-.3.74-1.11,2.69-1.59,3.81l-.46,1.08c-.32.76-.72,1.7-1,2.43-.81-1.85-1.55-3.71-2.3-5.6a21.45,21.45,0,0,1-.84-2.34c0-.05.17-.12.68-.19l.3,0,0,0a.39.39,0,0,0,.11-.34.36.36,0,0,0-.17-.3l0,0h0c-.76,0-1.35,0-2.06,0s-1.25,0-1.76,0h0l0,0a.43.43,0,0,0-.05.64l0,0,.35,0c.66.08.89.38,1.27,1.32l3,7.38a18.63,18.63,0,0,1,.78,2.25l0,.06.06,0a.8.8,0,0,0,.3.06.5.5,0,0,0,.27-.07l0,0,0-.05c.29-.91,1.11-2.92,1.76-4.43l.93-2.09a39.26,39.26,0,0,1,1.9-3.9.94.94,0,0,1,.78-.53l.56,0,0,0ZM210.29,20v0l0,0a.45.45,0,0,0-.4-.23.38.38,0,0,0-.22.06l0,.05a4.05,4.05,0,0,1-1.16,1.59,5,5,0,0,1-2.12.24c-1.42,0-1.78-.17-2-.35s-.29-.81-.29-1.68v-2.4c0-.32,0-.32.43-.32h1a5.75,5.75,0,0,1,1.28.08c.23.06.36.21.43.55l.15.66,0,0a.4.4,0,0,0,.32.13.39.39,0,0,0,.34-.16v-.07c0-.16,0-.38,0-.63s0-.66,0-1,0-.72,0-1,0-.5,0-.68v-.06a.39.39,0,0,0-.34-.16.39.39,0,0,0-.32.12l-.17.76c-.07.39-.17.44-.32.49a6.22,6.22,0,0,1-1.4.1h-1c-.43,0-.43,0-.43-.35v-3.4c0-.55,0-.55.38-.55h1.22a8.39,8.39,0,0,1,1.63.1c.77.19.93.68,1.17,1.43l0,.1,0,0a.36.36,0,0,0,.28.11.46.46,0,0,0,.36-.15l0,0,0-.25a15.33,15.33,0,0,0-.26-2.09l0-.11-.12,0c-.19,0-1.24,0-2.26,0h-3.21c-.66,0-1.22,0-2,0h-.07c-.14.07-.16.27-.17.33a.37.37,0,0,0,.12.33l.33,0c.87.1.93.22.93,2v6.12c0,1.84-.11,1.92-.94,2l-.61,0,0,0a.42.42,0,0,0-.1.37.35.35,0,0,0,.16.26H201c1,0,1.57,0,2.31,0h1.53c1.49,0,3,0,4.57,0h.08l0-.07a15,15,0,0,0,.78-2.4Zm8.81-3.83a2.86,2.86,0,0,1-1.68.41,5.71,5.71,0,0,1-1.08-.05,2.77,2.77,0,0,1,0-.47v-4c0-.38,0-.41,1-.41a2.39,2.39,0,0,1,2.6,2.49,2.37,2.37,0,0,1-.8,2Zm5.13,6.33a.32.32,0,0,0,.11-.27.29.29,0,0,0-.16-.2h0a2,2,0,0,1-1.1-.45,18.76,18.76,0,0,1-3.4-4.5.68.68,0,0,1-.1-.23,3.29,3.29,0,0,0,2.17-3,2.65,2.65,0,0,0-1.48-2.49,6.16,6.16,0,0,0-2.91-.53c-1.56,0-2.77,0-3.81.14h0a.35.35,0,0,0-.18.29.43.43,0,0,0,.14.36l0,0,.58.07c.55.07.63.19.63,1.86v6.11c0,1.8,0,1.89-.9,2l-.48,0,0,0a.48.48,0,0,0-.09.39.34.34,0,0,0,.16.24h.07c.75,0,1.37,0,2.12,0s1.3,0,2,0h.07c.12-.06.15-.23.16-.29a.39.39,0,0,0-.1-.35l0,0-.4,0c-.87-.12-.91-.2-.91-2V17.62c0-.25,0-.25.67-.25s.88.16,1.11.49.56.85.85,1.31.59.94.82,1.26c1.17,1.66,2,2.2,3.63,2.2a2.67,2.67,0,0,0,.79-.09l0,0Zm4.3-9.29c0-.66.24-1.76,1.89-1.76a2.1,2.1,0,0,1,2.2,1.82l0,.05a.33.33,0,0,0,.26.11.5.5,0,0,0,.38-.17l0,0v0a7.45,7.45,0,0,0-.32-2.12l0-.09h-.09a2,2,0,0,1-.56-.1,7.38,7.38,0,0,0-1.62-.22c-2.16,0-3.61,1.23-3.61,3.06a3.79,3.79,0,0,0,1.9,3l1.62,1.06a2.43,2.43,0,0,1,1.34,2.27,1.82,1.82,0,0,1-2,1.83,3,3,0,0,1-2.81-2.45v0a.3.3,0,0,0-.26-.12.45.45,0,0,0-.37.17l0,0v0a8.06,8.06,0,0,0,.47,2.44l0,0,0,0a5.58,5.58,0,0,0,2.73.64c2.25,0,3.76-1.31,3.76-3.27a3.92,3.92,0,0,0-2.19-3.38l-1.37-.85a2.59,2.59,0,0,1-1.38-2Zm-1.67,34h-5c-1.15,0-1.19,0-.86-1l2.57-7.1a24.78,24.78,0,0,1,1-2.41h.09c.24.49.61,1.59.94,2.57L227.76,46c.37,1.1.28,1.26-.9,1.26Zm10.55,11.11c-1.76-.21-2.29-.82-3.48-4.33l-5.6-16.42c-.61-1.79-1.27-3.67-1.8-5.47a.58.58,0,0,0-.61-.36,4.64,4.64,0,0,1-2.13,1.55,5.83,5.83,0,0,1-.7,2.9l-4.17,11c-1.72,4.58-2.86,7.23-3.6,9.11a2.71,2.71,0,0,1-2.45,2l-1.35.12a.79.79,0,0,0,.08,1c1.1,0,2.58-.12,3.93-.12,1.92,0,3.19,0,4.25.12a.65.65,0,0,0,.08-1l-1.35-.12c-1-.08-1.18-.33-1.18-.82a15.22,15.22,0,0,1,.9-3.39l1.43-4.28c.28-.86.53-1,1.55-1h6.18c1.22,0,1.39.12,1.68,1l1.8,5.55a8.62,8.62,0,0,1,.53,2.16c0,.41-.58.66-1.43.74l-1.19.12a.68.68,0,0,0,.08,1c1.19,0,2.74-.12,4.71-.12s3.27,0,4.94.12a.79.79,0,0,0,0-1l-1.1-.12Zm2.81-38.62V13.67c0-1.86.05-2,.92-2.05l.46,0h0a.37.37,0,0,0,.11-.33.38.38,0,0,0-.16-.33h-.07c-.8,0-1.41,0-2.1,0s-1.32,0-2.15,0h-.06c-.14.07-.16.27-.17.33a.37.37,0,0,0,.12.33h0l.46,0c.87.07.92.19.92,2.05v6.06c0,1.83,0,1.92-.93,2l-.47,0,0,0a.41.41,0,0,0-.09.37.35.35,0,0,0,.16.26h.06c.87,0,1.44,0,2.15,0s1.24,0,2.1,0h.07a.38.38,0,0,0,.16-.33.35.35,0,0,0-.11-.32l-.49-.07c-.88-.11-.92-.2-.92-2Zm15.54-9v0l0,0c-.06-.13-.24-.14-.31-.14a.44.44,0,0,0-.16,0l-.05,0,0,0c-.22.38-.31.41-1.22.41h-7c-.76,0-1.11,0-1.18-.42v0l0,0a.33.33,0,0,0-.24-.07.53.53,0,0,0-.25.06l-.05,0v0a17.93,17.93,0,0,1-.64,2.52l0,0,0,.05a.48.48,0,0,0,.64.16l0,0,0,0a3,3,0,0,1,.73-1.13,3.44,3.44,0,0,1,2-.39h.94c.38,0,.38,0,.38.41v7.61c0,1.84-.11,1.92-.94,2l-.61,0-.06,0a.42.42,0,0,0,0,.65h.06c1,0,1.67,0,2.37,0s1.21,0,2.22,0h.07a.38.38,0,0,0,.16-.33.35.35,0,0,0-.11-.32l-.61-.07c-.85-.08-.9-.19-.9-2V12.13a1.44,1.44,0,0,1,0-.36,1,1,0,0,1,.34,0h1.21a3.31,3.31,0,0,1,1.9.4,2,2,0,0,1,.37,1.15v0l0,0a.39.39,0,0,0,.31.12.37.37,0,0,0,.35-.18l0,0v0a9.86,9.86,0,0,1,.25-2.54Zm7,21.69a24,24,0,0,0-5.19-.61c-6.18,0-10.23,1.91-13,4.77a14,14,0,0,0-3.68,9.68,12.86,12.86,0,0,0,3.76,9.27c3.15,3.19,7.61,4.53,12.48,4.53A32.11,32.11,0,0,0,264.45,59a9.48,9.48,0,0,1,2-.37.32.32,0,0,0,0-.49c-.73-.28-1-1.26-1-2.89V52.92c0-2.08,0-3.23,1.76-3.43l.66-.08a.72.72,0,0,0,0-1c-1.35.08-2.75.12-4.34.12-2.41,0-4.66,0-5.85-.12a.68.68,0,0,0,0,1l1.8.2c2.54.29,2.66.53,2.66,4v1.64a4.55,4.55,0,0,1-.41,2.32c-.45.7-2,1.23-4.5,1.23-8.22,0-12.27-6.17-12.27-14C245,38.63,248.46,33,256.39,33c4.17,0,7.24,1.39,8.39,5.8.24.24,1,.2,1.1-.12a45.52,45.52,0,0,1-.61-5.92,11.16,11.16,0,0,1-2.54-.37Zm6-20.82a.41.41,0,0,0-.05-.64l0,0h0a24.56,24.56,0,0,1-3.21,0h-.07a.38.38,0,0,0-.18.27.42.42,0,0,0,.12.37l0,0,.35,0a1.43,1.43,0,0,1,.6.17,20.08,20.08,0,0,1-1,2l-.07.15c-.41.79-.89,1.64-1.49,2.67-.45-.81-.88-1.7-1.31-2.56-.16-.34-.33-.68-.5-1a9.18,9.18,0,0,1-.51-1.25s.08-.11.6-.18l.27,0,0,0a.45.45,0,0,0,.09-.41.28.28,0,0,0-.2-.23h-.05c-.42,0-1,0-1.81,0s-1.41,0-2,0h0l0,0a.32.32,0,0,0-.16.25.43.43,0,0,0,.09.37l0,0,.52.09c.46.08.68.11,1.26,1.22l2,3.92a3.28,3.28,0,0,1,.53,2.05v.87c0,1.84,0,1.94-.91,2l-.57,0,0,0a.45.45,0,0,0-.09.37.35.35,0,0,0,.16.26h.07c.92,0,1.51,0,2.22,0s1.31,0,2.32,0h.06a.35.35,0,0,0,.16-.26.44.44,0,0,0-.09-.38l0,0-.69,0c-.79-.06-.9-.19-.9-2v-.89a3.78,3.78,0,0,1,.78-2.69L266,14.3c.1-.17.2-.33.28-.49.68-1.17,1.16-2,1.88-2.14l.52-.09,0,0Zm9,33.31c0-8.94,5.52-11.84,9.78-11.84,7.81,0,10.8,7.27,10.8,14,0,8-4.67,11.72-9.57,11.72-8.06,0-11-7.84-11-13.89Zm-4.09,1.31c0,7.35,5.48,13.84,14.56,13.84a14,14,0,0,0,14.2-14.25c0-7.19-4.75-14-14.2-14a14.12,14.12,0,0,0-14.56,14.41Zm13.94-29c0,3.51-2.07,4.76-3.85,4.76-3.52,0-4.46-3.56-4.46-5.66,0-3.54,2.13-4.8,4-4.8,3.22,0,4.36,3.07,4.36,5.7Zm2-.52a5.75,5.75,0,0,0-6.05-6,6,6,0,0,0-6.19,6.14,5.84,5.84,0,0,0,6.19,5.89,5.92,5.92,0,0,0,6.05-6.06ZM301,13.34l0,0v0c0-.62-.05-1.41-.05-2.24v-.16l-.16,0c-.2,0-1.25,0-2.27,0h-3.14c-.64,0-1.21,0-2,0h-.06c-.14.07-.16.27-.17.33a.37.37,0,0,0,.12.33l.33,0c.87.1.91.2.91,2v6.12c0,1.8,0,1.89-.91,2l-.47,0,0,0a.48.48,0,0,0-.1.38.35.35,0,0,0,.16.26h.07c.8,0,1.37,0,2.12,0s1.28,0,2.27,0h.06a.42.42,0,0,0,.17-.33.34.34,0,0,0-.12-.32l-.64-.07c-.87-.08-.92-.19-.92-2V17.39c0-.32,0-.32.43-.32h1.16a6.42,6.42,0,0,1,1.27.07.7.7,0,0,1,.46.56l.18.7,0,0a.5.5,0,0,0,.64,0l0,0v0q0-.27,0-.66c0-.3,0-.65,0-1s0-.71,0-1,0-.5,0-.69v0l0,0a.42.42,0,0,0-.33-.14.44.44,0,0,0-.33.13l-.18.73c-.09.42-.21.46-.34.5a6.29,6.29,0,0,1-1.4.1h-1.16c-.43,0-.43,0-.43-.33V12.29c0-.55,0-.55.38-.55h1a7.12,7.12,0,0,1,1.62.1c.73.19.95.68,1.09,1.51v.05l0,0a.4.4,0,0,0,.26.08.39.39,0,0,0,.35-.17Z"/><path class="cls-2" d="M49.31,74.67a4.71,4.71,0,0,1,4.81-4.87,4.21,4.21,0,0,1,3.61,1.87l-1,.55a3.22,3.22,0,0,0-2.63-1.37,3.83,3.83,0,0,0,0,7.64,3.17,3.17,0,0,0,2.63-1.37l1,.55a4.27,4.27,0,0,1-3.63,1.87A4.71,4.71,0,0,1,49.31,74.67Z"/><path class="cls-2" d="M59.25,70h6.17v1h-5v3h4.9v1h-4.9v3.24h5v1.05H59.25Z"/><path class="cls-2" d="M68.46,71.78v7.59H67.29V70h1.2l5.43,7.43V70h1.17v9.41H74Z"/><path class="cls-2" d="M79.63,71h-3V70h7.15v1h-3v8.37H79.63Z"/><path class="cls-2" d="M85.35,70h6.17v1h-5v3h4.91v1H86.52v3.24h5v1.05H85.35Z"/><path class="cls-2" d="M96.44,75.63H94.56v3.74H93.39V70h3.79a2.74,2.74,0,0,1,2.95,2.83,2.6,2.6,0,0,1-2.44,2.74l2.54,3.84H98.84ZM97,71H94.56v3.6H97A1.8,1.8,0,1,0,97,71Z"/><path class="cls-2" d="M105.63,70h6.17v1h-5v3h4.9v1h-4.9v4.29h-1.17Z"/><path class="cls-2" d="M117.7,69.8A4.87,4.87,0,1,1,113,74.67,4.6,4.6,0,0,1,117.7,69.8Zm0,1c-2.12,0-3.47,1.62-3.47,3.82s1.35,3.82,3.47,3.82,3.46-1.63,3.46-3.82S119.8,70.85,117.7,70.85Z"/><path class="cls-2" d="M127.26,75.63h-1.88v3.74h-1.17V70H128A2.74,2.74,0,0,1,131,72.79a2.6,2.6,0,0,1-2.44,2.74l2.54,3.84h-1.39Zm.6-4.63h-2.48v3.6h2.48a1.8,1.8,0,1,0,0-3.6Z"/><path class="cls-2" d="M136.45,70h3.22a4.71,4.71,0,1,1,0,9.41h-3.22Zm3.22,8.36a3.66,3.66,0,0,0,0-7.32h-2v7.32Z"/><path class="cls-2" d="M151.75,77.28H147l-.84,2.09h-1.3L148.63,70h1.46l3.8,9.41h-1.3Zm-4.43-1h4.08l-2-5.24Z"/><path class="cls-2" d="M156.5,71h-3V70h7.15v1h-3v8.37H156.5Z"/><path class="cls-2" d="M167.21,77.28h-4.77l-.84,2.09h-1.3L164.09,70h1.46l3.8,9.41h-1.3Zm-4.43-1h4.08l-2-5.24Z"/><path class="cls-2" d="M174.22,70h1.18v9.41h-1.18Z"/><path class="cls-2" d="M178.77,71.78v7.59H177.6V70h1.2l5.43,7.43V70h1.17v9.41h-1.13Z"/><path class="cls-2" d="M189.94,71h-3V70h7.16v1h-3v8.37h-1.17Z"/><path class="cls-2" d="M195.66,70h6.18v1h-5v3h4.91v1h-4.91v3.24h5v1.05h-6.18Z"/><path class="cls-2" d="M204.87,71.78v7.59H203.7V70h1.2l5.43,7.43V70h1.17v9.41h-1.13Z"/><path class="cls-2" d="M213.83,77.15a4,4,0,0,0,3,1.34c1.68,0,2.22-.9,2.22-1.62,0-1.13-1.15-1.44-2.39-1.78-1.51-.39-3.19-.81-3.19-2.66,0-1.55,1.38-2.61,3.23-2.61A4.45,4.45,0,0,1,220,71.13l-.7.86a3.61,3.61,0,0,0-2.73-1.13c-1.13,0-1.94.61-1.94,1.5s1.09,1.22,2.29,1.55c1.54.41,3.29.89,3.29,2.86,0,1.37-.93,2.77-3.47,2.77a4.66,4.66,0,0,1-3.62-1.5Z"/><path class="cls-2" d="M222,70h1.17v9.41H222Z"/><path class="cls-2" d="M224.39,70h1.34l3.18,8.12L232.09,70h1.34l-3.8,9.41h-1.45Z"/><path class="cls-2" d="M234.66,70h6.18v1h-5v3h4.9v1h-4.9v3.24h5v1.05h-6.18Z"/><path class="cls-2" d="M246.48,77.15a4,4,0,0,0,3,1.34c1.69,0,2.22-.9,2.22-1.62,0-1.13-1.14-1.44-2.39-1.78-1.51-.39-3.19-.81-3.19-2.66,0-1.55,1.39-2.61,3.24-2.61a4.45,4.45,0,0,1,3.35,1.31L252,72a3.61,3.61,0,0,0-2.73-1.13c-1.13,0-1.93.61-1.93,1.5s1.08,1.22,2.29,1.55c1.54.41,3.29.89,3.29,2.86,0,1.37-.93,2.77-3.48,2.77a4.66,4.66,0,0,1-3.62-1.5Z"/><path class="cls-2" d="M254.25,74.67a4.7,4.7,0,0,1,4.8-4.87,4.25,4.25,0,0,1,3.62,1.87l-1,.55a3.19,3.19,0,0,0-2.63-1.37,3.83,3.83,0,0,0,0,7.64,3.14,3.14,0,0,0,2.63-1.37l1,.55a4.3,4.3,0,0,1-3.64,1.87A4.7,4.7,0,0,1,254.25,74.67Z"/><path class="cls-2" d="M264.18,70h1.18v9.41h-1.18Z"/><path class="cls-2" d="M267.56,70h6.18v1h-5v3h4.91v1h-4.91v3.24h5v1.05h-6.18Z"/><path class="cls-2" d="M276.78,71.78v7.59H275.6V70h1.2l5.43,7.43V70h1.17v9.41h-1.13Z"/><path class="cls-2" d="M285.23,74.67A4.7,4.7,0,0,1,290,69.8a4.25,4.25,0,0,1,3.62,1.87l-1,.55A3.2,3.2,0,0,0,290,70.85a3.83,3.83,0,0,0,0,7.64,3.15,3.15,0,0,0,2.63-1.37l1,.55A4.27,4.27,0,0,1,290,79.54,4.7,4.7,0,0,1,285.23,74.67Z"/><path class="cls-2" d="M295.16,70h6.18v1h-5v3h4.91v1h-4.91v3.24h5v1.05h-6.18Z"/></svg>