<svg id="Isolation_Mode" data-name="Isolation Mode" xmlns="http://www.w3.org/2000/svg" viewBox="0 0 157.81 92.96"><defs><style>.cls-1{fill:#f5f4f4;fill-rule:evenodd;}</style></defs><title>background-map</title><path class="cls-1" d="M40,55.76a.39.39,0,0,0,0,.56c0,.29-.28.85-.56.85,0,.29-.28.29,0,.57,0,.28-.57.56-.57.56-.28.29-.28.85-.56.85-.29.29-.29.85,0,.85.28.29.56.85.28.85-.57.29-.57.85-.28.85,0,.28.28,1.13.56,1.13.29.29.57,1.42.85,1.7,0,.57.57,1.7.57,2.27a1.26,1.26,0,0,0,.84.84c0,.29.85.85,1.14,1.14.28,0,.84.28.84,1.41a26.47,26.47,0,0,0-.28,4.25c0,.56-.28.85-.28,1.13-.28,0-.28.57-.28,1.13.28.28.28,1.42-.29,2.83a14.72,14.72,0,0,0-.28,2.83,2.91,2.91,0,0,0-.28.85c0,.28.28.85.28,1.13a1.28,1.28,0,0,1,0,1.42v.56c0,.29-.28.57-.28.85-.29,0-.29.85-.29,1.7a11.11,11.11,0,0,1,.57,2s0,1.14.28,1.42c.29,0,0,.56,1.13.56h1.14c0,.29.56,0,.84,0,.57,0,.29-.28-.28-.28-.28-.28-.85-.56-.85-.85a1,1,0,0,1-.28-.85c-.28-.28-.57-.85,0-1.13a4.79,4.79,0,0,0,1.13-2c.28-.28,0-.28-.28-.28s-.57-.85.28-1.42c.85-.28.57-1.7.57-2a.52.52,0,0,1,0-.85c0-.28.56.57,1.13,0,.28-.28,0-1.13,0-1.13.28-.28,1.41.85,2.26-.85.57-.85-.28-1.41-.57-1.7,0-.28-.56-.85-.56-.85.28-.28.85.29,1.13.57.57.28,1.13.57,1.41,0s.57-.57.57-1.13a1.24,1.24,0,0,1,.28-.85c.28.28.57-.29.85-.85s.85-1.13.57-1.7A1,1,0,0,1,53,73.31c.57-.29.28-.57.57-.57s.56,0,.56-.28a1.39,1.39,0,0,1,.85-.29s.85,0,.85-.56a4.06,4.06,0,0,1,.56-1.7c.29-.28.29-1.42.29-2s-.29-1.13.28-1.7a3,3,0,0,0,.85-1.13c.28-.57.85-.57.85-1.7s-.29-1.7-.57-1.42A1.48,1.48,0,0,1,57,61.42c-.28-.57-.57-.85-.85-.85,0,0-.56.57-.85,0-.28-.28-.56-.28-.56,0-.28,0-.28,0-.28-.57s-.57-.56-.85-.56-.57-.29-.85-.29c-.28-.28-.57-.28-1.13,0-.29.29-.57,0-.29-.28s.85-.85.57-1.13c0-.28-.28,0-.28-.85,0-.57-.85-1.13-1.7-1.13-1.13-.29-1.7-.57-1.7-.85-.28-.28-.28-.57-.84-.85-.85-.28-.85-1.13-1.42-1.13s-1.41.56-1.41,0c0-.29-.57.28-.85-.29-.28-.28-.85-.28-.85,0-.28.57,0,1.14-.56,1.14-.29,0-.29-.29,0-.85,0-.57.28-.85,0-.85s-.29.56-.57.56c-.57,0-.85,0-1.13.57,0,.57-.85.57-.85,1.42.28.56.57.56.28,1.13Z"/><path class="cls-1" d="M69.68,39.62c-.29.29-.29,1.14-.29,1.14.29.28.29.56,0,1.13-.28.28-.56.56-.85.56s-.28-.28-.84.85a10.88,10.88,0,0,1-1.42,3.12c-.28,0,0,.56.29.56v1.14c0,.28.56,1.13,0,1.41-.29.57-.85,1.13-.57,1.13a3.09,3.09,0,0,1,.57,1.42c0,.28.56.56.84.85s.85.85.57,1.13,0,.57.28.85,1.42.85,1.42,1.13c.28.28.28.57,1.13.57a6,6,0,0,1,2.26-.29c.28,0,.56-.28.85-.56.28,0,.56-.57,1.13-.57.56.28,1.13.28,1.13.85,0,.28,0,.57.85.28.85,0,1.13.29,1.13.57.28.28,0,1.13,0,1.41,0,.57-.57.85-.28,1.42S79,61.14,79,61.42s.56.56.56.85c0,.56.57,1.13.29,1.7,0,.56,0,.84.28,1.13s0,.56-.28,1.13a3,3,0,0,0-.57,1.7c0,.85-.28,1.41.28,1.7a2.74,2.74,0,0,1,.29,1.13c0,.28.84.56.56,1.41A3.8,3.8,0,0,0,81,74.72a11.36,11.36,0,0,1,.56,1.7c0,.56,0,.56.29.85.28,0,.28.56.28.56a.54.54,0,0,0,0,.85c.28.29.28,1.14,1.13.85A2.4,2.4,0,0,1,85,79a2.34,2.34,0,0,0,2-1.14c.84-1.41,1.69-3.11,2-3.11,0-.28.28-.57-.29-.57-.28,0,0-.84.29-.84A1.68,1.68,0,0,0,90,73c.28-.56,0-1.41,0-1.7a2.07,2.07,0,0,1-.57-1.13l.57-.56a.9.9,0,0,0,.84-.85c.29-.29,1.14,0,1.42-1.14a6.58,6.58,0,0,0-.57-3.39,3.63,3.63,0,0,1-.28-1.7,2.68,2.68,0,0,1,.57-2c.28-.57.84-1.13,1.41-2a13.2,13.2,0,0,0,2-2,7.32,7.32,0,0,0,.56-2,9.25,9.25,0,0,0,1.14-1.7c0-.57,0-1.13-.57-.85s-1.41.28-2,.56c-.28,0-.85.57-1.13-.28a4.67,4.67,0,0,0-.85-1.7c-.56-.56-1.13-.85-1.13-1.41s-.57-.85-.57-1.13c-.28,0-.28-1.14-.28-1.42s-.28-.85-.56-.85-.29-.56-.29-.85c-.28-.56-.28-1.13-.56-1.41a9.77,9.77,0,0,1-.85-1.7c.28-.28.57.56.85.56.28.29.28,0,.28-.84,0-.57-.28-1.14-.85-1.14s-.85-.28-1.13,0a2.05,2.05,0,0,1-1.41.29c-.57-.29-1.7-1.14-2.27-1.14-.28,0-.84,0-.84.57.28.28,0,1.13-.29,1.13-.28.29-.28-.56-.84-.56-.29,0-.85-1.14-1.7-1.14-.57-.28-1.7,0-1.7-.56-.28-.57,0-.57.28-.57,0,0,.29-.56,0-.56,0-.29.57-1.14,0-1.14s-1.69.57-2.54.29c-.85,0-2-.29-2.55.56a1.55,1.55,0,0,1-1.69.57,1.12,1.12,0,0,0-1.13.57,12.21,12.21,0,0,1-1.13.84Z"/><path class="cls-1" d="M124.82,71c-.28.28-1.13.57-.85.85a2.91,2.91,0,0,1-.28.85,1,1,0,0,1,.28.57,2,2,0,0,0,0,1.41,8.28,8.28,0,0,1,.85,3.11c0,.85,0,1.14.28,1.14a.87.87,0,0,0,1.13,0,1.47,1.47,0,0,1,1.13-.57c.29,0,.85.28,1.13,0a2,2,0,0,1,1.42-.85c.28,0,1.13-.28,1.41-.28h.85c.28.28.57,0,.85.28l.56,1.13c.29.29.29.29.57,0a.27.27,0,0,1,.28-.28s.29-.28.29,0a1.72,1.72,0,0,1,.28,1.13c0,.29.56,0,.56.29.29.56,0,1.13.57,1.41s.85.28,1.13.57a.89.89,0,0,0,.57-.29c.28-.28.28-.28.56,0s.29.57.57.29.28-.57.85-.57.28,0,.56-.28c0-.29-.28-.57,0-.57a1.71,1.71,0,0,0,.28-1.13,2.17,2.17,0,0,1,.57-1.13c.28-.29.57-.57.57-.85v-1.7c.28-.28,0-.57,0-.85-.29,0,0-.85-.29-1.13-.28-.57-.28-.85-.56-.85,0,0,0-.85-.29-.85-.28-.28-.28-.57-.56-.85a1,1,0,0,1-.28-.85c-.29,0-1.13,0-1.13-.56s0-1.14-.29-1.42c0,0,0-.85-.28-1.13,0,0-.57.56-.57-.28,0-.57-.28-.85-.28-1.14-.28-.28-.28-.56-.56-.28v2c0,.28-.29.57-.29.85s0,.85-.28.85-.85-.85-1.41-.85c-.29-.28-1.14-.57-.85-.85,0-.28.28-.56.28-.85.28-.28.28-.56,0-.56a1.22,1.22,0,0,1-.85-.29c-.28,0-.56,0-.56.29s-.57,0-.85,0c0,0-.28,0-.57.56,0,.57-.56.57-.28.85.28,0,.28.28,0,0a1,1,0,0,1-.85-.28c0-.28-.28-.57-.56-.28s-.57.84-.85,1.13c0,.28-.29.28-.29.56,0,0-.28.29-.28,0-.28-.28-.56,0-.56.57s0,.85-.29.85c-.56.28-.84,0-1.13.28-.28.57-.56.57-.85.57a.87.87,0,0,0-.56.28Z"/><path class="cls-1" d="M45.07,21.51c-.28.28-.28,1.13-.84.85s-.85-.57-.85-1.13c0-.29.28-.85-.29-.85s-.56-.28-1.13-.57a3.06,3.06,0,0,0-2-.56l-.28.56c0,.29-.56.85-.28,1.13.56.29.28.57,0,.85s0,.29.28.85.57,1.13,0,1.7c-.56.85-.85.85-.56,1.42.28.28.28.84.56,1.13,0,.28-.28.28-.85.56-.28.29-.56-.28-.85-.56s0-1.13-.28-1.13c-.28-.29-.28-.57-.85-.85-.28-.29-1.69-1.14-2-1.42,0-.28-.84-.28-1.13-.28-.56,0-.56-.28-.56-.57,0-.56-.29-.56-.57-.56s-.28-.57-.28-.85c0-.57,0-1.13.56-1.42.29-.28.57-.85.29-1.13,0-.28.28-.28.56-.28a1.83,1.83,0,0,0,1.42-.57,4.76,4.76,0,0,0,.56-1.41c.28-.29.28-.85.85-.57a.87.87,0,0,0,1.13,0A1,1,0,0,0,38,15a.4.4,0,0,1,0-.57c.29,0,.29-.56,0-.56-.56,0-.56-.28-1.13-.28-.28,0-.56.28-.28.28,0,.28-.28.56-.57.85,0,.28,0,.85-.56.85a2.16,2.16,0,0,1-.28-1.42.61.61,0,0,0-.57-.56c-.56,0-.85.28-.85,0-.28-.29.29-.57,0-.85a5.79,5.79,0,0,0-1.69-1.14c-.29.29-.85,1.42-.29,1.7.57,0,1.42.57.85,1.13-.85.57-.28,1.14-.85,1.14-.56.28,0-.29-1.41-.29a2.72,2.72,0,0,1-2-.56,1.75,1.75,0,0,0-1.7,0c-.56,0-.56.28-.28.85.28.28-.28.28-.28.28a7.12,7.12,0,0,0-1.42-.57c-.56,0-1.41,0-1.69-.56,0-.29-.57-.57-1.42-.57a4.39,4.39,0,0,0-2.26-.56c-.85,0-2-.57-2.54-.29-.57,0-1.14.57-1.42.57s-.85-.57-1.13,0-.28.85-.85.28a8.69,8.69,0,0,0-3.67-.85,14.48,14.48,0,0,1-3.4-.85,5,5,0,0,0-3.11.29,5.86,5.86,0,0,0-1.41.85c-.57.56-.85.56-1.13.56s-.85.57,0,.85a3,3,0,0,1,1.41.85c.28.28.85.85,0,.57a5.53,5.53,0,0,1-1.41-.29.77.77,0,0,0-.57,1.13,1.45,1.45,0,0,0,1.13.57c.57,0,1.42-.57,1.42,0A1.12,1.12,0,0,1,2.09,19a6.07,6.07,0,0,0-1.7.57c-.56.28.29.85.57,1.13.56.28,1.41.57,1.41,1.13-.28.57,0,.57.85.57.57-.28,2-.85.85.28a8.09,8.09,0,0,1-2.26,2.27c-.57,0-1.13.28-.85.56.28,0,.28,0,1.13-.28a24,24,0,0,0,2.55-1.42c.56-.84,1.69-1.13,1.41-1.69a4.13,4.13,0,0,1,.56-1.14c.29-.28.57-.28.29.29a2.12,2.12,0,0,0-.29.85c.29,0,.29-.29.85-.57s.85-.28.85-.57,0-.56.57-.28c.56,0,.85.57,1.69.85a5.61,5.61,0,0,1,2.27.28c.56.29.56.57,1.13.57a1.89,1.89,0,0,1,1.41,1.13,18.61,18.61,0,0,0,1.7,3.4c.56.85.56.85.56,1.41,0,.29.29.57.57,1.14a11.87,11.87,0,0,1,.85,4,6.39,6.39,0,0,0,.85,3.68c.56,1.13,1.13,2,1.69,2s.57.28.85,1.13S23.3,43,23.86,43.3c.29.57,1.14,2.55,1.42,2.55.56-.28.28-.85-.28-1.13a18.25,18.25,0,0,0-1.14-2.55c-.56-.56-.84-1.41-.56-1.7s.85,1.14,1.13,1.7a30.3,30.3,0,0,1,2,3.12c.57.84,1.13,1.13.85,1.69,0,.85.85,1.42,1.69,2a15.3,15.3,0,0,1,2.27,1.14,1,1,0,0,0,.85-.29c.28-.28.56,0,.84.57a3.31,3.31,0,0,0,1.7.85c.57,0,.85.28,1.13.85s.28,1.41.57,1.41c.56.29.85.57,1.41.85s.28.29.85,0c.57-.56,1.13-.28,1.13,0a.39.39,0,0,0,0-.56c-.28-.29-.56-.29-1.13-.29-.57.29-.57.57-1.13-.28-.57-.57-.57-.28-.57-1.13.29-.85.85-2.27.29-2.27h-2c-.29.29-.57,0-.29-.56,0-.29.57-.29.57-1.13,0-.57.28-1.7-.57-1.42-.56.28-.84.57-.84,1.13-.29.57-.57.29-.85.57-.57,0-1.13.28-1.7-.57-.28-.85-.85-1.41-.57-2v-2c0-.85.29-1.42.57-1.42a3.07,3.07,0,0,1,2.26-.56c.57.28.85.28.57-.28,0-.57.28-.57.85-.29.56,0,1.69-.28,2,.29s0,1.13.28,1.69.56,1.14.85,1.14A1.26,1.26,0,0,0,38.57,43,9,9,0,0,1,38,40.76a1.88,1.88,0,0,1,1.14-1.42c.56-.28,1.69-.85,1.41-1.7,0-.85.28-2,.85-2.26a2.1,2.1,0,0,0,1.69-1.7,1,1,0,0,1,.85-1.41c.29,0,.29,0,.57-.29.56-.28.56,0,.28.57-.28.28,0,.56.28.56s.29-.56.85-.84a2.9,2.9,0,0,1,1.42-.57c.28-.28,0-.85-.85-.85-.57,0-1.13,0-1.13-.28a1.06,1.06,0,0,0,.56-.85c0-.57-.85-.85-.85-.85-.28,0-1.13.85-1.41,1.13-.28.57-.57.28-.57.28-.28,0,0-.56.57-1.13.57-.28.85-.85,1.41-1.13.57,0,1.42.28,1.7.28.57,0,.85,0,1.13-.28.28-.57.28-.85.57-.57.28,0,.28.57,0,1.14s-.57.85-.57,1.41c0,.28.28.28.85.28.28-.28,1.13,0,1.13.29.28.56.85,0,.85-.29.28-.28.28-.84,0-.84-.57,0-.85-.85-1.41-.85s-.29-.29,0-.57.56-.28.28-1.13C49,26,49.32,26,49,25.76c-.28-.57-.28-1.14-1.13-1.14-.85.29-.56-.28-.85-.28-.28-.28-.56-.85-.28-1.13s.28-.28-.28-.57a2.91,2.91,0,0,1-.57-1.41c0-.29-.28-.85-.85.28Z"/><path class="cls-1" d="M25.56,14.15a1.89,1.89,0,0,1,1.7-.28c.85.28,1.13.56,1.41.28S29.8,13.3,29,13c-.56-.57-1.13-.85-1.13-1.13A2.43,2.43,0,0,0,27,10.47a.61.61,0,0,0-.57.57c.28.28,0,.28-.57,0a2.15,2.15,0,0,0-1.41-.57c-.28-.28-.85,0-1.41-.28s-.85-.85-1.13-.85c-.57.28-.85,0-1.14-.28-.56-.29-.84,0-1.13.28-.28,0,.29.28,0,.85-.56.28-1.41.85-.56,1.41.56.29.56.85,1.41.57.85-.57.85-1.13,1.13-1.13s0,.85.29,1.41c.28.29.56,1.42,1.69,1.42.57-.28.57.28.85.28,0,.28.28.57,1.13,0Z"/><path class="cls-1" d="M30.37,14.15a2.91,2.91,0,0,1,.85.28c.28,0,.28,0,.56-.28s.29-.56-.28-.56a1.25,1.25,0,0,0-1.41,0c-.29,0-.29.84.28.56Z"/><path class="cls-1" d="M29,11.32c.29,0,.85.28.85.57.29.28.57.28,1.13,0,.57-.57.57-.57.29-1.13-.29-.29.28-.85-.29-.85a1.72,1.72,0,0,0-2,.28c-.56.57-.28.85,0,1.13Z"/><path class="cls-1" d="M35.74,18.11c.28-.28.28-1.41.85-1.13a3.94,3.94,0,0,1,1.7.57c.28.28.85.56.28,1.13-.57.28-.85-.28-1.13-.57,0-.28-.28,0-.57.29,0,.56-.28.56-.85.28-.28-.28-.28-.28-.28-.57Z"/><path class="cls-1" d="M40.83,17.55a1.41,1.41,0,0,1,.85.28c.28.57,1.13.85,1.7,1.42a2.82,2.82,0,0,0,1.13.28c.28.28.85.28.56,0-.56-.57-1.13-.85-1.13-1.13s1.13.28,1.42.56.28,0,.56-.28a2.15,2.15,0,0,0-.56-1.13c-.57-.29-1.42-1.13-1.13-1.7,0-.28.56,0,.84.57.57.56.85,1.41,1.42.56.28-.56,1.13-1.41.28-1.41-.57,0-.85-.57-1.41-.85-.57,0-.85,0-1.13-.29a.51.51,0,0,1,0-.84c.28,0,.28-.57-.29-1.14a17.91,17.91,0,0,1-2.26-.85,2.41,2.41,0,0,0-1.41-.84c-.57,0-.85.28-1.42.56-.56,0-.56,0-.56-.85.28-.56,0-.85-.57-.85s-1.13.85-1.13,1.14c0,0,.28.56,0,.56s-.28-.56,0-1.13,0-.57-.57-.57c-.56.29-1.41.57-1.41,1.14-.28.56,0,1.69.57,1.69s.84.29.84.57h1.7c.85.28,1.42.28,1.42,0s.28-.28.56.28c0,.29.28.57.85.85.56,0,.85.28.85.57,0,.56.28.85-.29,1.13s.57,1.13-.28.85c-.85,0-1.13-.28-1.13,0a.54.54,0,0,0,0,.85c.28.28.57.28,1.13,0Z"/><path class="cls-1" d="M32.07,10.19c0,.57-.29.57,0,.85,0,.28.28.28.56.28l1.13-1.13c.29,0,.57-.57,0-.57-.28-.28-.56-.28-1.13-.28-.56.28-.56,0-.56.85Z"/><path class="cls-1" d="M52.14,19.25c.29.56.85,1.41,1.13,1.41.57,0,.85-.28,1.14,0,0,.57.28,1.13.56,0,.28-.85.57-1.13.57-1.7a1.06,1.06,0,0,1,.28-.85c.28-.28.56-.56.56-.85S57,17,57,16.7c.28,0,.85-.57,1.13-.57.28.29.28,0,.85-.28.57-.57.85-.85.85-1.13,0-.57.28-.57.56-.29.29,0,.85.29,1.42,0,.56-.56,1.69-1.13,2-1.41,0,0,.85-.57.56-1.13,0-.85-.56-.57-.28-1.13s.28-.85.85-.57c.28,0,.28-.57.56-.85V7.92c-.28-.28-.56-.28,0-1.13a3.7,3.7,0,0,0,.29-1.41A1.56,1.56,0,0,1,66.57,4,3.06,3.06,0,0,1,68,3.11c.56-.28.85-.28.56-1.13-.56-.56-.84,0-1.41,0s-2,.57-2.26.57a8.62,8.62,0,0,0-1.7.85c-.28,0-.56-.29,0-.57.28-.28,1.13-.57,1.42-.85,0-.28,1.13-.85,0-.85a7.32,7.32,0,0,0-2-.56c-.85,0-1.42.28-1.7,0C60.34.28,60.06,0,59.5.28H57.8c-.28,0-.57-.28-1.13-.28-.57.28-.57.57-.57.85h-.85a2.22,2.22,0,0,0-1.41,0c-.28,0-.28.57-.85.57a9.94,9.94,0,0,1-1.7-.29,4.38,4.38,0,0,0-1.13.29,6.41,6.41,0,0,1-2,.28c-.56,0-1.41.28-1.13.85.29.28,0,.56-.85.56s-2,.29-2,.57a1.23,1.23,0,0,0,.84.28c.57-.28.85.29.29.57a2.41,2.41,0,0,1-2,.56c-.29,0-1.7.29-1.13.85.56.29,1.13.29,1.13.57,0,0-.29,0,0,.28.56.57.85.85.85,1.13s.56,0,.84-.28a4.93,4.93,0,0,1,2.83.28c.57.57,1.7,1.7,1.7,2.55s0,1.42.28,1.42c.57,0,1.13-.85,1.7,0s.85,2,0,2.26c-.85.57-1.13.57-1.13,1.42a13.73,13.73,0,0,0,1.69,3.68Z"/><path class="cls-1" d="M83,24.62c-.29.29-.57.57-.85.29a.9.9,0,0,0-.57.28c-.56,0-.85.28-1.13.28a.87.87,0,0,1-.56-.28.88.88,0,0,0-.57.28c-.28.29-.28,0-.28,0-.29-.28-.57-.28-.57-.56-.28-.57.28-1.14.28-1.42v-.85c0-.28-.28-.28-.28,0-.28.29-1.13.29-.85,1.13,0,.57.29.85.29,1.42v.57c-.29,0-1.13.28-1.42.28a2.13,2.13,0,0,0-.56.85c0,.28,0,.28-.29.28a2.13,2.13,0,0,0-1.13.57c0,.28,0,.28-.56.56a.28.28,0,0,1-.29.29c-.28,0-.56,0-.28.28,0,.28-.28.28-.56.28h-.85c-.28,0-.28.57.28.57.28.28.57.56.57.85l.28.28c.28.28.56.57.56.85,0,.57-.28.57-.28.85s-.28.28-.56.28a12.64,12.64,0,0,1-1.42-.28h-.85c-.28.28-.28,0-.56.28s-.28.57,0,.57v1.13a1.41,1.41,0,0,1-.28.85c0,.28.28.85.28,1.13s0,.28.28.28.85,0,.85.29c.28.28.28.28.57.28.28-.28.84.28,1.13-.28.28-.29.84-.57.84-.85s.57-.28.29-.57a1.06,1.06,0,0,1,.28-.85c0-.28.57-.56.85-.56.28-.29.28-.29.28-.85,0-.29,0-.29.28-.57h.85c0,.28.29.28.57,0l.28-.28c.28,0,.28,0,.28-.28h.57a2.15,2.15,0,0,1,.56.84c0,.57.57.85.57,1.14a1,1,0,0,1,.85.28l.85.85v.85c-.29.28-.29.56,0,.28s.28-.28.28-.56c0,0,.28-.29,0-.29V35.1c0-.29.28-.29.28,0h.57l-.28-.29c-.29-.28-.57-.28-.57-.56-.28,0,0-.29-.57-.29a.6.6,0,0,1-.56-.56c0-.29-.28-.57-.57-.85-.28,0-.28-.28-.28-.57.28-.28,0-.28.28-.56.29,0,.29,0,.29.28s.56,0,.84.28a1.26,1.26,0,0,0,.85,1.13c0,.29.57.29.85.57s.57.28.28.85c-.28.28,0,.57.29.85a2.15,2.15,0,0,1,.56,1.13c0,.57,0,.85.28.57.29,0,1.14-.29,1.14-.57a4.13,4.13,0,0,0-.85-1.13c0-.28,0-.57.28-.28.28,0,0-.57.57-.57s.56.57,1.13.28c.28-.28,1.13-.28.56-.56a1.06,1.06,0,0,1-.28-.85c0-.29-2.26-7.36-2.26-7.36Z"/><path class="cls-1" d="M86.36,33.68a1,1,0,0,1,.28-.85,1.22,1.22,0,0,0,.29-.85c.28-.28.56,0,.56-.56.28-.29.28-.85.57-.57.56,0,.85.57.56.85,0,.28,0,.28.29.57s.56,0,.84-.29c.29-.56.29-.56,0-.85-.28,0,.29-.56.57-.56a.54.54,0,0,1,.28.85c-.28.28-.28.85.28.85.29,0,.57.56,1.14.56.28.28.84.57.28,1.13-.28.29-.28.29-1.13.29a4,4,0,0,0-2-.57c-.57,0-.85.28-1.13.28,0,.29-.57,0-.85.57-.57.28-.57.57-.85.57a.84.84,0,0,0-.57,1.13c.57.56,1.14.85,1.42,1.13,0,.28.28-.28.85,0,.56,0,.85.28,1.13,0,.56-.28.85-.28.85,0-.29.28-.29.85-.29,1.42a4.87,4.87,0,0,1-.56,1.41c0,.28.28.57.28.85.28.57,0,1.41.28,1.7s.29.85.57,1.41.85.57.85,1.42a6.44,6.44,0,0,0,.85,2A1.55,1.55,0,0,1,92.86,49c.29.29,0,1.42.29,1.7.28.57,0,1.14.85.85a4.28,4.28,0,0,0,2.26-1.13c.85-.57,2-1.42,2.54-1.7.57,0,.57-.56.85-1.13.28-.28.57-.57.57-.85.28-.28.28-.57,0-1.13s-.85-.57-1.13-.85c0-.57-.29-1.13-.29-.85-.28.28-.56.85-1.13,1.13-.56,0-.56,0-.56-.85,0-.56-.29-.56-.57-.85a1.27,1.27,0,0,1-.85-.85c-.28-.56-.28-.84,0-1.13.57-.28.57.29.85.57,0,.28.57.85.85,1.13,0,.28.56.57,1.13.57s1.13,0,1.13.28.28.57.85.57c.56-.29.56-.29.85,0,0,.28.56,0,.85,0,.56,0,.56.28,1.13,0,.28-.29.56,0,.56.56.29.29.29.57.57.57s0,.28,0,.56c.28.29.28.85.85.85.28,0,.56-.56.84-.56s.29.28,0,.85a5.07,5.07,0,0,0,.57,2.83,13.67,13.67,0,0,1,.85,2.54c0,.85.28,1.7.56,1.7s.57-.28.85-.85.29-.56.57-1.13c0-.56.28-.56,0-1.13,0-.85,0-1.42.28-1.42a.75.75,0,0,0,.85-.85c0-.28.28-.56.56-.84.57-.29.85-.29,1.14-1.14,0-.56.28-.56.56-.56.57,0,.85,0,.85-.29.28-.28.57-.28.57,0a1.5,1.5,0,0,0,.56,1.14c.57,0,.57.85.57,1.13s0,1.41.28,1.41c.57,0,.85-1.13,1.13-.56.28.28.28,1.13.28,1.41.29.57,1.7-.56,1.7-.56l2.55-.29h0s-1.14-1.69-.85-2c0-.56.56-.85.85-1.41.56-.29.84-.29.84.28s0,.28-.28.85c-.56.57-.28.57,0,.85.28,0,.57-.57.85-.57a.55.55,0,0,0-.28-.85,1.06,1.06,0,0,1,.28-.85c.28,0,1.13,0,1.41-.28s1.13,0,1.7-.85.85-2,1.13-2.26a4.16,4.16,0,0,0,.57-2,5.88,5.88,0,0,0-.57-1.7c-.28-.57-.85-1.13-.28-1.42l.85-.85c.28,0,.56-.56,0-.56-.29,0-.85.28-1.13.28-.29.28-.29,0-.57-.56a.61.61,0,0,1,.57-.57c.56,0,1.13-1.7,1.13-1.13.28.56.28.85.84.85.29,0,.57,0,.57.56.28.29.85,1.13.57,1.7,0,.57,0,1.13.56.85s.85-.57.85-1.13c.28-.57-.28-1.13-.57-1.42a.54.54,0,0,1,0-.85c.29-.28.57-.85.85-1.13.57-.57.29-1.13.85-.85.28.28.57.57,1.13-.28a10,10,0,0,0,2.26-2.83c0-.85.29-1.42.29-2s.28-.57.28-1.42-.28-1.41-.57-1.41-.56.56-1.13,0c-.56-.29-1.13-.29-.28-.57a14.23,14.23,0,0,0,2-2.26c.28-.57.57-.85,1.13-.85.85-.29,1.7.28,2,.28.57,0,.57-.28.57-.28a.28.28,0,0,1,.28-.29c.28,0,.85.29.56.57-.56.28-.28.28.29.28s.85-.28,1.13-.28a.27.27,0,0,0,.28-.28c-.28-.29-.28-.57,0-.57s.57-.28.85-.85c.57-.56.85-.28.85-.28s.85-.28.85,0c-.29.57-.29.85.28.57.28-.29.28.28-.57.84-.56.57-.84,1.14-1.41,1.42a2.19,2.19,0,0,0-.85,2c.28.57.28,1.42.57,2,0,.57,0,1.13.28,1.13.28-.28.85-.85.85-1.41,0-.28.56,0,.56-.57.29-.56.85-.28.57-.85,0-.56.28-1.13.56-1.13.57,0,.29-.56,0-1.41a1.57,1.57,0,0,1,.85-1.42c.57-.28.85,0,1.13-.28s.85-.28.85,0c.29.28.57.28.85-.28.57-.57,1.41-.57,1.7-.85a1.81,1.81,0,0,1,1.41-.57c.57.28.85-.28.57-.85-.29-.28-.85-.57-.29-.85.57,0,1.14,0,.85-.56s.29-.57.57-.29c0,.29.28.29.85.29.28,0,.56.56.84.84a1.24,1.24,0,0,0,.85-.28c.29-.28,0-.56.57-.85.56,0,.56-.28.28-.56-.28-.57-.56-.57-1.13-.57a2.1,2.1,0,0,1-1.13-.57,5.44,5.44,0,0,0-2.26-.84,8.92,8.92,0,0,0-1.7-.85c-.57,0-1.41-.29-1.7,0-.28,0-.28.28-.28.56s0,.57-.28.57c-.57,0-.85-.85-1.42-.85s-1.69-.28-2.26,0-.56.57-.85,0c0-.28-.56-1.42-1.41-1.42-1.13,0-2.26.57-2.55.29s-.28-1.42-1.41-1.42c-.85.29-1.41.57-1.7,0-.28-.28-.56-1.13-.84-1.13a2,2,0,0,0-1.14,1.42c0,.28,0,.56-.28.56-.56.28-1.13,0-1.41,0-.57,0-1.42-.28-1.7.28-.28.85-.28.57-.85,0-.28-.28-.56-.28-.56-.84s-.57-.85-1.13-1.14c-.85,0-1.14-.28-1.42.29,0,.56-.56.56-.85.28a7,7,0,0,1-2-.57c-.56,0-1.69,0-2-.28,0-.28,0-.57-.56-.28-.57.56-.85,0,0-.57.56-.28,1.13-.28,1.13-.85a.75.75,0,0,0-.85-.85c-.85,0-2.26.29-2-.28,0-.28,0-.57-.56-.57a2.1,2.1,0,0,0-1.42.29c-.56.56-.56.28-.85.56-.56,0-.28.57-.84.57-.85,0-1.13-.28-1.7-.28-.85.28-1.41.56-2.26.84s-2.27.57-2,1.14c.28.28-.29.28-.57.28a3,3,0,0,0-1.13.28c0,.29.57.85.28,1.14s-1.13-.85-1.69-.57c-.29,0-.57.57-.57.85s-.56,0-.56-.57-.29-.56-.57-.28a7.79,7.79,0,0,0,0,2.55,4,4,0,0,1,.28,2.54c-.56.29-.85.57-1.41.85-.85,0-.85-.28-.28-.56.56,0,.84-.57.84-1.14,0-.84,0-2.26-.28-2.26V11c.28-.57.28-.85-.28-.85-.57.28-1.13.28-1.13.85-.28.56-1.13,1.13-.57,2,.29.57.85,1.13.57,1.13-.28.28-1.7-.56-2-.85a12.19,12.19,0,0,0-1.42-.28c-.28,0-.56,0-.28.28.28.57,0,.57-.56.57h-1.7s-.57.28-.57,0-.28-.57-1.13,0-1.41.85-1.41,1.13c0,0-.85.28-.85-.28,0-.29-.28-.85-.56-.85s-.85.56-.57.85c.28,0,.28.56-.28.85a2.11,2.11,0,0,0-1.13.56c-.29.29-1.14,1.42-2,1.13s-.29-1.13-.85-1.41c-.28-.28.28-.57.85-.28s.84.56,1.69,0,.29-1.14-.28-1.42S88.91,13.3,88.34,13c-.28,0-.28-1.42-2-1.13-1.7,0-3.39,0-4.52,1.41C80.42,15,79.57,16.13,79,16.7c-.29.85,0,1.41-1.42,2-1.13.28-1.13.85-1.13,2,0,.85-.28,2,.57,1.7a2.4,2.4,0,0,0,1.69-.85c0-.57.57,0,.29.57,0,.56.56,1.13.56,1.41,0,.57,0,1.13.57,1.13.28,0,.28-.56.56-.85.57-.28.85-.28.85-1.13-.28-.85,0-.85.29-1.13.28,0,.84-.57.28-.85a2.17,2.17,0,0,1-.57-1.13s-.28-.57.57-.85A2.33,2.33,0,0,0,83.25,17a1.46,1.46,0,0,1,1.13-.56c.57,0,1.13.28.57.56-.57.57-1.7,1.7-1.42,2.83,0,.85,0,1.7.85,1.13a2.71,2.71,0,0,1,2-.56,1.24,1.24,0,0,1,.85.28,1,1,0,0,1-1.42.57c-.56,0-1.13-.29-1.13.28s.29.57.29,1.13c-.29.57-.85.85-.85.29,0-.29.28-1.14-.29-.85-.28,0-.28.85-.56,1.13,0,.28-.28.85,0,1.13.28,0-.28,0-.57.28-.28.57,2.55,7.65,2.55,7.65Z"/><path class="cls-1" d="M36.59,46.13c.28,0,.57-.56.85-.56s.85.28,1.13.28c.28-.28.28,0,.28,0,.29.28.85.57,1.13.85.29,0,.57.28.85.28,0,.29.57.29.28.57h-.56a1.24,1.24,0,0,1-.85-.28.6.6,0,0,0-.56-.57.88.88,0,0,1-.57-.28c0-.29-.28-.29-.57-.29s-1.13-.28-.84,0,.28.57,0,.57a1.06,1.06,0,0,0-.85-.28.28.28,0,0,1,.28-.29Z"/><path class="cls-1" d="M41.4,48.4c.28,0,0-.57.28-.57a.54.54,0,0,1,.85,0,2.9,2.9,0,0,1,1.13.29c.28,0,.28.56,0,.56-.57,0-.57,0-.85.28H41.4c-.29,0,0-.56,0-.56Z"/><path class="cls-1" d="M40,48.12c-.28,0-.84,0-.56.28s.56.28.56.56h.29c.28-.28,0-.28,0-.56-.29,0-.29,0-.29-.28Z"/><path class="cls-1" d="M41.4,46.7c0,.28,0,.28.28.28A.27.27,0,0,0,42,46.7Z"/><path class="cls-1" d="M44.79,48.12c-.28,0-.56,0-.56.28s0,.28.56.28c.28,0,.28-.28.57-.28,0-.28.56-.57.28-.57a1.22,1.22,0,0,0-.85.29Z"/><path class="cls-1" d="M46.77,53.21c.28,0,.28.28.57.28l.28-.56a.28.28,0,0,0-.28-.29.61.61,0,0,0-.57.57Z"/><path class="cls-1" d="M48.18,52.36c-.28-.28-.28-.28-.28-.56a.28.28,0,0,0,.28-.29h.57a.28.28,0,0,1-.28.29c-.29.28,0,.28,0,.28a.28.28,0,0,1-.29.28Z"/><path class="cls-1" d="M48.47,51h.28a.27.27,0,0,1,.28.28l-.28.28c-.28-.28-.28-.28-.28-.56Z"/><path class="cls-1" d="M48.47,50.1c-.29,0-.29-.29,0-.29,0-.28,0-.56.28-.28s.28.28,0,.57Z"/><path class="cls-1" d="M47.9,49.53a.27.27,0,0,1-.28-.28A.28.28,0,0,1,47.9,49a.28.28,0,0,1,.28.29l-.28.28Z"/><path class="cls-1" d="M48.75,50.38c0,.28-.28,0,0,0,0-.28.28-.28.28,0Z"/><path class="cls-1" d="M47.05,48.68s-.28,0,0-.28c0,0,0-.28.29,0,.28,0,.28.28,0,.28,0,.28,0,0-.29,0Z"/><path class="cls-1" d="M39.42,44.72c-.28,0-.28-.28,0-.57h.28v.57c.28.28.57,0,.28.28-.28,0-.28.29-.28,0a.27.27,0,0,1-.28-.28Z"/><path class="cls-1" d="M39.7,43.87c0-.28.28-.28,0-.28,0-.29,0-.57.28-.29.29,0,.57.29.29.57v.28c.28.29,0,.29,0,0a1,1,0,0,1-.57-.28Z"/><path class="cls-1" d="M40.55,45c-.28,0-.28-.28,0-.28,0,0,0-.28.28,0l-.28.28Z"/><path class="cls-1" d="M41.11,45.57c0-.28-.28,0-.28,0,0-.28,0-.28.28-.28h.29c0,.28.28.28,0,.28Z"/><path class="cls-1" d="M39.14,43.87c.28,0,.28-.28.28-.57h-.28l-.29.29.29.28Z"/><path class="cls-1" d="M46.49,29.44c-.29-.29-.57-.29-.57-.57-.28,0-.28-.28,0-.28s.57.28.85.28v.57Z"/><path class="cls-1" d="M47.34,31.13c-.29-.28-.29-.56,0-.56,0-.29.28,0,.28,0,0,.28.28.28,0,.85,0,0-.28.28-.28,0v-.29Z"/><path class="cls-1" d="M45.64,20.66c-.28,0-.28-.28,0-.56,0-.29.28-.29.28,0s0,.28-.28.56Z"/><path class="cls-1" d="M37.72,19.81c0-.28,0-.28.28-.56,0,0,.29-.29,0-.29a2.76,2.76,0,0,0-.84.29c-.29.28-.29.56,0,.56.28.29.28,0,.56,0Z"/><path class="cls-1" d="M40.27,15.28c-.29,0-.57,0-.29-.28,0-.57.29-.85.57-.57s.56.29.28.57a.87.87,0,0,1-.56.28Z"/><path class="cls-1" d="M22.17,7.64c.28-.28.56-.28.56-.85-.28-.28-.28-1.13-.56-.85-.57.29-.85,0-1.13.57-.29.28-.85.85-1.13.85s-.57,0-.57.28c0,.57.28.85.85.57.28-.29.28-.29.56-.29.57.29,1.42-.84,1.14-.28s-.29.85,0,.57c.56-.57.28-.57.28-.57Z"/><path class="cls-1" d="M22.45,8.21c.28,0,.28,0,.28-.29.29-.56.29-.56.57-.56s.56.28.85.56c.28,0,.56.29.85.29,0,.28.84.28.84,0s-.56-.57-.56-.85c.28-.28.56-.85.56-.57.29.57,0,.85.57.85.28,0,.85,0,.57.28,0,.57,0,1.14-.29,1.14s-.85-.29-1.13,0c-.56,0-.85.56-1.41.28-.29,0-.57,0-.57-.28.28,0,.28-.57,0-.29s-.56,0-1.13,0c-.28,0-.28-.28,0-.56Z"/><path class="cls-1" d="M31.78,9.06c.29-.29.57,0,.85,0a.4.4,0,0,0,0-.57c-.28-.28-.56-.85-.85-.57a1,1,0,0,1-.28.57c-.28.28,0,.57.28.57Z"/><path class="cls-1" d="M30.65,8.21c0-.29,0-.57.28-.57,0-.28,0-.56-.56-.56-.28,0-.57-.29-.85,0s0,.28-.57.56-.56.28-.56,0-.28-.56-.57-.85c0,0-.56,0-.28.57,0,.28.57.56.57.85s.28.28.84.28h.85c0,.28.57.28.57.28.28,0,.28-.28.28-.56Z"/><path class="cls-1" d="M25.56,5.94s-.28-.28,0-.28c.28-.28.85-.28.28-.57A4,4,0,0,0,25,4.53c-.29.28-.29.56-.85.56-.29,0-.85-.56-.85,0,0,.29.28.85.56.85.29.29.85,0,.85.29s.29.28.57.28.28-.28.28-.57Z"/><path class="cls-1" d="M28.39,5.66c.28,0,.28-.28.56,0,.57.28.57.57.85.57s.57,0,.29-.29c0-.56.28-.85-.29-.85-.56-.28-1.13-.28-1.13-.56-.28-.28-.28-.57-.85-.57-.28.29-.56.57-.28.57a.87.87,0,0,1,.28.56c0,.29,0,.57.29.57,0,.28,0,0,.28,0Z"/><path class="cls-1" d="M34.33,7.64c.28.28.28.57.85.28a1,1,0,0,1,.84.29c0,.28.29.28.57,0A2.5,2.5,0,0,1,38,7.92c.29,0,1.14.29.85.57s-.28.57-.56.85a2.91,2.91,0,0,1-1.13-.28c0,.28-.57.28-.85.28-.57,0-1.42,0-1.42-.28s-.28-.29-.28,0h-.85c-.28,0-.28-.29-.28-.57,0-.57-.28-.85-.57-.85-.56,0-.56,0-.84-.28-.29,0-.57-.57-.57-.57.28-.28.57-.56-.28-.56-.57,0-.57,0-.57-.29s-.56-1.13,0-.85c.57,0,.57.29.85.29.57,0,.57,0,.57.56,0,.29.84,0,.56.57-.28.28-.28.28,0,.28.57,0,.57,0,.57.29s.28,0,.56,0,.57,0,.57.56Z"/><path class="cls-1" d="M33.76,5.94c.57,0,.57-.28.85-.28.28-.28.85-.57.85-.85-.28-.28-.85-.28-.57-.56,0-.57,0-.57-.28-.85a1.48,1.48,0,0,1-1.13-.57c-.28-.57-.57-.57-.57-.28a1,1,0,0,0-.28.85c0,.28-.28.28-.28.56s-.28.57,0,.57a1.27,1.27,0,0,1,.85.28s-.57.28-.29.57c0,.28.29.56.85.56Z"/><path class="cls-1" d="M36.87,7.36c0,.56,1.13-.28,1.13,0,.29,0,.29.28.85.28a1.06,1.06,0,0,1,.85-.28c0-.28,0-.28-.28-.57s-.28-.56,0-.56.28-.57.56-.29c.29,0,.85-.28.85-.56s-.28-.57.28-.85A3.9,3.9,0,0,0,42.81,4c.28-.56.28-.56.85-.85.85,0,.57-.56.85-.85A1.71,1.71,0,0,1,45.64,2c.56,0,1.13,0,1.13-.28s0-.85-1.13-.85a11.57,11.57,0,0,0-3.11,0c-1.13,0-2.55.28-3.39.28a2.37,2.37,0,0,0-2,.57c-.57.28-.57,0-1.42,0-1.13,0-1.69,0-2,.28a.75.75,0,0,0,.85.85,7.4,7.4,0,0,0,2,.57c.28,0,.57.56-.28.28-.57,0-1.13.28-.85.57s1.41.84.85,1.13c-.57,0-1.13.28-1.13.56-.29.29.56.85.28.85-.57.29-1.13.57-.28.57.56,0,1.13.28,1.13,0a.39.39,0,0,1,.56,0Z"/><path class="cls-1" d="M73.92,25.47l-.57-.56c-.28-.57-.28-.29-.56-.85V22.93c.28,0,.28-.29,0-.29s-.85.29-.85,0a1,1,0,0,1,.56-.28c0-.28.29-.57-.28-.57-.28,0-.56.29-.85.57v.57c-.28.56-.28.84,0,1.13s0,.85.29.85.56-.29.84,0c0,.56.29.56,0,.85s-.56,0-.56.28.28.56-.28.85c-.29.28.28.56.28.56l-.28.29c-.29,0-.57.56-.29.56.29.29.29,0,.57,0s.28,0,.85-.28a2.13,2.13,0,0,1,1.13-.28c.28,0,.56,0,.56-.29s0-.28.29-.56c0,0,.28-.57,0-.57H74.2c-.28-.28,0-.56-.28-.85Z"/><path class="cls-1" d="M70.81,26c0-.28-.29-.28.28-.57a.39.39,0,0,0,0-.56c-.28-.29-.57-.57-.85-.29s0,.57-.28.57-.28,0-.57.28v.85a.28.28,0,0,1,.29.28c-.29.29-.85.29-.57.57s.28.57.57.28c.56-.28,1.41-.56,1.13-1.41Z"/><path class="cls-1" d="M114.92,47.55c0,.57.28.85.28,1.13,0,.57,0,1.13.29,1.13.56,0,.56-.85.85-.28a3.26,3.26,0,0,1,.84,1.7c0,.57.29,1.7,0,2,0,.57-.28.28.29,1.42.84.84.56,1.13.84,2s.57,1.13,1.14,1.13c.28.28.28,0,0-.85-.29-.57-.29-1.13-.57-1.7-.57-.85-1.41-.85-1.13-2.55.28-1.41,0-2,.56-1.41a12.5,12.5,0,0,0,1.7,2c.28.57.85.28,1.42-.28.84-.57.84-1.13.56-2.27-.56-.85-1.41-1.7-1.41-2.26-.29-.28,0-1.13.56-1.42.29-.28.57-.85.85-.56s-7.07,1.13-7.07,1.13Z"/><path class="cls-1" d="M118.6,57.74a2.86,2.86,0,0,1-1.42-1.13c0-.29-.28-.57-.84-.57-.29-.28-1.14-.57-.57.28a8.57,8.57,0,0,1,1.41,2,20.79,20.79,0,0,1,1.42,2.55A1.7,1.7,0,0,0,120,62a.85.85,0,0,0,.57-1.41c-.57-.28-.85-1.13-1.13-1.7a4,4,0,0,0-.85-1.13Z"/><path class="cls-1" d="M122,62.55c-.28,0-.85-.28-1.13-.28s-.85.56-.28.85c.85.28,1.13,0,1.69.28A3,3,0,0,1,124,64c.28,0,.57-.57,0-.57-.57-.28-.28-.85-.85-.85-.56-.28-.85,0-1.13,0Z"/><path class="cls-1" d="M123.4,60.57c.85,0,.85.85,1.7,0,.57-.57.85-.85.57-1.42,0-.56-.29-.56.28-.85.28,0,0-.84,0-1.13-.28-.28,0-.56.28-.85a1.06,1.06,0,0,0-.28-.85c-.28-.56-.57-.28-.85-.28-.28.28,0,.85-.56,1.13-.29,0-.29.57-.85.57-.29.28-.57.28-.57.57s-.28.28-.56.28-.57,0-.57.28c-.28.28-.28.85.28,1.42.29.85.57,1.13,1.13,1.13Z"/><path class="cls-1" d="M126,64.25c-.28,0-.57,0-.57-.28s.29-.29.57-.29c0,0,.57.29,0,.57Z"/><path class="cls-1" d="M128.49,64.53c.57-.56.57-.85,1.14-.85.28-.28.84-.56.28,0-.57.29-.57.57-.85.85-.28,0-.85.28-.57,0Z"/><path class="cls-1" d="M126.8,64.53c-.28,0-.57-.28-.28-.28h.56s.28.28,0,.28Z"/><path class="cls-1" d="M127.08,63.68c0,.29.28.29.57.29l.28-.29h-.57c0-.28-.28-.28-.56,0Z"/><path class="cls-1" d="M126.23,61.42c.29,0,.29-.28,0-.57,0-.28.29-.56.29-.85v-.85c.28-.56-.29-.85.84-.85.57,0,1.13.29,1.42,0s.85-.28.28,0c-.57.57-.57.29-1.13.29s-.85,0-.85.56c0,.29.57.29.85.29a.39.39,0,0,1,0,.56c-.28.29-.57.57-.28.57.28.28.84.57.56.85-.56.56-.56.28-.85,0,0-.57,0-1.13-.28-.57,0,.57,0,1.13-.28,1.13s-.57,0-.57-.56Z"/><path class="cls-1" d="M131.89,59.72c0-.28,0-.28.28-.57.57,0,1.13,0,1.13.29,0,.56-.28.56,0,.85a.54.54,0,0,0,.85,0c0-.29,0-.57.57-.57a1,1,0,0,1,.84.28c.29,0,1.14.57,1.42.57a6.2,6.2,0,0,1,1.41.85c.29.56,1.13.85.85,1.13,0,.28-.28.57.28.85.29.28.85.85.85,1.13.28.28.28.57-.28.28-.28-.28-.57,0-.85-.56-.28-.28-.28-.57-.85-.85s-.85-.28-.85,0-.28.57-.84.57-.57-.29-.85-.57c-.29,0-.29.28-.57-.28s-.28-.57-.28-.85c0-.57-.57-.57-.85-.85a2.24,2.24,0,0,0-.85-.57c-.56-.28-1.13-.28-1.13-.56.28-.29,0-.29-.28-.57Z"/><path class="cls-1" d="M140.37,62.27c.28,0,.85-.57.85-.57.28-.28.57-.28.28-.56s-.28-.29-.56,0c-.29.56,0,.56-.57.56-.28,0-.28.28-.56.28s0,.29.56.29Z"/><path class="cls-1" d="M142.63,62.83c-.28-.28-.28-.28-.28-.56s0-.29.28,0,.57.28.57.56-.28,0-.57,0Z"/><path class="cls-1" d="M146.88,71.61c.28.56.56.56.84.56s.29-.28,0-.28c-.28-.28-.56-.28-.84-.57s-.29-.56-.57-.56a4,4,0,0,0,.57.85Z"/><path class="cls-1" d="M151.12,80.66c-.29-.28,0-.56-.29-.84s-.56-.57-.28-.85l.57.28a1,1,0,0,1,.28.85,1,1,0,0,0,.28.56c0,.29.29.29.57.57,0,.28.28.28.56,0s.57,0,.29.28c0,.57-.29.57-.57.85,0,.29-.28.57-.28.85s-.28.28-.57.28,0-.28-.28-.56a1,1,0,0,0-.28-.85c-.29,0,0,0,.28-.28.28,0,0-1.14-.28-1.14Z"/><path class="cls-1" d="M150.83,84.34c-.28.29,0,.57-.56.85-.28.29-.57,0-.57.57-.28.28-.56,1.41-1.13,1.13a2.91,2.91,0,0,1-.85-.28s-.28,0,0-.57c.29-.28.29-.85.85-.85.57-.28,1.13-.56,1.13-.85.29-.56.29-.56.29-.85s.28-.84.56-.56.57,0,.57.28c0,.57,0,.85-.29,1.13Z"/><path class="cls-1" d="M138.39,83.21c.29,0,.29.28.57,0s.56-.56.56,0,0,.85-.28,1.13-.28.57-.56.29-.57-.57-.57-.85c-.28-.29-.85-1.13.28-.57Z"/><path class="cls-1" d="M129.91,60.85c0,.29-.28,0-.28,0-.29,0,0,0,0-.28h.56c0,.28,0,.28-.28.28Z"/><path class="cls-1" d="M130.76,60.85c-.29,0-.57-.28-.29-.28h.85c.29,0,.29.57,0,.28Z"/><path class="cls-1" d="M147.72,67.64a.39.39,0,0,1,0-.56.28.28,0,0,1,.29.28c0,.28-.29.57-.29.28Z"/><path class="cls-1" d="M145.18,64c-.28,0-.57-.29-.28-.29a1,1,0,0,0,.56.29Z"/><path class="cls-1" d="M145.46,64.81a.28.28,0,0,0,.28.29v-.29c-.28-.28-.28-.28-.28,0Z"/><path class="cls-1" d="M143.77,63.68h0c-.29,0-.29,0,0,.29v-.29Z"/><path class="cls-1" d="M130.19,58.59c0-.29-.28-.29,0-.85.28-.28.28-.28.28.28.29.28.29.28,0,.57,0,.28,0,.56-.28,0Z"/><path class="cls-1" d="M129.34,55.19v-.56a1,1,0,0,0,.29-.85c-.29-.29,0-.57-.57,0-.28.28-.57,0-.85.28-.56,0-.56.57,0,.57.28,0,.57,0,.28.28,0,.28.29.28.57.56s.28,0,.28-.28Z"/><path class="cls-1" d="M127.36,50.38c0-.28.29-.85.29-1.13.28-.29,0-.29,0-.57s0-.28-.29-.28c-.28-.28-.28,0-.28.28a1.41,1.41,0,0,0-.28.85c0,.28-.28,0,0,.28,0,.57.28.85.28,1.14s.28.28.57,0a.87.87,0,0,1,.56.28c.28.28.28.28.28,0a.61.61,0,0,0-.56-.57c-.28,0-.57,0-.57-.28Z"/><path class="cls-1" d="M129.06,52.36a.27.27,0,0,0-.28-.28c0-.28-.29-.28.28-.57.28,0,.28,0,.28.29v1.13c0,.28-.28,0-.28-.57Z"/><path class="cls-1" d="M127.65,52.64c0-.28-.29-.56,0-.56.56.28.56.56.84.56.29.29,0,.57-.28.85,0,.29-.56,0-.56-.28v-.57Z"/><path class="cls-1" d="M126.23,53.49c0-.28,0-.28.29-.28v-.57c0-.28,0-.28-.29,0,0,.29-.28.29-.28.57s-.57.57-.57.57c0,.28,0,.28.29.28l.56-.57Z"/><path class="cls-1" d="M121.71,48.4c0,.28.28.28.56.28s.29-.28.57-.56c0,0,0-.57-.28-.57s-.29,0-.57.28c-.28,0-.28.29-.28.57Z"/><path class="cls-1" d="M127.08,45.57v-.85c.28,0,.28-.28.57-.57,0,0,.28,0,0,.57v.85c0,.28-.57.85-.57,0Z"/><path class="cls-1" d="M131,39.62c0-.28-.28-.84.28-1.13.29,0,.57-.28.85-.56s.28-.29.85-.29c.28,0,.56.29.85,0,0-.56.28-.56.56-.85l.85-.84a1.74,1.74,0,0,0,.28-1.14c0-.28,0-.56.29-.56s.56,0,.56.28a.84.84,0,0,1,0,1.13c-.28.29-.28.29-.28.57v1.13c0,.28-.28.85-1.13,1.13a1.24,1.24,0,0,1-.85-.28c0,.28-.28.57-.28.85-.29,0-.57,0-.57-.28,0,0-.28-.29,0-.29a1,1,0,0,1-.28.57c-.28.28-.57.56-.57.28a.87.87,0,0,1-.28-.56c.28,0,.28-.29,0,0-.28,0-.56,0-.56.28.28,0,.28.56.28.85-.28.28-.28.56-.57.56-.56-.28-.28-.28-.28-.56v-.29Z"/><path class="cls-1" d="M136.13,33.4l.28-.29a.28.28,0,0,0,.29.29c.28,0,.56.28.56,0s0-.57.28-.57h.57c0-.28,0-.56-.57-.56s-.28,0-.56-.29a4.21,4.21,0,0,1-.57-.85c-.28.29-.28.29,0,.57v.85c-.28.28,0,.28-.28.28s-.28,0-.28.28a.28.28,0,0,0-.29.29.28.28,0,0,0,.29.28.27.27,0,0,0,.28-.28Z"/><path class="cls-1" d="M136.7,30v-.85c0-.56.28-1.13,0-1.41,0-.29-.29-.57,0-.85v-.57c.28-.28.28-.85.56-.85V26.6c.28.29,0,.57,0,1.14.28.28.85.56.28.85-.56,0-.56.56-.56,1.13a1.06,1.06,0,0,0,.28.85c0,.28-.28.28-.28,0,0,0-.57.56-.28,0V30Z"/><path class="cls-1" d="M66.28,18.11a4.8,4.8,0,0,1,1.42-.56c.28-.29.56-.57.28-.85s-.85-.85-1.13-.85c-.28.28-.28.57-.85.28-.28,0-1.13-.28-1.13,0s-.28.57-.28,0c-.29-.28-.29-.56-.57-.28-.57.57-1.13.85-.57.85a.85.85,0,0,1,.29.56c-.29,0,.28.29.28.29.28,0-.28.56.57.85a3.48,3.48,0,0,0,1.69-.29Z"/><path class="cls-1" d="M80.7,7.92a3.3,3.3,0,0,0,.57-.84c0-.57.28-1.7.57-1.7,0-.29.28-.29.28.56,0,.57.28.85.56.85.57,0,.85-.56.57-1.13-.57-.57-.57-1.13-.85-1.41-.28-.57-.28-.85,0-.85.28-.29.28.85.85.28.56-.85,1.13-1.13.56-1.7a1.87,1.87,0,0,0-1.69-.28c-.57.28-.57.56-1.42.56-.56,0-.84-.84-1.13,0a1.88,1.88,0,0,0-.56,2c.28.28,1.13.56.85,1.13a2.56,2.56,0,0,0,.28,1.41c.28.57.28.85.56,1.13Z"/><path class="cls-1" d="M99.09,11.6c-.29,0-.85-.28-.29-.84.29-.57.29-.85.85-1.14.28-.56,0-.28.85-.85a8.53,8.53,0,0,1,2.26-1.13c.85-.28,1.42,0,1.7-.56s0-1.14-.57-.85c-.56,0-.28.56-1.13.56a9.94,9.94,0,0,0-1.7.29,9.23,9.23,0,0,0-1.69.84c-.57.29-.57,1.14-1.13,1.42-.29.28-.29.85-.85.85-.28.28-.85.85-.28,1.13a3,3,0,0,0,1.41.85c.57,0,1.13.28,1.13,0l-.56-.57Z"/><path class="cls-1" d="M95.41,3.4a2.42,2.42,0,0,0,.85-.57c.56,0,.56-.28.56-.57,0-.56,0-1.13-.56-.56C96,2,96,2.26,95.41,2c-.28,0-.85-.56-1.41-.28-.85.28-2,.56-1.42.85a2.17,2.17,0,0,0,1.13.28c.29,0,.29,0,.57-.28s.56-.29.56,0c-.28.28-.28,1.13.57.85Z"/><path class="cls-1" d="M96.54,4c.28,0,.28-.56,0-.56a.28.28,0,0,0,0,.56Z"/><path class="cls-1" d="M97.39,3.4a.28.28,0,0,0,.28-.29c.28-.28,0-.56-.28-.28-.28,0-.28.28,0,.57Z"/><path class="cls-1" d="M101.06,2.83c.29,0,.85,0,.57-.28-.28-.57,0-.85,0-.85,0-.28,0-.85-.28-.85-.57,0-.29.57-.57.85-.28,0-.28.28-.28.56,0,.57,0,.57.56.57Z"/><path class="cls-1" d="M102.2,1.7c0,.28,0,.28.56,0,.28,0,.28.28,0-.57,0-.56.28-1.13-.28-1.13-.28,0-.28.28-.57.57a1.66,1.66,0,0,0,.29,1.13Z"/><path class="cls-1" d="M100.78,3.4c-.28,0-.56,0-.56.28a.27.27,0,0,0,.28.28c.28,0,.28-.56.28-.56Z"/><path class="cls-1" d="M99.93,3.11c.29,0,.29-.56,0-.85,0,0-.56,0-.56.29v.56a.38.38,0,0,0,.56,0Z"/><path class="cls-1" d="M98.8,3.11c0,.29,0,.29.29.29V2.83c-.29-.57-.29-.57,0-.85.28,0,0,0,0-.28.28-.28.28-.57.56-.57.57-.28.57-1.13,0-.85-.28,0-.85.57-1.13.85-.28,0-.57,0-.57.29s-.28.28,0,.56c.57,0,.57.28.57.57s0,.28.28.56Z"/><path class="cls-1" d="M95.41,13.59s-.28.28.28.28c.28,0,.28.28.57,0,0-.28,0-.85-.29-.85s-.28.28-.56.57Z"/><path class="cls-1" d="M118.88,5.66c.57,0,.57-.28,1.13-.28.28,0,.28,0,.28-.57S120,4,119.73,4c-.57,0-.57-.56-.85,0-.28.29,0,.57-.28,1.13-.57.57-.57.57-.29.85a1,1,0,0,1,.57-.28Z"/><path class="cls-1" d="M118.31,4.53c-.28-.28-.28-.28,0-.57.29-.56,0-.85-.56-.85s-.85-.56-1.41,0c-.85.57-1.42.57-1.14.85.57.57.85.29,1.14.85.56.57.56.85,1.13.57s.84-.57.84-.85Z"/><path class="cls-1" d="M116.62,2.55c.28-.29.28-.29,0-.57s-.28-.85-.57-.85c-.56.29-1.13.29-1.41.85-.28.28-.57.57-.28.85a1.7,1.7,0,0,0,1.13.28c.28.29.85-.28,1.13-.56Z"/><path class="cls-1" d="M114.64,3.4c-.28,0-.57.28-.28.28a.27.27,0,0,0,.28.28c.28,0,.56,0,.28-.28a.27.27,0,0,0-.28-.28Z"/><path class="cls-1" d="M135.28,8.49a.87.87,0,0,0,1.13,0c.57,0,.57-.28.85-.28.28.28.57,0,.57-.29s-.29-.56-.85-.56c-.28,0-.57-.57-.85-.28,0,.56,0,.56-.28.28a.85.85,0,0,0-1.13.28c-.29.28,0,.85.56.85Z"/><path class="cls-1" d="M139,8.49c-.28-.28-1.13-.85-.57-.85.85,0,1.13,0,1.42.28.28,0,.84,0,.84.29s0,.56-.84.56a1.24,1.24,0,0,1-.85-.28Z"/><polygon class="cls-1" points="138.39 31.98 138.39 31.7 138.68 31.98 138.39 31.98 138.39 31.98"/><path class="cls-1" d="M139,31.42c0,.28,0,0,.28-.29s.28-.56.28-.28c0,.57.29.57,0,.57-.56.28-.28,0-.56,0Z"/><path class="cls-1" d="M142.35,27.45s-.28.29,0,.29c0,.28,0,.28.28.28s.57-.28.29-.28c0-.29-.29-.29-.57-.29Z"/><path class="cls-1" d="M139.81,30.85a.39.39,0,0,0,.56,0c.28-.28.28-.57,0-.57l-.28.29Z"/><path class="cls-1" d="M140.65,30h.29c.28-.28.56-.28.56-.56s0-.57.29-.57c0,0,.28-.28.28,0l-.57.57a.87.87,0,0,1-.28.56c-.28,0-.57.28-.57,0Z"/><path class="cls-1" d="M109.55,53.78c-.28.28-.57.56-.57.85s.57.84.57,1.13c.28,0,.28-.29.56-.57s.57-.28.29-.85-.85-1.13-.85-.56Z"/><path class="cls-1" d="M88.34,38.78a.54.54,0,0,1,.28-.85c.29,0,1.13-.29.85,0a2.24,2.24,0,0,1-1.13.85Z"/><path class="cls-1" d="M85,38.49a.6.6,0,0,1-.57-.56c.28,0,.28-.29.85,0,.28.28.85.28.56.28a1,1,0,0,1-.84.28Z"/><path class="cls-1" d="M80.7,37.08c0-.29,0-.85-.28-.57-.28,0-1.41,0-.85.28a1,1,0,0,0,.85.29c0,.28.57.28.28,0Z"/><path class="cls-1" d="M78.44,35.1a1,1,0,0,0-.28-.57s-.57-.28-.57,0c0,.57-.28.85.29,1.13.28.29.56,0,.56-.56Z"/><path class="cls-1" d="M75.61,35.66c.29,0,0-.56,0-.56a1,1,0,0,0-.56.28c.28.28.28.28.56.28Z"/><path class="cls-1" d="M79,24.91a1,1,0,0,1-.29-.85c.29-.29.57-.57.57,0,.28.56,0,.56,0,.85-.28.28-.28,0-.28,0Z"/><path class="cls-1" d="M81.84,22.93a1,1,0,0,0,.28-.57c.28,0,.56-.28.56,0,0,.57-.56.85-.84.57Z"/><path class="cls-1" d="M95.69,66.8a2.52,2.52,0,0,1-1.41,1.13c-.57,0-.85.85-.85,1.13s.85,1.13.28,1.7-.56.56-.28,1.41A1.65,1.65,0,0,0,94,73.59c.28.28.56.28.84-.28a1.66,1.66,0,0,0,.57-1.42c0-1.13,0-1.13.28-1.7.28-.28.28-.56.57-1.13a2.16,2.16,0,0,1,.28-1.42c.28-.28,0-.56,0-.84-.28-.57-.28-1.7-.85,0Z"/><path class="cls-1" d="M50.45,13.87c-.29-.28-.57-.57,0-1.13.28-.57,0-.85.56-.29.57.29,1.13.57.57,1.14-.85.28-.85.56-1.13.28Z"/><path class="cls-1" d="M14,23.77c-.29-.56-.57-1.13,0-.84.28,0,.28-.29.85.56a1.85,1.85,0,0,1,.56,1.42A4.52,4.52,0,0,0,15.66,26c.29.85.85,1.7.29,1.41-.57-.56-1.13-1.13-.85-2a1.63,1.63,0,0,0-.57-1.41c-.28-.29-.28,0-.56-.29Z"/><path class="cls-1" d="M30.09,4c0,.57.28.29.56.29,0,0,0-.57-.28-.57s-.28,0-.28.28Z"/><path class="cls-1" d="M28.67,5.94a1.06,1.06,0,0,1,.28.85s-.56,0-.56-.28c-.28,0,0-.57.28-.57Z"/><path class="cls-1" d="M27.26,5.66c.28.57.28.85,0,.85-.28.28-.28-.28-.57-.28,0-.29.57-.85.57-.57Z"/><path class="cls-1" d="M27.54,9.91c.28,0,.28.28.28.56-.28.29-.56,0-.56-.28-.28-.28,0-.28.28-.28Z"/><path class="cls-1" d="M27.82,8.77c0,.29-.28-.28-.28-.28,0-.28.28-.28.28,0,.29.28.29.28,0,.28Z"/><path class="cls-1" d="M39.14,19.53c0-.28,0-.57-.29-.28a.28.28,0,1,0,0,.56.28.28,0,0,0,.29-.28Z"/><path class="cls-1" d="M39.7,19a.87.87,0,0,1-.28-.56c.28-.29.28-.29.56,0l.29-.29s.28-.28.28.29a.27.27,0,0,1-.28.28c0-.28-.29-.28-.29,0a.27.27,0,0,0-.28.28Z"/></svg>