<svg xmlns="http://www.w3.org/2000/svg" viewBox="0 0 576 512"><defs><style>.cls-1{fill:#a63193;}</style></defs><title>Layer 1</title><g id="Layer_2" data-name="Layer 2"><g id="Layer_1-2" data-name="Layer 1"><path class="cls-1" d="M576,24V152c0,21.47-26,32-41,17l-35.71-35.71L255.8,376.77a24,24,0,0,1-33.94,0l-22.63-22.63a24,24,0,0,1,0-33.94L442.76,76.68,407.05,41C392,25.9,402.66,0,424,0H552A24,24,0,0,1,576,24ZM407,270.79l-16,16a24,24,0,0,0-7,17V448H64V128H328a24,24,0,0,0,17-7l16-16c15.12-15.12,4.41-41-17-41H48A48,48,0,0,0,0,112V464a48,48,0,0,0,48,48H400a48,48,0,0,0,48-48V287.76C448,266.38,422.15,255.67,407,270.79Z"/></g></g></svg>