<?xml version="1.0" encoding="utf-8"?>
<!-- Generator: Adobe Illustrator 22.1.0, SVG Export Plug-In . SVG Version: 6.00 Build 0)  -->
<svg version="1.1" id="Layer_1" xmlns="http://www.w3.org/2000/svg" xmlns:xlink="http://www.w3.org/1999/xlink" x="0px" y="0px"
	 viewBox="0 0 124 116.1" style="enable-background:new 0 0 124 116.1;" xml:space="preserve">
<style type="text/css">
	.st0{fill:#A9ADC1;}
</style>
<title>icon-techsupport</title>
<path class="st0" d="M83.8,41.8c-2-1.6-4.9-1.3-6.7,0.5L56.3,63l-9.2-9.2c-1.8-2-4.9-2.2-6.9-0.4c-2,1.8-2.2,4.9-0.4,6.9
	c0.1,0.1,0.2,0.2,0.3,0.3l13.8,13.8c1.4,1.4,3.7,1.4,5.1,0L84.2,49c1.9-2,1.8-5.2-0.1-7.1C84,41.9,83.9,41.8,83.8,41.8z"/>
<path class="st0" d="M124,51.5c0-1.3-0.9-2.4-2.2-2.8c-7.4-2.5-13.4-7.9-16.8-14.9c-2.3-4.1-3.7-8.6-4.1-13.2
	c-0.1-1.6-0.1-3.2,0.1-4.8c0.1-1,0.3-2.1,0.5-3.2c0.1-0.2,0.1-0.4,0.1-0.6v-0.9c-0.1-1.2-0.8-2.2-1.9-2.7C98.3,7.7,97,6.9,95.6,6
	l-0.8-0.5c-2.1-1.2-4.4-2.6-6.6-4c-1.2-0.8-2.7-0.8-4-0.2c-0.3,0.2-0.7,0.4-1.1,0.7l-0.4,0.3c-1.4,1.1-2.8,2.1-4.3,3.1
	c-0.7,0.4-1.3,0.6-1.9,0.9C71.4,8.2,66,9,60.5,8.9c-6.7-0.4-13.1-3.1-18-7.7c-1.2-1.3-3.2-1.5-4.7-0.5C34,2.9,30.1,5.1,26.1,7.2
	c-0.8,0.4-1.4,1-1.8,1.8c-0.1,0.3-0.2,0.5-0.2,0.8c-0.1,0.5,0,1.1,0.1,1.6c0.2,1.4,0.4,2.8,0.4,4.2v0.1c0.1,1.7,0,3.3-0.2,5
	c-0.2,1.8-0.6,3.5-1.2,5.2c-2,6.2-6.3,11.8-12.8,17c-0.6,0.4-1.2,0.8-1.8,1.2c-1.6,0.8-3.2,1.5-4.9,2l-0.4,0.2
	c-0.4,0.1-0.8,0.3-1.2,0.5c-0.8,0.4-1.4,1.1-1.7,1.9c-0.1,0.3-0.2,0.5-0.2,0.8v2.9c0,1.2,0,2.5-0.1,3.7v2.4C0.1,60,0,61.8,0,63.4
	v1.1c0.2,1.4,1.2,2.6,2.6,3c6.7,2.3,11.8,6.8,16.1,14.1c3.5,5.7,5,12.3,4.3,18.9c-0.1,1.1-0.3,2.2-0.6,3.3c0,0.1-0.1,0.3-0.1,0.4
	c-0.2,1.4,0.5,2.7,1.8,3.3c4.4,2.7,8.2,5,12,7.2c0.5,0.3,1.2,0.5,1.8,0.6c0.6,0,1.1-0.1,1.6-0.4c0.4-0.2,0.7-0.5,1-0.8
	c1.3-1.3,2.9-2.5,4.5-3.4c5.1-2.8,12.1-4.1,19.1-3.4s13.3,3.3,17,7.3c0.7,0.8,1.7,1.3,2.7,1.5h0.3c0.9,0,1.8-0.3,2.5-0.8
	c2.1-1.2,4.1-2.3,5.5-3.1s3.4-1.9,5.6-3.1c0.9-0.4,1.7-1.2,2.1-2.1c0.1-0.3,0.2-0.5,0.2-0.8c0.1-0.6,0-1.3-0.2-1.9
	c-0.2-0.8-0.3-1.5-0.5-2.3c-0.1-1.4-0.2-2.7-0.1-4.1c0.1-1.7,0.4-3.4,0.8-5c0.6-2.4,1.5-4.7,2.6-6.9c3.1-6.3,7.9-11.6,13-14.4
	c1.7-0.9,3.4-1.6,5.3-2c1-0.2,1.9-0.8,2.4-1.8c0.1-0.2,0.2-0.5,0.2-0.7c0-0.1,0.1-0.2,0.1-0.4c0-0.2,0-0.4,0.1-0.6
	c0-1.1,0.1-2.1,0.1-3.2c0.1-3.7,0.1-7.3,0.1-10.7C124,52,124,51.8,124,51.5z M98.2,62.7c-0.4,3.1-1.2,6.1-2.4,9
	c-3.2,7.6-8.8,14-16,18c-6.1,3.3-13,4.9-20,4.5C47.9,93.6,37.1,87,31,76.8c-4.2-7.1-6-15.5-5-23.7c0.2-1.6,0.5-3.1,0.9-4.6
	c0.5-1.8,1.1-3.5,1.8-5.2c0.2-0.5,0.4-1,0.7-1.5c0-0.1,0.1-0.1,0.1-0.2c3.3-6.6,8.6-12,15-15.5c6-3.4,12.8-4.9,19.7-4.5
	c2.8,0.2,5.6,0.7,8.3,1.5c9.6,2.9,17.6,9.7,22.1,18.6C98,48.1,99.2,55.5,98.2,62.7z"/>
</svg>
