<svg id="Layer_1" data-name="Layer 1" xmlns="http://www.w3.org/2000/svg" viewBox="0 0 56 59"><defs><style>.cls-1{fill:#2b388f;}.cls-2{fill:#a42c90;}.cls-3{fill:#ff9324;}.cls-4{fill:#009bb8;}.cls-5{fill:#d8202f;}.cls-6{fill:#e83a9c;}.cls-7{fill:#00afed;}.cls-8{fill:#a9adc0;}</style></defs><title>icon-statistical-power</title><path class="cls-1" d="M37,52.4l.7,1.88a28,28,0,0,0,18-22.13l-2-.3A26,26,0,0,1,37,52.4Z"/><path class="cls-2" d="M28,2A26.13,26.13,0,0,1,53.71,24.15l2-.3a28,28,0,0,0-55.38,0l2,.3A26.13,26.13,0,0,1,28,2Z"/><path class="cls-3" d="M28,51a4,4,0,0,0-3.77,2.72A26,26,0,0,1,2.29,31.85l-2,.3A28,28,0,0,0,24.07,55.71,4,4,0,1,0,28,51Zm0,6a2,2,0,1,1,2-2A2,2,0,0,1,28,57Z"/><path class="cls-4" d="M31.73,10.41a18,18,0,0,1,13.86,13.8l2-.42A20,20,0,0,0,31.94,8.41a4,4,0,1,0-.21,2ZM26,9a2,2,0,1,1,2,2A2,2,0,0,1,26,9Z"/><path class="cls-5" d="M8.44,23.79l2,.42a18,18,0,0,1,9.07-12.06l-.94-1.76A19.94,19.94,0,0,0,8.44,23.79Z"/><path class="cls-6" d="M28,48A20.08,20.08,0,0,0,47.55,32.21l-2-.42a18,18,0,0,1-35.18,0l-2,.42A20.09,20.09,0,0,0,28,48Z"/><path class="cls-7" d="M16,28A12,12,0,1,0,28,16,12,12,0,0,0,16,28ZM28,38a9.94,9.94,0,0,1-6.32-2.26L28.41,29H38A10,10,0,0,1,28,38ZM38,27H29V18.05A10,10,0,0,1,38,27ZM27,18.05v9.54l-6.74,6.73A10,10,0,0,1,27,18.05Z"/><rect class="cls-1" x="50" y="27" width="2" height="2"/><rect class="cls-1" x="54" y="27" width="2" height="2"/><rect class="cls-1" x="46" y="27" width="2" height="2"/><rect class="cls-1" x="4" y="27" width="2" height="2"/><rect class="cls-1" x="8" y="27" width="2" height="2"/><rect class="cls-1" y="27" width="2" height="2"/><rect class="cls-8" x="4" y="4" width="2" height="2"/><rect class="cls-8" x="50" y="4" width="2" height="2"/><rect class="cls-8" x="4" y="50" width="2" height="2"/><rect class="cls-8" x="50" y="50" width="2" height="2"/></svg>