<svg id="samples" xmlns="http://www.w3.org/2000/svg" viewBox="0 0 86 86"><defs><style>.cls-1{fill:#fff;}.cls-2{fill:#e0e1e5;}.cls-3{fill:#ff9324;}</style></defs><title>icon-stats-samples</title><circle class="cls-1" cx="43" cy="43" r="42"/><path class="cls-2" d="M44.07,3a41,41,0,1,1-41,41,41,41,0,0,1,41-41m0-2a43,43,0,1,0,43,43,43,43,0,0,0-43-43Z" transform="translate(-1.07 -1.04)"/><circle class="cls-3" cx="43" cy="43" r="35"/><path class="cls-1" d="M56.74,54.64l-7.15-12.7A4.4,4.4,0,0,1,49,39.63V30.69a2,2,0,0,0,1.3-1.8A1.92,1.92,0,0,0,48.44,27h-9a1.89,1.89,0,0,0-.57,3.68v8.94a5.2,5.2,0,0,1-.58,2.31l-7.22,12.7a4.72,4.72,0,0,0,4.12,7H52.62A4.72,4.72,0,0,0,56.74,54.64Zm-3.47,2.67a.63.63,0,0,1-.65.36H35.17a.76.76,0,0,1-.65-1.16l4.76-8.36h9.38l4.61,8.36A.76.76,0,0,1,53.27,57.31Z" transform="translate(-1.07 -1.04)"/></svg>