<svg id="Layer_1" data-name="Layer 1" xmlns="http://www.w3.org/2000/svg" viewBox="0 0 28 28"><defs><style>.cls-1{fill:#a9adc0;}</style></defs><title>icon-zoom</title><path class="cls-1" d="M21.24,20l-3.46-3.47a5.79,5.79,0,1,0-1.24,1.23L20,21.24A.87.87,0,0,0,21.24,20Zm-12-6.82a3.94,3.94,0,1,1,3.94,3.94A3.93,3.93,0,0,1,9.25,13.19Z" transform="translate(-0.5 -0.5)"/><path class="cls-1" d="M12.69,13.68H11.33v-1h1.36V11.37h1V12.7H15v1H13.66V15h-1Z" transform="translate(-0.5 -0.5)"/><path class="cls-1" d="M14.5,2.5a12,12,0,1,1-12,12,12,12,0,0,1,12-12m0-2a14,14,0,1,0,14,14,14,14,0,0,0-14-14Z" transform="translate(-0.5 -0.5)"/></svg>