<svg id="diseases" xmlns="http://www.w3.org/2000/svg" viewBox="0 0 86 86"><defs><style>.cls-1{fill:#fff;}.cls-2{fill:#e0e1e5;}.cls-3{fill:#00afed;}</style></defs><title>icon-diseases</title><circle class="cls-1" cx="43" cy="43" r="42"/><path class="cls-2" d="M44.07,3a41,41,0,1,1-41,41,41,41,0,0,1,41-41m0-2a43,43,0,1,0,43,43,43,43,0,0,0-43-43Z" transform="translate(-1.07 -1.04)"/><circle class="cls-3" cx="43" cy="43" r="35"/><path class="cls-1" d="M59.08,41.83a1.7,1.7,0,0,0-.94.59,1.29,1.29,0,0,1-1.31.36l-1.62-.45a1.3,1.3,0,0,1-.9-.9,4.76,4.76,0,0,0-.41-1.13,1.25,1.25,0,0,1,.27-1.44l2.34-2.3a1.31,1.31,0,0,1,1.54-.18,1.42,1.42,0,0,0,.49.18A1.78,1.78,0,0,0,60,36.2a1.73,1.73,0,0,0-.31-2.83,1.7,1.7,0,0,0-1.89.18,1.62,1.62,0,0,0-.64,1.17,1.23,1.23,0,0,1-.76,1.08L53,37.29A1.33,1.33,0,0,1,51.56,37c-.36-.32-.72-.64-1.13-1a1.28,1.28,0,0,1-.49-1.44l.27-.9s.13,0,.18,0a1.72,1.72,0,1,0-1.4-2,1.46,1.46,0,0,0,.18,1.08A1.31,1.31,0,0,1,49,34.22a1.28,1.28,0,0,1-1.4.45c-.45-.13-.85-.22-1.3-.31a1.32,1.32,0,0,1-1-.9L44,29.31s.13,0,.18,0a1.74,1.74,0,1,0-2.3-.9,1.89,1.89,0,0,0,.77.81,1.21,1.21,0,0,1,.63,1.21l-.23,3a1.29,1.29,0,0,1-.94,1.17,10.81,10.81,0,0,0-2.39.94,1.31,1.31,0,0,1-1.58-.27l-.72-.81.14-.13a1.74,1.74,0,0,0-.5-2.66,1.71,1.71,0,0,0-1.84.14,1.73,1.73,0,0,0-.09,2.7,1.56,1.56,0,0,0,1,.4,1.2,1.2,0,0,1,1.08.81l.18.45a1.27,1.27,0,0,1-.27,1.36A9.55,9.55,0,0,0,36,39a1.31,1.31,0,0,1-1.26.63l-4.23-.4V39a1.72,1.72,0,0,0-2.12-1.62,1.77,1.77,0,0,0-1.31,1.35,1.75,1.75,0,0,0,1.76,2.07,1.43,1.43,0,0,0,1-.4,1.32,1.32,0,0,1,1.35-.14l2.61,1.31a1.31,1.31,0,0,1,.72,1.31,11.36,11.36,0,0,0-.09,1.3,10.93,10.93,0,0,0,.09,1.31A1.37,1.37,0,0,1,34,46.79l-3,2.12s-.09-.14-.13-.18a1.74,1.74,0,1,0-.14,2.47,1.52,1.52,0,0,0,.54-1,1.34,1.34,0,0,1,1-1l2.11-.54a1.31,1.31,0,0,1,1.45.59,10.08,10.08,0,0,0,1,1.39,1.29,1.29,0,0,1,.09,1.49l-.63,1.08a.34.34,0,0,0-.18-.09,1.74,1.74,0,0,0-2.39,1.26,1.64,1.64,0,0,0,.67,1.71A1.74,1.74,0,0,0,37,55.39a2,2,0,0,0,.09-1.12A1.3,1.3,0,0,1,37.51,53l.13-.14a1.29,1.29,0,0,1,1.53-.09,9.82,9.82,0,0,0,1.58.81,1.34,1.34,0,0,1,.81,1.36l-.45,3.78h-.22a1.73,1.73,0,1,0,1.71,1.76,1.64,1.64,0,0,0-.36-1,1.22,1.22,0,0,1-.09-1.35l2-3.74h.36A8.79,8.79,0,0,0,47,54a1.39,1.39,0,0,1,1.39.46l1.35,1.75a.56.56,0,0,1-.18.14A1.76,1.76,0,0,0,49.8,59,1.72,1.72,0,0,0,52,56.38a1.7,1.7,0,0,0-1-.49,1.26,1.26,0,0,1-1-.9l-.27-1a1.28,1.28,0,0,1,.49-1.44,8.87,8.87,0,0,0,1.67-1.44,1.39,1.39,0,0,1,1.49-.32l3.82,1.62s0,.14-.09.18a1.73,1.73,0,0,0,1.58,2.21,1.69,1.69,0,0,0,1.62-.9,1.72,1.72,0,0,0-1-2.48,1.9,1.9,0,0,0-1.13.05,1.36,1.36,0,0,1-1.35-.27L54.31,49a1.34,1.34,0,0,1-.32-1.4,9.81,9.81,0,0,0,.54-3.28V44l3.06-.32a.39.39,0,0,0,0,.23,1.73,1.73,0,0,0,3.42-.41A1.58,1.58,0,0,0,59.08,41.83ZM38.36,46.29c-.85,0-1.08-1.21-1.08-2.34a1.86,1.86,0,0,1,1.58-2c1.57,0,1.8,1.27,1.8,2.39S39.22,46.29,38.36,46.29Zm6.44,5.27c-1.17,0-2.47-.85-2.47-1.89s1.39-1.53,2.56-1.53,2,.45,2,1.53A2,2,0,0,1,44.8,51.56Zm-.22-9.23a2.92,2.92,0,0,1-2.88-2.57,3,3,0,0,1,2.88-2.56c1.3,0,2.34.58,2.34,2S45.88,42.33,44.58,42.33Zm5.18,4.32a2.38,2.38,0,0,1-2.3-2.07c0-.9,1-1.17,2.3-1.17s2.3.72,2.3,1.62S51,46.65,49.76,46.65Z" transform="translate(-1.07 -1.04)"/></svg>