<svg xmlns="http://www.w3.org/2000/svg" viewBox="0 0 124 116.03"><defs><style>.cls-1{fill:#fff;}.cls-2{fill:#a9adc1;}</style></defs><title>Layer 1</title><g id="Layer_2" data-name="Layer 2"><g id="Layer_1-2" data-name="Layer 1"><path class="cls-1" d="M94.85,41.88a34.68,34.68,0,0,1,3.6,21,35.23,35.23,0,0,1-2.4,9,36.94,36.94,0,0,1-16,18,37.51,37.51,0,0,1-20,4.5A35.75,35.75,0,0,1,31.25,77a37.79,37.79,0,0,1-5-23.7,34,34,0,0,1,.9-4.6,45.57,45.57,0,0,1,1.8-5.2,10.09,10.09,0,0,1,.7-1.5c0-.1.1-.1.1-.2a36.2,36.2,0,0,1,15-15.5,35.59,35.59,0,0,1,19.7-4.5,39.1,39.1,0,0,1,8.3,1.5A36.8,36.8,0,0,1,94.85,41.88Z" transform="translate(-0.25 -0.25)"/><path class="cls-2" d="M100.05,104.48a4.13,4.13,0,0,1,.2,1.9,2.35,2.35,0,0,1-.2.8,4.29,4.29,0,0,1-2.1,2.1c-2.2,1.2-4.2,2.3-5.6,3.1s-3.4,1.9-5.5,3.1a4.38,4.38,0,0,1-2.5.8h-.3a4.87,4.87,0,0,1-2.7-1.5c-3.7-4-10-6.6-17-7.3s-14,.6-19.1,3.4a21.3,21.3,0,0,0-4.5,3.4,3.92,3.92,0,0,1-1,.8,2.93,2.93,0,0,1-1.6.4,5.46,5.46,0,0,1-1.8-.6c-3.8-2.2-7.6-4.5-12-7.2a3.09,3.09,0,0,1-1.8-3.3c0-.1.1-.3.1-.4a19.09,19.09,0,0,0,.6-3.3A30,30,0,0,0,19,81.78c-4.3-7.3-9.4-11.8-16.1-14.1a3.66,3.66,0,0,1-2.6-3v-1.1c0-1.6.1-3.4.1-4.9v-2.4c.1-1.2.1-2.5.1-3.7v-2.9a2.35,2.35,0,0,1,.2-.8A3.51,3.51,0,0,1,2.35,47a6.12,6.12,0,0,1,1.2-.5l.4-.2a29.65,29.65,0,0,0,4.9-2l1.8-1.2c6.5-5.2,10.8-10.8,12.8-17a23.11,23.11,0,0,0,1.2-5.2,27.9,27.9,0,0,0,.2-5v-.1a29.84,29.84,0,0,0-.4-4.2,4.33,4.33,0,0,1-.1-1.6,2.35,2.35,0,0,1,.2-.8,3.92,3.92,0,0,1,1.8-1.8c4-2.1,7.9-4.3,11.7-6.5a3.65,3.65,0,0,1,4.7.5,28.82,28.82,0,0,0,18,7.7,43.35,43.35,0,0,0,16-2.6c.6-.3,1.2-.5,1.9-.9,1.5-1,2.9-2,4.3-3.1l.4-.3c.4-.3.8-.5,1.1-.7a4.07,4.07,0,0,1,4,.2c2.2,1.4,4.5,2.8,6.6,4l.8.5a43.61,43.61,0,0,0,4.1,2.4,3.21,3.21,0,0,1,1.9,2.7v.9a1.27,1.27,0,0,1-.1.6c-.2,1.1-.4,2.2-.5,3.2a25.67,25.67,0,0,0-.1,4.8,32.81,32.81,0,0,0,4.1,13.2,29,29,0,0,0,16.8,14.9,3,3,0,0,1,2.2,2.8,1.48,1.48,0,0,1-.1.7c0,3.4,0,7-.1,10.7,0,1.1-.1,2.1-.1,3.2a1.27,1.27,0,0,0-.1.6c0,.2-.1.3-.1.4a1.85,1.85,0,0,1-.2.7,3.37,3.37,0,0,1-2.4,1.8,20,20,0,0,0-5.3,2c-5.1,2.8-9.9,8.1-13,14.4a33.76,33.76,0,0,0-2.6,6.9,27.45,27.45,0,0,0-.8,5,28.08,28.08,0,0,0,.1,4.1C99.75,103,99.85,103.68,100.05,104.48Zm-1.6-41.6a34.68,34.68,0,0,0-3.6-21,36.8,36.8,0,0,0-22.1-18.6,39.1,39.1,0,0,0-8.3-1.5,35.59,35.59,0,0,0-19.7,4.5,36.2,36.2,0,0,0-15,15.5c0,.1-.1.1-.1.2a10.09,10.09,0,0,0-.7,1.5,45.57,45.57,0,0,0-1.8,5.2,34,34,0,0,0-.9,4.6,37.79,37.79,0,0,0,5,23.7,35.75,35.75,0,0,0,28.8,17.4,37.51,37.51,0,0,0,20-4.5,36.94,36.94,0,0,0,16-18A35.23,35.23,0,0,0,98.45,62.88Z" transform="translate(-0.25 -0.25)"/><path class="cls-2" d="M84.05,42a5.06,5.06,0,0,0-6.7.5l-20.8,20.7L47.35,54a4.89,4.89,0,0,0-7.3,6.5l.3.3,13.8,13.8a3.62,3.62,0,0,0,5.1,0l25.2-25.4a5.13,5.13,0,0,0-.1-7.1C84.25,42.08,84.15,42,84.05,42Z" transform="translate(-0.25 -0.25)"/></g></g></svg>