<svg id="research_copy_2" data-name="research copy 2" xmlns="http://www.w3.org/2000/svg" viewBox="0 0 82.48 82.48"><defs><style>.cls-1{fill:#fff;}.cls-2{fill:none;}.cls-3{fill:#009bb8;}</style></defs><title>icon-user-health</title><circle class="cls-1" cx="41.24" cy="41.24" r="39.67"/><path class="cls-2" d="M35.24,58a9.64,9.64,0,0,0-4.46-4.95,2.28,2.28,0,0,0-1-1.19c.42-2,2.77-4.9,5.68-4.9V45.09A7.5,7.5,0,0,0,30,47.63a8,8,0,0,0-2.17,4.2,2.35,2.35,0,0,0-1.16,1.33,7,7,0,0,0-1.85,1.29,12.92,12.92,0,0,0-2.59,3.83,1.34,1.34,0,0,0-.05,1,15.48,15.48,0,0,0-1.11,5.42c0,1.83.09,2.9.57,3.67a2.65,2.65,0,0,0,1.95,1.16,1.14,1.14,0,0,0,.77.3H26.1a1.16,1.16,0,0,0,1.16-1.16v-.06h0a1.16,1.16,0,0,0-1.16-1.09H24.38a1.17,1.17,0,0,0-.52.12c-.46-.08-.54-.21-.58-.28A7.12,7.12,0,0,1,23,64.72a13.31,13.31,0,0,1,.93-4.59,1.38,1.38,0,0,0,.78-.72c1.13-2.45,2.73-4,4.09-4s2.86,1.47,4,3.84a1.35,1.35,0,0,0,.68.65,13.74,13.74,0,0,1,1,4.87,7.23,7.23,0,0,1-.26,2.65c0,.07-.11.18-.52.27a1.13,1.13,0,0,0-.48-.11H31.52a1.17,1.17,0,0,0-1.16,1.13h0v0a1.16,1.16,0,0,0,1.16,1.16h1.72a1.14,1.14,0,0,0,.8-.33c2.25-.44,2.36-2.12,2.36-4.79a15.61,15.61,0,0,0-1.15-5.54A1.32,1.32,0,0,0,35.24,58Z" transform="translate(-2.93 -2.68)"/><polygon class="cls-2" points="53.93 59.75 51.09 59.75 51.09 62.21 48.63 62.21 48.63 65.05 51.09 65.05 51.09 67.51 53.93 67.51 53.93 65.05 56.38 65.05 56.38 62.21 53.93 62.21 53.93 59.75"/><path class="cls-2" d="M55.05,49.19H54.4c-2.08,0-3.78.26-4.27,1.06l1.6-3.33a10.82,10.82,0,0,1-7.57,3.33,10.92,10.92,0,0,1-7.72-3.48l2.3,5.12c-.54-.88-2.61-1.33-5.05-1.54C34.63,52.1,37,53.51,40,54.19L44.17,61l4.16-6.78C52,53.36,54.68,51.46,55.05,49.19Z" transform="translate(-2.93 -2.68)"/><path class="cls-2" d="M44.17,48.14c4,0,7.54-2.85,9.72-7.23a22.58,22.58,0,0,0,2.23-8.41,12.5,12.5,0,0,0,.14-1.74l-.75-.14h-.07l-4.07-.51c2.23-1.29,1.05-4.11.5-5.06a4.65,4.65,0,0,0-.28-.44l-.09.07A48.28,48.28,0,0,1,39.93,31a48.67,48.67,0,0,1-7.69,1.93C33,41.52,38.07,48.14,44.17,48.14Z" transform="translate(-2.93 -2.68)"/><path class="cls-2" d="M44.17,7.53A36.39,36.39,0,1,0,80.56,43.92,36.39,36.39,0,0,0,44.17,7.53Zm0,71.16A34.73,34.73,0,0,1,16.92,65.48,18.09,18.09,0,0,1,27.55,50.2c-2.22,0-3.88.15-3.88.15,6.17-3.39,6-15.56,6-15.56-1-21.34,11.68-22.34,14.08-22.34h.39l0,0v0h.4c2.4,0,15.06,1,14.08,22.34,0,0-.16,12.17,6,15.56,0,0-2.71-.53-5.8-.88a18.11,18.11,0,0,1,12.55,16A34.69,34.69,0,0,1,44.17,78.69Z" transform="translate(-2.93 -2.68)"/><path class="cls-2" d="M59.48,52.49a3.76,3.76,0,0,0-.84-.33,8.84,8.84,0,0,0-.76-2.58,7.53,7.53,0,0,0-4.37-4.11l-.33-.11-.11.33-.38,1.15-.11.33.33.11a6.23,6.23,0,0,1,3.78,4.82,4.15,4.15,0,1,0,2.79.39Zm-2,5.76a2.09,2.09,0,1,1,2.08-2.09A2.1,2.1,0,0,1,57.52,58.25Z" transform="translate(-2.93 -2.68)"/><path class="cls-3" d="M65.36,53.17a17.86,17.86,0,0,0-6.5-3.7c3.09.35,5.8.88,5.8.88-6.17-3.39-6-15.56-6-15.56,1-21.33-11.68-22.34-14.08-22.34h-.4v0h-.39c-2.4,0-15.06,1-14.08,22.34,0,0,.15,12.17-6,15.56,0,0,1.66-.11,3.88-.15a17.72,17.72,0,0,0-4.59,3,17.92,17.92,0,0,0-6,12.31,34.7,34.7,0,0,0,54.49,0A17.91,17.91,0,0,0,65.36,53.17ZM39.93,31A48.28,48.28,0,0,0,51.5,24.68l.09-.07a4.65,4.65,0,0,1,.28.44c.55.95,1.73,3.77-.5,5.06l4.07.52h.08l.74.13a14.1,14.1,0,0,1-.13,1.74,22.72,22.72,0,0,1-2.24,8.41c-2.18,4.38-5.72,7.23-9.72,7.23-6.1,0-11.14-6.62-11.93-15.21A48.67,48.67,0,0,0,39.93,31ZM34,69.52a1.14,1.14,0,0,1-.8.33H31.52a1.16,1.16,0,0,1-1.16-1.16v0h0a1.16,1.16,0,0,1,1.16-1.13h1.72a1.13,1.13,0,0,1,.48.11c.41-.09.48-.2.52-.27a7.23,7.23,0,0,0,.26-2.65,13.74,13.74,0,0,0-1-4.87,1.35,1.35,0,0,1-.68-.65c-1.13-2.37-2.66-3.84-4-3.84s-3,1.59-4.09,4a1.35,1.35,0,0,1-.78.72A13.31,13.31,0,0,0,23,64.72a7.12,7.12,0,0,0,.28,2.66c0,.07.12.2.58.28a1.17,1.17,0,0,1,.52-.12H26.1a1.15,1.15,0,0,1,1.15,1.09h0v.06a1.16,1.16,0,0,1-1.16,1.16H24.38a1.14,1.14,0,0,1-.77-.3,2.65,2.65,0,0,1-1.95-1.16c-.48-.77-.57-1.84-.57-3.67A15.48,15.48,0,0,1,22.2,59.3a1.39,1.39,0,0,1,0-1,12.94,12.94,0,0,1,2.6-3.83,7,7,0,0,1,1.85-1.29,2.35,2.35,0,0,1,1.16-1.33A8,8,0,0,1,30,47.63a7.5,7.5,0,0,1,5.43-2.54V47c-2.91,0-5.26,2.86-5.68,4.9a2.25,2.25,0,0,1,1,1.19A9.64,9.64,0,0,1,35.24,58a1.36,1.36,0,0,1,0,1.15,15.61,15.61,0,0,1,1.15,5.54C36.4,67.4,36.29,69.08,34,69.52ZM44.17,61,40,54.19c-3-.68-5.37-2.09-6.31-3.84,2.44.21,4.51.66,5.05,1.54l-2.3-5.12a10.92,10.92,0,0,0,7.72,3.48,10.82,10.82,0,0,0,7.57-3.33l-1.6,3.33c.49-.8,2.19-1.06,4.27-1.06h.65c-.37,2.27-3,4.17-6.72,5Zm15.14,6.76H56.85v2.45H54V67.73H51.56V64.89H54V62.43h2.84v2.46h2.46Zm1.88-9.6a4.17,4.17,0,1,1-4.5-6,6.23,6.23,0,0,0-3.78-4.82l-.33-.11.11-.33.38-1.15.11-.33.33.11a7.53,7.53,0,0,1,4.37,4.11,8.84,8.84,0,0,1,.76,2.58,3.76,3.76,0,0,1,.84.33A4.16,4.16,0,0,1,61.19,58.13Z" transform="translate(-2.93 -2.68)"/><circle class="cls-3" cx="54.59" cy="53.49" r="2.08"/><path class="cls-3" d="M44.17,2.68A41.24,41.24,0,1,0,85.41,43.92,41.29,41.29,0,0,0,44.17,2.68Zm0,77.63A36.39,36.39,0,1,1,80.56,43.92,36.39,36.39,0,0,1,44.17,80.31Z" transform="translate(-2.93 -2.68)"/></svg>