<?xml version="1.0" encoding="utf-8"?>
<!-- Generator: Adobe Illustrator 21.1.0, SVG Export Plug-In . SVG Version: 6.00 Build 0)  -->
<svg version="1.1" id="Layer_1" xmlns="http://www.w3.org/2000/svg" xmlns:xlink="http://www.w3.org/1999/xlink" x="0px" y="0px"
	 viewBox="0 0 100 100" style="enable-background:new 0 0 100 100;" xml:space="preserve">
<style type="text/css">
	.st0{fill:#74757D;}
</style>
<g>
	<path class="st0" d="M31.5,51.1c0,0.1,0.1,0.1,0.1,0.2c0,0,0.1,0.1,0.1,0.1l24.3,25c0.4,0.4,0.9,0.6,1.4,0.6c0.5,0,1-0.2,1.4-0.6
		c0.8-0.8,0.8-2,0-2.8L36,50l22.9-23.6c0.8-0.8,0.8-2.1,0-2.8s-2.1-0.8-2.8,0l-24.3,25c0,0-0.1,0.1-0.1,0.1c0,0.1-0.1,0.1-0.1,0.2
		c0,0.1-0.1,0.1-0.1,0.2c0,0.1-0.1,0.1-0.1,0.2c0,0.1,0,0.1-0.1,0.2c0,0.1,0,0.1-0.1,0.2c0,0.1,0,0.1,0,0.2c0,0.1,0,0.1,0,0.2
		s0,0.1,0,0.2c0,0.1,0,0.1,0,0.2c0,0.1,0,0.1,0.1,0.2c0,0.1,0,0.1,0.1,0.2c0,0.1,0.1,0.1,0.1,0.2C31.4,51,31.5,51,31.5,51.1z"/>
	<path class="st0" d="M50,9c22.6,0,41,18.4,41,41S72.6,91,50,91S9,72.6,9,50S27.4,9,50,9 M50,5C25.1,5,5,25.1,5,50s20.1,45,45,45
		s45-20.1,45-45S74.9,5,50,5L50,5z"/>
</g>
</svg>
