<svg xmlns="http://www.w3.org/2000/svg" viewBox="0 0 86 86"><defs><style>.cls-1{fill:#fff;}.cls-2{fill:#e0e1e5;}.cls-3{fill:#a9adc0;}.cls-4{fill:#f9f9f9;}</style></defs><title>Layer 1</title><g id="Layer_2" data-name="Layer 2"><g id="Layer_1-2" data-name="Layer 1"><g id="contact"><circle class="cls-1" cx="43" cy="42.95" r="42"/><path class="cls-2" d="M43,2A41,41,0,1,1,2,43,41,41,0,0,1,43,2m0-2A43,43,0,1,0,86,43,43,43,0,0,0,43,0Z"/><circle class="cls-3" cx="43" cy="42.95" r="35"/></g><g id="Layer_1-3" data-name="Layer 1"><polygon class="cls-4" points="29.02 24.95 29.02 35.26 32.94 35.26 32.94 28.87 56.41 28.87 56.41 54.43 32.94 54.43 32.94 48.04 29.02 48.04 29.02 58.36 60.33 58.36 60.33 24.95 29.02 24.95"/><polygon class="cls-4" points="40.08 48.42 42.85 51.18 52.41 41.62 42.85 32.05 40.08 34.81 44.9 39.6 24.84 39.6 24.84 43.52 44.98 43.52 40.08 48.42"/></g></g></g></svg>