<svg xmlns="http://www.w3.org/2000/svg" viewBox="0 0 39.5 27.31"><defs><style>.cls-1{fill:#a42c90;}</style></defs><title>Layer 1</title><g id="Layer_2" data-name="Layer 2"><g id="Layer_1-2" data-name="Layer 1"><path class="cls-1" d="M20.3,14.45h0l-.09.05h0l-.1.05h-.79L.49,2A3.74,3.74,0,0,0,0,3.85V23.46a3.86,3.86,0,0,0,3.84,3.85H35.66a3.86,3.86,0,0,0,3.84-3.85V3.85a3.87,3.87,0,0,0-.62-2.09Z"/><path class="cls-1" d="M37.4.42A3.91,3.91,0,0,0,35.66,0H3.84a3.81,3.81,0,0,0-2,.57l17.9,11.92Z"/></g></g></svg>