<?xml version="1.0" encoding="utf-8"?>
<!-- Generator: Adobe Illustrator 22.1.0, SVG Export Plug-In . SVG Version: 6.00 Build 0)  -->
<svg version="1.1" id="Layer_1" xmlns="http://www.w3.org/2000/svg" xmlns:xlink="http://www.w3.org/1999/xlink" x="0px" y="0px"
	 viewBox="0 0 100 100" style="enable-background:new 0 0 100 100;" xml:space="preserve">
<style type="text/css">
	.st0{fill:#FFFFFF;}
	.st1{fill:#8F278E;}
</style>
<g>
	<g id="XMLID_1_">
		<g>
			<path class="st0" d="M77.4,22.6c7.3,7.3,11.3,17,11.3,27.4c0,10.3-4,20.1-11.3,27.4c-7.3,7.3-17,11.3-27.4,11.3
				c-10.3,0-20.1-4-27.4-11.3c-7.3-7.3-11.3-17-11.3-27.4c0-10.3,4-20.1,11.3-27.4s17-11.3,27.4-11.3C60.3,11.3,70.1,15.3,77.4,22.6
				z M69,35.5c1.2-1.3,1.2-3.2,0-4.5c-1.2-1.2-3.2-1.2-4.4,0L50,45.6L35.5,31c-1.2-1.2-3.2-1.2-4.4,0c-1.2,1.2-1.2,3.2,0,4.4
				L45.6,50L31,64.5c-1.2,1.2-1.2,3.2,0,4.4c0.6,0.6,1.4,0.9,2.2,0.9s1.6-0.3,2.2-0.9L50,54.4L64.5,69c0.6,0.6,1.4,0.9,2.2,0.9
				c0.8,0,1.6-0.3,2.2-0.9c1.2-1.2,1.2-3.2,0-4.4L54.4,50L69,35.5z"/>
			<path class="st1" d="M50,5c24.9,0,45,20.1,45,45S74.9,95,50,95S5,74.9,5,50S25.1,5,50,5z M88.7,50c0-10.4-4-20.1-11.3-27.4
				C70.1,15.3,60.3,11.3,50,11.3c-10.4,0-20.1,4-27.4,11.3S11.3,39.7,11.3,50c0,10.4,4,20.1,11.3,27.4c7.3,7.3,17.1,11.3,27.4,11.3
				c10.4,0,20.1-4,27.4-11.3C84.7,70.1,88.7,60.3,88.7,50z"/>
			<path class="st1" d="M69,31c1.2,1.3,1.2,3.2,0,4.5L54.4,50l14.5,14.6c1.2,1.2,1.2,3.2,0,4.4c-0.6,0.6-1.4,0.9-2.2,0.9
				c-0.8,0-1.6-0.3-2.2-0.9L50,54.4L35.4,68.9c-0.6,0.6-1.4,0.9-2.2,0.9s-1.6-0.3-2.2-0.9c-1.2-1.2-1.2-3.2,0-4.4L45.6,50L31.1,35.4
				c-1.2-1.2-1.2-3.2,0-4.4c1.2-1.2,3.2-1.2,4.4,0L50,45.6L64.6,31C65.8,29.8,67.8,29.8,69,31z"/>
		</g>
		<g>
		</g>
	</g>
</g>
</svg>
