<svg id="participants" xmlns="http://www.w3.org/2000/svg" viewBox="0 0 86 86"><defs><style>.cls-1,.cls-4{fill:#fff;}.cls-2{fill:#e0e1e5;}.cls-3{fill:#e83a9c;}.cls-4{fill-rule:evenodd;}</style></defs><title>icon-stats-participants</title><circle class="cls-1" cx="43" cy="43" r="42"/><path class="cls-2" d="M44.07,3a41,41,0,1,1-41,41,41,41,0,0,1,41-41m0-2a43,43,0,1,0,43,43,43,43,0,0,0-43-43Z" transform="translate(-1.07 -1.04)"/><circle class="cls-3" cx="43" cy="43" r="35"/><path class="cls-4" d="M39.88,51.65c0,3.86-2.26,9,.18,11,1.88,1.57,3.76-2.82,5.63-6,2.13-3.68,3.23-2.9,7.7-3.31,10.38-.94,8.25-3.73,3.06-4.6-1.94-.33-4.76-.75-6.07-3.59s.08-5.25,2.15-8.18c2.81-4,3.61-6.26-2.53-2.77-6.32,3.59-6.67,4.52-13.3,1-8.91-4.67-6.2.08-2.14,4.07A17.59,17.59,0,0,1,39.88,51.65Z" transform="translate(-1.07 -1.04)"/><path class="cls-4" d="M40.11,34.53c-1.55-1.7-1.27-5.38.46-7,2.2-2,4.15-1.78,5.36-.57C50.13,31.22,43.49,38.25,40.11,34.53Z" transform="translate(-1.07 -1.04)"/></svg>