<svg id="all_topics_purple" data-name="all topics purple" xmlns="http://www.w3.org/2000/svg" viewBox="0 0 13 13.1"><defs><style>.cls-1{fill:#a42c90;}</style></defs><title>icon-alltopics-purple</title><path class="cls-1" d="M4.76,5.36H2.4a.77.77,0,0,1-.76-.76V2.24a.77.77,0,0,1,.76-.77H4.76a.78.78,0,0,1,.77.77V4.6A.77.77,0,0,1,4.76,5.36Z" transform="translate(-1.64 -1.47)"/><path class="cls-1" d="M9.32,5.36H7a.77.77,0,0,1-.77-.76V2.24A.78.78,0,0,1,7,1.47H9.32a.77.77,0,0,1,.76.77V4.6A.77.77,0,0,1,9.32,5.36Z" transform="translate(-1.64 -1.47)"/><path class="cls-1" d="M13.87,5.36H11.51a.77.77,0,0,1-.76-.76V2.24a.77.77,0,0,1,.76-.77h2.36a.78.78,0,0,1,.77.77V4.6A.77.77,0,0,1,13.87,5.36Z" transform="translate(-1.64 -1.47)"/><path class="cls-1" d="M4.76,10H2.4a.77.77,0,0,1-.76-.77V6.84a.77.77,0,0,1,.76-.76H4.76a.77.77,0,0,1,.77.76V9.2A.78.78,0,0,1,4.76,10Z" transform="translate(-1.64 -1.47)"/><path class="cls-1" d="M9.32,10H7a.78.78,0,0,1-.77-.77V6.84A.77.77,0,0,1,7,6.08H9.32a.77.77,0,0,1,.76.76V9.2A.77.77,0,0,1,9.32,10Z" transform="translate(-1.64 -1.47)"/><path class="cls-1" d="M13.87,10H11.51a.77.77,0,0,1-.76-.77V6.84a.77.77,0,0,1,.76-.76h2.36a.77.77,0,0,1,.77.76V9.2A.78.78,0,0,1,13.87,10Z" transform="translate(-1.64 -1.47)"/><path class="cls-1" d="M4.76,14.57H2.4a.77.77,0,0,1-.76-.76V11.45a.77.77,0,0,1,.76-.77H4.76a.78.78,0,0,1,.77.77v2.36A.77.77,0,0,1,4.76,14.57Z" transform="translate(-1.64 -1.47)"/><path class="cls-1" d="M9.32,14.57H7a.77.77,0,0,1-.77-.76V11.45A.78.78,0,0,1,7,10.68H9.32a.77.77,0,0,1,.76.77v2.36A.77.77,0,0,1,9.32,14.57Z" transform="translate(-1.64 -1.47)"/><path class="cls-1" d="M13.87,14.57H11.51a.77.77,0,0,1-.76-.76V11.45a.77.77,0,0,1,.76-.77h2.36a.78.78,0,0,1,.77.77v2.36A.77.77,0,0,1,13.87,14.57Z" transform="translate(-1.64 -1.47)"/></svg>