<svg id="Layer_1" data-name="Layer 1" xmlns="http://www.w3.org/2000/svg" viewBox="0 0 39.5 27.31"><defs><style>.cls-1{fill:#fff;}</style></defs><title>icon-mail</title><path class="cls-1" d="M20.3,14.45h0l-.09.05h0l-.1.05h0l-.1,0h0l-.1,0s0,0,0,0l-.11,0h0l-.1,0h0l-.1,0h0l-.11,0h0l-.09,0h0l-.08,0h0L.49,2A3.81,3.81,0,0,0,0,3.85V23.46a3.86,3.86,0,0,0,3.84,3.85H35.66a3.86,3.86,0,0,0,3.84-3.85V3.85a3.85,3.85,0,0,0-.62-2.09L20.3,14.45Z"/><path class="cls-1" d="M37.4.42A3.88,3.88,0,0,0,35.66,0H3.84a3.75,3.75,0,0,0-2,.57L19.74,12.49Z"/></svg>