<svg id="sequencing" xmlns="http://www.w3.org/2000/svg" viewBox="0 0 86 86"><defs><style>.cls-1{fill:#fff;}.cls-2{fill:#e0e1e5;}.cls-3{fill:#009bb8;}</style></defs><title>icon-sequencing-centers</title><circle class="cls-1" cx="43" cy="43" r="42"/><path class="cls-2" d="M44.07,3a41,41,0,1,1-41,41,41,41,0,0,1,41-41m0-2a43,43,0,1,0,43,43,43,43,0,0,0-43-43Z" transform="translate(-1.07 -1.04)"/><circle class="cls-3" cx="43" cy="43" r="35"/><path class="cls-1" d="M62.41,41.3l-1.76-1.77a.34.34,0,0,0-.48,0,12.11,12.11,0,0,1-1,.81L48,29.13a12,12,0,0,1,.81-.95.34.34,0,0,0,0-.48l-1.76-1.77a.34.34,0,0,0-.48,0c-5.06,5.28-4.59,12-4.14,18.51a53.76,53.76,0,0,1,.18,7.45l-6.17-6.16a40.78,40.78,0,0,1,4.94,0c0-.4-.05-.81-.08-1.23,0-.65-.09-1.3-.13-2-5.55-.28-11.08,0-15.56,4.33a.32.32,0,0,0,0,.47l1.77,1.77a.34.34,0,0,0,.48,0,11.67,11.67,0,0,1,.95-.81L40,59.54a11.67,11.67,0,0,1-.81,1,.35.35,0,0,0,0,.48L41,62.73a.32.32,0,0,0,.47,0c5.06-5.27,4.6-12,4.15-18.51a53.69,53.69,0,0,1-.18-7.45l6.16,6.17a38.89,38.89,0,0,1-4.94,0l.09,1.23c0,.65.08,1.31.13,2,5.55.28,11.08,0,15.56-4.33A.33.33,0,0,0,62.41,41.3ZM30.78,47.11a13.06,13.06,0,0,1,2.86-1l8.57,8.57a13.06,13.06,0,0,1-1,2.86ZM45.8,34a13.06,13.06,0,0,1,1-2.86L57.23,41.56a13.06,13.06,0,0,1-2.86,1Z" transform="translate(-1.07 -1.04)"/></svg>