<svg id="files" xmlns="http://www.w3.org/2000/svg" viewBox="0 0 86 86"><defs><style>.cls-1{fill:#fff;}.cls-2{fill:#e0e1e5;}.cls-3{fill:#009bb8;}</style></defs><title>icon-stats-files</title><circle class="cls-1" cx="43" cy="43" r="42"/><path class="cls-2" d="M44.07,3a41,41,0,1,1-41,41,41,41,0,0,1,41-41m0-2a43,43,0,1,0,43,43,43,43,0,0,0-43-43Z" transform="translate(-1.07 -1.04)"/><circle class="cls-3" cx="43" cy="43" r="35"/><path class="cls-1" d="M55.53,35.92h-5.4v-5.4Zm-6.4,2a1,1,0,0,1-1-1v-7h-14a1,1,0,0,0-1,1v26a1,1,0,0,0,1,1h21a1,1,0,0,0,1-1v-19Z" transform="translate(-1.07 -1.04)"/></svg>