<svg id="Layer_1" data-name="Layer 1" xmlns="http://www.w3.org/2000/svg" viewBox="0 0 84.6 83.43"><defs><style>.cls-1{fill:#a42c90;}.cls-2{fill:#009bb8;}.cls-3{fill:#ff9324;}.cls-4{fill:#d8202f;}.cls-5{fill:#e83a9c;}.cls-6{fill:#00afed;}.cls-7{fill:#a9adc0;}.cls-8{fill:#2b388f;}</style></defs><title>icon-collaborative-discovery</title><circle class="cls-1" cx="42.26" cy="4.14" r="4.14"/><circle class="cls-2" cx="17.39" cy="13.22" r="4.14"/><circle class="cls-3" cx="4.14" cy="36.17" r="4.14"/><circle class="cls-4" cx="8.77" cy="62.27" r="4.14"/><circle class="cls-5" cx="29.07" cy="79.28" r="4.14"/><circle class="cls-6" cx="55.57" cy="79.29" r="4.14"/><circle class="cls-4" cx="75.86" cy="62.26" r="4.14" transform="translate(-15.99 96.83) rotate(-60)"/><path class="cls-7" d="M69.88,62.32,72.93,57,73,57l.08-.15v0h0a3.85,3.85,0,0,0,.27-2.61A9.16,9.16,0,0,0,70.61,50a25.18,25.18,0,0,0-3.31-2.67A21,21,0,0,0,73,45a7.44,7.44,0,0,0,2.32-2.15A3.83,3.83,0,0,0,76,40.33h0a1.13,1.13,0,0,0,0-.18.19.19,0,0,0,0-.08l-1.06-6a.22.22,0,0,0,0-.08l0-.18h0a3.88,3.88,0,0,0-1.47-2.17,9.16,9.16,0,0,0-4.81-1.48,24.27,24.27,0,0,0-4.22.07,20.69,20.69,0,0,0,2.89-5.38,7.53,7.53,0,0,0,.4-3.14,3.84,3.84,0,0,0-1.15-2.36h0l-.13-.12-.08-.05L61.55,15.2a.34.34,0,0,0-.06-.06L61.35,15h0a3.88,3.88,0,0,0-2.52-.71,9.18,9.18,0,0,0-4.63,1.95A24.31,24.31,0,0,0,51,19.07a21,21,0,0,0-1.25-6A7.45,7.45,0,0,0,48,10.37,3.81,3.81,0,0,0,45.6,9.3H38.92a3.84,3.84,0,0,0-2.39,1.07,9.13,9.13,0,0,0-2.29,4.47A25,25,0,0,0,33.58,19a20.69,20.69,0,0,0-4.78-3.77,7.52,7.52,0,0,0-3-.94,3.87,3.87,0,0,0-2.52.72h0l-.14.11-.06.06-4.67,3.92-.08.05-.13.12h0A3.93,3.93,0,0,0,17,21.68a9.19,9.19,0,0,0,1.12,4.9A25.15,25.15,0,0,0,20.3,30.2a20.54,20.54,0,0,0-6.12.19,7.27,7.27,0,0,0-2.91,1.22A3.81,3.81,0,0,0,9.8,33.77v0h0c0,.06,0,.12,0,.18v.08l-1.06,6,0,.08c0,.06,0,.12,0,.17v0a3.76,3.76,0,0,0,.64,2.53,9.11,9.11,0,0,0,4,3,26,26,0,0,0,4,1.38,20.82,20.82,0,0,0-4.57,4.08,7.38,7.38,0,0,0-1.45,2.8,3.84,3.84,0,0,0,.27,2.61h0c0,.06,0,.11.08.16l0,.07,3.05,5.28s0,.06,0,.08l.09.15h0v0A3.87,3.87,0,0,0,17,64.12a9.28,9.28,0,0,0,5-.25A26.59,26.59,0,0,0,26,62.35a20.6,20.6,0,0,0-.88,6,7.32,7.32,0,0,0,.69,3.08,3.91,3.91,0,0,0,1.88,1.82h0l.16.07.09,0,5.73,2.09.07,0,.17,0h0a3.91,3.91,0,0,0,2.61-.19A9.19,9.19,0,0,0,40.27,72a24.47,24.47,0,0,0,2-3.7,21.15,21.15,0,0,0,3.23,5.22,7.46,7.46,0,0,0,2.51,1.91,3.82,3.82,0,0,0,2.62.19h0l.17,0,.08,0,5.73-2.09.08,0,.16-.06h0a3.84,3.84,0,0,0,1.87-1.82,9.12,9.12,0,0,0,.63-5,25.29,25.29,0,0,0-.81-4.15,20.83,20.83,0,0,0,5.81,1.92,7.46,7.46,0,0,0,3.16-.15,3.81,3.81,0,0,0,2.12-1.54h0l.1-.16A.2.2,0,0,0,69.88,62.32Zm-6.55-1.13A29,29,0,0,1,57,58.36l-.07,0,0,0-.15-.06-.11,0-.14,0-.12,0h-.27l-.13,0-.13,0h-.08l-.06,0-.12.06-.12.08-.09.07-.11.1-.08.09-.09.13,0,0v0s0,0,0,0a.47.47,0,0,0-.06.15.49.49,0,0,0,0,.11l0,.15s0,.08,0,.12v.15a.49.49,0,0,1,0,.12l0,.14L55,60S55,60,55,60h0a23.37,23.37,0,0,1,1.75,8.25,6.33,6.33,0,0,1-.08.82l-3-8.12-8.49,3.09,3,8.12a9.26,9.26,0,0,1-1.53-1.8,27.94,27.94,0,0,1-3-6.22.27.27,0,0,0,0-.08s0,0,0,0a1.14,1.14,0,0,0-.1-.19l0,0a1.41,1.41,0,0,0-.69-.55h0a1.39,1.39,0,0,0-1.76.87h0a23.41,23.41,0,0,1-4,7.45,7.92,7.92,0,0,1-.59.58l3-8.13L30.92,61l-3,8.12a9.54,9.54,0,0,1,0-2.36A28.35,28.35,0,0,1,29.64,60l0-.08v0a.83.83,0,0,0,0-.15.77.77,0,0,0,0-.15v0a1.37,1.37,0,0,0-.9-1.39h0a1.37,1.37,0,0,0-1.3.22,23,23,0,0,1-7.7,3.09,5.16,5.16,0,0,1-.83.07l7.49-4.32-4.52-7.82-7.48,4.32A9.36,9.36,0,0,1,16,52a28.41,28.41,0,0,1,5.61-4.05l.07,0A1.39,1.39,0,0,0,22.12,46l0,0a1.37,1.37,0,0,0-.69-.57l-.09,0-.13,0-.09,0h0a23.27,23.27,0,0,1-8-2.6c-.26-.17-.48-.33-.68-.48l8.52,1.5,1.57-8.89L14,33.32a9.25,9.25,0,0,1,2.32-.43,27.86,27.86,0,0,1,6.9.5h.09a1,1,0,0,0,.24,0h0l.22,0h0a.68.68,0,0,0,.2-.07l.06,0,.16-.09.07,0,.06,0,0,0,.05-.06.08-.08a.47.47,0,0,0,.09-.12l.07-.11.06-.12s0-.08.05-.13l0-.13a.11.11,0,0,0,0-.06v-.09s0-.08,0-.12a.81.81,0,0,0,0-.16s0-.06,0-.1,0-.11,0-.17l0-.08a.89.89,0,0,0-.08-.17l0-.06-.13-.18v0h0A23.29,23.29,0,0,1,20,24c-.09-.29-.16-.56-.21-.8l5.56,6.62L32.3,24l-5.55-6.62a9.11,9.11,0,0,1,2.05,1.16,28,28,0,0,1,5,4.82s0,0,.06.06h0a.52.52,0,0,0,.11.1,1.38,1.38,0,0,0,1.81,0l0,0a1.37,1.37,0,0,0,.45-1.27,22.93,22.93,0,0,1,1.18-8.19,5.31,5.31,0,0,1,.35-.75V22h9V13.32a9.4,9.4,0,0,1,.82,2.21,28.42,28.42,0,0,1,.71,6.88v.09a1.38,1.38,0,0,0,1,1.3h0l.12,0a1.37,1.37,0,0,0,1.33-.49h0a23.18,23.18,0,0,1,6.26-5.64,6.93,6.93,0,0,1,.76-.35L52.29,24l6.92,5.81,5.55-6.62A9.1,9.1,0,0,1,64,25.37a27.85,27.85,0,0,1-3.88,5.72l-.05.07,0,0-.07.12-.08.13,0,.08-.06.18v0a1,1,0,0,0,0,.24h0a1.4,1.4,0,0,0,.49,1.11l0,0a1.44,1.44,0,0,0,1.14.27h0a23.36,23.36,0,0,1,8.43-.29,6.51,6.51,0,0,1,.8.22l-8.52,1.5,1.57,8.89,8.51-1.5a9.43,9.43,0,0,1-2,1.2,29,29,0,0,1-6.66,1.89h-.08a1.39,1.39,0,0,0-1.09,1.6v0s0,.08,0,.12v0a1.67,1.67,0,0,0,.08.2s0,0,0,.08l.08.12a.69.69,0,0,0,.11.13s0,0,0,0a.84.84,0,0,0,.18.15h0l.12.08h0a23.25,23.25,0,0,1,6.64,5.19,7.27,7.27,0,0,1,.48.68l-7.49-4.32-4.52,7.82,7.49,4.32A9.94,9.94,0,0,1,63.33,61.19Z"/><circle class="cls-5" cx="80.46" cy="36.15" r="4.14" transform="translate(-5.05 14.52) rotate(-10)"/><circle class="cls-6" cx="67.21" cy="13.21" r="4.14" transform="translate(13.88 56.2) rotate(-49.99)"/><path class="cls-8" d="M42.3,25a17.9,17.9,0,1,0,17.9,17.9A17.92,17.92,0,0,0,42.3,25Zm0,33.69A15.8,15.8,0,1,1,58.09,42.92,15.8,15.8,0,0,1,42.3,58.71Z"/></svg>