<svg id="size" xmlns="http://www.w3.org/2000/svg" viewBox="0 0 86 86"><defs><style>.cls-1{fill:#fff;}.cls-2{fill:#e0e1e5;}.cls-3{fill:#2b388f;}</style></defs><title>icon-stats-size</title><circle class="cls-1" cx="43" cy="43" r="42"/><path class="cls-2" d="M44,3A41,41,0,1,1,3,44,41.06,41.06,0,0,1,44,3m0-2A43,43,0,1,0,87,44,43,43,0,0,0,44,1Z" transform="translate(-1 -0.95)"/><circle class="cls-3" cx="43" cy="43" r="35"/><path class="cls-1" d="M55.5,34.56v2.35c0,2.07-5.15,3.76-11.5,3.76S32.5,39,32.5,36.91V34.56c0-2.06,5.15-3.75,11.5-3.75S55.5,32.5,55.5,34.56Zm0,5.29v5.28c0,2.06-5.15,3.75-11.5,3.75s-11.5-1.69-11.5-3.75V39.85c2.47,1.7,7,2.49,11.5,2.49S53,41.55,55.5,39.85Zm0,8.21v5.28c0,2.07-5.15,3.76-11.5,3.76s-11.5-1.69-11.5-3.76V48.06c2.47,1.7,7,2.49,11.5,2.49S53,49.76,55.5,48.06Z" transform="translate(-1 -0.95)"/></svg>