<svg id="Layer_1" data-name="Layer 1" xmlns="http://www.w3.org/2000/svg" viewBox="0 0 575.94 447.65"><defs><style>.cls-1{fill:#a42c90;}</style></defs><title>icon-dashboard</title><path class="cls-1" d="M487.94,280.35v143.3a23.94,23.94,0,0,1-24,24h-116a12,12,0,0,1-12-12v-112a12,12,0,0,0-12-12h-72a12,12,0,0,0-12,12v112a12,12,0,0,1-12,12h-116a23.94,23.94,0,0,1-24-24V280.35a12,12,0,0,1,4.4-9.3l188-154.8a12.19,12.19,0,0,1,15.3,0l188,154.8a12.24,12.24,0,0,1,4.3,9.3Zm83.6-60.9-83.6-68.9V12.05a12,12,0,0,0-12-12h-56a12,12,0,0,0-12,12v72.6L318.44,11a48,48,0,0,0-61,0L4.34,219.45a12,12,0,0,0-1.6,16.9l25.5,31a12,12,0,0,0,16.9,1.6l235.2-193.7a12.19,12.19,0,0,1,15.3,0L530.84,269a12,12,0,0,0,16.9-1.6l25.5-31A12,12,0,0,0,571.54,219.45Z"/></svg>