<svg id="Layer_1" data-name="Layer 1" xmlns="http://www.w3.org/2000/svg" viewBox="0 0 48 48"><defs><style>.cls-1{fill:#1cb7eb;}.cls-2{fill:#fff;}</style></defs><title>icon-twitter</title><circle class="cls-1" cx="24" cy="24" r="24"/><path class="cls-2" d="M36.8,15.4a8,8,0,0,1-3,.9,5.57,5.57,0,0,0,2.3-3.1,11.57,11.57,0,0,1-3.4,1.4,5.1,5.1,0,0,0-3.8-1.8,5.5,5.5,0,0,0-5.3,5.7,5.7,5.7,0,0,0,.1,1.3,14.64,14.64,0,0,1-10.9-5.9,5.43,5.43,0,0,0-.7,2.9,5.69,5.69,0,0,0,2.3,4.7,4.81,4.81,0,0,1-2.4-.7v.1a5.73,5.73,0,0,0,4.2,5.6,5.9,5.9,0,0,1-1.4.2,3.4,3.4,0,0,1-1-.1,5.2,5.2,0,0,0,4.9,3.9,10.21,10.21,0,0,1-6.5,2.4,6.15,6.15,0,0,1-1.3-.1A14.21,14.21,0,0,0,19,35.4c9.7,0,15-8.6,15-16.1v-.7A12,12,0,0,0,36.8,15.4Z"/></svg>