<svg id="Layer_1" data-name="Layer 1" xmlns="http://www.w3.org/2000/svg" viewBox="0 0 107.83 90.93"><defs><style>.cls-1{fill:#a9adc0;}</style></defs><title>icon-doublechevron-grey-left</title><path class="cls-1" d="M38,3.05l-35,35a10.54,10.54,0,0,0,0,14.83l35,35A10.42,10.42,0,0,0,52.78,73.14L25.1,45.46,52.78,17.79A10.42,10.42,0,0,0,38,3.05"/><path class="cls-1" d="M90,3.05l-35,35a10.54,10.54,0,0,0,0,14.83l35,35a10.42,10.42,0,0,0,14.74-14.74L77.1,45.46l27.68-27.67A10.42,10.42,0,0,0,90,3.05"/></svg>