<svg id="default_invesitgator" data-name="default invesitgator" xmlns="http://www.w3.org/2000/svg" viewBox="0 0 86 86"><defs><style>.cls-1{fill:#a9adc0;}.cls-2{fill:none;}.cls-3{fill:#fff;}</style></defs><title>icon-detault-investigators</title><circle class="cls-1" cx="43" cy="43" r="43"/><path class="cls-2" d="M53.24,54.62a.2.2,0,0,0-.27,0c-.17.16-.35.31-.53.45L46.2,48.83c.14-.18.29-.36.45-.53a.2.2,0,0,0,0-.27l-1-1a.19.19,0,0,0-.26,0c-2.82,2.94-2.56,6.68-2.31,10.3a30.73,30.73,0,0,1,.1,4.15l-3.43-3.43a22.81,22.81,0,0,1,2.74,0c0-.22,0-.45,0-.68s0-.73-.07-1.09c-3.09-.16-6.17,0-8.66,2.41a.18.18,0,0,0,0,.26l1,1A.19.19,0,0,0,35,60c.18-.17.35-.32.53-.46l6.24,6.25a5.29,5.29,0,0,1-.45.53.19.19,0,0,0,0,.26l1,1a.17.17,0,0,0,.26,0c2.82-2.93,2.56-6.68,2.31-10.3a29.14,29.14,0,0,1-.1-4.15l3.43,3.43a21.06,21.06,0,0,1-2.75,0c0,.23,0,.46.05.69s0,.72.07,1.08c3.09.16,6.16,0,8.66-2.41a.19.19,0,0,0,0-.26Zm-10.81,10-5.81-5.81a6.8,6.8,0,0,1,1.59-.55L43,63.06A6.8,6.8,0,0,1,42.43,64.65Zm7.32-8.36L45,51.52a7.45,7.45,0,0,1,.54-1.59l5.82,5.82A7.45,7.45,0,0,1,49.75,56.29Z" transform="translate(-1.07 -1.04)"/><path class="cls-2" d="M57.05,57.55V69.63a29,29,0,0,0,3.25-2,38.41,38.41,0,0,0-2.64-8.86C57.46,58.36,57.26,57.94,57.05,57.55Z" transform="translate(-1.07 -1.04)"/><path class="cls-2" d="M27.15,67.3a30.06,30.06,0,0,0,3.18,2V57.56A35.57,35.57,0,0,0,27.15,67.3Z" transform="translate(-1.07 -1.04)"/><path class="cls-2" d="M22.49,55.61C25.06,50,28.2,46.73,31.4,45.24a7.61,7.61,0,0,1,3.07-.71,4.41,4.41,0,0,1,.52,0h17.4a4.41,4.41,0,0,1,.52,0,7.61,7.61,0,0,1,3.07.71A12.28,12.28,0,0,1,58.7,47a21.65,21.65,0,0,1,5.06,6.38,37.6,37.6,0,0,1,3.14,7.83,28.4,28.4,0,1,0-46.25-.57A41.11,41.11,0,0,1,22.49,55.61ZM43.69,21A11.11,11.11,0,1,1,32.58,32.15,11.1,11.1,0,0,1,43.69,21Z" transform="translate(-1.07 -1.04)"/><circle class="cls-3" cx="43.69" cy="32.15" r="11.11" transform="translate(-7.29 9.86) rotate(-13.28)"/><path class="cls-3" d="M36.62,58.84l5.81,5.81A6.8,6.8,0,0,0,43,63.06l-4.77-4.77A6.8,6.8,0,0,0,36.62,58.84Z" transform="translate(-1.07 -1.04)"/><path class="cls-3" d="M45,51.52l4.77,4.77a7.45,7.45,0,0,0,1.59-.54l-5.82-5.82A7.45,7.45,0,0,0,45,51.52Z" transform="translate(-1.07 -1.04)"/><path class="cls-3" d="M58.7,47A12.28,12.28,0,0,0,56,45.24a7.61,7.61,0,0,0-3.07-.71,4.41,4.41,0,0,0-.52,0H35a4.41,4.41,0,0,0-.52,0,7.61,7.61,0,0,0-3.07.71c-3.2,1.49-6.34,4.75-8.91,10.37a41.11,41.11,0,0,0-1.84,5,28.67,28.67,0,0,0,6.5,6.69,35.57,35.57,0,0,1,3.18-9.74V69.33a28.41,28.41,0,0,0,26.72.3V57.55c.21.39.41.81.61,1.25a38.41,38.41,0,0,1,2.64,8.86,28.59,28.59,0,0,0,6.6-6.48,37.6,37.6,0,0,0-3.14-7.83A21.65,21.65,0,0,0,58.7,47Zm-4.48,8.89c-2.5,2.4-5.57,2.57-8.66,2.41,0-.36-.05-.72-.07-1.08s0-.46-.05-.69a21.06,21.06,0,0,0,2.75,0l-3.43-3.43a29.14,29.14,0,0,0,.1,4.15c.25,3.62.51,7.37-2.31,10.3a.17.17,0,0,1-.26,0l-1-1a.19.19,0,0,1,0-.26,5.29,5.29,0,0,0,.45-.53l-6.24-6.25c-.18.14-.35.29-.53.46a.19.19,0,0,1-.26,0l-1-1a.18.18,0,0,1,0-.26c2.49-2.39,5.57-2.57,8.66-2.41,0,.36,0,.72.07,1.09s0,.46,0,.68a22.81,22.81,0,0,0-2.74,0L43.2,61.5a30.73,30.73,0,0,0-.1-4.15c-.25-3.62-.51-7.36,2.31-10.3a.19.19,0,0,1,.26,0l1,1a.2.2,0,0,1,0,.27c-.16.17-.31.35-.45.53l6.24,6.24c.18-.14.36-.29.53-.45a.2.2,0,0,1,.27,0l1,1A.19.19,0,0,1,54.22,55.86Z" transform="translate(-1.07 -1.04)"/></svg>