<svg id="Isolation_Mode" data-name="Isolation Mode" xmlns="http://www.w3.org/2000/svg" viewBox="0 0 104.35 105.01"><defs><style>.cls-1{fill:#f69322;}.cls-2{fill:none;stroke:#fff;stroke-linecap:round;stroke-linejoin:round;stroke-width:0.28px;}.cls-3{fill:#bc2030;}.cls-4{fill:#0d99b7;}.cls-5{fill:#293c8f;}.cls-6{fill:#2d388d;}</style></defs><title>icon-personaized-treatments</title><path class="cls-1" d="M52,13.3c-21.49,0-39.3,17.55-39.3,39.06A39.31,39.31,0,1,0,52,13.3Zm0,73.59a34.39,34.39,0,1,1,34.5-34.53A34.23,34.23,0,0,1,52,86.89Z"/><path class="cls-1" d="M52,22.93A29.58,29.58,0,1,0,81.72,52.36,29.58,29.58,0,0,0,52,22.93ZM52,77a24.48,24.48,0,1,1,24.6-24.62A24.63,24.63,0,0,1,52,77Z"/><line class="cls-2" x1="3.11" y1="53.78" x2="24.04" y2="53.78"/><path class="cls-1" d="M3.11,57.17H24a3.21,3.21,0,0,0,3.11-3.39A3.15,3.15,0,0,0,24,50.66H3.11A3.14,3.14,0,0,0,0,53.78a3.2,3.2,0,0,0,3.11,3.39"/><line class="cls-2" x1="80.31" y1="53.78" x2="101.24" y2="53.78"/><path class="cls-1" d="M80.31,57.17h20.93a3.21,3.21,0,0,0,3.11-3.39,3.15,3.15,0,0,0-3.11-3.12H80.31a3.21,3.21,0,0,0-3.39,3.12,3.26,3.26,0,0,0,3.39,3.39"/><line class="cls-2" x1="51.75" y1="24.06" x2="51.75" y2="3.11"/><path class="cls-1" d="M54.86,24.06V3.11A3.14,3.14,0,0,0,51.75,0a3.39,3.39,0,0,0-3.39,3.11v21a3.64,3.64,0,0,0,3.39,3.39,3.39,3.39,0,0,0,3.11-3.39"/><line class="cls-2" x1="53.45" y1="101.89" x2="53.45" y2="80.95"/><path class="cls-1" d="M56.56,101.89V81a3.4,3.4,0,0,0-3.11-3.4,3.45,3.45,0,0,0-3.4,3.4v20.94a3.22,3.22,0,0,0,3.4,3.12,3.15,3.15,0,0,0,3.11-3.12"/><path class="cls-3" d="M66.17,60.29c1.42-.29,1.42-.85,1.13-2a1,1,0,0,1,.29-.84h.28a1,1,0,0,1,.28.84c-.28,1.14,0,1.42,1.13,1.42.28-.28.28-.57.57-.85l.56.28c0,.57-.28.85-.28,1.42.57,0,1.13-.28,1.7-.28l.28-.29c.28-.28.28-.56.57-.56s.28.56.56.56c-.28.29-.56.29-.85.57s-.56.28-.85.57c0,.28-.28.84,0,1.13,0,.28.57.28.85.28h.85v.57h-1.7c-.56,1.13-.28,1.69.57,2.54-.28,0-.57-.28-1.13-.28-.28,0-.85.28-.85.57-.28,0,0,.56,0,.85.28.28.28.56.57.56a.9.9,0,0,1-.57.28c-.57-.56-1.13-1.13-1.41-1.13-1.13-.28-1.13.57-1.42,1.42a1.06,1.06,0,0,1-.28.85h-.57c0-.57.29-.85.29-1.14.28-.28.28-.56.28-1.13,0-.28-.57-.56-.85-.56l-.56.56-.57.57-.28-.28A1,1,0,0,1,65,66c0-.29.28-.57.57-.85a3,3,0,0,0-1.42-.29.61.61,0,0,0-.56.57c-.29,0-.57.28-.85,0a1,1,0,0,1-.28-.57c.28,0,.28-.28.56-.28a1.71,1.71,0,0,1,1.13-.28,2.17,2.17,0,0,0,.57-1.13c0-.29-.29-.57-.57-.85a1,1,0,0,0-.85-.29c-.28,0-.56-.28-.84-.28,0-.28,0-.56.28-.56a1.06,1.06,0,0,1,.85.28c.56.28,1.41.56,1.69-.28a.52.52,0,0,0,0-.85c0-.57-.28-.57-.28-.85a.28.28,0,0,1,.28-.29.61.61,0,0,1,.57.57c.28.28.28.28.28.57Z"/><path class="cls-4" d="M40.16,66.8a6.16,6.16,0,0,1-2.83-2.55c0-.28-.29-.28-.57-.28-1.69.84-3.11,0-4.52-.85a1,1,0,0,1-.57-1.42c.57-.56.85-.56,1.7,0a2.42,2.42,0,0,0,2.54.85.61.61,0,0,0,.57-.57,7.89,7.89,0,0,1,.28-5.09c-.56-.28-1.41-.28-1.69-.57a15.78,15.78,0,0,1-2.27-2c-.56-.56-.28-.85.29-1.13.28-.57.84-.28,1.13.28A4,4,0,0,0,37,55.19s.57,0,.57-.28a30.32,30.32,0,0,0,2.83-3.4c-1.13-.56-2.55-1.41-3.68-2A.6.6,0,0,1,36.2,49a1.72,1.72,0,0,1,.28-1.13,1,1,0,0,1,.85.29,8.94,8.94,0,0,0,4.52,1.69,7.11,7.11,0,0,0,.57-3.39c0-.29-.29-.29-.57-.57a5.31,5.31,0,0,1-3.67-3.68c0-.56,0-.85.56-1.13s.85,0,1.13.57a3.71,3.71,0,0,0,2.55,2.83c.56-1.42,1.13-2.83,1.69-4.53-2-1.42-2.26-3.4-2-5.66,0-.29.29-.57.57-.85.57-.29,1.13,0,1.13.85v2A2.28,2.28,0,0,0,45,38.49c1.13-.56,2-1.41,3.11-2a6.37,6.37,0,0,1,.57-5.09c.28-.57.56-.85,1.13-.57s.57.57.28,1.13a5.39,5.39,0,0,0-.56,3.68c.28.29.28.29.85.29.84,0,2-.29,2.82-.29a.75.75,0,0,0,.85-.85,6.8,6.8,0,0,1,2-3.68c.28-.56.57-.56,1.13-.28a1.27,1.27,0,0,1,0,1.42c-.28.56-.85.84-1.13,1.41s-.28,1.13-.56,1.7a21.51,21.51,0,0,0,4,1.41c.85-1.41,2.55-2,4.53-2,.56,0,.85,0,1.13.85,0,.57-.57.85-1.13.85a3.42,3.42,0,0,0-2.83.85c-.56.28-.56.85,0,1.42a30,30,0,0,1,1.7,3.11,7,7,0,0,1,3.39,0c.28,0,.57.28.85.56a.54.54,0,0,1,.28.85.6.6,0,0,1-.56.57c-.57,0-.85-.28-1.13-.28a2.52,2.52,0,0,0-1.42-.29c-.85,0-1.13.29-1.13,1.42v2.83c2.26.28,3.68,1.7,4.81,3.68.28.57,0,.85-.57,1.13s-.85,0-1.13-.56c-.56-.57-.85-1.42-1.7-2a1.7,1.7,0,0,0-1.13-.28c-.28-.28-.56,0-.56.28-.28,1.14-.57,2-.85,3.12l.57.56c2,1.14,2.26,3.4,1.69,5.38,0,.28-.56.57-.85.57-.56,0-.84-.29-.56-.85a3.38,3.38,0,0,0-.28-2.83,3.9,3.9,0,0,1-.85-1.13c-1.13,1.69-1.7,3.11-2.55,4.52v.57a5.05,5.05,0,0,1,1.7,5.09,3.12,3.12,0,0,1-.28,1.42c-.29.28-.57.57-.85.28-.57,0-.85-.56-.57-.85,0-.56,0-.85.28-1.13A3.47,3.47,0,0,0,58,60.85c-1.41.85-2.83,2-4.24,2.83a5.71,5.71,0,0,1,.56,5.95,1,1,0,0,1-1.41.56.7.7,0,0,1-.28-1.13,4.7,4.7,0,0,0,.56-2.83c0-.28,0-.57-.28-.57-.28-1.13-.56-1.13-1.41-.56-.85.28-1.42.85-2.27,1.13-.56.28-.56.28-.56.85.28,2-1.7,4.81-3.11,5.38a2.17,2.17,0,0,1-1.13-.57V71a3.76,3.76,0,0,0,1.13-.85,3.93,3.93,0,0,0,1.41-3.11,9.38,9.38,0,0,1-4.81.28.6.6,0,0,0-.56.57,5.13,5.13,0,0,1-5.37,2.26c-.29,0-.57-.28-.85-.85,0-.28.28-.56.85-.56.84,0,1.41-.29,2-.29,1.13-.28,1.41-.56,2-1.69ZM60.52,45.85c-.29-.85-.29-2-.57-3.11a5.47,5.47,0,0,0-5.37-4.53c-1.7.28-3.11.28-4.53.57a5.23,5.23,0,0,0-4,3.67A34.55,34.55,0,0,0,45,47.55a6.83,6.83,0,0,1-1.13,4.53c-.56.28-.85.85-1.13,1.13-1.41,1.7-3.11,3.11-3.68,5.38s.57,5.09,2.55,5.94a5.47,5.47,0,0,0,3.68,0A15.12,15.12,0,0,0,51.47,62a17.37,17.37,0,0,0,4.24-3.39c3.39-3.4,4.52-7.93,4.81-12.74Z"/><path class="cls-5" d="M58.82,44.44a6,6,0,0,0-7.92-4.25A5.81,5.81,0,0,0,48.36,49,5.13,5.13,0,0,0,52,51.23a4.88,4.88,0,0,0,5.09-1.42h0a5.41,5.41,0,0,0,1.7-4.52v-.85Zm-5.66,5.37a4.17,4.17,0,0,1-4.24-4.24,4.35,4.35,0,0,1,4.24-4.25c2,0,4.25,2,4,4.25a3.93,3.93,0,0,1-4,4.24Z"/><path class="cls-6" d="M58.82,44.44h0a6,6,0,0,0-5.66-4.82,5.41,5.41,0,0,0-2.26.57,5.81,5.81,0,0,0-3.68,5.38A5.43,5.43,0,0,0,48.36,49,5.51,5.51,0,0,0,52,51.51h1.13a5.54,5.54,0,0,0,4-1.7h.29a7,7,0,0,0,1.41-4.24V44.44h0v1.13a5.15,5.15,0,0,1-1.7,4v.28a5.54,5.54,0,0,1-4,1.7c-.28,0-.56-.28-1.13-.28A6.21,6.21,0,0,1,48.36,49a5.43,5.43,0,0,1-1.14-3.39,6.11,6.11,0,0,1,3.68-5.38,5.58,5.58,0,0,1,2.26-.28,5.73,5.73,0,0,1,5.66,4.53Zm-5.66,5.37v-.28a4.11,4.11,0,0,1-4.24-4h0a4.57,4.57,0,0,1,4.24-4.25h0a3.39,3.39,0,0,1,2.55,1.42,3,3,0,0,1,1.41,2.55v.28h0v.28A4.21,4.21,0,0,1,56,48.4a3.63,3.63,0,0,1-2.83,1.13h0v.28h0a4.31,4.31,0,0,0,4.25-4v-.28h0v-.28a4.31,4.31,0,0,0-4.25-4h0a4.35,4.35,0,0,0-4.24,4.25h0a4.17,4.17,0,0,0,4.24,4.24Z"/><path class="cls-5" d="M45,63.4c-2.26-.28-4.24-2-4-4.53a4.17,4.17,0,0,1,4.25-4.24,4.83,4.83,0,0,1,4.24,4.52A4.62,4.62,0,0,1,45,63.4Zm.29-1.7A2.69,2.69,0,0,0,45,56.32a3,3,0,0,0-2.54,2.83,2.79,2.79,0,0,0,2.83,2.55Z"/><path class="cls-6" d="M45,63.4v-.28a3.87,3.87,0,0,1-4-4v-.28a4.11,4.11,0,0,1,4.25-4h0a3.86,3.86,0,0,1,4,4v.28a3.86,3.86,0,0,1-4,4H45v.28h.29a4.35,4.35,0,0,0,4.24-4.25v-.28a4.35,4.35,0,0,0-4.24-4.24h0a4.61,4.61,0,0,0-4.53,4.24v.28A4.35,4.35,0,0,0,45,63.4Zm.29-1.7h0a2.61,2.61,0,0,0,2.54-2.83h0a2.54,2.54,0,0,0-2.54-2.55H45a2.62,2.62,0,0,0-2.54,2.83h0a2.61,2.61,0,0,0,2.83,2.55h0a2.73,2.73,0,0,1-2.55-2.55h0a3,3,0,0,1,2.55-2.83h0a3,3,0,0,1,2.54,2.55h0a2.54,2.54,0,0,1-.85,2,2.42,2.42,0,0,1-1.69.85Z"/><path class="cls-4" d="M52.88,47.55a1.21,1.21,0,0,1-1.13,1.13c-.28-.28-.85-.56-.85-1.13.28-.57.57-.85,1.13-.85a1.27,1.27,0,0,1,.85.85Z"/><path class="cls-4" d="M55.43,45.57a.85.85,0,1,1-1.7,0,.59.59,0,0,1,.56-.85c.57-.28,1.14.28,1.14.85Z"/><path class="cls-4" d="M54.58,43.59a.91.91,0,0,1-.85.85c-.57,0-1.13-.29-1.13-.85s.56-.85.85-1.14a1.22,1.22,0,0,1,1.13,1.14Z"/><path class="cls-4" d="M51.18,45.57a.75.75,0,0,1-.84-.85c-.29-.57.28-1.13.84-1.13A1.25,1.25,0,0,1,52,44.72a.75.75,0,0,1-.85.85Z"/><path class="cls-4" d="M45,59.44a.75.75,0,0,1-.85.85c-.28,0-.56-.57-.56-.85-.28-.57.28-.85.85-.85.28,0,.56.28.56.85Z"/><path class="cls-4" d="M46.09,58.87c-.56,0-.84,0-1.13-.57a.9.9,0,0,1,.85-.84.75.75,0,0,1,.85.84.61.61,0,0,1-.57.57Z"/></svg>