<?xml version="1.0" encoding="utf-8"?>
<!-- Generator: Adobe Illustrator 22.1.0, SVG Export Plug-In . SVG Version: 6.00 Build 0)  -->
<svg version="1.1" id="Layer_1" xmlns="http://www.w3.org/2000/svg" xmlns:xlink="http://www.w3.org/1999/xlink" x="0px" y="0px"
	 viewBox="0 0 64 84" style="enable-background:new 0 0 64 84;" xml:space="preserve">
<style type="text/css">
	.st0{fill:#A9ADC1;}
</style>
<title>icon-resources</title>
<path class="st0" d="M0,0v84h64V20H46c-1.1,0-2-0.9-2-2V0H0z M48,0v16h16L48,0z M25.9,15.9L25.9,15.9c1.1,0,2,0.9,2.1,2
	c0,0.6-0.2,1.1-0.6,1.5l-12,12c-0.8,0.8-2,0.8-2.8,0l-6-6c-0.8-0.8-0.8-2-0.1-2.8s2-0.8,2.8-0.1h0.1l4.6,4.6l10.6-10.6
	c0.3-0.3,0.7-0.5,1.2-0.6C25.8,16,25.9,16,25.9,15.9z M31.7,25H56c1.1,0,2,0.9,2,2s-0.9,2-2,2H32c-1.1,0.1-2.1-0.8-2.1-1.9
	S30.6,25.1,31.7,25z M25.9,35.9L25.9,35.9c1.2,0,2.1,0.9,2.1,2c0,0.6-0.2,1.1-0.6,1.5l-12,12c-0.8,0.8-2,0.8-2.8,0l-6-6
	c-0.8-0.8-0.8-2-0.1-2.8c0.8-0.8,2-0.8,2.8-0.1l0,0l0.1,0l4.6,4.6l10.6-10.6c0.3-0.3,0.7-0.5,1.2-0.6C25.8,36,25.9,36,25.9,35.9z
	 M31.7,45H56c1.1,0,2,0.9,2,2s-0.9,2-2,2H32c-1.1,0.1-2.1-0.8-2.1-1.9S30.6,45.1,31.7,45z M25.9,55.9L25.9,55.9c1.2,0,2.1,0.9,2.1,2
	c0,0,0,0,0,0c0,0.6-0.2,1.1-0.6,1.5l-12,12c-0.8,0.8-2,0.8-2.8,0l-6-6c-0.8-0.8-0.8-2-0.1-2.8c0.8-0.8,2-0.8,2.8-0.1l0,0h0.1
	l4.6,4.6l10.6-10.6c0.3-0.3,0.7-0.5,1.2-0.6C25.8,56,25.9,56,25.9,55.9z M31.7,65H56c1.1,0,2,0.9,2,2s-0.9,2-2,2H32
	c-1.1,0.1-2.1-0.8-2.1-1.9S30.6,65.1,31.7,65z"/>
</svg>
