<svg id="beta_tester" data-name="beta tester" xmlns="http://www.w3.org/2000/svg" viewBox="0 0 86 86"><defs><style>.cls-1{fill:#fff;}.cls-2{fill:#e0e1e5;}.cls-3{fill:#a9adc0;}</style></defs><title>icon-beta-tester-signup</title><circle class="cls-1" cx="43" cy="43" r="42"/><path class="cls-2" d="M44,3A41,41,0,1,1,3,44,41.06,41.06,0,0,1,44,3m0-2A43,43,0,1,0,87,44,43,43,0,0,0,44,1Z" transform="translate(-1 -0.95)"/><circle class="cls-3" cx="43" cy="43" r="35"/><path class="cls-1" d="M56.71,42.86a8.72,8.72,0,0,1,4.17,1V38.44H25.63V54.12a2.3,2.3,0,0,0,2.3,2.3H49.44a8.73,8.73,0,0,1,7.27-13.56Z" transform="translate(-1 -0.95)"/><path class="cls-1" d="M60.88,33.53a2.3,2.3,0,0,0-2.31-2.3H27.93a2.28,2.28,0,0,0-1.85.93,2.32,2.32,0,0,0-.45,1.37v3.76H60.88V33.53ZM29.07,35.72a1.31,1.31,0,1,1,1.31-1.31A1.31,1.31,0,0,1,29.07,35.72Zm4.26,0a1.31,1.31,0,1,1,1.31-1.31A1.31,1.31,0,0,1,33.33,35.72Zm4.09,0a1.31,1.31,0,1,1,1.31-1.31A1.31,1.31,0,0,1,37.42,35.72Z" transform="translate(-1 -0.95)"/><path class="cls-1" d="M66.78,45.54a1.87,1.87,0,0,0-2.66,0l-7,7-3.2-3.2A1.88,1.88,0,1,0,51.27,52l4.53,4.52h0a1.8,1.8,0,0,0,1,.51,1.64,1.64,0,0,0,.72,0,1.87,1.87,0,0,0,1-.51l8.32-8.33A1.87,1.87,0,0,0,66.78,45.54Z" transform="translate(-1 -0.95)"/></svg>