<svg id="size_copy" data-name="size copy" xmlns="http://www.w3.org/2000/svg" viewBox="0 0 86 86"><defs><style>.cls-1{fill:#fff;}.cls-2{fill:#e0e1e5;}.cls-3{fill:#a9adc0;}</style></defs><title>icon-contact</title><circle class="cls-1" cx="43" cy="43" r="42"/><path class="cls-2" d="M44,3A41,41,0,1,1,3,44,41.06,41.06,0,0,1,44,3m0-2A43,43,0,1,0,87,44,43,43,0,0,0,44,1Z" transform="translate(-1 -0.95)"/><circle class="cls-3" cx="43" cy="43" r="35"/><path class="cls-1" d="M44.61,44.43h0l-.06,0h0l-.08,0h0l-.09,0h0l-.09,0h0l-.09,0h0l-.09,0h0l-.09,0h0l-.09,0h0l-.08,0h0l-.07,0h0L28.34,34.18a3.08,3.08,0,0,0-.41,1.53V51.84A3.18,3.18,0,0,0,31.09,55H57.24a3.17,3.17,0,0,0,3.16-3.16V35.71A3.14,3.14,0,0,0,59.89,34L44.62,44.42Z" transform="translate(-1 -0.95)"/><path class="cls-1" d="M58.67,32.9a3.08,3.08,0,0,0-1.43-.35H31.09a3.07,3.07,0,0,0-1.64.47l14.71,9.79Z" transform="translate(-1 -0.95)"/></svg>