<svg id="size" xmlns="http://www.w3.org/2000/svg" viewBox="0 0 86 86"><defs><style>.cls-1{fill:#fff;}.cls-2{fill:#e0e1e5;}.cls-3{fill:#01adf0;}.cls-4{fill:#f9f9f9;}</style></defs><title>icon-rocket</title><circle class="cls-1" cx="43" cy="42.95" r="42"/><path class="cls-2" d="M43,2.05a41,41,0,1,1-41,41,41,41,0,0,1,41-41m0-2a43,43,0,1,0,43,43A43,43,0,0,0,43,.05Z" transform="translate(0 -0.05)"/><circle class="cls-3" cx="43" cy="42.95" r="35"/><path class="cls-4" d="M59.49,27A1.89,1.89,0,0,0,59,25.39a1.73,1.73,0,0,0-1.41-.47c-10.63,1.29-16.72,6-20.19,10.74l-1.63-.08a4.19,4.19,0,0,0-3.18,1.22L30,39.34a.27.27,0,0,0,0,.37.24.24,0,0,0,.09.06l4,1.68A23.11,23.11,0,0,0,33.06,45a1.27,1.27,0,0,0,.35,1.2L38.22,51a1.33,1.33,0,0,0,1.2.35h0A23.11,23.11,0,0,0,43,50.26l1.68,4.05a.27.27,0,0,0,.35.14.16.16,0,0,0,.08-.06l2.54-2.54a4.13,4.13,0,0,0,1.22-3.17l-.08-1.63C53.44,43.61,58.17,37.53,59.49,27ZM46.08,41.56a2.28,2.28,0,1,1,0-3.22h0a2.28,2.28,0,0,1,0,3.22ZM47.49,37a3,3,0,1,1,4.24,0h0a3,3,0,0,1-4.23,0h0ZM29.2,51.86A4.48,4.48,0,0,0,27,51.69a.44.44,0,0,1-.36-.11.41.41,0,0,1-.08-.46c.77-1.7,2.89-5.13,6.68-2.36a.19.19,0,0,1,0,.27h0a4.1,4.1,0,0,0-1.58,3.39.29.29,0,0,0,.29.29,4.15,4.15,0,0,0,3.39-1.54.18.18,0,0,1,.26,0l0,0c.53.63,2,2.68.37,4.67a4.2,4.2,0,0,1-2.82,1.48c-1.57.17-4.46.66-5.65,2a.4.4,0,0,1-.57.06.38.38,0,0,1-.13-.21A6.48,6.48,0,0,1,29.2,51.86Z" transform="translate(0 -0.05)"/></svg>