<svg id="media_inquiries" data-name="media inquiries" xmlns="http://www.w3.org/2000/svg" viewBox="0 0 86 86"><defs><style>.cls-1{fill:#fff;}.cls-2{fill:#e0e1e5;}.cls-3{fill:#a9adc0;}</style></defs><title>icon-media-inquiries</title><circle class="cls-1" cx="43" cy="43" r="42"/><path class="cls-2" d="M44,3A41,41,0,1,1,3,44,41.06,41.06,0,0,1,44,3m0-2A43,43,0,1,0,87,44,43,43,0,0,0,44,1Z" transform="translate(-1 -0.95)"/><circle class="cls-3" cx="43" cy="43" r="35"/><path class="cls-1" d="M55.39,28.17H34.61a2.76,2.76,0,0,0-2.75,2.75v20.8a.86.86,0,0,1-1.72,0V36.25h-.63A2.58,2.58,0,0,0,27.17,39V56a2.76,2.76,0,0,0,2.75,2.76H55.39A2.76,2.76,0,0,0,58.14,56v-25A2.76,2.76,0,0,0,55.39,28.17ZM36.18,32.68h0a.71.71,0,0,1,.71-.71h5a.71.71,0,0,1,.71.71v5a.7.7,0,0,1-.71.7h-5a.7.7,0,0,1-.71-.7ZM53.64,52.59H36.36V50.87H53.64Zm0-4.68H36.36V46.19H53.64Zm0-4.68H36.36V41.51H53.64Zm0-4.68H46.8V36.83h6.84Zm0-4.68H46.8V32.15h6.84Z" transform="translate(-1 -0.95)"/></svg>