<svg id="Isolation_Mode" data-name="Isolation Mode" xmlns="http://www.w3.org/2000/svg" viewBox="0 0 44.77 44.77"><defs><style>.cls-1,.cls-4{fill:#fff;}.cls-1{stroke:#2b388f;stroke-miterlimit:10;stroke-width:1.5px;}.cls-2{fill:#d8202f;}.cls-3{fill:#ff9324;}.cls-5{fill:#00afed;}.cls-6{fill:#009bb8;}.cls-7{fill:#e83a9c;}</style></defs><title>icon-accelerate-gemomic-discoveries</title><circle class="cls-1" cx="22.38" cy="22.38" r="21.63"/><polygon class="cls-2" points="19.76 6.8 19.47 6.82 19.43 6.82 18.72 6.91 18.85 7.9 19.54 7.81 19.8 7.8 19.76 6.8"/><polygon class="cls-2" points="21.84 6.87 21.71 7.87 22.16 7.92 22.65 8.03 22.86 7.05 22.35 6.94 22.31 6.93 21.84 6.87"/><polygon class="cls-2" points="16.66 7.44 15.85 7.77 15.81 7.79 15.7 7.85 16.16 8.74 16.25 8.69 17.04 8.37 16.66 7.44"/><polygon class="cls-2" points="24.84 7.7 24.84 7.7 24.47 8.62 24.57 8.67 25.32 9.04 25.78 8.16 25.03 7.77 24.99 7.75 24.84 7.7"/><path class="cls-3" d="M22,10a9,9,0,0,0-9,8.94c0,2.7,1.37,4.51,2.63,6.39a17.85,17.85,0,0,1,1.49,2.56l-.48.81.06,0,0,0,.83.4,0-.05a10.66,10.66,0,0,1,.5,3.33V36.5a.5.5,0,0,0,.5.5h6.8a.5.5,0,0,0,.5-.5V32.44a10.7,10.7,0,0,1,.52-3.4l.06.11.25-.12-.18-.36a16.14,16.14,0,0,1,1.81-3.34C29.63,23.45,31,21.64,31,18.94A9,9,0,0,0,22,10Z" transform="translate(-1.57 -1.32)"/><polygon class="cls-2" points="13.92 8.92 13.5 9.23 13.47 9.26 13.11 9.58 13.78 10.32 14.12 10.02 14.52 9.72 13.92 8.92"/><polygon class="cls-2" points="27.52 9.37 26.86 10.12 27.35 10.55 27.57 10.77 28.29 10.07 28.06 9.84 28.03 9.81 27.52 9.37"/><path class="cls-4" d="M22,11a8,8,0,0,1,8,7.94c0,2.36-1.18,3.92-2.47,5.84A13.29,13.29,0,0,0,25,31.94H22.5V26.47A.5.5,0,0,0,22,26a.49.49,0,0,0-.51.49h0v5.47H19a13.29,13.29,0,0,0-2.54-7.16C15.18,22.86,14,21.3,14,18.94A8,8,0,0,1,22,11Z" transform="translate(-1.57 -1.32)"/><polygon class="cls-2" points="11.7 11.1 11.7 11.1 11.59 11.23 11.57 11.26 11.1 11.96 11.93 12.52 12.39 11.83 12.4 11.82 12.47 11.73 11.7 11.1"/><path class="cls-5" d="M21,13a.5.5,0,0,0-.5.5v.79a4.79,4.79,0,0,0-.77.32l-.56-.56a.51.51,0,0,0-.71,0l-1.41,1.41a.5.5,0,0,0,0,.71l.56.56a4.31,4.31,0,0,0-.32.77H16.5a.5.5,0,0,0-.5.5v2a.5.5,0,0,0,.5.5h.79a4.31,4.31,0,0,0,.32.77l-.56.56a.5.5,0,0,0,0,.71L18.46,24a.51.51,0,0,0,.71,0l.56-.56a4.31,4.31,0,0,0,.77.32v.79a.5.5,0,0,0,.5.5h2a.5.5,0,0,0,.5-.5v-.79a5.69,5.69,0,0,0,.77-.32l.56.56a.5.5,0,0,0,.7,0L27,22.54a.51.51,0,0,0,0-.71l-.56-.56a5.2,5.2,0,0,0,.32-.77h.79A.5.5,0,0,0,28,20V18a.5.5,0,0,0-.5-.5h-.79a5.2,5.2,0,0,0-.32-.77l.56-.56a.51.51,0,0,0,0-.71l-1.42-1.41a.5.5,0,0,0-.7,0l-.56.56a4.64,4.64,0,0,0-.77-.32V13.5A.5.5,0,0,0,23,13Z" transform="translate(-1.57 -1.32)"/><polygon class="cls-2" points="29.6 11.68 28.77 12.25 28.95 12.51 29.26 13.07 30.13 12.58 29.8 11.99 29.78 11.96 29.6 11.68"/><path class="cls-4" d="M21.5,14h1v.61a.49.49,0,0,0,.39.49,3.91,3.91,0,0,1,1.23.51.49.49,0,0,0,.62-.07l.44-.43.71.7-.44.44a.51.51,0,0,0-.07.62,4,4,0,0,1,.51,1.24.5.5,0,0,0,.49.39H27v1h-.62a.5.5,0,0,0-.49.38,4,4,0,0,1-.51,1.24.51.51,0,0,0,.07.62l.44.44-.71.7-.43-.43a.52.52,0,0,0-.62-.07,4,4,0,0,1-1.24.51.5.5,0,0,0-.39.49V24h-1v-.62a.51.51,0,0,0-.39-.49,4,4,0,0,1-1.24-.51.51.51,0,0,0-.62.07l-.43.44-.71-.71.43-.43a.49.49,0,0,0,.07-.62,3.94,3.94,0,0,1-.5-1.24.51.51,0,0,0-.49-.39H17v-1h.62a.49.49,0,0,0,.48-.39,4,4,0,0,1,.52-1.24.5.5,0,0,0-.08-.62l-.43-.43.71-.71.43.43a.5.5,0,0,0,.62.07,4,4,0,0,1,1.24-.51.5.5,0,0,0,.39-.48V14Z" transform="translate(-1.57 -1.32)"/><polygon class="cls-2" points="10.16 13.86 9.91 14.57 9.9 14.61 9.84 14.85 10.8 15.1 10.85 14.9 10.86 14.89 11.1 14.19 10.16 13.86"/><polygon class="cls-2" points="30.94 14.5 30.08 14.8 30 14.82 30 14.83 30 14.83 30.01 14.86 30.01 14.87 30.22 15.68 30.22 15.69 30.23 15.72 30.23 15.72 30.26 15.71 31.21 15.54 31.21 15.51 31.2 15.46 30.97 14.57 30.95 14.53 30.94 14.5"/><circle class="cls-6" cx="20.43" cy="17.68" r="2.5"/><circle class="cls-4" cx="20.43" cy="17.68" r="1.5"/><polygon class="cls-2" points="9.48 16.9 9.48 16.9 9.44 17.42 9.44 17.46 9.44 17.95 10.44 17.93 10.44 17.49 10.44 17.48 10.47 16.97 9.48 16.9"/><polygon class="cls-2" points="30.44 17.62 30.43 18.29 30.41 18.57 31.4 18.67 31.43 18.36 31.43 18.32 31.44 17.63 30.44 17.62"/><polygon class="cls-2" points="10.65 19.84 9.67 20.02 9.7 20.21 9.71 20.25 9.93 21.03 10.89 20.76 10.68 20.01 10.65 19.84"/><polygon class="cls-2" points="30.07 20.45 29.98 20.79 29.98 20.8 29.77 21.36 30.71 21.7 30.93 21.1 30.94 21.06 31.04 20.71 30.07 20.45"/><polygon class="cls-2" points="11.62 22.48 10.75 22.98 11.1 23.61 11.13 23.64 11.29 23.87 12.11 23.31 11.97 23.11 11.97 23.1 11.62 22.48"/><polygon class="cls-2" points="28.95 23.05 28.46 23.76 28.45 23.77 28.4 23.83 29.18 24.46 29.25 24.37 29.28 24.33 29.77 23.61 28.95 23.05"/><polygon class="cls-2" points="13.31 24.79 12.6 25.49 12.85 25.75 12.88 25.78 13.36 26.2 14.02 25.44 13.56 25.04 13.31 24.79"/><polygon class="cls-2" points="27.1 25.23 26.71 25.57 26.36 25.83 26.95 26.64 27.32 26.37 27.35 26.34 27.76 25.98 27.1 25.23"/><path class="cls-4" d="M19.1,32.94h2.82a.43.43,0,0,0,.16,0H24.9V36H19.1V35H24V34H19.1Z" transform="translate(-1.57 -1.32)"/><path class="cls-3" d="M19.45,38a.5.5,0,1,0,.05,1h5a.52.52,0,0,0,.51-.49.5.5,0,0,0-.5-.51H19.45Z" transform="translate(-1.57 -1.32)"/><path class="cls-7" d="M39.79,31.62l-.64-.49a.1.1,0,0,0-.15,0c-.09.1-.18.21-.27.3l-4.09-3.14.23-.34a.12.12,0,0,0,0-.15l-.65-.49a.1.1,0,0,0-.15,0h0c-1.41,1.91-1,4-.55,6.13a17.23,17.23,0,0,1,.37,2.39l-2.24-1.73a13.82,13.82,0,0,1,1.59-.21c0-.13-.06-.26-.08-.39L33,32.92c-1.79.15-3.56.49-4.82,2.06a.11.11,0,0,0,0,.16h0l.64.49a.12.12,0,0,0,.16,0,2.61,2.61,0,0,1,.27-.31l4.08,3.14a4,4,0,0,1-.22.34.11.11,0,0,0,0,.16l.64.49a.1.1,0,0,0,.15,0h0c1.41-1.91,1-4.06.55-6.13a17.61,17.61,0,0,1-.37-2.4l2.25,1.73a12.34,12.34,0,0,1-1.59.2c0,.13.05.26.08.39l.12.63c1.8-.15,3.57-.48,4.83-2.06a.11.11,0,0,0,0-.15Zm-9.92,3.21a4,4,0,0,1,.88-.44l3.11,2.4a4.06,4.06,0,0,1-.19,1ZM34.14,30a4.62,4.62,0,0,1,.19-1l3.81,2.93a4.26,4.26,0,0,1-.88.44Z" transform="translate(-1.57 -1.32)"/></svg>