<svg id="research" xmlns="http://www.w3.org/2000/svg" viewBox="0 0 82.48 82.48"><defs><style>.cls-1{fill:#fff;}.cls-2{fill:none;}.cls-3{fill:#00afed;}</style></defs><title>icon-user-research</title><circle class="cls-1" cx="41.15" cy="41.24" r="39.67"/><path class="cls-2" d="M35.24,58a9.64,9.64,0,0,0-4.46-4.95,2.28,2.28,0,0,0-1-1.19c.42-2,2.77-4.9,5.68-4.9V45.09A7.5,7.5,0,0,0,30,47.63a8,8,0,0,0-2.17,4.2,2.35,2.35,0,0,0-1.16,1.33,7,7,0,0,0-1.85,1.29,12.92,12.92,0,0,0-2.59,3.83,1.34,1.34,0,0,0-.05,1,15.48,15.48,0,0,0-1.11,5.42c0,1.83.09,2.9.57,3.67a2.65,2.65,0,0,0,1.95,1.16,1.14,1.14,0,0,0,.77.3H26.1a1.16,1.16,0,0,0,1.16-1.16v-.06h0a1.16,1.16,0,0,0-1.16-1.09H24.38a1.17,1.17,0,0,0-.52.12c-.46-.08-.54-.21-.58-.28A7.12,7.12,0,0,1,23,64.72a13.31,13.31,0,0,1,.93-4.59,1.38,1.38,0,0,0,.78-.72c1.13-2.45,2.73-4,4.09-4s2.86,1.47,4,3.84a1.35,1.35,0,0,0,.68.65,13.74,13.74,0,0,1,1,4.87,7.23,7.23,0,0,1-.26,2.65c0,.07-.11.18-.52.27a1.13,1.13,0,0,0-.48-.11H31.52a1.17,1.17,0,0,0-1.16,1.13h0v0a1.16,1.16,0,0,0,1.16,1.16h1.72a1.14,1.14,0,0,0,.8-.33c2.25-.44,2.36-2.12,2.36-4.79a15.61,15.61,0,0,0-1.15-5.54A1.32,1.32,0,0,0,35.24,58Z" transform="translate(-2.93 -2.68)"/><path class="cls-2" d="M44.17,48.14c4,0,7.54-2.85,9.72-7.23a22.58,22.58,0,0,0,2.23-8.41,12.5,12.5,0,0,0,.14-1.74l-.75-.14h-.07l-4.07-.51c2.23-1.29,1.05-4.11.5-5.06a4.65,4.65,0,0,0-.28-.44l-.09.07A48.28,48.28,0,0,1,39.93,31a48.67,48.67,0,0,1-7.69,1.93C33,41.52,38.07,48.14,44.17,48.14Z" transform="translate(-2.93 -2.68)"/><path class="cls-3" d="M44.17,2.68A41.24,41.24,0,1,0,85.41,43.92,41.29,41.29,0,0,0,44.17,2.68Zm0,77.63A36.39,36.39,0,1,1,80.56,43.92,36.39,36.39,0,0,1,44.17,80.31Z" transform="translate(-2.93 -2.68)"/><path class="cls-3" d="M53.25,31.37a2.65,2.65,0,0,0-1.12-.62,8.57,8.57,0,0,0-1.66-.13h-.9c-.38,0-.7,0-1,0h-.25a4.05,4.05,0,0,0-2.25.61,12.28,12.28,0,0,1-2.71,0,4,4,0,0,0-2.25-.61h-.24c-.3,0-.61,0-1,0H39a8.47,8.47,0,0,0-1.65.13,2.63,2.63,0,0,0-1.13.62,2.7,2.7,0,0,0-.56,2.25A5.14,5.14,0,0,0,36.47,36c.63.95,1.82,1.44,3.54,1.46h0a3.52,3.52,0,0,0,2.21-.66A5,5,0,0,0,43.64,35a6.39,6.39,0,0,0,.52-1.36,2.78,2.78,0,0,0,.06-.75,1.46,1.46,0,0,1,1,0,2.8,2.8,0,0,0,.07.75A5.47,5.47,0,0,0,45.82,35a4.89,4.89,0,0,0,1.38,1.74,3.51,3.51,0,0,0,2.2.66h.05c1.72,0,2.91-.51,3.54-1.46a5.13,5.13,0,0,0,.82-2.35A2.62,2.62,0,0,0,53.25,31.37Zm-3.68.23h.9a6.7,6.7,0,0,1,1.44.1,1.74,1.74,0,0,1,.66.37,1.85,1.85,0,0,1,.26,1.44,4.27,4.27,0,0,1-.66,1.9c-.44.66-1.36,1-2.73,1h0A2.61,2.61,0,0,1,47.79,36a4.2,4.2,0,0,1-1.1-1.4,4.85,4.85,0,0,1-.43-1.14,1.29,1.29,0,0,1,.39-1.37,3.23,3.23,0,0,1,1.77-.43h.22C48.92,31.61,49.21,31.6,49.57,31.6Zm-9.52,4.83h0c-1.37,0-2.29-.35-2.73-1a4.17,4.17,0,0,1-.67-1.9,1.9,1.9,0,0,1,.26-1.44,1.82,1.82,0,0,1,.66-.37,6.84,6.84,0,0,1,1.45-.1h.9c.36,0,.65,0,.92,0h.26a3.18,3.18,0,0,1,1.73.43,1.29,1.29,0,0,1,.4,1.37,5.66,5.66,0,0,1-.44,1.14,4,4,0,0,1-1.1,1.4A2.61,2.61,0,0,1,40.05,36.43Z" transform="translate(-2.93 -2.68)"/><path class="cls-3" d="M46.81,63.87l5.42,5.43a7.09,7.09,0,0,0,.51-1.49l-4.45-4.45A7.61,7.61,0,0,0,46.81,63.87Z" transform="translate(-2.93 -2.68)"/><path class="cls-3" d="M53.2,44.05a23.1,23.1,0,0,0,4.82-13,14.59,14.59,0,0,0,0-4.31,13.68,13.68,0,0,0-13.29-12,13.69,13.69,0,0,0-13.3,12,15.22,15.22,0,0,0-.15,2.15c0,.29,0,.59,0,.88s.06.85.12,1.26l0,.38A22.91,22.91,0,0,0,36.25,44c-.59.2-1.18.41-1.75.65l-2.31.81c-8,4-14.11,10.12-15,19.45,5.37,7.55,16.17,13.33,27.58,13.33s21.32-6.35,26.65-13.33C70.46,55.61,58.6,46.52,53.2,44.05ZM33.09,31.56a5.69,5.69,0,0,1,1.87.88s-1.33-7.89,1.47-9c0,0,9.3,4.52,15.55,0,0,0,3.71,5.87,2.66,8.18l1.89-2.17a13.75,13.75,0,0,1-.13,1.7c-.65,8.58-5.62,15.26-11.67,15.26S33.86,39.94,33.09,31.56Zm11.64,16.9A10.59,10.59,0,0,0,52,45.29l-7.57,10L37,44.84A10.78,10.78,0,0,0,44.73,48.46ZM63.21,61.1c-2.32,2.23-5.19,2.4-8.07,2.25l-.06-1c0-.22,0-.43,0-.64a19.92,19.92,0,0,0,2.56,0l-3.19-3.2a28.18,28.18,0,0,0,.09,3.87c.23,3.37.47,6.86-2.15,9.6a.18.18,0,0,1-.25,0l-.91-.92a.16.16,0,0,1,0-.24c.15-.16.29-.33.42-.5l-5.82-5.81a4.75,4.75,0,0,0-.49.42.2.2,0,0,1-.25,0L44.12,64a.18.18,0,0,1,0-.25c2.32-2.22,5.19-2.39,8.07-2.24l.06,1c0,.22,0,.43.05.64a19.92,19.92,0,0,0-2.56,0l3.19,3.2a28.18,28.18,0,0,0-.09-3.87c-.23-3.37-.47-6.86,2.15-9.6a.18.18,0,0,1,.25,0l.91.91a.18.18,0,0,1,0,.25c-.15.16-.29.33-.42.5l5.82,5.81a6.4,6.4,0,0,0,.49-.42.18.18,0,0,1,.25,0l.92.92A.17.17,0,0,1,63.21,61.1Z" transform="translate(-2.93 -2.68)"/><path class="cls-3" d="M54.6,57.06l4.45,4.44a7,7,0,0,0,1.48-.5l-5.42-5.42A6.81,6.81,0,0,0,54.6,57.06Z" transform="translate(-2.93 -2.68)"/></svg>