<?xml version="1.0" encoding="utf-8"?>
<!-- Generator: Adobe Illustrator 21.1.0, SVG Export Plug-In . SVG Version: 6.00 Build 0)  -->
<svg version="1.1" id="Layer_1" xmlns="http://www.w3.org/2000/svg" xmlns:xlink="http://www.w3.org/1999/xlink" x="0px" y="0px"
	 viewBox="0 0 100 100" style="enable-background:new 0 0 100 100;" xml:space="preserve">
<style type="text/css">
	.st0{fill:#74757D;}
</style>
<g>
	<path class="st0" d="M50,5C25.3,5,5.2,25.1,5,49.7c-0.1,12,4.5,23.4,13,31.9c8.4,8.6,19.7,13.3,31.7,13.4H50
		c24.7,0,44.8-20.1,45-44.7C95.2,25.5,75.1,5.2,50,5z M50,88.9h-0.3c-10.4-0.1-20.1-4.2-27.5-11.6C15,70,11,60.2,11.1,49.8
		c0.1-21.3,17.6-38.7,39.2-38.7C71.8,11.2,89.1,28.8,89,50.3C88.8,71.6,71.3,88.9,50,88.9z"/>
	<path class="st0" d="M28.2,30.8H28c-1.6,0-2.9,1.3-2.9,2.9c0,1.6,1.3,2.9,2.9,2.9h0.2c1.6,0,2.9-1.3,2.9-2.9S29.8,30.8,28.2,30.8z"
		/>
	<path class="st0" d="M28.2,47.1H28c-1.6,0-2.9,1.3-2.9,2.9c0,1.6,1.3,2.9,2.9,2.9h0.2c1.6,0,2.9-1.3,2.9-2.9
		C31.1,48.4,29.8,47.1,28.2,47.1z"/>
	<path class="st0" d="M28.2,63.4H28c-1.6,0-2.9,1.3-2.9,2.9s1.3,2.9,2.9,2.9h0.2c1.6,0,2.9-1.3,2.9-2.9
		C31.1,64.6,29.8,63.4,28.2,63.4z"/>
	<path class="st0" d="M40.8,36.6h28.8c1.6,0,2.9-1.3,2.9-2.9c0-1.6-1.3-2.9-2.9-2.9H40.8c-1.6,0-2.9,1.3-2.9,2.9
		C37.9,35.4,39.2,36.6,40.8,36.6z"/>
	<path class="st0" d="M76.2,47.1H40.8c-1.6,0-2.9,1.3-2.9,2.9c0,1.6,1.3,2.9,2.9,2.9h35.4c1.6,0,2.9-1.3,2.9-2.9
		C79.1,48.4,77.8,47.1,76.2,47.1z"/>
	<path class="st0" d="M68,63.4H40.8c-1.6,0-2.9,1.3-2.9,2.9s1.3,2.9,2.9,2.9H68c1.6,0,2.9-1.3,2.9-2.9C70.9,64.6,69.6,63.4,68,63.4z
		"/>
</g>
</svg>
