<svg id="events_pink" data-name="events pink" xmlns="http://www.w3.org/2000/svg" viewBox="0 0 15 14.87"><defs><style>.cls-1{fill:#e83a9c;}</style></defs><title>icon-events-pink</title><path class="cls-1" d="M11.37,3.76a.6.6,0,0,0,.6-.6v-2a.6.6,0,0,0-.6-.6.6.6,0,0,0-.6.6v2A.59.59,0,0,0,11.37,3.76Zm-6.46,0a.6.6,0,0,0,.6-.6v-2a.6.6,0,0,0-1.2,0v2A.6.6,0,0,0,4.91,3.76Zm9.93-1.7H12.69v1.1a1.33,1.33,0,1,1-2.65,0V2.06H6.23v1.1a1.32,1.32,0,1,1-2.64,0V2.06H1.44a.79.79,0,0,0-.8.8V6.14h15V2.86A.8.8,0,0,0,14.84,2.06ZM.64,14.65a.8.8,0,0,0,.8.81h13.4a.8.8,0,0,0,.8-.81V6.78H.64Zm11.08-6h2v2.05h-2Zm0,2.93h2v2h-2ZM8.65,8.68h2v2.05h-2Zm0,2.93h2v2h-2ZM5.58,8.68h2v2.05h-2Zm0,2.93h2v2h-2ZM2.5,8.68H4.55v2.05h-2Zm0,2.93H4.55v2h-2Z" transform="translate(-0.64 -0.59)"/></svg>