<?xml version="1.0" encoding="utf-8"?>
<!-- Generator: Adobe Illustrator 22.1.0, SVG Export Plug-In . SVG Version: 6.00 Build 0)  -->
<svg version="1.1" id="Layer_1" xmlns="http://www.w3.org/2000/svg" xmlns:xlink="http://www.w3.org/1999/xlink" x="0px" y="0px"
	 viewBox="0 0 36.9 36.9" style="enable-background:new 0 0 36.9 36.9;" xml:space="preserve">
<title>icon-github</title>
<g id="black">
	<g id="github">
		<path d="M13.9,36c0-0.5,0-1.6,0-3.2c-5.1,1.1-6.2-2.5-6.2-2.5c-0.3-1.1-1-2.1-2-2.8c-1.7-1.2,0.1-1.1,0.1-1.1
			c1.2,0.2,2.2,0.9,2.8,2c1,1.9,3.3,2.6,5.2,1.7c0,0,0.1,0,0.1-0.1c0.1-1,0.5-1.9,1.2-2.5c-4.1-0.5-8.4-2.1-8.4-9.4
			c0-1.9,0.6-3.7,1.9-5.1c-0.6-1.6-0.5-3.4,0.2-5c0,0,1.6-0.5,5.1,1.9c3-0.9,6.2-0.9,9.2,0c3.5-2.4,5.1-1.9,5.1-1.9
			c0.7,1.6,0.7,3.4,0.2,5c1.3,1.4,1.9,3.2,1.9,5.1c0,7.3-4.3,8.9-8.4,9.3c0.9,0.9,1.3,2.2,1.2,3.5c0,2.5,0,4.6,0,5.2
			s0.3,1.1,1.3,0.9C32,34.2,37.1,27,37,18.9C37.1,8.6,28.9,0.1,18.6,0c0,0-0.1,0-0.1,0C8.1,0.1-0.1,8.6,0,18.9
			c-0.1,8.1,5,15.3,12.6,18C13.6,37.1,13.9,36.5,13.9,36z"/>
	</g>
</g>
</svg>
