<?xml version="1.0" encoding="utf-8"?>
<!-- Generator: Adobe Illustrator 21.1.0, SVG Export Plug-In . SVG Version: 6.00 Build 0)  -->
<svg version="1.1" id="spotlight_grey" xmlns="http://www.w3.org/2000/svg" xmlns:xlink="http://www.w3.org/1999/xlink" x="0px"
	 y="0px" viewBox="0 0 14 13.4" style="enable-background:new 0 0 14 13.4;" xml:space="preserve">
<style type="text/css">
	.st0{fill:#FFFFFF;}
</style>
<title>icon-spotlight-grey</title>
<path class="st0" d="M6.2,0.5L4.5,3.9L0.7,4.5C0.3,4.6-0.1,5,0,5.4c0,0.2,0.1,0.3,0.2,0.5L3,8.6l-0.7,3.8c-0.1,0.5,0.2,0.9,0.7,1
	c0.2,0,0.4,0,0.5-0.1L7,11.5l3.4,1.8c0.4,0.2,0.9,0.1,1.1-0.3c0.1-0.2,0.1-0.4,0.1-0.5L11,8.6l2.8-2.7c0.3-0.3,0.3-0.9,0-1.2
	c-0.1-0.1-0.3-0.2-0.5-0.2L9.5,3.9L7.8,0.5C7.6,0.1,7.1-0.1,6.6,0.1C6.5,0.2,6.3,0.3,6.2,0.5z"/>
</svg>
