<?xml version="1.0" encoding="utf-8"?>
<!-- Generator: Adobe Illustrator 22.1.0, SVG Export Plug-In . SVG Version: 6.00 Build 0)  -->
<svg version="1.1" id="diseases" xmlns="http://www.w3.org/2000/svg" xmlns:xlink="http://www.w3.org/1999/xlink" x="0px" y="0px"
	 viewBox="0 0 86 86" style="enable-background:new 0 0 86 86;" xml:space="preserve">
<style type="text/css">
	.st0{fill:#FFFFFF;}
	.st1{fill:#E0E1E5;}
	.st2{fill:#A9ADC0;}
</style>
<title>icon-stats-families</title>
<circle class="st0" cx="43" cy="43" r="42"/>
<path class="st1" d="M43,2c22.6,0,41,18.4,41,41S65.6,84,43,84S2,65.7,2,43S20.4,2,43,2 M43,0C19.3,0,0,19.3,0,43s19.3,43,43,43
	s43-19.3,43-43S66.7,0,43,0z"/>
<circle class="st2" cx="43" cy="43" r="35"/>
<g id="XMLID_1_">
	<g>
		<path class="st2" d="M59.8,40.4v20.1H48.5v1.1H37.4V60H27.2V44.5c0.1-2.3,1.8-4.2,4-4.6c-2.2-0.8-3.7-2.9-3.8-5.3
			c0-3.2,2.9-5.9,6.6-5.9s6.6,2.6,6.6,5.9c-0.1,2.3-1.5,4.4-3.7,5.3c1.7,0.4,3.1,1.5,3.7,3.1c1-0.4,2.1-0.4,3.1-0.2v-2.2
			c0.1-2.7,2.1-5,4.8-5.4c-2.6-1-4.4-3.4-4.4-6.2c0-3.8,3.4-6.8,7.7-6.8s7.7,3,7.7,6.8C59.4,31.6,57.6,34,55,35
			C57.7,35.5,59.7,37.7,59.8,40.4z M58.7,59.5V40.4c-0.2-2.7-2.4-4.7-5.1-4.6H50c-2.7-0.1-4.9,1.9-5.1,4.6V43
			c1.9,0.6,3.3,2.3,3.3,4.3c0,1.6-0.9,3-2.2,3.9c1.5,0.6,2.4,2,2.5,3.5v4.7H58.7z M51.8,34.7c3.6,0,6.5-2.6,6.5-5.8S55.4,23,51.8,23
			c-3.6,0-6.5,2.6-6.5,5.8S48.2,34.7,51.8,34.7z M47.4,60.6v-5.9c-0.1-1.5-1.3-2.7-2.8-2.8c-0.5,0.2-1.1,0.2-1.6,0.2
			s-1.1-0.1-1.6-0.2c-1.5,0.1-2.7,1.3-2.8,2.8v5.9H47.4z M47.1,47.4c-0.2-2-1.8-3.6-3.8-3.8c-2.3-0.2-4.4,1.5-4.6,3.8
			c0.2,2,1.8,3.6,3.8,3.8C44.9,51.4,46.9,49.7,47.1,47.4z M39.8,51.2c-0.6-0.4-1.1-0.8-1.5-1.4c-1.3-2.1-0.7-4.8,1.4-6.2
			c-0.5-1.8-2.2-3-4.1-2.9h-3c-2.2-0.1-4.1,1.6-4.2,3.8V59h9v-0.1v-4.2c0-0.8,0.3-1.5,0.7-2.1C38.5,52,39.1,51.5,39.8,51.2z
			 M34.1,39.4c2.8,0.1,5.3-2,5.4-4.9c-0.2-2.8-2.6-5-5.4-4.9c-2.8-0.1-5.2,2-5.4,4.8c0,0,0,0,0,0C28.8,37.4,31.2,39.6,34.1,39.4z"/>
		<path class="st0" d="M58.7,40.4v19.1H48.5v-4.7c0-1.6-1-2.9-2.5-3.5c1.4-0.8,2.2-2.3,2.2-3.9c-0.1-2-1.4-3.7-3.3-4.3v-2.6
			c0.2-2.7,2.4-4.7,5.1-4.6h3.5C56.3,35.8,58.5,37.8,58.7,40.4z"/>
		<path class="st0" d="M58.3,28.8c0,3.2-2.9,5.8-6.5,5.8c-3.6,0-6.5-2.6-6.5-5.8s2.9-5.8,6.5-5.8C55.4,23,58.3,25.6,58.3,28.8z"/>
		<path class="st0" d="M47.4,54.8v5.9h-8.9v-5.9c0.1-1.5,1.3-2.7,2.8-2.8c0.5,0.2,1.1,0.2,1.6,0.2s1.1-0.1,1.6-0.2
			C46.1,52,47.3,53.3,47.4,54.8z"/>
		<path class="st0" d="M43.3,43.6c2,0.2,3.6,1.8,3.8,3.8c-0.2,2.3-2.3,4-4.6,3.8c-2-0.2-3.6-1.8-3.8-3.8C39,45.1,41,43.4,43.3,43.6z
			"/>
		<path class="st0" d="M38.3,49.8c0.4,0.6,0.9,1.1,1.5,1.4c-0.7,0.3-1.3,0.8-1.7,1.4c-0.4,0.6-0.7,1.3-0.7,2.1v4.2V59h-9V44.5
			c0.1-2.2,2-3.9,4.2-3.8h3c1.9-0.1,3.6,1.1,4.1,2.9C37.6,44.9,37,47.7,38.3,49.8z"/>
		<path class="st0" d="M39.5,34.6c-0.2,2.8-2.6,5-5.4,4.9c-2.9,0.1-5.3-2-5.4-4.9c0,0,0,0,0,0c0.2-2.8,2.6-4.9,5.4-4.8
			C36.9,29.6,39.4,31.8,39.5,34.6z"/>
	</g>
	<g>
	</g>
</g>
</svg>
