<svg id="default_commitment_maker" data-name="default commitment maker" xmlns="http://www.w3.org/2000/svg" viewBox="0 0 86 86"><defs><style>.cls-1{fill:#fff;}.cls-2{fill:#e0e1e5;}.cls-3{fill:#a9adc0;}.cls-4{fill:none;}.cls-5{fill:#2b388f;}</style></defs><title>icon-default-community</title><circle class="cls-1" cx="43" cy="43" r="42"/><path class="cls-2" d="M43.87,3a41,41,0,1,1-41,41,41,41,0,0,1,41-41m0-2a43,43,0,1,0,43,43,43,43,0,0,0-43-43Z" transform="translate(-0.87 -0.98)"/><circle class="cls-3" cx="43" cy="43" r="35"/><path class="cls-4" d="M65.66,44A21.79,21.79,0,1,0,43.87,65.77,21.81,21.81,0,0,0,65.66,44Zm-3.51,4.14a5,5,0,0,0-.25-.52v6.2a20.78,20.78,0,0,1-6.27,7c0-4.7-.84-8.52-2.39-11.36a10.28,10.28,0,0,0-2.35-2.94,6,6,0,0,0-1.37-.87,4.89,4.89,0,0,0-1.07-.33,7.15,7.15,0,0,1,2.89-2.81,3.07,3.07,0,0,1,1.26-.29l.22,0H60l.21,0a3.08,3.08,0,0,1,1.27.29,5.16,5.16,0,0,1,1.12.72,8.43,8.43,0,0,1,1.75,2.07,20.73,20.73,0,0,1-1.22,5.81A15.07,15.07,0,0,0,62.15,48.12ZM31.35,32.57a4.58,4.58,0,1,1-4.58,4.57A4.58,4.58,0,0,1,31.35,32.57ZM61,37.14a4.58,4.58,0,1,1-4.58-4.57A4.58,4.58,0,0,1,61,37.14ZM48.59,30.52A4.58,4.58,0,1,1,44,26,4.58,4.58,0,0,1,48.59,30.52ZM44,36.71a4.58,4.58,0,1,1-4.57,4.57A4.57,4.57,0,0,1,44,36.71ZM25.85,54.21v-6.6a14.54,14.54,0,0,0-1.29,3.92,20.37,20.37,0,0,1-1.35-5.85,7.28,7.28,0,0,1,3.08-3.15,3.08,3.08,0,0,1,1.27-.29l.21,0h7.16l.21,0a3.08,3.08,0,0,1,1.27.29,5.16,5.16,0,0,1,1.12.72,8.41,8.41,0,0,1,1.79,2.14,4.88,4.88,0,0,0-.81.28,9.19,9.19,0,0,0-4.23,4.82,26.29,26.29,0,0,0-1.89,10.66v0A20.72,20.72,0,0,1,25.85,54.21Zm12.61,9.7,0-.83V51.74A18.29,18.29,0,0,0,36.82,59c0,.21,0,.42,0,.65,0,.49,0,1,0,1.53,0,.71,0,1.46.07,2.25a20.31,20.31,0,0,1-3.31-1.53c0-.24,0-.49,0-.72A32.93,32.93,0,0,1,34,55.41c.09-.5.19-1,.3-1.43s.19-.76.3-1.11a17,17,0,0,1,.72-1.93v0c.12-.26.25-.51.38-.75s.18-.32.27-.48l.11-.19c.12-.2.25-.38.37-.56l0,0c.14-.19.27-.36.41-.53h0l.24-.28h0a6.13,6.13,0,0,1,1.39-1.17,4.31,4.31,0,0,1,.47-.26l.4-.15.09,0a2.77,2.77,0,0,1,.78-.12h7.66a3.25,3.25,0,0,1,1.19.29,5,5,0,0,1,1.12.71,6.77,6.77,0,0,1,.56.52h0l.15.17h0a7.81,7.81,0,0,1,.56.68l.22.3.18.27q.21.32.42.69a13.76,13.76,0,0,1,.89,2,20.78,20.78,0,0,1,.72,2.49,31.3,31.3,0,0,1,.65,6.66c0,.13,0,.28,0,.42a20.65,20.65,0,0,1-3.3,1.63l0-.78c0-.44,0-.86,0-1.27s0-1,0-1.46l0-.52c0-.28,0-.56,0-.82l-.06-.6c0-.21,0-.42-.07-.62l-.09-.6a16.14,16.14,0,0,0-1.19-4.27,5,5,0,0,0-.25-.52v.31h0v11l.05.69a20.69,20.69,0,0,1-11.1.14Z" transform="translate(-0.87 -0.98)"/><polygon class="cls-5" points="50.03 47.09 50.03 47.09 50.03 47.09 50.03 47.09"/><polygon class="cls-5" points="49.88 46.92 49.88 46.92 49.88 46.92 49.88 46.92"/><polygon class="cls-5" points="47.01 45.41 47.01 45.41 47.01 45.41 47.01 45.41"/><path class="cls-1" d="M62.58,43.25a5.16,5.16,0,0,0-1.12-.72,3.08,3.08,0,0,0-1.27-.29l-.21,0H52.82l-.22,0a3.07,3.07,0,0,0-1.26.29,7.15,7.15,0,0,0-2.89,2.81,4.89,4.89,0,0,1,1.07.33,6,6,0,0,1,1.37.87,10.28,10.28,0,0,1,2.35,2.94c1.55,2.84,2.35,6.66,2.39,11.36a20.78,20.78,0,0,0,6.27-7V47.6a5,5,0,0,1,.25.52,15.07,15.07,0,0,1,1,3,20.73,20.73,0,0,0,1.22-5.81A8.43,8.43,0,0,0,62.58,43.25Z" transform="translate(-0.87 -0.98)"/><circle class="cls-1" cx="56.4" cy="37.14" r="4.58" transform="translate(-7.9 12.97) rotate(-13.28)"/><circle class="cls-1" cx="31.35" cy="37.14" r="4.58" transform="translate(-17.95 32.07) rotate(-45)"/><polygon class="cls-5" points="35.98 47.4 35.98 47.4 35.98 47.4 35.98 47.4"/><polygon class="cls-5" points="36.22 47.12 36.22 47.12 36.22 47.12 36.22 47.12"/><path class="cls-1" d="M34.28,50.49a9.19,9.19,0,0,1,4.23-4.82,4.88,4.88,0,0,1,.81-.28,8.41,8.41,0,0,0-1.79-2.14,5.16,5.16,0,0,0-1.12-.72,3.08,3.08,0,0,0-1.27-.29l-.21,0H27.77l-.21,0a3.08,3.08,0,0,0-1.27.29,7.28,7.28,0,0,0-3.08,3.15,20.37,20.37,0,0,0,1.35,5.85,14.54,14.54,0,0,1,1.29-3.92v6.6a20.72,20.72,0,0,0,6.54,7v0A26.29,26.29,0,0,1,34.28,50.49Z" transform="translate(-0.87 -0.98)"/><path class="cls-1" d="M49.51,63.08V51.74h0a5,5,0,0,1,.25.52A16.14,16.14,0,0,1,51,56.53l.09.6c0,.2.05.41.07.62l.06.6c0,.26,0,.54,0,.82l0,.52c0,.47,0,1,0,1.46s0,.83,0,1.27l0,.78a20.65,20.65,0,0,0,3.3-1.63c0-.14,0-.29,0-.42a31.3,31.3,0,0,0-.65-6.66A20.78,20.78,0,0,0,53.17,52c-.14-.37-.28-.72-.43-1.06s-.3-.64-.46-.93-.28-.47-.42-.69l-.18-.27-.22-.3a7.81,7.81,0,0,0-.56-.68h0l-.15-.17h0a6.77,6.77,0,0,0-.56-.52,5,5,0,0,0-1.12-.71,3.25,3.25,0,0,0-1.19-.29H40.22a2.77,2.77,0,0,0-.78.12l-.09,0-.4.15a4.31,4.31,0,0,0-.47.26,6.13,6.13,0,0,0-1.39,1.17h0l-.24.28h0c-.14.17-.27.34-.41.53l0,0c-.12.18-.25.36-.37.56l-.11.19c-.09.16-.19.31-.27.48s-.26.49-.38.75v0a17,17,0,0,0-.72,1.93q-.16.52-.3,1.11c-.11.45-.21.93-.3,1.43a32.93,32.93,0,0,0-.47,5.74c0,.23,0,.48,0,.72a20.31,20.31,0,0,0,3.31,1.53c0-.79-.07-1.54-.07-2.25,0-.54,0-1,0-1.53,0-.23,0-.44,0-.65a18.29,18.29,0,0,1,1.69-7.23V63.08l0,.83a20.69,20.69,0,0,0,11.1-.14Z" transform="translate(-0.87 -0.98)"/><circle class="cls-1" cx="44.01" cy="41.28" r="4.58" transform="translate(-9.18 10.24) rotate(-13.28)"/><circle class="cls-1" cx="44.01" cy="30.52" r="4.58" transform="translate(-6.71 9.95) rotate(-13.28)"/></svg>