<svg fill="#EC5D57" xmlns="http://www.w3.org/2000/svg" xmlns:xlink="http://www.w3.org/1999/xlink" version="1.1" x="0px" y="0px" viewBox="0 0 32 32" enable-background="new 0 0 32 32" xml:space="preserve"><g display="none"><rect x="-140.91" y="-134.75" display="inline" fill="#EC5D57" width="449.711" height="215.795"></rect></g><g display="none"><g display="inline"><g><path d="M16,2c7.72,0,14,6.28,14,14c0,7.72-6.28,14-14,14S2,23.72,2,16C2,8.28,8.28,2,16,2 M16,0C7.163,0,0,7.163,0,16     c0,8.837,7.163,16,16,16c8.837,0,16-7.163,16-16C32,7.163,24.837,0,16,0L16,0z"></path></g><g><path fill="#EC5D57" d="M4.509,17.111l1.251-0.122c0.076,0.42,0.229,0.728,0.459,0.926c0.23,0.198,0.542,0.297,0.933,0.297     c0.414,0,0.727-0.088,0.937-0.264c0.21-0.175,0.315-0.379,0.315-0.615c0-0.152-0.045-0.279-0.133-0.385     c-0.088-0.107-0.242-0.199-0.463-0.276c-0.15-0.053-0.494-0.145-1.03-0.279c-0.691-0.171-1.174-0.38-1.453-0.631     c-0.391-0.351-0.586-0.777-0.586-1.282c0-0.325,0.092-0.628,0.276-0.911c0.184-0.282,0.45-0.497,0.795-0.645     c0.347-0.149,0.765-0.222,1.255-0.222c0.8,0,1.403,0.175,1.806,0.525c0.405,0.351,0.617,0.819,0.638,1.405l-1.288,0.056     c-0.056-0.328-0.173-0.563-0.355-0.707c-0.18-0.144-0.452-0.215-0.815-0.215c-0.374,0-0.666,0.077-0.877,0.232     c-0.137,0.099-0.204,0.23-0.204,0.395c0,0.15,0.064,0.28,0.191,0.387c0.162,0.135,0.556,0.278,1.182,0.425     c0.627,0.149,1.09,0.302,1.389,0.459c0.301,0.158,0.535,0.374,0.705,0.649c0.169,0.274,0.253,0.612,0.253,1.016     c0,0.364-0.1,0.707-0.303,1.026c-0.203,0.318-0.49,0.555-0.861,0.711c-0.371,0.154-0.834,0.232-1.388,0.232     c-0.806,0-1.424-0.185-1.856-0.558S4.592,17.825,4.509,17.111z"></path></g><g><path fill="#EC5D57" d="M16.523,19.185h-1.4l-0.556-1.449h-2.548l-0.527,1.449h-1.365l2.483-6.375h1.361L16.523,19.185z      M14.153,16.663l-0.879-2.365l-0.861,2.365H14.153z"></path></g><g><path fill="#EC5D57" d="M17.239,19.185v-6.322h1.288v5.248h3.2v1.074H17.239z"></path></g><g><path fill="#EC5D57" d="M22.643,19.185v-6.375h4.727v1.078H23.93v1.414h3.201v1.074H23.93v1.736h3.561v1.074H22.643z"></path></g></g></g><g><path d="M16,0C7.163,0,0,7.163,0,16s7.163,16,16,16c8.837,0,16-7.163,16-16S24.837,0,16,0z M16,30C8.28,30,2,23.72,2,16   C2,8.28,8.28,2,16,2c7.72,0,14,6.28,14,14C30,23.72,23.72,30,16,30z"></path><polygon points="17.426,18.742 17.972,7.502 14.027,7.502 14.598,18.742  "></polygon><path d="M16.012,19.982c-1.315,0-2.232,0.942-2.232,2.258c0,1.289,0.893,2.258,2.232,2.258s2.209-0.968,2.209-2.258   C18.195,20.924,17.326,19.982,16.012,19.982z"></path></g></svg>