<svg id="news_pink" data-name="news pink" xmlns="http://www.w3.org/2000/svg" viewBox="0 0 15 14.27"><defs><style>.cls-1{fill:#e83a9c;}</style></defs><title>icon-news-pink</title><path class="cls-1" d="M15.1.89a.54.54,0,0,0-.54.54V13.86a.54.54,0,1,0,1.08,0V1.43A.54.54,0,0,0,15.1.89Z" transform="translate(-0.64 -0.89)"/><path class="cls-1" d="M.64,7.64A1.85,1.85,0,0,0,2.23,9.47v1.41c0,.14,0,.29,0,.43v.23a2.06,2.06,0,0,0,0,.25v0c0,.07,0,.13,0,.19s0,.16,0,.22v0a.75.75,0,0,0,0,.2,5.54,5.54,0,0,0,.2.83h0c.05.13.09.26.14.38v.06c.05.11.1.23.16.34v0l.18.34s0,0,0,0l.2.3L3.4,15a.51.51,0,0,0,.37.18A.54.54,0,0,0,4,15.11l1.85-.83a.5.5,0,0,0,.29-.48.49.49,0,0,0-.36-.43l-.14,0-.07,0-.16-.07,0,0h0l-.18-.1,0,0h0l0,0-.13-.1-.16-.16a.86.86,0,0,1-.07-.1.27.27,0,0,1-.07-.08l0-.06L4.5,12.4h0a2.73,2.73,0,0,1-.22-.46l0,0,0-.09v0a.49.49,0,0,1,0-.11h0l0-.12v0s0,0,0-.06a2,2,0,0,1,0-.23c0-.15,0-.29,0-.44L4,10.17,4,9.6V9.49H5.33V5.8H2.48A1.84,1.84,0,0,0,.64,7.64Z" transform="translate(-0.64 -0.89)"/><path class="cls-1" d="M5.87,6V9.26C12.59,10.65,14,13.34,14,13.34V2S12.59,4.63,5.87,6Z" transform="translate(-0.64 -0.89)"/></svg>