<svg xmlns="http://www.w3.org/2000/svg" viewBox="0 0 86 86"><defs><style>.cls-1{fill:#fff;}.cls-2{fill:#e0e1e5;}.cls-3{fill:#a9adc0;}</style></defs><title>icon-tech-support</title><g id="contact"><circle class="cls-1" cx="43" cy="43" r="42"/><path class="cls-2" d="M44,3A41,41,0,1,1,3,44,41.06,41.06,0,0,1,44,3m0-2A43,43,0,1,0,87,44,43,43,0,0,0,44,1Z" transform="translate(-1 -0.95)"/><circle class="cls-3" cx="43" cy="43" r="35"/><path class="cls-1" d="M44.61,44.43h0l-.06,0h0l-.08,0h0l-.09,0h0l-.09,0h0l-.09,0h0l-.09,0h0l-.09,0h0l-.09,0h0l-.08,0h0l-.07,0h0L28.34,34.18a3.08,3.08,0,0,0-.41,1.53V51.84A3.18,3.18,0,0,0,31.09,55H57.24a3.17,3.17,0,0,0,3.16-3.16V35.71A3.14,3.14,0,0,0,59.89,34L44.62,44.42Z" transform="translate(-1 -0.95)"/><path class="cls-1" d="M58.67,32.9a3.08,3.08,0,0,0-1.43-.35H31.09a3.07,3.07,0,0,0-1.64.47l14.71,9.79Z" transform="translate(-1 -0.95)"/></g><g id="tech_support" data-name="tech support"><circle class="cls-1" cx="43" cy="43" r="42"/><path class="cls-2" d="M44,3A41,41,0,1,1,3,44,41.06,41.06,0,0,1,44,3m0-2A43,43,0,1,0,87,44,43,43,0,0,0,44,1Z" transform="translate(-1 -0.95)"/><circle class="cls-3" cx="43" cy="43" r="35"/><path class="cls-1" d="M50.51,40.18a1.47,1.47,0,0,0-1.95.14l-6.05,6.06L39.83,43.7a1.43,1.43,0,1,0-2.07,2l4,4a1,1,0,0,0,1.48,0l7.37-7.4A1.44,1.44,0,0,0,50.51,40.18Z" transform="translate(-1 -0.95)"/><path class="cls-1" d="M62.22,43a.86.86,0,0,0-.64-.81,8.51,8.51,0,0,1-4.89-4.34A10,10,0,0,1,55.49,34a7.26,7.26,0,0,1,0-1.4c0-.29.09-.61.15-.93a.38.38,0,0,0,0-.18v-.26a1,1,0,0,0-.56-.79c-.41-.23-.78-.46-1.19-.72l-.23-.15c-.62-.35-1.29-.76-1.93-1.16a1.18,1.18,0,0,0-1.16-.06c-.09.06-.2.11-.32.2l-.12.09a13.32,13.32,0,0,1-1.25.9,5.27,5.27,0,0,1-.55.26,11.89,11.89,0,0,1-4.66.76,8.41,8.41,0,0,1-5.24-2.24,1,1,0,0,0-1.37-.15c-1.1.64-2.24,1.28-3.4,1.9a1.11,1.11,0,0,0-.53.52.71.71,0,0,0-.06.23,1.28,1.28,0,0,0,0,.47,8.4,8.4,0,0,1,.12,1.22v0A7.82,7.82,0,0,1,33.22,34a6.62,6.62,0,0,1-.35,1.51,10.61,10.61,0,0,1-3.73,5,3.9,3.9,0,0,1-.52.35,8.4,8.4,0,0,1-1.43.58l-.11.06a1.16,1.16,0,0,0-.35.14,1,1,0,0,0-.5.56.6.6,0,0,0-.06.23v.84c0,.35,0,.73,0,1.08V45c0,.47,0,1,0,1.43v.32a1,1,0,0,0,.75.87,8.58,8.58,0,0,1,4.69,4.11,8.72,8.72,0,0,1,1.25,5.5,5.37,5.37,0,0,1-.17,1s0,.09,0,.12a.91.91,0,0,0,.52,1c1.28.78,2.39,1.45,3.5,2.09a1.18,1.18,0,0,0,.52.18.91.91,0,0,0,.47-.12l.29-.23a6.26,6.26,0,0,1,1.31-1,9.74,9.74,0,0,1,5.56-1,7.8,7.8,0,0,1,4.95,2.12,1.26,1.26,0,0,0,.78.44h.09a1.45,1.45,0,0,0,.73-.23l1.6-.91,1.63-.9a1.23,1.23,0,0,0,.61-.61.71.71,0,0,0,.06-.23,1.16,1.16,0,0,0-.06-.56c-.06-.23-.09-.43-.14-.67a7.75,7.75,0,0,1,0-1.19,8.55,8.55,0,0,1,.23-1.45,9.17,9.17,0,0,1,.76-2,9.75,9.75,0,0,1,3.78-4.2,5.46,5.46,0,0,1,1.54-.58.92.92,0,0,0,.7-.52.56.56,0,0,0,.06-.21s0,0,0-.11a.38.38,0,0,1,0-.18c0-.32,0-.61,0-.93,0-1.08,0-2.12,0-3.11A.38.38,0,0,0,62.22,43Zm-7.51,3.26a10.36,10.36,0,0,1-.7,2.62,10.69,10.69,0,0,1-4.66,5.24,11,11,0,0,1-5.82,1.31,10.41,10.41,0,0,1-8.39-5.09,10.89,10.89,0,0,1-1.45-6.9A8.36,8.36,0,0,1,34,42.13a12.8,12.8,0,0,1,.52-1.51,2.53,2.53,0,0,1,.21-.44s0,0,0-.06a10.78,10.78,0,0,1,4.37-4.51,10.47,10.47,0,0,1,5.74-1.31,11.6,11.6,0,0,1,2.41.43,10.81,10.81,0,0,1,6.44,5.42A10.14,10.14,0,0,1,54.71,46.29Z" transform="translate(-1 -0.95)"/></g></svg>