<svg id="Layer_1" data-name="Layer 1" xmlns="http://www.w3.org/2000/svg" viewBox="0 0 86.09 89.97"><defs><style>.cls-1{fill:#2b388f;}.cls-2{fill:#d8202f;}.cls-3{fill:#009bb8;}.cls-4{fill:#00afed;}.cls-5{fill:#ff9324;}.cls-6{fill:#e83a9c;}.cls-7{fill:#a42c90;}</style></defs><title>icon-data-driven-platforms</title><path class="cls-1" d="M83.17,40.17a4.94,4.94,0,0,0-6.8,1.8,4.42,4.42,0,0,0-.5,1.5H51.57a7.6,7.6,0,0,0-.7-2.59l14-8.1a5,5,0,0,0,6.2,1,5,5,0,1,0-5-8.6,4.88,4.88,0,0,0-2.2,5.9l-14,8.1a8.56,8.56,0,0,0-1.9-1.9l12.1-20.9a5,5,0,1,0-2.7-2.2,4,4,0,0,0,1,1.2L46.27,36.17a8,8,0,0,0-2.6-.7v-8.2a5,5,0,0,0,4-4.9,5,5,0,0,0-10,0,5,5,0,0,0,4,4.9v8.2a7.71,7.71,0,0,0-2.6.7l-16.7-29a3.93,3.93,0,0,0,1.1-2.8,3.9,3.9,0,0,0-3.9-3.9,3.84,3.84,0,0,0-3.9,3.9,3.9,3.9,0,0,0,3.9,3.9c.3,0,.7-.1,1-.1l16.7,29a8.61,8.61,0,0,0-1.9,1.91L28.27,35a5,5,0,0,0-2.2-5.9,5,5,0,1,0,1.2,7.59l7.1,4.1a7.71,7.71,0,0,0-.7,2.6H8.37a3.76,3.76,0,0,0-3.7-2.9,3.9,3.9,0,1,0,0,7.8,3.76,3.76,0,0,0,3.7-2.9h25.3a7.71,7.71,0,0,0,.7,2.6l-7.1,4.1a5,5,0,0,0-6.2-1,5,5,0,1,0,5,8.6,4.88,4.88,0,0,0,2.2-5.9l7.1-4.1a11.38,11.38,0,0,0,1.9,1.9L25.67,71.78a3.55,3.55,0,0,0-1-.2,3.9,3.9,0,0,0,0,7.8,3.84,3.84,0,0,0,3.9-3.9,3.69,3.69,0,0,0-1.1-2.7l11.6-20a7.71,7.71,0,0,0,2.6.7v13.2a5,5,0,0,0-4,4.9,5,5,0,0,0,10,0,5,5,0,0,0-4-4.9V53.38a7.5,7.5,0,0,0,2.6-.71l16.1,28a5,5,0,1,0,3.3-1.3,4.53,4.53,0,0,0-1.6.3L48,51.67a8.56,8.56,0,0,0,1.9-1.9l8,4.6a3.55,3.55,0,0,0-.2,1,3.9,3.9,0,0,0,3.9,3.9,3.84,3.84,0,0,0,3.9-3.9,3.9,3.9,0,0,0-3.9-3.9,3.69,3.69,0,0,0-2.7,1.1l-8-4.6a7.71,7.71,0,0,0,.7-2.6h24.2a4.78,4.78,0,0,0,2.4,3.3,4.93,4.93,0,0,0,6.8-1.8A4.84,4.84,0,0,0,83.17,40.17Zm-40.5,8a3.7,3.7,0,0,1,0-7.4,3.63,3.63,0,0,1,3.7,3.7A3.76,3.76,0,0,1,42.67,48.17Z"/><circle class="cls-2" cx="65.59" cy="84.47" r="5.5"/><circle class="cls-3" cx="80.59" cy="44.47" r="5.5"/><circle class="cls-2" cx="61.59" cy="11.56" r="5.5"/><circle class="cls-4" cx="23.53" cy="55.53" r="5.22"/><circle class="cls-3" cx="23.53" cy="33.28" r="5.22"/><circle class="cls-5" cx="42.67" cy="22.28" r="5.22"/><circle class="cls-4" cx="68.61" cy="29.45" r="5.22"/><circle class="cls-5" cx="42.67" cy="71.7" r="5.22"/><circle class="cls-6" cx="4.31" cy="44.47" r="4.31"/><circle class="cls-7" cx="24.44" cy="75.64" r="4.31"/><circle class="cls-6" cx="61.59" cy="55.53" r="4.31"/><circle class="cls-7" cx="19.64" cy="4.31" r="4.31"/></svg>