<svg id="studies" xmlns="http://www.w3.org/2000/svg" viewBox="0 0 86 86"><defs><style>.cls-1{fill:#fff;}.cls-2{fill:#e0e1e5;}.cls-3{fill:#d8202f;}</style></defs><title>icon-stats-studies</title><circle class="cls-1" cx="43" cy="43" r="42"/><path class="cls-2" d="M44.07,3a41,41,0,1,1-41,41,41,41,0,0,1,41-41m0-2a43,43,0,1,0,43,43,43,43,0,0,0-43-43Z" transform="translate(-1.07 -1.04)"/><circle class="cls-3" cx="43" cy="43" r="35"/><path class="cls-1" d="M43.44,28.69,29,36.2a.93.93,0,0,0,0,1.58l14.43,7.51a1.38,1.38,0,0,0,1.25,0l14.43-7.51a.92.92,0,0,0,0-1.58L44.63,28.69A1.26,1.26,0,0,0,43.44,28.69Z" transform="translate(-1.07 -1.04)"/><path class="cls-1" d="M59.06,43.19l-2.7-1.39a.8.8,0,0,0-.53,0L45.49,47.2a2.87,2.87,0,0,1-1.45.33,3.54,3.54,0,0,1-1.45-.33L32.24,41.8a.8.8,0,0,0-.53,0L29,43.19a.93.93,0,0,0,0,1.58l14.43,7.51a1.38,1.38,0,0,0,1.25,0l14.43-7.51A1,1,0,0,0,59.06,43.19Z" transform="translate(-1.07 -1.04)"/><path class="cls-1" d="M59.06,50.3l-2.7-1.38a.69.69,0,0,0-.53,0l-10.34,5.4a3,3,0,0,1-1.45.33,3.54,3.54,0,0,1-1.45-.33l-10.35-5.4a.69.69,0,0,0-.53,0L29,50.3a.93.93,0,0,0,0,1.58l14.43,7.51a1.38,1.38,0,0,0,1.25,0l14.43-7.51A1,1,0,0,0,59.06,50.3Z" transform="translate(-1.07 -1.04)"/></svg>