<svg id="media_pink" data-name="media pink" xmlns="http://www.w3.org/2000/svg" viewBox="0 0 15 14.8"><defs><style>.cls-1{fill:#e83a9c;}</style></defs><title>icon-media-pink</title><path class="cls-1" d="M14.3.62H4.24A1.34,1.34,0,0,0,2.91,2V12a.42.42,0,0,1-.42.42A.41.41,0,0,1,2.08,12V4.54H1.77A1.25,1.25,0,0,0,.64,5.87v8.22A1.34,1.34,0,0,0,2,15.42H14.3a1.34,1.34,0,0,0,1.34-1.33V2A1.34,1.34,0,0,0,14.3.62ZM5,2.81H5a.35.35,0,0,1,.34-.35H7.75a.35.35,0,0,1,.35.35V5.22a.35.35,0,0,1-.35.34H5.34A.34.34,0,0,1,5,5.22Zm8.46,9.64H5.09v-.83h8.37Zm0-2.27H5.09V9.35h8.37Zm0-2.26H5.09V7.08h8.37Zm0-2.27H10.14V4.82h3.32Zm0-2.27H10.14V2.55h3.32Z" transform="translate(-0.64 -0.62)"/></svg>