<svg xmlns="http://www.w3.org/2000/svg" viewBox="0 0 85 85"><defs><style>.cls-1,.cls-3{fill:#c91f1f;}.cls-1,.cls-2{stroke:#c91f1f;stroke-linecap:round;stroke-linejoin:round;stroke-width:3px;}.cls-2{fill:#fff;}</style></defs><title>Layer 1</title><g id="Layer_2" data-name="Layer 2"><g id="Layer_1-2" data-name="Layer 1"><circle class="cls-1" cx="42.5" cy="42.5" r="41"/><path class="cls-2" d="M27,25.3H58.5a8.07,8.07,0,0,1,8.1,8.1V50.3a8.07,8.07,0,0,1-8.1,8.1H27a8.07,8.07,0,0,1-8.1-8.1V33.4A8.2,8.2,0,0,1,27,25.3Z"/><path class="cls-3" d="M49.6,39.8a1.37,1.37,0,0,1,.6,1.9,1.17,1.17,0,0,1-.6.6l-4.5,2.3-4.9,2.5a1.35,1.35,0,0,1-1.9-.6,1.42,1.42,0,0,1-.2-.6V36.2a1.37,1.37,0,0,1,1.4-1.4,1.85,1.85,0,0,1,.7.2l4.9,2.5Z"/></g></g></svg>