<svg id="size" xmlns="http://www.w3.org/2000/svg" viewBox="0 0 86 86"><defs><style>.cls-1{fill:#fff;}.cls-2{fill:#e0e1e5;}.cls-3{fill:#ff9400;}</style></defs><title>icon-analyzedata</title><circle class="cls-1" cx="43" cy="42.95" r="42"/><path class="cls-2" d="M43,2.05a41,41,0,1,1-41,41,41,41,0,0,1,41-41m0-2a43,43,0,1,0,43,43A43,43,0,0,0,43,.05Z" transform="translate(0 -0.05)"/><circle class="cls-3" cx="43" cy="42.95" r="35"/><path class="cls-1" d="M62,62.4h-.07v-30A1.33,1.33,0,0,0,60.76,31H55.13A1.33,1.33,0,0,0,54,32.4v30H51.3V39.6a1.34,1.34,0,0,0-1.18-1.44H44.5a1.33,1.33,0,0,0-1.18,1.44V62.4H40.59V46.8a1.33,1.33,0,0,0-1.18-1.44H33.79a1.33,1.33,0,0,0-1.18,1.44V62.4h0a.89.89,0,0,0-1,.76.88.88,0,0,0,1,1H62a.86.86,0,0,0,1-.75.88.88,0,0,0-.76-1Zm-19-27a7.92,7.92,0,1,0-12.15-1.11L22.19,43a1.44,1.44,0,0,0,0,2h0a1.44,1.44,0,0,0,2,0l8.64-8.69A7.92,7.92,0,0,0,43,35.43ZM33.3,25.72a5.76,5.76,0,1,1,0,8.19A5.75,5.75,0,0,1,33.3,25.72Z" transform="translate(0 -0.05)"/></svg>