<svg xmlns="http://www.w3.org/2000/svg" xmlns:xlink="http://www.w3.org/1999/xlink" viewBox="0 0 528.83 573.24"><defs><style>.cls-1,.cls-15,.cls-23,.cls-8{fill:none;}.cls-2{isolation:isolate;}.cls-3{clip-path:url(#clip-path);}.cls-4{fill:#b9cad1;opacity:0.75;mix-blend-mode:multiply;}.cls-5{fill:#f05264;}.cls-6{fill:#fab188;}.cls-7{fill:#f68e6e;}.cls-23,.cls-8{stroke:#fab188;}.cls-15,.cls-23,.cls-8{stroke-linecap:round;}.cls-15,.cls-20,.cls-23,.cls-8{stroke-miterlimit:10;}.cls-8{stroke-width:21.16px;}.cls-9{fill:#fedd7c;}.cls-10{opacity:0.5;}.cls-11{fill:#b8bec4;}.cls-12{fill:#edb257;}.cls-13{fill:#8f3b26;}.cls-14{fill:#f69320;}.cls-15{stroke:#8f3b26;stroke-width:2.91px;}.cls-16{fill:#8f2b31;}.cls-17{fill:#d85566;}.cls-18,.cls-20{fill:#fff;}.cls-19{fill:#9b4635;opacity:0.6;}.cls-20{stroke:#fff;stroke-width:0.87px;}.cls-21{fill:#432c28;}.cls-22{fill:#d3edfb;}.cls-23{stroke-width:9.98px;}</style><clipPath id="clip-path" transform="translate(275.41 -8.13)"><rect class="cls-1" width="259.95" height="457.21"/></clipPath></defs><title>illustration-girl-peaking</title><g class="cls-2"><g id="Layer_1" data-name="Layer 1"><g class="cls-3"><path class="cls-4" d="M-11.41,579.77c-5.55,11.27-93.11-39.19-160-77.85-37.25-21.52-162-102.07-72.07-74,24.68,7.69,142.13,74.8,171.4,92.66C-2,563.28-8.52,573.92-11.41,579.77Z" transform="translate(275.41 -8.13)"/><path class="cls-5" d="M-172.45,282.81c-11.53,3.71-44.79,13.76-38.12,28.65,4,8.84,26.78,7.41,38.78,2s15.67-6.48,15.67-6.48,0-1.85,5.78-5.27c1.29-.76-.71-6.55-2.09-10.16-3.11-8.09-6.43-9.34-10.47-10C-166.36,281-172.45,282.81-172.45,282.81Z" transform="translate(275.41 -8.13)"/><path class="cls-6" d="M-141.41,371.52c-5-2.48-8.92-8.07-11.56-13.39l-21.39-42.54c-3.41-6.89.94-12.58,7.83-16s13.69-3.25,17.1,3.64l20.8,41.34L-74,315.36c7-3.18,13.88,4.92,17,11.92a13.92,13.92,0,0,1-6.91,18.42l-54.54,24.76C-129.38,375.73-134.5,374.93-141.41,371.52Z" transform="translate(275.41 -8.13)"/><path class="cls-7" d="M-87.1,356.27l-23,10.42c-5.75-7.06-11.09-16-13.54-24.81l25.32-13.53a38.34,38.34,0,0,1,6.87,3.32l6.72,18.5Z" transform="translate(275.41 -8.13)"/><path class="cls-6" d="M-49.25,540.55a13.92,13.92,0,0,1-6.82-17.46l29-75.59a183.27,183.27,0,0,0,6.58-22.14l18.9-88.29a13.91,13.91,0,0,1,27.21,5.82L7.74,433.28c-1.61,7.54-6,20.05-8.72,27.24l-29.11,72.54a13.92,13.92,0,0,1-18,8C-48.47,540.91-48.86,540.74-49.25,540.55Z" transform="translate(275.41 -8.13)"/><path class="cls-7" d="M-10.65,389.65s23.17,22.44,22,25.47h0c-1.19,3-1.71,8.66-1.71,8.66h0a135,135,0,0,1-31.47,7.12c.53-2,1-3.92,1.35-5.54l7.83-36.58Z" transform="translate(275.41 -8.13)"/><path class="cls-8" d="M210.18,196c-7.61,12.2-34.53,53.71-71.8,60.79-16.95,3.21-32-6.77-55.45-19.16" transform="translate(275.41 -8.13)"/><path class="cls-9" d="M85,212.74c10,10.37,13.93,19.45,30.22,27.76a21.81,21.81,0,0,1,2.71,11.13c-.42,11.09-10,24.17-19.46,23.16,0,0-10.51.19-29.67-11.79-14.79-9.25-8.69-26.06-8.69-26.06Z" transform="translate(275.41 -8.13)"/><g class="cls-10"><path class="cls-11" d="M84.15,235.32a27.83,27.83,0,0,0,1.11-3S84.76,233.5,84.15,235.32Z" transform="translate(275.41 -8.13)"/><path class="cls-12" d="M98.47,274.79c4.37.46,8.76-2.07,12.26-6-3.79.44-12.51-3.09-23.59-9.36-13.61-7.69-5-18.21-3-24.09-2.75,6.35-9.29,17.94-15.37,27.67h0C88,275,98.47,274.79,98.47,274.79Z" transform="translate(275.41 -8.13)"/></g><path class="cls-13" d="M172.57,47.84C189.31,56.09,203,97,150,149.42l-6.54-6.16-8.67-56.7Z" transform="translate(275.41 -8.13)"/><path class="cls-13" d="M71.54,209.14c23.67,18.09,55.76-22.42,73.4-58.22,1.58-3.19,20.14-29.7,20.14-29.7l2-4.06c10.13-20.57,37.11-64.46-19.73-95.9C87.29-12,48.64,24.31,31.58,58.91l-2,4.06S18.9,84.81,17.32,88C5.86,111.26-9.89,131.2-34.08,131.57l13.4,18.49s17.51.93,22.41-2.31-16.46,10-16.46,10,23.4,27.47,50.42,41.8C74.11,219.94,71.54,209.14,71.54,209.14Z" transform="translate(275.41 -8.13)"/><path class="cls-9" d="M30.43,324.83s32-51.67,46.77-75.32c14.93-23.95,19.29-20.82,19.29-20.82S85,209,66.74,194.17c-15-12.11-16.3-13.8-35.4-25.31,0,0-13.57,3.42-29.54,29l-49,78.57" transform="translate(275.41 -8.13)"/><path class="cls-14" d="M55.74,245.47h0c9.42-12.83,22-29.79,20.14-40.06-.65-3.65-3.66-7-7.76-9.76l1.22-.39c6.46,4.28,13.14,11,14.31,17.42,2.42,13.35-7.19,23-16.74,39.39l-1.85-1.88Z" transform="translate(275.41 -8.13)"/><path class="cls-7" d="M49.29,184.26C54.51,193.88,53.17,199,62,204.42c3.48,2.14,9.32-2.8,12.47-7.9L90,171.28c6.88-11.14,6-24.28-2-29.2l-2.72-1.68c-8-4.92-20.12.17-27,11.31L43.2,176.21C45.25,177.91,47,180.13,49.29,184.26Z" transform="translate(275.41 -8.13)"/><path class="cls-6" d="M160.9,148.15a14.7,14.7,0,0,1-19.69,6.68c-7.29-3.59-2.62-8.63,1-15.91s4.75-14,12-10.46A14.71,14.71,0,0,1,160.9,148.15Z" transform="translate(275.41 -8.13)"/><path class="cls-6" d="M154.16,151.34c-14.53,29.48-46,45.65-74.5,31.61C48,167.34,27,125.31,41.56,95.82L56.29,64.19c14.54-29.48,46-32.53,75.51-18l6.08,3c29.49,14.53,46.24,41.37,31.71,70.85Z" transform="translate(275.41 -8.13)"/><path class="cls-7" d="M124,139.47c.54-1.11-.29-1.73-3.46-2.07a20.34,20.34,0,0,1-11.85-5.84c-2.19-2.3-3.19-2.58-3.74-1.48-.75,1.51,1.67,8.31,6.51,10.73h0l0,0h0C116.36,143.21,123.23,141,124,139.47Z" transform="translate(275.41 -8.13)"/><path class="cls-15" d="M147.19,108c6.25,1.61,9.94,4.56,11.74,10.3" transform="translate(275.41 -8.13)"/><path class="cls-15" d="M108.51,88.91c-5.08-4-9.68-5.1-15.32-3" transform="translate(275.41 -8.13)"/><path class="cls-12" d="M-5.84,221.09l-3.75-4.91L-32.7,253.25l2.21,1.85,9,6.22s11.51,5.3,13.33,6.56,22.62-47.62,25.74-55.64c2.87-7.38,3.08-11.08-1.71-7.09S-5.84,221.09-5.84,221.09Z" transform="translate(275.41 -8.13)"/><path class="cls-13" d="M161.52,49.41,118.3,32.88c-6.89-2.63-13-4.81-18.11-2.17-16.59,8.53-21.47,36-21.47,36S90.61,66,119.15,76.88c29.84,11.41,51,15.23,62-5.76C185,63.85,161.52,49.41,161.52,49.41Z" transform="translate(275.41 -8.13)"/><path class="cls-14" d="M16.51,332.77a8.63,8.63,0,0,1-11.76,2.78L-29,314.93a8.43,8.43,0,0,1-2.76-11.64l53.7-86.16a8.53,8.53,0,0,1,11.71-2.72l33.69,21A8.5,8.5,0,0,1,70,247.11Z" transform="translate(275.41 -8.13)"/><path class="cls-14" d="M22.58,235.17,11.84,257c-2.37,4.82-5.46,11.28-13,7.56S-29.24,247.7-29.24,247.7L-51.8,283.46l50.94,25.1Z" transform="translate(275.41 -8.13)"/><path class="cls-14" d="M38.31,312.13l9.57-15.43-6.15-4.21L-35.5,268.67-38,270.46l-3.81-3.53c-3.92,3.64-73.56,42.71-73.56,42.71s-12.54,44,61.3,89.76c40.55,25.11,64.09,27.11,66.49,22.25C12.54,420.08,38.31,312.13,38.31,312.13Z" transform="translate(275.41 -8.13)"/><path class="cls-7" d="M-33.82,279.32a4.18,4.18,0,0,1-2.8-3.56,4.54,4.54,0,0,1,3.62-5l9.38-1.52a3.86,3.86,0,0,1,2.71.56l7.74,4.93c1.94,1.23,3.7,2.21,2.48,4.31s-3.33,3.75-6.16,2.41l-7.23-3.23L-32,279.46A3.71,3.71,0,0,1-33.82,279.32Z" transform="translate(275.41 -8.13)"/><path class="cls-16" d="M81,135.91s-3.76,21.89,13.46,30.37c17.69,8.72,28.06-9.47,28.06-9.47L81,135.91" transform="translate(275.41 -8.13)"/><path class="cls-17" d="M105.22,168.45c-1.62-8.6-13.72-14.32-23.42-18.3,1.53,5.83,5,12.1,12.42,15.84a21.64,21.64,0,0,0,11,2.6S105.23,168.5,105.22,168.45Z" transform="translate(275.41 -8.13)"/><path class="cls-18" d="M80.93,136.2a31.3,31.3,0,0,0-.14,6.12s-.28-2.32.28-1.77c0,0,30.13,20.28,37.12,17.53l2.56-2.15L81,135.91" transform="translate(275.41 -8.13)"/><path class="cls-13" d="M108.71,57c-2,4-.12,16.23-12.89,11.85-28.45-9.74-42,24.76-40.67,21.4C58,83.32,46,78.86,42.27,77s13.24-29.9,16.37-31.42,17.46-8,21-8.43,27.36,2.93,27.36,2.93,8,1.21,8.7,5.89S108.71,57,108.71,57Z" transform="translate(275.41 -8.13)"/><path class="cls-8" d="M18.36,177.4c-20,4.38-64,43-68.78,52.76C-57.27,244.05-46.75,269-30.86,283" transform="translate(275.41 -8.13)"/><path class="cls-9" d="M39.42,177.39c9.82,9.37,7.39,17.2,7.39,17.2,2-4.17-10-19.17-11.32-20.8-1.59-2,.66-1.95-.29-2.59C15.79,158,.54,162.51-30.2,189.14l24.36,32,16.33-19" transform="translate(275.41 -8.13)"/><path class="cls-6" d="M35.26,85.93A14.7,14.7,0,0,1,55,79.25c7.28,3.59,2.62,8.63-1,15.91s-4.75,14-12,10.46A14.7,14.7,0,0,1,35.26,85.93Z" transform="translate(275.41 -8.13)"/><path class="cls-19" d="M148.12,120.55a10.11,10.11,0,1,0-8.94,18.13l14.55-8.35A10.12,10.12,0,0,0,148.12,120.55Z" transform="translate(275.41 -8.13)"/><path class="cls-20" d="M133.64,126.3a8.75,8.75,0,1,0,11.72-4A8.75,8.75,0,0,0,133.64,126.3Z" transform="translate(275.41 -8.13)"/><circle class="cls-21" cx="140.82" cy="127.17" r="4.17" transform="translate(239.89 189.12) rotate(-63.76)"/><path class="cls-21" d="M142.52,123.73a3.84,3.84,0,1,1-5.14,1.75,3.85,3.85,0,0,1,5.14-1.75m.29-.6a4.51,4.51,0,1,0,2.06,6,4.51,4.51,0,0,0-2.06-6Z" transform="translate(275.41 -8.13)"/><path class="cls-18" d="M146.9,127.36a1.69,1.69,0,1,1-.77-2.27A1.69,1.69,0,0,1,146.9,127.36Z" transform="translate(275.41 -8.13)"/><path class="cls-19" d="M98.66,96.17a10.11,10.11,0,1,1-8.94,18.13L87.49,97.67A10.11,10.11,0,0,1,98.66,96.17Z" transform="translate(275.41 -8.13)"/><path class="cls-20" d="M102.91,111.15a8.75,8.75,0,1,1-4-11.71A8.74,8.74,0,0,1,102.91,111.15Z" transform="translate(275.41 -8.13)"/><path class="cls-21" d="M92.53,108a4.17,4.17,0,1,1,5.59-1.9A4.18,4.18,0,0,1,92.53,108Z" transform="translate(275.41 -8.13)"/><path class="cls-21" d="M96.07,100.83a3.84,3.84,0,1,1-5.14,1.75,3.84,3.84,0,0,1,5.14-1.75m.3-.6a4.51,4.51,0,1,0,2,6,4.53,4.53,0,0,0-2-6Z" transform="translate(275.41 -8.13)"/><path class="cls-18" d="M100.46,104.47a1.7,1.7,0,1,0-2.28.77A1.7,1.7,0,0,0,100.46,104.47Z" transform="translate(275.41 -8.13)"/><path class="cls-6" d="M213.1,200.72a21.51,21.51,0,0,1-3-1.19,16.11,16.11,0,0,1-8.42-10.05.51.51,0,0,1,0-.14,16.81,16.81,0,0,1-.73-4.25,24,24,0,0,1,1.69-11.85c5.21-11.92,6.16-24.56,12-22.57s4.68,9,2.13,15l-3.11,7,.45,4.39-2.58,1.06c0,2.68.5,5.14.53,8.06C212.1,193.94,210.3,194.83,213.1,200.72Z" transform="translate(275.41 -8.13)"/><path class="cls-14" d="M20.46,219.43h0c9.39-16.12,15.72-36.2,11.37-46.43-1.55-3.64-4.68-6.3-9.58-8.14l.36-.85c7.73,2.9,15.16,7.62,17.9,14.06,6.18,14.52-.13,25.16-7.71,42.75l-1.53,1.28Z" transform="translate(275.41 -8.13)"/><path class="cls-22" d="M-68.66,546c.71.71,40.17,25.9,48.77,27.42,2.23.39,2.72-1.48,4.08-3.54,2-3.07,2.67-7.85-4.38-15.19-10.47-10.89-14-13.36-14-13.36S-55.7,525.51-60,531.19A101.53,101.53,0,0,0-68.66,546Z" transform="translate(275.41 -8.13)"/><path class="cls-5" d="M-66.66,541.9c.71.71,41.2,26.11,49.77,27.78,1.86.36,9-7-1.6-17-11-10.4-13.31-15.09-13.31-15.09s-21.47-15.78-25.73-10.1A141.64,141.64,0,0,0-66.66,541.9Z" transform="translate(275.41 -8.13)"/><path class="cls-18" d="M-58.13,529.12a11.09,11.09,0,0,0,6.54,8c5.9,2.72,9.83,0,12.78-.48,4.57-.69,7,.87,7,.87l6.15-16.12s-4.43,2.21-14.47-1.41-12-7.7-12-7.7Z" transform="translate(275.41 -8.13)"/><path class="cls-22" d="M-170.39,285.21s6-1.54,9.46-1,6.31,2.79,9,8.8c-.16-.49-.34-1-.54-1.51-3.1-8.09-6.15-10.91-10.19-11.54-3.46-.54-9.45,1-9.45,1-11.54,3.71-45.72,14.38-38.5,30.49a6.55,6.55,0,0,0,.81,1.34C-215.46,301.37-181.21,288.7-170.39,285.21Z" transform="translate(275.41 -8.13)"/><path class="cls-18" d="M-169,326.24c-3.41-6.89,1-12.58,7.83-16s13.69-3.25,17.11,3.63l-5.41-10.65c-3.41-6.89-10.21-7.05-17.1-3.64s-11.24,9.11-7.83,16" transform="translate(275.41 -8.13)"/><path class="cls-6" d="M-12.88,288.32a5.93,5.93,0,0,0-.27-6.64v0c-.71-1.31-4.91-5.7-6.23-6.9-6.42-5.81-18.34-8.39-24.61-2.41-8.3,7.91-1.43,20,5,25.8.72.65,3.78,3.81,4.51,4.25a8.31,8.31,0,0,0,1.43.67A5.72,5.72,0,0,0-25.7,301c.07-.11.11-.23.17-.34.7-.67,1.41-1.42,2.14-2.23a5.71,5.71,0,0,0,4.94-2.69,5.6,5.6,0,0,0,.81-3.59l1.21-1.19A5.91,5.91,0,0,0-12.88,288.32Z" transform="translate(275.41 -8.13)"/><line class="cls-23" x1="489.24" y1="174.3" x2="507.16" y2="145.31"/><line class="cls-23" x1="496.65" y1="179.1" x2="518.1" y2="153.09"/><line class="cls-23" x1="495.61" y1="184.6" x2="523.84" y2="166.78"/><line class="cls-23" x1="497.28" y1="188.74" x2="523.71" y2="181.16"/><polygon class="cls-6" points="491.31 173.78 485.66 179.69 494.85 188.56 507.41 183.88 491.31 173.78"/></g></g></g></svg>