<svg xmlns="http://www.w3.org/2000/svg" viewBox="0 0 464.72 522.73"><defs><style>.cls-1{isolation:isolate;}.cls-10,.cls-19,.cls-2,.cls-22,.cls-3{fill:none;}.cls-10,.cls-2,.cls-22,.cls-3{stroke:#fab188;}.cls-10,.cls-19,.cls-2,.cls-3{stroke-linecap:round;}.cls-10,.cls-17,.cls-19,.cls-2,.cls-22,.cls-3{stroke-miterlimit:10;}.cls-2{stroke-width:10.55px;}.cls-3{stroke-width:9.74px;}.cls-26,.cls-4{fill:#0d65a6;}.cls-5{fill:#a0b1b8;mix-blend-mode:multiply;}.cls-6{fill:#fab188;}.cls-7{fill:#038dc4;}.cls-8{fill:#604035;}.cls-9{fill:#603c31;}.cls-10{stroke-width:29.25px;}.cls-11{fill:#8f5845;}.cls-12,.cls-13{fill:#6e483a;}.cls-12{opacity:0.5;}.cls-14{fill:#a4422e;}.cls-15,.cls-17{fill:#fff;}.cls-16{fill:#f68e6e;}.cls-17{stroke:#fff;stroke-width:1px;}.cls-18{fill:#432c28;}.cls-19{stroke:#8f3b26;stroke-width:3.18px;}.cls-20{fill:#8f2b31;}.cls-21{fill:#d85566;}.cls-22{stroke-width:0.86px;}.cls-23{fill:#4087b0;}.cls-24{fill:#d0eaf6;}.cls-25{fill:#b8bec4;}.cls-26{opacity:0.9;}</style></defs><title>illustration-boy-blueshirt</title><g class="cls-1"><g id="Layer_1" data-name="Layer 1"><path class="cls-2" d="M379.6,141.46c-1.23,3.55-8.28,17-18.65,25"/><path class="cls-2" d="M387.37,153.52a145.4,145.4,0,0,1-21.86,20.77"/><path class="cls-3" d="M390.69,166.27c-2.27,3-11.93,12.43-23.27,19"/><path class="cls-4" d="M268.5,203.67c-3.94-1.91-19.77,10.42-19.77,10.42l9.65-3c-1.29,8.38-2,39.37,8.61,43.36s12.78-34.43,11.75-40.34S272.44,205.58,268.5,203.67Z"/><path class="cls-5" d="M428.25,520.32c1.13.81,2.28,1.61,3.42,2.41,14.51-10.62,22.27-18.36,20.41-21.23-2.05-3.18-15.56.18-36.05,8.26A103.19,103.19,0,0,0,428.25,520.32Z"/><path class="cls-6" d="M305.24,246.15c-8.15,4.29-18.55,4.8-26.8.89l-71.06-33.73a17.38,17.38,0,0,1,14.91-31.41l67.85,32.21,48.53-43.52a17.39,17.39,0,1,1,23.21,25.89l-51.16,45.88A27,27,0,0,1,305.24,246.15Z"/><path class="cls-7" d="M234.4,186.93c-23.13-11.47-30.68-10.31-30.68-10.31,8.49.48,35,58,35,58L267,254.45c-12.82-5.53,6.61-48.46,11.56-45.85C278.55,208.6,257.53,198.4,234.4,186.93Z"/><path class="cls-4" d="M206.8,180.92c-13.39-5.35-3.08-4.3-3.08-4.3,8.49.48,35,58,35,58L267,254.45c-4.46-1.93-2-14.77-1.52-24.29C265.47,230.16,238.41,194.51,206.8,180.92Z"/><path class="cls-8" d="M334.56,446.94l.46-.43c16.4-16,25.42-34.59,24.35-35.69h0l-21.3-13.66L328.58,445C330.59,445.6,332.58,446.25,334.56,446.94Z"/><path class="cls-6" d="M257.67,432.41c8.68-2.54,18.95-.57,28.18,1.64l3.14.74c-.33-2.59-.67-5.22-1-7.94a15.35,15.35,0,0,0-30.47,3.78A17.68,17.68,0,0,1,257.67,432.41Z"/><path class="cls-9" d="M254,433.82c9.35-4.51,21.27-2.3,31.84.23s21.27,4.9,31.9,7.77c12.11-17,8.14-72.63-11.52-108.85,0,0-69.17,13-65,41.76C244.13,394.27,249.79,417.7,254,433.82Z"/><path class="cls-10" d="M213.83,377.81c10.86,17.44,68.83,11,104,30.92s67.3,50.71,88.6,83.4"/><path class="cls-11" d="M263,426.28c19,3.2,39.79,6.71,53.11,15.1,4.52,1.2,9,2.49,13.47,3.9,2-4.5,6.5-12.35,16.68-24.76s13.13-9.7,13.13-9.7c-23.56-24.15-61.65-39.84-89.58-44.55-10.67-1.8-25.11,5-29.17,2.31a8.79,8.79,0,0,1,2.39,2.94l-45,24.41C209.64,417.29,235.55,421.65,263,426.28Z"/><path class="cls-12" d="M270.06,366.65l-.35-.39c-10.67-1.75-25,5-29.09,2.32a8.79,8.79,0,0,1,2.39,2.94l-45,24.41c9.08,16.73,26.95,23,47.45,27.2-14.85-3.25-21.65-9.84-17.85-22.59C231.71,386.9,257.75,373.67,270.06,366.65Z"/><polygon class="cls-13" points="248.76 423.77 248.76 423.77 248.77 423.77 248.76 423.77"/><path class="cls-14" d="M164.61,79c22.81,31,12.11,78.35-18.63,101.37s-67.78,28.35-92.2-1.41L30.3,149.3A66.33,66.33,0,0,1,42,53.38l10.78-8A69.68,69.68,0,0,1,150.4,59.89Z"/><path class="cls-7" d="M185.53,181.81l-52.91,28.71c-50.83,27.6,7.68,90.81,38.32,147.27,17.79,32.78,24.93,41.34,24.93,41.34s4.55,5.69,56.36-22.43,58.86-40.1,58.86-40.1l-69-127.67C237.39,200.27,220,163.08,185.53,181.81Z"/><path class="cls-15" d="M173.64,213.29l3.31-1.8c15-8.16,9.38-21.62,5.92-28.24L177.73,186c4.32,8.46,5.52,15.38-3.57,20.32l-3.31,1.79-.27.15c-9.13,4.81-25.15,6-31.16-1.46l-5.18,2.81c3.54,5,9.92,8,18.21,8.32a42.89,42.89,0,0,0,20.86-4.51Z"/><path class="cls-6" d="M74.73,172.91a13,13,0,0,1-1.94,18.21h0a13,13,0,0,1-18.21-1.94l-6.91-8.54a13,13,0,0,1,1.94-18.21h0a13,13,0,0,1,18.21,1.93Z"/><path class="cls-6" d="M176.86,184.39c5,9.21,7,16.72-2.7,22l-3.31,1.79c-9.67,5.25-27.48,6.33-32.48-2.87l-7-12.85c-5-9.21-1.17-21,8.5-26.28l3.32-1.8c9.67-5.25,21.67-2,26.67,7.19Z"/><path class="cls-16" d="M133.59,196.47c3,5.53,20.6,4.66,27.95,1.31s17.88-8.67,14.46-15l-17.31-31.89-40,18.16Z"/><path class="cls-6" d="M172.61,104.61c19.7,28.79,15.5,57.29-12.37,78.07S83,202.14,61,175L47.48,159c-22-27.1-13.6-60,14.37-80.84l25.22-18.8c28-20.85,48.22-9.3,67.92,19.5Z"/><path class="cls-17" d="M89.67,135.55a9.28,9.28,0,1,0,1.89-13A9.28,9.28,0,0,0,89.67,135.55Z"/><path class="cls-18" d="M100.51,131.29a4.46,4.46,0,0,1-4.77-7.51,4.57,4.57,0,0,1,.62-.39,4.46,4.46,0,0,1,4.78,7.5A5.16,5.16,0,0,1,100.51,131.29Z"/><path class="cls-18" d="M96.54,123.73a4.07,4.07,0,0,1,4.36,6.85,3.41,3.41,0,0,1-.57.36A4.07,4.07,0,0,1,96,124.09a3.79,3.79,0,0,1,.56-.36m-.36-.69a5.87,5.87,0,0,0-.67.43,4.85,4.85,0,0,0,5.18,8.16,5.22,5.22,0,0,0,.68-.43,4.85,4.85,0,0,0,1.87-3.21,4.79,4.79,0,0,0-.94-3.58A4.84,4.84,0,0,0,96.18,123Z"/><path class="cls-14" d="M46.46,102.18l60.37-45c6.61-4.93,12.32-9.36,13.51-15.75C124.21,20.81,105.1,0,105.1,0s-2.16,8-29.51,28.36C47,49.67,21.48,62.34,17,98.74,15.87,107.83,46.46,102.18,46.46,102.18Z"/><path class="cls-14" d="M64.53,80.24c3.2,4.29,8.76,1.72-.52,8.64-9.53,7.1-21.12,22.85-5.66,43.57l15.62,21c2.82,3.78-3.44,11.3-9.52,7.23-8.08-5.41-14.31,1.37-14.84,1.78-3.93,3-24.81-30.57-24.72-34.77s.94-23.12,2.48-27.18S45.5,72.75,45.5,72.75s5.67-7.88,11.07-6.09S64.53,80.24,64.53,80.24Z"/><path class="cls-19" d="M88.9,112.45c-5.87,2.73-9,6.32-9.71,12.3"/><path class="cls-19" d="M142.8,79c-4.85-2.3-11,.72-14.68,5.46"/><path class="cls-6" d="M156.18,111.1A12.94,12.94,0,0,0,174,115.18h0a12.94,12.94,0,0,0,4.08-17.85L172.27,88a13,13,0,0,0-17.85-4.08h0a13,13,0,0,0-4.09,17.86Z"/><path class="cls-14" d="M14.6,93.6C8.76,88.69,10,68.54,10,68.54s12.46,4.9,13.47,11.75S20.45,98.5,14.6,93.6Z"/><path class="cls-14" d="M15,91C5.74,92.69,0,114.91,0,114.91s13.64-1.85,18.71-10.37C22.45,98.25,23,89.6,15,91Z"/><path class="cls-17" d="M135,101.76a9.28,9.28,0,1,0,1.89-13A9.27,9.27,0,0,0,135,101.76Z"/><path class="cls-18" d="M145.65,96.65a4.44,4.44,0,0,1-5.11-.61,4,4,0,0,1-1.3-2.92,4.43,4.43,0,0,1,1.31-3.21,4.55,4.55,0,0,1,1.15-.86,4.44,4.44,0,0,1,5.11.6,4,4,0,0,1,1.3,2.92,4.44,4.44,0,0,1-1.31,3.22A5.08,5.08,0,0,1,145.65,96.65Z"/><path class="cls-18" d="M141.88,89.39a4.08,4.08,0,0,1,4.67.54,3.88,3.88,0,0,1,0,5.59,4.39,4.39,0,0,1-1.06.78,4,4,0,0,1-4.67-.54,3.87,3.87,0,0,1,0-5.58,4.18,4.18,0,0,1,1.06-.79m-.36-.68h0a4.9,4.9,0,0,0-1.25.93,4.83,4.83,0,0,0-1.42,3.49,4.5,4.5,0,0,0,1.42,3.2,4.85,4.85,0,0,0,5.56.66,5.42,5.42,0,0,0,1.25-.93,4.86,4.86,0,0,0,1.42-3.49,4.49,4.49,0,0,0-1.42-3.2,4.84,4.84,0,0,0-5.56-.66Z"/><path class="cls-20" d="M116.2,158.53s20.31,14.43,39.09.65c20.78-15.24,6.42-34,6.42-34L116.2,158.53"/><path class="cls-16" d="M138.78,128.8c5.07-3.77,7.24-9.83,4.84-12.58-.87-1-2.88-1.49-4.17.92a21,21,0,0,1-5.3,5.37,20.72,20.72,0,0,1-6.24,3.12c-3.94,1.43-4,3.46-3.3,4.58C126.56,133.28,133.68,132.51,138.78,128.8Z"/><path class="cls-21" d="M164.33,148.65c-10-2.52-23.09,7.56-33,15.94a30.2,30.2,0,0,0,23.92-5.41,28.62,28.62,0,0,0,9.2-10.47Z"/><path class="cls-15" d="M116.47,158.72a34.49,34.49,0,0,0,6.24,3.13s-2.56-.84-1.66-1.16c0,0,38.29-21.73,39.48-30.4l-.75-3.73-43.58,32"/><path class="cls-22" d="M116.2,158.53s20.31,14.43,39.09.65c20.78-15.24,6.42-34,6.42-34L116.2,158.53"/><path class="cls-16" d="M63.47,171.43a5.1,5.1,0,0,0-7.17-.8,4.21,4.21,0,0,0-.37.36,5.45,5.45,0,0,0-1.35.75,5.11,5.11,0,0,0-.8,7.18L58,184.1a5.1,5.1,0,0,0,7.17.79,3.06,3.06,0,0,0,.37-.35,5,5,0,0,0,1.35-.76,5.1,5.1,0,0,0,.8-7.17Z"/><path class="cls-15" d="M411,504.63c.73.77,1.46,1.53,2.2,2.28,7.27-5.17,14.38-13.61,15.11-15.17,1.28-2.73,6.18-15.43,4.71-14.92s-12.81,5.64-13.91,5.22-6.44-7.86-7-8.58-6.56,1.2-15.66,8.42c-1.54,1.23-2.87,2.35-4,3.38C398.73,491.65,404.85,498.18,411,504.63Z"/><path class="cls-23" d="M411,504.63a146.58,146.58,0,0,0,13.67,12.94c17.31-12.91,42.42-35.83,38.52-43.24-8-15.09-19.89-7.57-28.41-.22a42.93,42.93,0,0,1-7.36,3.41c-3.07,1.07-4.85,1.24-5.63,10.19-.44,5.05-1.32,8.49-8.51,15a27.19,27.19,0,0,1-2.32,1.87Z"/><path class="cls-24" d="M425,517.83c15.95-14.43,36.37-38.76,39.7-42a13.17,13.17,0,0,0-2.6-3.43c-1.14-.45-5.52,3.32-10.8,10.13a162.87,162.87,0,0,1-24.05,25c-2.32,2-4.91,4-7.4,5.83C421.51,514.94,423.23,516.41,425,517.83Z"/><path class="cls-25" d="M464.69,475.88c-1-.71-5.19,2.41-10.62,9.41a163.25,163.25,0,0,1-24,25c-2.31,2-4.81,3.94-7.2,5.77,1,.83,2,1.64,3,2.43,15.4-11.64,35-29.51,38.44-39.53a6.11,6.11,0,0,1,.32-1.16A5.79,5.79,0,0,0,464.69,475.88Z"/><path class="cls-6" d="M121.63,402.27a17.38,17.38,0,0,1-22.57-9.62l-25.5-64.57A32.23,32.23,0,0,1,75,296.6L107.3,240c5.25-8,19.38-8.24,27.42-3a17.39,17.39,0,0,1,5,24.06s-28.16,42.88-31.48,48.14-.54,7.92,0,10.22,19.08,62.22,19.08,62.22c3.6,8.9,3.18,17-5.72,20.6Z"/><path class="cls-6" d="M98.13,390.38c7.75,20.1,4.3,33.4,30.36,37.26,26.85,4,3.22-20.4.66-32.72s-5.42-19-5.42-19Z"/><path class="cls-6" d="M127.51,383.1l-6.6-2.12s5.41,15.75,8.13,20.48,17.27,19.65,24.58,10.11C158,405.9,133.37,396.19,127.51,383.1Z"/><path class="cls-6" d="M332.25,178.42l-2.19,6.94s10.27-9.66,13.4-14.17,12.14-26.22.42-28.62C336.91,141.14,337.34,167,332.25,178.42Z"/><path class="cls-3" d="M124.94,398.42c3.35,6.35,17.05,29.68,20.29,33.77"/><path class="cls-3" d="M115.35,397.27c2.25,6.82,15.12,33.31,20.42,39.9"/><path class="cls-3" d="M107.23,393.55c2.25,6.81,13.07,34.6,18.13,41.84"/><path class="cls-3" d="M105.8,398.25c1.87,6.93,6.48,23.44,11.11,30.95"/><path class="cls-7" d="M124.85,215.68c-14.2,12.45-37,58.4-37,58.4s1.61,6.28,13,17.23c13.34,12.78,17.4,11.6,18.52,10.33l23.64-35s20.19-12.86,11.71-27.91S124.85,215.68,124.85,215.68Z"/><path class="cls-6" d="M332.9,175.77c7.9-6.81,18.88-23.36,29.81-24,6.42-.4,24.81,16,16.38,28.35-7.07,10.34-14.08,13.6-20.64,19.48S332.9,175.77,332.9,175.77Z"/><path class="cls-2" d="M368.23,138.2c-1.47,4.75-7.6,18.28-18,26.32"/><path class="cls-26" d="M158,335.77l-15.55-68.32-13.81,20.44C137.23,303.32,148,319.6,158,335.77Z"/></g></g></svg>