<svg xmlns="http://www.w3.org/2000/svg" xmlns:xlink="http://www.w3.org/1999/xlink" viewBox="0 0 464.72 522.73"><defs><style>.cls-1,.cls-12,.cls-21,.cls-24,.cls-4,.cls-5{fill:none;}.cls-2{isolation:isolate;}.cls-3{clip-path:url(#clip-path);}.cls-12,.cls-24,.cls-4,.cls-5{stroke:#fab188;}.cls-12,.cls-21,.cls-4,.cls-5{stroke-linecap:round;}.cls-12,.cls-19,.cls-21,.cls-24,.cls-4,.cls-5{stroke-miterlimit:10;}.cls-4{stroke-width:10.55px;}.cls-5{stroke-width:9.74px;}.cls-28,.cls-6{fill:#0d65a6;}.cls-7{fill:#a0b1b8;mix-blend-mode:multiply;}.cls-8{fill:#fab188;}.cls-9{fill:#038dc4;}.cls-10{fill:#604035;}.cls-11{fill:#603c31;}.cls-12{stroke-width:29.25px;}.cls-13{fill:#8f5845;}.cls-14,.cls-15{fill:#6e483a;}.cls-14{opacity:0.5;}.cls-16{fill:#a4422e;}.cls-17,.cls-19{fill:#fff;}.cls-18{fill:#f68e6e;}.cls-19{stroke:#fff;stroke-width:1px;}.cls-20{fill:#432c28;}.cls-21{stroke:#8f3b26;stroke-width:3.18px;}.cls-22{fill:#8f2b31;}.cls-23{fill:#d85566;}.cls-24{stroke-width:0.86px;}.cls-25{fill:#4087b0;}.cls-26{fill:#d0eaf6;}.cls-27{fill:#b8bec4;}.cls-28{opacity:0.9;}</style><clipPath id="clip-path" transform="translate(-11.22 -14.08)"><rect class="cls-1" width="243.46" height="467.26"/></clipPath></defs><title>illustration-boy-peaking</title><g class="cls-2"><g id="Layer_1" data-name="Layer 1"><g class="cls-3"><path class="cls-4" d="M390.82,155.54c-1.23,3.55-8.28,17-18.65,25" transform="translate(-11.22 -14.08)"/><path class="cls-4" d="M398.59,167.6a145.35,145.35,0,0,1-21.86,20.78" transform="translate(-11.22 -14.08)"/><path class="cls-5" d="M401.91,180.35c-2.27,3-11.93,12.44-23.27,19.05" transform="translate(-11.22 -14.08)"/><path class="cls-6" d="M279.72,217.75c-3.94-1.9-19.77,10.42-19.77,10.42l9.65-3c-1.29,8.38-2,39.37,8.61,43.36S291,234.1,290,228.2,283.67,219.66,279.72,217.75Z" transform="translate(-11.22 -14.08)"/><path class="cls-7" d="M439.47,534.4c1.13.82,2.28,1.62,3.43,2.41,14.5-10.62,22.26-18.35,20.4-21.22-2.05-3.19-15.56.17-36.05,8.25A102.28,102.28,0,0,0,439.47,534.4Z" transform="translate(-11.22 -14.08)"/><path class="cls-8" d="M316.46,260.23c-8.15,4.3-18.55,4.8-26.8.89L218.6,227.39A17.38,17.38,0,0,1,233.51,196l67.85,32.21,48.54-43.51a17.38,17.38,0,0,1,23.21,25.88l-51.17,45.88A27,27,0,0,1,316.46,260.23Z" transform="translate(-11.22 -14.08)"/><path class="cls-9" d="M245.62,201c-23.13-11.47-30.68-10.32-30.68-10.32,8.49.48,35,58,35,58l28.26,19.8c-12.82-5.53,6.61-48.46,11.56-45.84C289.77,222.69,268.75,212.48,245.62,201Z" transform="translate(-11.22 -14.08)"/><path class="cls-6" d="M218,195c-13.39-5.36-3.08-4.31-3.08-4.31,8.49.48,35,58,35,58l28.26,19.8c-4.46-1.92-2-14.77-1.52-24.29C276.69,244.24,249.64,208.6,218,195Z" transform="translate(-11.22 -14.08)"/><path class="cls-10" d="M345.78,461c.15-.15.3-.27.46-.43,16.4-16,25.42-34.59,24.35-35.69h0l-21.3-13.65-9.49,47.8Q342.82,460,345.78,461Z" transform="translate(-11.22 -14.08)"/><path class="cls-8" d="M268.89,446.5c8.68-2.55,18.95-.58,28.18,1.63l3.14.75c-.33-2.6-.67-5.23-1-7.95a15.35,15.35,0,0,0-30.47,3.78A17.84,17.84,0,0,1,268.89,446.5Z" transform="translate(-11.22 -14.08)"/><path class="cls-11" d="M265.23,447.9c9.35-4.51,21.27-2.3,31.84.23s21.27,4.9,31.9,7.77c12.11-17,8.14-72.63-11.52-108.85,0,0-69.17,13.05-65,41.76C255.35,408.35,261,431.78,265.23,447.9Z" transform="translate(-11.22 -14.08)"/><path class="cls-12" d="M225.05,391.9c10.86,17.43,68.83,11,104,30.92s67.3,50.71,88.6,83.39" transform="translate(-11.22 -14.08)"/><path class="cls-13" d="M274.2,440.36c19,3.2,39.79,6.71,53.11,15.1,4.52,1.2,9,2.49,13.47,3.91,2-4.5,6.5-12.36,16.68-24.76s13.13-9.71,13.13-9.71C347,400.76,308.94,385.06,281,380.35c-10.67-1.8-25.11,5-29.17,2.31a8.77,8.77,0,0,1,2.39,2.95l-45,24.4C220.86,431.37,246.77,435.74,274.2,440.36Z" transform="translate(-11.22 -14.08)"/><path class="cls-14" d="M281.28,380.73l-.35-.39c-10.67-1.75-25,5.05-29.09,2.32a8.77,8.77,0,0,1,2.39,2.95l-45,24.4c9.08,16.73,26.95,23,47.45,27.21-14.85-3.26-21.65-9.85-17.85-22.59C242.93,401,269,387.75,281.28,380.73Z" transform="translate(-11.22 -14.08)"/><polygon class="cls-15" points="248.76 423.77 248.76 423.77 248.77 423.77 248.76 423.77"/><path class="cls-16" d="M175.83,93c22.81,31,12.11,78.34-18.63,101.36S89.42,222.75,65,193L41.52,163.38A66.33,66.33,0,0,1,53.25,67.46l10.78-8A69.68,69.68,0,0,1,161.62,74Z" transform="translate(-11.22 -14.08)"/><path class="cls-9" d="M196.75,195.9l-52.91,28.71c-50.83,27.59,7.68,90.8,38.32,147.27,17.79,32.77,24.93,41.33,24.93,41.33s4.55,5.69,56.36-22.43,58.86-40.1,58.86-40.1L253.32,223C248.62,214.35,231.26,177.17,196.75,195.9Z" transform="translate(-11.22 -14.08)"/><path class="cls-17" d="M184.86,227.37l3.31-1.8c15-8.16,9.38-21.62,5.92-28.23L189,200.13c4.32,8.45,5.52,15.38-3.57,20.31l-3.31,1.8-.27.14c-9.13,4.81-25.15,6-31.16-1.46l-5.18,2.81c3.54,5,9.92,8,18.21,8.32a43,43,0,0,0,20.86-4.5Z" transform="translate(-11.22 -14.08)"/><path class="cls-8" d="M86,187A13,13,0,0,1,84,205.2h0a13,13,0,0,1-18.21-1.93l-6.9-8.55a13,13,0,0,1,1.93-18.21h0A13,13,0,0,1,79,178.44Z" transform="translate(-11.22 -14.08)"/><path class="cls-8" d="M188.08,198.48c5,9.2,7,16.71-2.7,22l-3.31,1.8c-9.67,5.25-27.48,6.33-32.48-2.87l-7-12.86c-5-9.2-1.17-21,8.5-26.28l3.32-1.79c9.67-5.25,21.67-2,26.67,7.18Z" transform="translate(-11.22 -14.08)"/><path class="cls-18" d="M144.81,210.56c3,5.52,20.6,4.65,27.95,1.31s17.88-8.67,14.46-15L169.91,165l-40,18.16Z" transform="translate(-11.22 -14.08)"/><path class="cls-8" d="M183.83,118.69c19.7,28.8,15.51,57.29-12.37,78.07s-77.26,19.46-99.23-7.64l-13.53-16c-22-27.11-13.6-60,14.37-80.84L98.29,73.44c28-20.85,48.22-9.3,67.92,19.5Z" transform="translate(-11.22 -14.08)"/><path class="cls-19" d="M100.89,149.63a9.28,9.28,0,1,0,1.89-13A9.29,9.29,0,0,0,100.89,149.63Z" transform="translate(-11.22 -14.08)"/><path class="cls-20" d="M111.73,145.37a4.46,4.46,0,0,1-4.77-7.5,3.52,3.52,0,0,1,.63-.4,4.46,4.46,0,0,1,4.77,7.5A4.18,4.18,0,0,1,111.73,145.37Z" transform="translate(-11.22 -14.08)"/><path class="cls-20" d="M107.76,137.81a4.08,4.08,0,0,1,4.36,6.86,5.5,5.5,0,0,1-.57.36,4.08,4.08,0,0,1-4.35-6.86,3.79,3.79,0,0,1,.56-.36m-.36-.68a4.76,4.76,0,0,0-.67.43,4.85,4.85,0,0,0,5.18,8.15,4.34,4.34,0,0,0,.68-.43,4.85,4.85,0,0,0-5.19-8.15Z" transform="translate(-11.22 -14.08)"/><path class="cls-16" d="M57.68,116.27l60.37-45c6.61-4.92,12.32-9.35,13.51-15.75,3.87-20.62-15.24-41.43-15.24-41.43s-2.16,8-29.51,28.36c-28.59,21.32-54.11,34-58.6,70.39C27.09,121.91,57.68,116.27,57.68,116.27Z" transform="translate(-11.22 -14.08)"/><path class="cls-16" d="M75.75,94.32c3.2,4.29,8.76,1.73-.52,8.64-9.53,7.1-21.12,22.85-5.66,43.58l15.62,21c2.82,3.78-3.44,11.3-9.52,7.23-8.08-5.41-14.31,1.37-14.84,1.78-3.93,3-24.8-30.57-24.72-34.76s.94-23.13,2.48-27.19S56.72,86.83,56.72,86.83,62.39,79,67.79,80.74,75.75,94.32,75.75,94.32Z" transform="translate(-11.22 -14.08)"/><path class="cls-21" d="M100.12,126.54c-5.87,2.72-9,6.31-9.71,12.3" transform="translate(-11.22 -14.08)"/><path class="cls-21" d="M154,93c-4.85-2.3-11,.73-14.68,5.46" transform="translate(-11.22 -14.08)"/><path class="cls-8" d="M167.4,125.19a12.94,12.94,0,0,0,17.85,4.08h0a13,13,0,0,0,4.08-17.86l-5.84-9.3A12.94,12.94,0,0,0,165.64,98h0a13,13,0,0,0-4.09,17.85Z" transform="translate(-11.22 -14.08)"/><path class="cls-16" d="M25.82,107.68c-5.84-4.9-4.61-25.06-4.61-25.06s12.46,4.91,13.47,11.75S31.67,112.59,25.82,107.68Z" transform="translate(-11.22 -14.08)"/><path class="cls-16" d="M26.22,105.11c-9.26,1.66-15,23.88-15,23.88s13.65-1.84,18.71-10.36C33.67,112.34,34.17,103.69,26.22,105.11Z" transform="translate(-11.22 -14.08)"/><path class="cls-19" d="M146.22,115.84a9.28,9.28,0,1,0,1.89-13A9.29,9.29,0,0,0,146.22,115.84Z" transform="translate(-11.22 -14.08)"/><path class="cls-20" d="M156.87,110.73a4.44,4.44,0,0,1-5.11-.6,4.05,4.05,0,0,1-1.3-2.93,4.43,4.43,0,0,1,1.31-3.21,5.08,5.08,0,0,1,1.15-.86,4.43,4.43,0,0,1,5.11.61,4,4,0,0,1,1.3,2.92,4.43,4.43,0,0,1-1.31,3.21A4.55,4.55,0,0,1,156.87,110.73Z" transform="translate(-11.22 -14.08)"/><path class="cls-20" d="M153.1,103.47a4.07,4.07,0,0,1,4.67.55,3.87,3.87,0,0,1,0,5.58,4.43,4.43,0,0,1-1.06.79,4.07,4.07,0,0,1-4.67-.55,3.87,3.87,0,0,1,0-5.58,4.43,4.43,0,0,1,1.06-.79m-.35-.68h0a5.15,5.15,0,0,0-1.25.93,4.84,4.84,0,0,0-1.42,3.49,4.49,4.49,0,0,0,1.42,3.2,4.84,4.84,0,0,0,5.56.66,4.9,4.9,0,0,0,1.25-.93,4.83,4.83,0,0,0,1.42-3.49,4.5,4.5,0,0,0-1.42-3.2,4.82,4.82,0,0,0-5.55-.66Z" transform="translate(-11.22 -14.08)"/><path class="cls-22" d="M127.42,172.62s20.31,14.42,39.09.64c20.78-15.24,6.42-34,6.42-34l-45.51,33.39" transform="translate(-11.22 -14.08)"/><path class="cls-18" d="M150,142.88c5.06-3.77,7.23-9.83,4.84-12.58-.88-1-2.89-1.49-4.18.92a21.13,21.13,0,0,1-5.3,5.38,20.41,20.41,0,0,1-6.24,3.11c-3.94,1.44-4,3.46-3.3,4.58C137.78,147.37,144.9,146.59,150,142.88Z" transform="translate(-11.22 -14.08)"/><path class="cls-23" d="M175.55,162.74c-10-2.52-23.09,7.56-33,15.94a30.25,30.25,0,0,0,23.92-5.42,28.62,28.62,0,0,0,9.2-10.47Z" transform="translate(-11.22 -14.08)"/><path class="cls-17" d="M127.69,172.8a33.81,33.81,0,0,0,6.24,3.13s-2.56-.84-1.66-1.16c0,0,38.29-21.73,39.48-30.4l-.75-3.73-43.58,32" transform="translate(-11.22 -14.08)"/><path class="cls-24" d="M127.42,172.62s20.31,14.42,39.09.64c20.78-15.24,6.42-34,6.42-34l-45.51,33.39" transform="translate(-11.22 -14.08)"/><path class="cls-18" d="M74.69,185.51a5.1,5.1,0,0,0-7.17-.79,3.15,3.15,0,0,0-.37.36,4.87,4.87,0,0,0-1.35.75A5.1,5.1,0,0,0,65,193l4.17,5.18a5.1,5.1,0,0,0,7.17.8,4.21,4.21,0,0,0,.37-.36,4.85,4.85,0,0,0,1.35-.75,5.1,5.1,0,0,0,.8-7.17Z" transform="translate(-11.22 -14.08)"/><path class="cls-17" d="M422.22,518.72l2.2,2.28c7.27-5.18,14.38-13.61,15.11-15.17,1.28-2.73,6.18-15.43,4.71-14.93s-12.81,5.64-13.91,5.22-6.44-7.85-7-8.58-6.56,1.2-15.66,8.42c-1.54,1.23-2.87,2.36-4,3.39C410,505.73,416.07,512.27,422.22,518.72Z" transform="translate(-11.22 -14.08)"/><path class="cls-25" d="M422.22,518.72a146.47,146.47,0,0,0,13.67,12.93c17.31-12.9,42.42-35.82,38.52-43.23-8-15.1-19.89-7.58-28.41-.23a42.06,42.06,0,0,1-7.36,3.41c-3.07,1.07-4.85,1.24-5.63,10.19-.44,5-1.31,8.49-8.51,15a29.52,29.52,0,0,1-2.32,1.88Z" transform="translate(-11.22 -14.08)"/><path class="cls-26" d="M436.21,531.91c16-14.43,36.37-38.75,39.7-41.95a13,13,0,0,0-2.6-3.42c-1.14-.46-5.52,3.31-10.8,10.12a162.8,162.8,0,0,1-24,25c-2.33,2-4.92,4-7.41,5.84C432.73,529,434.45,530.5,436.21,531.91Z" transform="translate(-11.22 -14.08)"/><path class="cls-27" d="M475.91,490c-1-.7-5.19,2.42-10.62,9.41a162.8,162.8,0,0,1-24,25c-2.3,2-4.81,3.95-7.2,5.77,1,.83,2,1.64,3,2.43,15.4-11.64,35-29.5,38.44-39.52a5.91,5.91,0,0,1,.32-1.16A5.86,5.86,0,0,0,475.91,490Z" transform="translate(-11.22 -14.08)"/><path class="cls-8" d="M132.85,416.35a17.37,17.37,0,0,1-22.57-9.62l-25.5-64.57a32.21,32.21,0,0,1,1.42-31.47l32.32-56.62c5.25-8,19.38-8.24,27.42-3a17.39,17.39,0,0,1,5,24.07S122.82,318,119.5,323.28s-.54,7.93,0,10.23,19.08,62.22,19.08,62.22c3.6,8.9,3.18,17-5.72,20.59Z" transform="translate(-11.22 -14.08)"/><path class="cls-8" d="M109.36,404.46c7.74,20.1,4.29,33.4,30.35,37.27,26.85,4,3.22-20.41.67-32.73S135,390,135,390Z" transform="translate(-11.22 -14.08)"/><path class="cls-8" d="M138.73,397.18l-6.6-2.12s5.41,15.76,8.14,20.49,17.26,19.64,24.57,10.1C169.18,420,144.6,410.27,138.73,397.18Z" transform="translate(-11.22 -14.08)"/><path class="cls-8" d="M343.48,192.5l-2.2,6.95s10.27-9.67,13.4-14.18,12.14-26.21.42-28.62C348.13,155.22,348.56,181,343.48,192.5Z" transform="translate(-11.22 -14.08)"/><path class="cls-5" d="M136.16,412.51c3.35,6.35,17.05,29.68,20.29,33.76" transform="translate(-11.22 -14.08)"/><path class="cls-5" d="M126.57,411.36c2.25,6.81,15.12,33.3,20.42,39.9" transform="translate(-11.22 -14.08)"/><path class="cls-5" d="M118.45,407.63c2.25,6.81,13.07,34.61,18.13,41.85" transform="translate(-11.22 -14.08)"/><path class="cls-5" d="M117,412.34c1.87,6.92,6.48,23.43,11.11,31" transform="translate(-11.22 -14.08)"/><path class="cls-9" d="M136.07,229.76c-14.2,12.45-37,58.41-37,58.41s1.61,6.27,13,17.22c13.34,12.78,17.4,11.6,18.52,10.33l23.64-35s20.19-12.85,11.71-27.9S136.07,229.76,136.07,229.76Z" transform="translate(-11.22 -14.08)"/><path class="cls-8" d="M344.12,189.85c7.91-6.81,18.88-23.36,29.81-24,6.42-.39,24.81,16,16.38,28.35-7.07,10.34-14.08,13.6-20.64,19.48S344.12,189.85,344.12,189.85Z" transform="translate(-11.22 -14.08)"/><path class="cls-4" d="M379.45,152.28c-1.47,4.76-7.6,18.28-18,26.32" transform="translate(-11.22 -14.08)"/><path class="cls-28" d="M169.25,349.85,153.7,281.53,139.89,302C148.45,317.41,159.26,333.68,169.25,349.85Z" transform="translate(-11.22 -14.08)"/></g></g></g></svg>