<svg xmlns="http://www.w3.org/2000/svg" xmlns:xlink="http://www.w3.org/1999/xlink" viewBox="0 0 613.09 792"><defs><style>.cls-1,.cls-13,.cls-21,.cls-24,.cls-30,.cls-34,.cls-35,.cls-37,.cls-75{fill:none;}.cls-2{isolation:isolate;}.cls-3{fill:#419344;}.cls-4{fill:#48a246;}.cls-5{fill:#8d4e23;}.cls-6{fill:#a45826;}.cls-7{mix-blend-mode:multiply;}.cls-8{clip-path:url(#clip-path);}.cls-9{fill:#a0b1b8;}.cls-10{fill:#f05264;}.cls-11{fill:#fab188;}.cls-12{fill:#f68e6e;}.cls-13,.cls-35{stroke:#fab188;}.cls-13,.cls-21,.cls-35,.cls-37{stroke-linecap:round;}.cls-13,.cls-21,.cls-24,.cls-30,.cls-34,.cls-35,.cls-37,.cls-75{stroke-miterlimit:10;}.cls-13{stroke-width:5px;}.cls-14{fill:#fedd7c;}.cls-15{opacity:0.5;}.cls-16{clip-path:url(#clip-path-2);}.cls-17{fill:#b8bec4;}.cls-18{fill:#edb257;}.cls-19{fill:#8f3b26;}.cls-20,.cls-71{fill:#f69320;}.cls-21{stroke:#8f3b26;stroke-width:0.69px;}.cls-22{fill:#fff;}.cls-23{fill:#8a604f;}.cls-24{stroke:#8a604f;stroke-width:1.31px;}.cls-25{fill:#8f2b31;}.cls-26{fill:#d85566;}.cls-27{opacity:0.6;}.cls-28{clip-path:url(#clip-path-3);}.cls-29{fill:#9b4635;}.cls-30,.cls-75{stroke:#fff;}.cls-30{stroke-width:0.2px;}.cls-31{fill:#432c28;}.cls-32{clip-path:url(#clip-path-4);}.cls-33{fill:#d4edfb;}.cls-34,.cls-37{stroke:#cacace;stroke-width:0.52px;}.cls-35{stroke-width:1.83px;}.cls-36{fill:#6e483a;}.cls-38{fill:#f89c70;}.cls-39{fill:#b96967;}.cls-40{opacity:0.38;}.cls-41{clip-path:url(#clip-path-5);}.cls-42{clip-path:url(#clip-path-6);}.cls-43{clip-path:url(#clip-path-7);}.cls-44{clip-path:url(#clip-path-8);}.cls-45{clip-path:url(#clip-path-9);}.cls-46{clip-path:url(#clip-path-10);}.cls-47{clip-path:url(#clip-path-11);}.cls-48{clip-path:url(#clip-path-12);}.cls-49{fill:#f15f22;}.cls-50{fill:#88311b;}.cls-51{clip-path:url(#clip-path-13);}.cls-52{clip-path:url(#clip-path-14);}.cls-53{clip-path:url(#clip-path-15);}.cls-54{clip-path:url(#clip-path-16);}.cls-55{clip-path:url(#clip-path-17);}.cls-56{clip-path:url(#clip-path-18);}.cls-57{clip-path:url(#clip-path-19);}.cls-58{clip-path:url(#clip-path-20);}.cls-59{clip-path:url(#clip-path-21);}.cls-60{clip-path:url(#clip-path-22);}.cls-61{clip-path:url(#clip-path-23);}.cls-62{clip-path:url(#clip-path-24);}.cls-63{clip-path:url(#clip-path-25);}.cls-64{clip-path:url(#clip-path-26);}.cls-65{clip-path:url(#clip-path-27);}.cls-66{clip-path:url(#clip-path-28);}.cls-67{clip-path:url(#clip-path-29);}.cls-68{fill:#90298d;}.cls-68,.cls-69,.cls-70,.cls-71{fill-rule:evenodd;}.cls-69{fill:#2aabe2;}.cls-70{fill:#bd202e;}.cls-72{fill:#1199b7;}.cls-73{fill:#ffcc5b;}.cls-74{fill:#4bc7ea;}.cls-75{stroke-width:0.24px;}.cls-76{fill:#341a14;}</style><clipPath id="clip-path" transform="translate(395.33 537.33)"><rect class="cls-1" x="50.18" y="234.04" width="71.01" height="9.75"/></clipPath><clipPath id="clip-path-2" transform="translate(395.33 537.33)"><rect class="cls-1" x="105.35" y="159.75" width="9.34" height="8.22"/></clipPath><clipPath id="clip-path-3" transform="translate(395.33 537.33)"><rect class="cls-1" x="104.91" y="129.98" width="4.52" height="4.7"/></clipPath><clipPath id="clip-path-4" transform="translate(395.33 537.33)"><rect class="cls-1" x="92.27" y="129.98" width="4.52" height="4.7"/></clipPath><clipPath id="clip-path-5" transform="translate(395.33 537.33)"><rect class="cls-1" x="25.96" y="92.38" width="0.89" height="4.48"/></clipPath><clipPath id="clip-path-6" transform="translate(395.33 537.33)"><rect class="cls-1" x="9.94" y="101.44" width="3.25" height="2.61"/></clipPath><clipPath id="clip-path-7" transform="translate(395.33 537.33)"><rect class="cls-1" x="50.34" y="73.11" width="1.01" height="4.1"/></clipPath><clipPath id="clip-path-8" transform="translate(395.33 537.33)"><rect class="cls-1" x="38.1" y="79.54" width="3.23" height="2.64"/></clipPath><clipPath id="clip-path-9" transform="translate(395.33 537.33)"><rect class="cls-1" x="55.21" y="71.23" width="0.7" height="4.29"/></clipPath><clipPath id="clip-path-10" transform="translate(395.33 537.33)"><rect class="cls-1" x="42.37" y="75.14" width="2.48" height="3.6"/></clipPath><clipPath id="clip-path-11" transform="translate(395.33 537.33)"><rect class="cls-1" x="28.76" y="89.89" width="3.97" height="5.65"/></clipPath><clipPath id="clip-path-12" transform="translate(395.33 537.33)"><rect class="cls-1" x="44.42" y="72.64" width="3.02" height="6.28"/></clipPath><clipPath id="clip-path-13" transform="translate(395.33 537.33)"><rect class="cls-1" x="33.83" y="82.64" width="5.97" height="3.63"/></clipPath><clipPath id="clip-path-14" transform="translate(395.33 537.33)"><rect class="cls-1" x="35.34" y="80.51" width="5.55" height="4.08"/></clipPath><clipPath id="clip-path-15" transform="translate(395.33 537.33)"><rect class="cls-1" x="47.35" y="72.06" width="2.09" height="6.39"/></clipPath><clipPath id="clip-path-16" transform="translate(395.33 537.33)"><rect class="cls-1" x="27.68" y="90.67" width="2.21" height="6.37"/></clipPath><clipPath id="clip-path-17" transform="translate(395.33 537.33)"><rect class="cls-1" x="17.23" y="92.98" width="3.59" height="5.58"/></clipPath><clipPath id="clip-path-18" transform="translate(395.33 537.33)"><rect class="cls-1" x="14.84" y="94.72" width="4.65" height="5.39"/></clipPath><clipPath id="clip-path-19" transform="translate(395.33 537.33)"><rect class="cls-1" x="61.22" y="69.85" width="2.36" height="3.34"/></clipPath><clipPath id="clip-path-20" transform="translate(395.33 537.33)"><rect class="cls-1" x="62.87" y="67.59" width="4.24" height="0.94"/></clipPath><clipPath id="clip-path-21" transform="translate(395.33 537.33)"><rect class="cls-1" x="63.04" y="62.37" width="3.99" height="0.89"/></clipPath><clipPath id="clip-path-22" transform="translate(395.33 537.33)"><rect class="cls-1" x="62.24" y="65.95" width="5.75" height="0.89"/></clipPath><clipPath id="clip-path-23" transform="translate(395.33 537.33)"><rect class="cls-1" x="61.61" y="64" width="6.55" height="1.2"/></clipPath><clipPath id="clip-path-24" transform="translate(395.33 537.33)"><rect class="cls-1" x="30.15" y="89.25" width="3.84" height="3.51"/></clipPath><clipPath id="clip-path-25" transform="translate(395.33 537.33)"><rect class="cls-1" x="20.5" y="92.7" width="1.3" height="4.04"/></clipPath><clipPath id="clip-path-26" transform="translate(395.33 537.33)"><rect class="cls-1" x="14" y="97.81" width="3.03" height="3.16"/></clipPath><clipPath id="clip-path-27" transform="translate(395.33 537.33)"><rect class="cls-1" x="57.63" y="70.13" width="1.13" height="6.58"/></clipPath><clipPath id="clip-path-28" transform="translate(395.33 537.33)"><rect class="cls-1" x="34.12" y="85.52" width="3.51" height="2.09"/></clipPath><clipPath id="clip-path-29" transform="translate(395.33 537.33)"><rect class="cls-1" x="59.22" y="69.46" width="2.31" height="6.58"/></clipPath></defs><title>illustration-kitegirl-bluebird</title><g class="cls-2"><g id="Layer_1" data-name="Layer 1"><path class="cls-3" d="M18.41,193.47c-.09-.71-.2-1.42-.34-2.11a4.81,4.81,0,0,0-.91-3.52c-.93-3.27-2.71-6.42-6.23-7-1.74-.31-3.84-.15-5.08,1.34a13.82,13.82,0,0,0-2.09,3.52c-3,3.73-2.64,9.84-1.22,14,1,2.81,2.8,6.42,5.9,7.28,2.8.77,5.48-.72,7.16-2.88a4.73,4.73,0,0,0,.46-.44c2.49-2.75,2.83-6.64,2.35-10.17" transform="translate(395.33 537.33)"/><path class="cls-4" d="M48.8,196.08a27.51,27.51,0,0,0,.62-6.77c0-1.18-.1-2.35-.2-3.53,0-.2,0-.4-.06-.59l0-.23c0-.05,0-.1,0-.15,0-.25-.07-.49-.11-.74,0,.26.08.47.1.64,0-.36-.07-.72-.11-1.09a60.05,60.05,0,0,0-1.23-8c-.52-2.14-1.43-4.72-3.19-6.16a10.56,10.56,0,0,0-.87-.62,5.92,5.92,0,0,0-6.4-1.32,9.64,9.64,0,0,0-2.49,1.38c-2.57,1-4.34,3.67-5.35,6.22s-1.09,5.16-1.37,7.71c0,.06,0,.12,0,.17.21-1.55.2-1.45,0,.3l0,.85c0,.61,0,1.23,0,1.84a36.42,36.42,0,0,0,.71,5.41,20.31,20.31,0,0,0,4.52,9.3,10.78,10.78,0,0,0,3.46,2.63,9.71,9.71,0,0,0,3.89,2.23,5.11,5.11,0,0,0,5.08-1.35,12.29,12.29,0,0,0,2.09-3.6,10.8,10.8,0,0,0,1-4.52" transform="translate(395.33 537.33)"/><path class="cls-4" d="M49.16,185.19c.05.34.1.56-.06-.48a.38.38,0,0,1,0,.1c0,.13,0,.25,0,.38" transform="translate(395.33 537.33)"/><path class="cls-3" d="M64.66,191.93A5.21,5.21,0,0,0,55,188.56c-.2.36-.38.71-.55,1.07a14.62,14.62,0,0,0-1.29,6.65,5.21,5.21,0,0,0,10.23,1.41,9.06,9.06,0,0,0,1.27-5.76" transform="translate(395.33 537.33)"/><path class="cls-5" d="M41,200.61c-.15-2-.56-3.91-.86-5.88-.16-1.07-1.79-.61-1.63.45.27,1.82.64,3.59.8,5.43s.22,3.83.39,5.73c.1,1.08,1.8,1.09,1.7,0-.18-1.9-.26-3.82-.4-5.73" transform="translate(395.33 537.33)"/><path class="cls-3" d="M79.57,176a5.3,5.3,0,0,0-8.27.22c-3.2,4.13-2.57,10.66.61,14.6,2.62,3.26,7.22,2,8.91-1.39a9.67,9.67,0,0,0,.88-4.06,15.91,15.91,0,0,0,.11-3.08A10.57,10.57,0,0,0,79.57,176" transform="translate(395.33 537.33)"/><path class="cls-6" d="M76.38,196.17c0-1.25,0-2.5,0-3.75a15.5,15.5,0,0,1-.12-3.26c.2-1.07-1.43-1.52-1.63-.45a9.21,9.21,0,0,0,0,2.87,34.4,34.4,0,0,1,.09,3.52c0,2.68,0,5.36,0,8a.85.85,0,0,0,1.7,0c-.06-2.32-.05-4.64-.05-7" transform="translate(395.33 537.33)"/><g class="cls-7"><g class="cls-8"><path class="cls-9" d="M121.19,242.1c0,2.92-23.44,1.4-41.35.22-10-.66-44.26-4.63-22.63-8,5.93-.94,37.31,1,45.25,1.7,19,1.71,18.73,4.6,18.73,6.11" transform="translate(395.33 537.33)"/></g></g><path class="cls-10" d="M57.1,196.75c-2,2-7.92,7.47-5,9.89,1.74,1.44,6.35-1.21,8.29-3.58a32.13,32.13,0,0,1,2.6-3s-.2-.38.66-1.69c.19-.29-.82-1.3-1.48-1.91-1.48-1.36-2.3-1.28-3.2-1a6.77,6.77,0,0,0-1.87,1.25" transform="translate(395.33 537.33)"/><path class="cls-11" d="M72.69,212.05a6.72,6.72,0,0,1-3.78-1.6l-8.83-6.67c-1.42-1.09-1.1-2.72,0-4.14s2.52-2.09,3.94-1l8.59,6.48L81,193.41c1.13-1.38,3.4-.4,4.78.74a3.23,3.23,0,0,1,.45,4.55l-8.82,10.76c-1.76,2.23-2.91,2.59-4.7,2.59" transform="translate(395.33 537.33)"/><path class="cls-12" d="M82.44,203.29l-3.71,4.53A16.61,16.61,0,0,1,73.36,204l3.89-5.42a8.24,8.24,0,0,1,1.77,0l3.3,3.16Z" transform="translate(395.33 537.33)"/><path class="cls-11" d="M109.27,237.81a3.22,3.22,0,0,1-3.21-2.93l-1.73-18.74a43.29,43.29,0,0,0-.9-5.29L98.3,190.5a3.23,3.23,0,0,1,6.27-1.58l5.56,20.68a52.06,52.06,0,0,1,1,6.57l1.39,18.12a3.24,3.24,0,0,1-2.93,3.51h-.3" transform="translate(395.33 537.33)"/><path class="cls-12" d="M101.81,202.39s7.14,2.3,7.2,3.05a10.07,10.07,0,0,0,.53,2,31.24,31.24,0,0,1-5.82,4.72c-.1-.47-.2-.92-.29-1.29l-2.13-8.43Z" transform="translate(395.33 537.33)"/><path class="cls-13" d="M128,139.34c-.33,3.33-1.68,14.75-8.72,20-3.2,2.41-7.38,1.88-13.53,1.71" transform="translate(395.33 537.33)"/><path class="cls-14" d="M103.57,155.69c3.14,1.13,4.9,2.62,9.15,2.68a5.06,5.06,0,0,1,1.71,2c1.06,2.35.4,6.06-1.67,6.83,0,0-2.18,1.12-7.4.59-4-.41-4.49-4.54-4.49-4.54Z" transform="translate(395.33 537.33)"/><g class="cls-15"><g class="cls-16"><path class="cls-17" d="M105.71,160.48a4.29,4.29,0,0,0-.07-.73s0,.29.07.73" transform="translate(395.33 537.33)"/><path class="cls-18" d="M112.76,167.24a3.52,3.52,0,0,0,1.93-2.52c-.74.48-2.92.64-5.88.48-3.62-.21-2.91-3.29-3.1-4.72a57.94,57.94,0,0,1-.36,7.35h0c5.22.53,7.4-.59,7.4-.59" transform="translate(395.33 537.33)"/></g></g><path class="cls-19" d="M104.88,112.31c4.34,0,11.4,7.13,5.73,23.5l-2-.62L101,124.27Z" transform="translate(395.33 537.33)"/><path class="cls-19" d="M100.39,156.32c6.8,1.34,9.32-10.4,9.32-19.68,0-.83,1.15-8.26,1.15-8.26v-1c0-5.33,1.11-17.25-14-18-15.93-.75-20.26,10.78-20.26,19.75v1s0,5.65,0,6.48c0,6-1.24,11.8-6.24,14.36l4.69,2.48s3.75-1.61,4.43-2.78-2.4,3.78-2.4,3.78,7.7,3.32,14.81,3.53c10.1.3,8.45-1.69,8.45-1.69" transform="translate(395.33 537.33)"/><path class="cls-14" d="M103.72,184.66s1.36-14.06,2-20.51,1.88-6.32,1.88-6.32a32.8,32.8,0,0,0-9.74-4.14,51.58,51.58,0,0,0-10-1.64s-2.48,2.11-3.18,9.09l-2.13,21.41" transform="translate(395.33 537.33)"/><path class="cls-20" d="M100.84,165.52h0c.64-3.65,1.51-8.47.08-10.42a3.75,3.75,0,0,0-2.62-1.24l.21-.21c1.79.23,3.86.94,4.77,2.16,1.88,2.54.87,5.54.56,9.93l-.58-.2Z" transform="translate(395.33 537.33)"/><path class="cls-12" d="M93.2,153.42c2.08,1.47,2.32,2.67,4.72,2.9.94.09,1.65-1.54,1.78-2.93l.66-6.86c.29-3-1.25-5.68-3.41-5.89l-.74-.07c-2.17-.2-4.18,2.11-4.47,5.13l-.63,6.67a5.85,5.85,0,0,1,2.09,1" transform="translate(395.33 537.33)"/><path class="cls-11" d="M112.76,134.42a3.42,3.42,0,0,1-3.42,3.42c-1.89,0-1.44-1.53-1.44-3.42s-.45-3.42,1.44-3.42a3.43,3.43,0,0,1,3.42,3.42" transform="translate(395.33 537.33)"/><path class="cls-11" d="M111.68,135.78c0,7.64-4.9,14.25-12.28,14.25-8.21,0-16.9-6.61-16.9-14.25l-.18-8.11c0-7.64,6.25-11.51,13.89-11.51h1.58c7.64,0,13.89,3.87,13.89,11.51Z" transform="translate(395.33 537.33)"/><path class="cls-12" d="M104.16,136.41c0-.29-.23-.33-.93-.08a4.56,4.56,0,0,1-1.53.26,4.63,4.63,0,0,1-1.54-.26c-.69-.25-.93-.21-.93.08a2.91,2.91,0,0,0,2.46,1.57h0a2.89,2.89,0,0,0,2.45-1.57" transform="translate(395.33 537.33)"/><path class="cls-21" d="M105.77,127.46a3.39,3.39,0,0,1,3.51.94" transform="translate(395.33 537.33)"/><path class="cls-21" d="M95.75,127.46a3.39,3.39,0,0,0-3.51.94" transform="translate(395.33 537.33)"/><path class="cls-18" d="M85.49,166.76l-1.28-.64-1,10.11.65.15,2.51.38s3-.08,3.46,0-.18-12.26-.36-14.25c-.16-1.83-.49-2.62-1.08-1.3s-2.89,5.55-2.89,5.55" transform="translate(395.33 537.33)"/><path class="cls-19" d="M102.74,113.78l-10.71,1c-1.71.16-3.2.33-4,1.41-2.58,3.48-.77,9.72-.77,9.72s2.4-1.39,9.47-2c7.39-.69,12.2-2.07,12.34-7.58.05-1.91-6.33-2.5-6.33-2.5" transform="translate(395.33 537.33)"/><path class="cls-20" d="M101.63,187.75a2,2,0,0,1-2.17,1.78l-9.16-.82a2,2,0,0,1-1.77-2.14l2.34-23.48A2,2,0,0,1,93,161.32l9.18.91a2,2,0,0,1,1.77,2.16Z" transform="translate(395.33 537.33)"/><path class="cls-20" d="M92.87,166.78v5.64c0,1.25,0,2.91-1.94,2.91s-7.58-.62-7.58-.62l-1,9.77h13.2Z" transform="translate(395.33 537.33)"/><path class="cls-20" d="M104.05,181.2l.41-4.2-1.71-.24-18.55,3-.34.63L82.7,180c-.44,1.16-11,16.46-11,16.46s1.92,10.47,22,12.41c11,1.07,16.14-.93,16.14-2.19-.13-.35-5.85-25.5-5.85-25.5" transform="translate(395.33 537.33)"/><path class="cls-22" d="M93.74,187.51a.78.78,0,0,1-1,.52l-.82-.24a.77.77,0,0,1-.51-1L93.24,181a.78.78,0,0,1,1-.52l.82.24a.77.77,0,0,1,.51,1Z" transform="translate(395.33 537.33)"/><path class="cls-12" d="M85.64,181.78a1,1,0,0,1-.94-.46,1.05,1.05,0,0,1,.23-1.42l1.8-1.28a.86.86,0,0,1,.62-.16l2.12.23c.53.06,1,.08,1,.64a1.05,1.05,0,0,1-1,1.14l-1.84.07L86,181.62a.87.87,0,0,1-.4.16" transform="translate(395.33 537.33)"/><path class="cls-23" d="M94.75,188.71a.79.79,0,0,1-1,.52l-.12,0a.77.77,0,0,1-.52-1l2.39-7.82a.77.77,0,0,1,1-.52l.13,0a.75.75,0,0,1,.51.95Z" transform="translate(395.33 537.33)"/><path class="cls-24" d="M91.28,187.43a1.56,1.56,0,0,1-1.93,1l-2.13-.65a1.54,1.54,0,0,1-1-1.92l2.16-7.1a1.56,1.56,0,0,1,1.93-1l2.13.65a1.53,1.53,0,0,1,1,1.92Z" transform="translate(395.33 537.33)"/><path class="cls-25" d="M94.84,140.08S96.3,145,100.76,145s4.88-4.86,4.88-4.86l-10.8-.09" transform="translate(395.33 537.33)"/><path class="cls-26" d="M103.24,144.38c-1.23-1.63-4.34-1.58-6.77-1.41a5.53,5.53,0,0,0,4.22,2,5.07,5.07,0,0,0,2.56-.6v0" transform="translate(395.33 537.33)"/><path class="cls-22" d="M94.86,140.15a6.91,6.91,0,0,0,.6,1.29s-.3-.45-.13-.4c0,0,8.37,1.13,9.54-.16l.32-.71-10.35-.09" transform="translate(395.33 537.33)"/><path class="cls-19" d="M92.51,120.79c0,1,1.65,3.4-1.47,3.8-6.93.89-6.21,9.48-6.27,8.64-.13-1.74-3.1-1.44-4-1.44s-.31-7.59.18-8.23a33.6,33.6,0,0,1,3.52-3.92c.71-.45,6-2.2,6-2.2s1.79-.57,2.42.33-.34,3-.34,3" transform="translate(395.33 537.33)"/><path class="cls-13" d="M86.05,155.17c-3.71,3-8.92,15.53-8.92,18.06,0,3.6,4.76,7.72,9.51,9" transform="translate(395.33 537.33)"/><path class="cls-14" d="M90.44,153c3,.94,3.3,2.83,3.3,2.83,0-1.08-4-3-4.49-3.18s-.06-.47-.33-.51c-5.4-.76-8.12,1.76-11.79,10.47l8.36,4.15,1.45-5.64" transform="translate(395.33 537.33)"/><path class="cls-11" d="M80.17,134.36A3.42,3.42,0,0,1,83.59,131c1.89,0,1.43,1.53,1.43,3.41s.46,3.42-1.43,3.42a3.42,3.42,0,0,1-3.42-3.42" transform="translate(395.33 537.33)"/><path class="cls-12" d="M132.38,136a4.05,4.05,0,0,0-4-4c-2.24,0-2.66.58-2.66,2.82s1.26-.08,1.23,2.16,1.24,2.11,2.52,3.65a4.06,4.06,0,0,1,.87,2.56s.33-2.11.42-3.13c.14-1.68,1.67-2.15,1.67-4" transform="translate(395.33 537.33)"/><g class="cls-27"><g class="cls-28"><path class="cls-29" d="M107.25,130a2.35,2.35,0,0,0,0,4.7l2.18-3.24a2.36,2.36,0,0,0-2.18-1.46" transform="translate(395.33 537.33)"/></g></g><path class="cls-22" d="M104.83,132.67a2,2,0,1,0,2-2,2,2,0,0,0-2,2" transform="translate(395.33 537.33)"/><path class="cls-30" d="M104.83,132.67a2,2,0,1,0,2-2A2,2,0,0,0,104.83,132.67Z" transform="translate(395.33 537.33)"/><path class="cls-31" d="M106.42,133.08a1,1,0,1,1,1-1,1,1,0,0,1-1,1" transform="translate(395.33 537.33)"/><path class="cls-31" d="M106.42,131.22a.9.9,0,1,1-.9.89.89.89,0,0,1,.9-.89m0-.15a1,1,0,1,0,1,1,1,1,0,0,0-1-1" transform="translate(395.33 537.33)"/><path class="cls-22" d="M107.7,131.53a.4.4,0,1,1-.39-.39.39.39,0,0,1,.39.39" transform="translate(395.33 537.33)"/><g class="cls-27"><g class="cls-32"><path class="cls-29" d="M94.44,130a2.35,2.35,0,0,1,0,4.7l-2.17-3.24A2.36,2.36,0,0,1,94.44,130" transform="translate(395.33 537.33)"/></g></g><path class="cls-22" d="M96.87,132.67a2,2,0,1,1-2-2,2,2,0,0,1,2,2" transform="translate(395.33 537.33)"/><path class="cls-30" d="M96.87,132.67a2,2,0,1,1-2-2A2,2,0,0,1,96.87,132.67Z" transform="translate(395.33 537.33)"/><path class="cls-31" d="M94.38,133.08a1,1,0,1,1,0-1.94,1,1,0,0,1,0,1.94" transform="translate(395.33 537.33)"/><path class="cls-31" d="M94.38,131.22a.9.9,0,1,1-.89.89.89.89,0,0,1,.89-.89m0-.15a1,1,0,1,0,1.05,1,1,1,0,0,0-1.05-1" transform="translate(395.33 537.33)"/><path class="cls-22" d="M95.67,131.53a.4.4,0,1,0-.4.39.39.39,0,0,0,.4-.39" transform="translate(395.33 537.33)"/><path class="cls-11" d="M127.84,132c.55-1.43.76-3.06-.6-3.48s-1.5,2.52-2.63,5.33a5.72,5.72,0,0,0-.31,2.77,4.57,4.57,0,0,0,.21,1v0h0a3.79,3.79,0,0,0,2.73,2.53c-.7-1.35-.28-1.57-.35-3.37-.07-1.53-.74-2.49.94-4.79" transform="translate(395.33 537.33)"/><path class="cls-20" d="M90.81,163.71h0c.3-4.32-.45-9.16-2.41-10.84a3.53,3.53,0,0,0-2.83-.71v-.22c1.91-.19,3.94,0,5.18,1.09,2.78,2.39,2.55,5.26,2.78,9.7l-.19.43Z" transform="translate(395.33 537.33)"/><path class="cls-33" d="M105.78,240.94c.22.07,11,1.27,13,.7.5-.15.41-.59.48-1.15.11-.85-.25-1.92-2.47-2.72a27.25,27.25,0,0,0-4.3-1.34s-6.1-1.09-6.4.54a23.92,23.92,0,0,0-.3,4" transform="translate(395.33 537.33)"/><path class="cls-10" d="M105.78,239.89c.22.07,11.27,1.21,13.23.67.43-.11,1.15-2.38-2.08-3.38a16.43,16.43,0,0,1-4.33-1.78s-6.1-1.09-6.4.54a32.85,32.85,0,0,0-.42,3.95" transform="translate(395.33 537.33)"/><path class="cls-22" d="M106.25,236.35a2.57,2.57,0,0,0,2.19,1c1.51,0,2-1,2.61-1.41a2.44,2.44,0,0,1,1.55-.54l-.37-4s-.7.92-3.16,1.2-3.29-.38-3.29-.38Z" transform="translate(395.33 537.33)"/><path class="cls-33" d="M57.78,197a7.14,7.14,0,0,1,1.87-1.18c.79-.25,1.6-.07,2.79.9l-.27-.26c-1.48-1.36-2.4-1.64-3.31-1.35A7.33,7.33,0,0,0,57,196.33c-2,2-8.05,7.69-4.89,10.31a1.44,1.44,0,0,0,.31.19c-2.36-1.79,3.47-8,5.37-9.79" transform="translate(395.33 537.33)"/><path class="cls-22" d="M62.3,205.44c-1.42-1.08-1.1-2.72,0-4.13s2.52-2.09,3.93-1L64,198.64c-1.42-1.09-2.85-.42-3.94,1s-1.4,3.05,0,4.14" transform="translate(395.33 537.33)"/><path class="cls-11" d="M90.93,181.5a1.38,1.38,0,0,0-.74-1.36h0a12.2,12.2,0,0,0-2-.8c-1.93-.55-4.68.13-5.37,2-.92,2.5,1.75,4.31,3.69,4.86.21.06,1.18.41,1.37.42h.37a1.33,1.33,0,0,0,1.32-1.2v-.09c.08-.21.15-.44.22-.68a1.36,1.36,0,0,0,.75-1.07,1.32,1.32,0,0,0-.2-.83c0-.13.09-.25.13-.37a1.35,1.35,0,0,0,.47-.91" transform="translate(395.33 537.33)"/><path class="cls-34" d="M94.38,180.87s30.74-13.69,34.5-43.51" transform="translate(395.33 537.33)"/><line class="cls-35" x1="523.66" y1="669.26" x2="526.83" y2="667.47"/><line class="cls-35" x1="523.66" y1="671.49" x2="527.74" y2="669.03"/><line class="cls-35" x1="523.66" y1="673.54" x2="527.74" y2="671.21"/><line class="cls-35" x1="524.75" y1="674.93" x2="527.74" y2="673.25"/><polygon class="cls-36" points="560.82 718.56 560.82 718.56 560.82 718.56 560.82 718.56"/><path class="cls-37" d="M128.19,130.74c-19.7-25.84-33.84-48.5-36.83-82.84,0,0,.56-.79,0-1.29" transform="translate(395.33 537.33)"/><path class="cls-20" d="M11.2,102.13h0c.57,0,1.14-.06,1.71-.08.12.56.24,1.12.31,1.7l.08,1.12a5.83,5.83,0,0,1-.46,2.36,6.37,6.37,0,0,1-1.89,2.42A21.12,21.12,0,0,0,12.77,108a6.07,6.07,0,0,0,1.72-3.12,8,8,0,0,0-.06-2.89,11.8,11.8,0,0,0,2.72-.47,6.28,6.28,0,0,0,2.25-1.21,8.69,8.69,0,0,1,1.07-.75,4.34,4.34,0,0,0,.86-.63l.42-.38c.14-.15.28-.29.42-.45a20.32,20.32,0,0,0,1.58-2.15,7.29,7.29,0,0,0,2.44,1.51,5.16,5.16,0,0,0,1.71.27,6.84,6.84,0,0,0,2.2-.42,14,14,0,0,0,2.52-1.23,6,6,0,0,0,2.67-3.34,5.76,5.76,0,0,0,0-3.22A8.31,8.31,0,0,0,38,88.35a7,7,0,0,0,2.05-2.14L40,86.3l.11-.18h0c.14-.24.28-.46.42-.67l.11-.16.12-.17.26-.35-.08.1A6.17,6.17,0,0,0,42,82.32a15.3,15.3,0,0,0,.15-2.65,19.24,19.24,0,0,0,2.64.25,6.12,6.12,0,0,0,2.54-.54,14,14,0,0,1,1.54-.58,6.47,6.47,0,0,0,2.46-1.4,11,11,0,0,0,1.78-2.15,9.16,9.16,0,0,0,2.39,1.5,5.93,5.93,0,0,0,1.45.38,7,7,0,0,0,.83.05,7.36,7.36,0,0,0,1-.1,19,19,0,0,0,2.38-.52,6.6,6.6,0,0,0,2.06-1A5.4,5.4,0,0,0,64.68,74a4.25,4.25,0,0,0,.59-1.79,4,4,0,0,0-.19-1.61,5.55,5.55,0,0,0,2.38-1.78,4.15,4.15,0,0,0,1.05-3.13,3,3,0,0,0-.41-1,5,5,0,0,0-.29-.45l-.31-.4a3.76,3.76,0,0,1-.47-.86,2.9,2.9,0,0,1-.21-1,2.5,2.5,0,0,1,.2-1,2.7,2.7,0,0,1,.4-.7c.16-.15.42-.74.56-.9a10.69,10.69,0,0,0,.71-.8c.28-.38.26.14.31-.33-.08.46,0,0-.4.25a3.33,3.33,0,0,0-1,1,2.54,2.54,0,0,1-.88,1,12,12,0,0,1-1.28.54l-1.33.48-.66.23-.17.06-.17.07-.34.16c-.21.12-.42.24-.62.37l-.3.18a1.13,1.13,0,0,0-.33.29,3.21,3.21,0,0,0-.32.79c0,.13,0,.26,0,.37a9.27,9.27,0,0,0,.58,3.4A22.63,22.63,0,0,0,63,69.54a4.63,4.63,0,0,1-1.17,0,5.22,5.22,0,0,1-.92-.21,3,3,0,0,0-.78-.16,3.48,3.48,0,0,0-1,.17,13,13,0,0,1-1.5.33c-.26,0-.5.1-.74.16s-.53.16-.77.25a6.78,6.78,0,0,0-1.33.73,8.49,8.49,0,0,0-2,2.12,7.51,7.51,0,0,0-2.58-1.41,6.11,6.11,0,0,0-3.57.12c-.75.24-1.52.52-2.27.84A6.21,6.21,0,0,0,41.48,75a6.38,6.38,0,0,0-.84,3,6.62,6.62,0,0,0-3,.39,6.11,6.11,0,0,0-2.77,2.19v0h0l-.34.48-.35.52c-.22.34-.43.69-.62,1v0a5.79,5.79,0,0,0-.84,3.17,9.65,9.65,0,0,0,.56,2.61c-.89.16-1.72.29-2.45.47a6,6,0,0,0-2,.83l-.13.09h0a5.5,5.5,0,0,1-.83.44l-.18.08h0l-.14,0a6.17,6.17,0,0,0-1.1.53,8.78,8.78,0,0,0-1.08.75,10.5,10.5,0,0,0-1.93,2.1,6,6,0,0,0-2.69-1.34,5.65,5.65,0,0,0-.85-.1h-.45l-.5,0a6.6,6.6,0,0,0-2.13.76,16.22,16.22,0,0,0-2.16,1.5,5.78,5.78,0,0,0-2,3.09,7.24,7.24,0,0,0,0,2.93,9.84,9.84,0,0,0-2.77.59,6.67,6.67,0,0,0-2.39,1.59,13.6,13.6,0,0,1-1.2,1.11,6.73,6.73,0,0,1,1.83-1.08,9.09,9.09,0,0,1,2-.5s1-.11,1.08-.1m50.73-36.2a2.88,2.88,0,0,1,0-2.67.66.66,0,0,1,.19-.18l.29-.2A6.27,6.27,0,0,1,63,62.5l.29-.17.14-.07.16-.06.65-.28,1.3-.55a13.82,13.82,0,0,0,1.28-.63,3.13,3.13,0,0,0,.42-.29,3,3,0,0,0-.62,1.5,3.4,3.4,0,0,0,.13,1,4.19,4.19,0,0,0,.42,1l.27.44a3.62,3.62,0,0,1,.24.43,2.24,2.24,0,0,1-.57,2.81,7.76,7.76,0,0,1-2.56,1.57c-.54,0-1-.49-1.27-.85a4.84,4.84,0,0,1-.83-1.13c-.2-.43-.36-.87-.53-1.31m-8,8c.27-.43.56-.87.86-1.29l.68-.88a8.73,8.73,0,0,1,.73-.76c.13-.12.27-.23.41-.34l.41-.3a4.59,4.59,0,0,1,1.36-.72,1.61,1.61,0,0,1,.61,0,2.71,2.71,0,0,0,.57.09,8.18,8.18,0,0,1,1.44.55s1,.3,1.41.48a5.62,5.62,0,0,0,1.1.11,4.39,4.39,0,0,1,.09,1.92L63.26,74a5.34,5.34,0,0,1-1.58,1.92s-.58.39-.82.52a6.23,6.23,0,0,1-.91.39,5.62,5.62,0,0,1-1.16,0s-.91-.17-.91-.17l-.28-.09-.25-.1-.47-.22a8.84,8.84,0,0,1-.89-.55L55.12,75c-.39-.33-.77-.68-1.15-1M42.18,78.14A6.5,6.5,0,0,1,44,73.26a8,8,0,0,1,1.58-1.15,5.77,5.77,0,0,1,4.13.51s1.87,1.27,2.3,1.64l-1.45,2.35a8.87,8.87,0,0,1-1.23,1.48l-.55.47a7.66,7.66,0,0,1-.66.45l-.67.09s-1.87-.13-2.48-.27c0,0-2.15-.56-2.75-.69m-8.35,7.67a14.09,14.09,0,0,1-.16-2.31,6.94,6.94,0,0,1,.14-.85,10.36,10.36,0,0,1,.43-1.12c.11-.14.23-.26.35-.39a3.14,3.14,0,0,1,.36-.3,11.77,11.77,0,0,1,2.19-1.19,16.46,16.46,0,0,1,3.52-.18c.05.69.13,1.36.18,2l.07,1a8.3,8.3,0,0,1-.13,1.73l-.23.84,0,.13c0,.09-.06.18-.1.27a7.45,7.45,0,0,1-.67.57s-2.16,1.55-3.41,1.58c-.52.15-1,.27-1.58.38-.17-.43-.84-1.87-.92-2.2m-9.24,8.82a11.45,11.45,0,0,1,2.32-3.37A16.74,16.74,0,0,1,28.22,90l.89-.18a10.66,10.66,0,0,1,1.4,0l.9,0a22.65,22.65,0,0,0,2.3-.06A8.39,8.39,0,0,1,34,92.05a4.43,4.43,0,0,1-1.2,3.32,6.63,6.63,0,0,1-1.48,1.29,10.36,10.36,0,0,1-1.28.31,5.65,5.65,0,0,1-3.14-.52h0a3.36,3.36,0,0,1-.71-.41c-.08-.07-.17-.13-.25-.21v0a17.71,17.71,0,0,1-1.39-1.21m-10.45,5.82c-.09-.45-.26-1.46-.27-1.52a8.27,8.27,0,0,1,0-1.36,5.43,5.43,0,0,1,.57-2.14,5.66,5.66,0,0,1,1.31-1.66,6.1,6.1,0,0,1,2-.67,5.08,5.08,0,0,1,1.84.1,3.82,3.82,0,0,1,.73.16,3.09,3.09,0,0,1,.79.48,11.74,11.74,0,0,1,1.5,1.09c-.31.53-.58,1.06-.84,1.58l-.46.91c-.14.27-.26.53-.38.77s-.24.48-.36.7c0,0-.54.78-.67.93s-1,.32-1.17.37a9.54,9.54,0,0,1-3.06.24Z" transform="translate(395.33 537.33)"/><path class="cls-38" d="M25.81,94.61l0-.2a1.07,1.07,0,0,0,.31,0,.93.93,0,0,0,.34-.13l0,.23a.09.09,0,0,0,.09,0h0l.33,2.18c0,.14-.14.29-.37.32s-.43,0-.45-.19l-.34-2.17h0s.07,0,.06-.08" transform="translate(395.33 537.33)"/><path class="cls-39" d="M26.16,92.09l.13.81.22,1.29v0l.06.33h0a.08.08,0,0,1-.09,0l0-.23a.93.93,0,0,1-.34.13,1.07,1.07,0,0,1-.31,0l0,.2s0,.07-.06.08h0l0-.31v0L25.46,93s.59-.82.7-.92" transform="translate(395.33 537.33)"/><g class="cls-40"><g class="cls-41"><path class="cls-22" d="M26,92.62l.7,4.24a.24.24,0,0,0,.19-.29l-.69-4.19Z" transform="translate(395.33 537.33)"/></g></g><path class="cls-38" d="M12,103.75l-.16-.13a1.51,1.51,0,0,0,.23-.21.88.88,0,0,0,.16-.32l.18.14a.07.07,0,0,0,.1,0h0l.66.52.08,1.12-1.25-1h0s0-.08,0-.1" transform="translate(395.33 537.33)"/><path class="cls-39" d="M10.2,101.39l1,.77,1,.81h0l.26.21v0a.08.08,0,0,1-.1,0l-.18-.14a.88.88,0,0,1-.16.32,1.51,1.51,0,0,1-.23.21l.16.13s0,.06,0,.1h0l-.25-.19,0,0-1.05-.82-1-.76c-.12-.09-.07-.29.07-.48s.33-.27.44-.18" transform="translate(395.33 537.33)"/><g class="cls-40"><g class="cls-42"><path class="cls-22" d="M9.94,101.53l3.24,2.53,0-.35-2.85-2.21a.24.24,0,0,0-.34,0" transform="translate(395.33 537.33)"/></g></g><path class="cls-38" d="M50.21,74.88l0-.2a.65.65,0,0,0,.31,0,.88.88,0,0,0,.33-.13l0,.21a.07.07,0,0,0,.09,0h0L51.39,77c0,.14-.13.29-.36.33s-.43,0-.46-.16L50.14,75h0s.08,0,.07-.08" transform="translate(395.33 537.33)"/><path class="cls-39" d="M50.67,73.31l.22,1.14v0l.06.31h0s-.08,0-.08,0l0-.21a.82.82,0,0,1-.33.13.65.65,0,0,1-.31,0l0,.2s0,.07-.07.08h0l-.06-.29v-.06l-.25-1.26-.15-.73Z" transform="translate(395.33 537.33)"/><g class="cls-40"><g class="cls-43"><path class="cls-22" d="M50.34,73.11l.82,4.1a.25.25,0,0,0,.18-.29l-.72-3.61Z" transform="translate(395.33 537.33)"/></g></g><path class="cls-38" d="M39.35,81.19l-.16-.13a.91.91,0,0,0,.24-.2,1.05,1.05,0,0,0,.17-.31l.17.14s.07,0,.1,0v0l1.71,1.42c.1.09.07.31-.08.49s-.35.25-.46.16l-1.7-1.42h0s0-.08,0-.1" transform="translate(395.33 537.33)"/><path class="cls-39" d="M38.47,79.49l.16.13,1,.81,0,0,.24.2h0s-.08,0-.1,0l-.17-.14a1.05,1.05,0,0,1-.17.31.91.91,0,0,1-.24.2l.16.13a.07.07,0,0,1,0,.1h0l-.23-.19,0,0-1-.82-.77-.63c-.11-.09,1.16-.13,1.16-.13" transform="translate(395.33 537.33)"/><g class="cls-40"><g class="cls-44"><path class="cls-22" d="M38.1,79.55l3.18,2.63a.24.24,0,0,0,0-.34l-2.78-2.3Z" transform="translate(395.33 537.33)"/></g></g><path class="cls-38" d="M55,74.07l0-.21a.8.8,0,0,0,.31,0,.9.9,0,0,0,.34-.1l0,.22a.09.09,0,0,0,.09,0h0l.17,1.6-.9-.71L55,74.14h0s.08,0,.07-.07" transform="translate(395.33 537.33)"/><path class="cls-39" d="M55.48,71.3l.13,1.14.14,1.26v0l0,.33h0a.09.09,0,0,1-.09-.06l0-.21a.9.9,0,0,1-.34.1.8.8,0,0,1-.31,0l0,.21s0,.06-.07.07h0l0-.3v-.06l-.13-1.27-.13-1.12c0-.14.16-.24.39-.27s.43,0,.44.18" transform="translate(395.33 537.33)"/><g class="cls-40"><g class="cls-45"><path class="cls-22" d="M55.21,71.23l.44,4.1.26.19-.44-4.07a.23.23,0,0,0-.26-.22" transform="translate(395.33 537.33)"/></g></g><path class="cls-38" d="M43.35,77.65l-.11-.17a.81.81,0,0,0,.29-.12.78.78,0,0,0,.27-.24l.11.19s.06,0,.1,0h0L45,78.84l-1.17-.29-.49-.8h0a.08.08,0,0,0,0-.1" transform="translate(395.33 537.33)"/><path class="cls-39" d="M42.71,75.18l.46.76L43.84,77v0l.17.27h0s-.08,0-.1,0l-.11-.19a.9.9,0,0,1-.27.24.81.81,0,0,1-.29.12l.11.17a.08.08,0,0,1,0,.1h0l-.16-.25,0,0-.67-1.09L42,75.62c-.07-.11,0-.28.24-.41s.41-.14.48,0" transform="translate(395.33 537.33)"/><g class="cls-40"><g class="cls-46"><path class="cls-22" d="M42.37,75.18l2.18,3.51.31.06-2.15-3.49a.26.26,0,0,0-.34-.08" transform="translate(395.33 537.33)"/></g></g><path class="cls-38" d="M30.56,93.41l-.17-.25a.65.65,0,0,0,.29-.11.69.69,0,0,0,.24-.27l.18.27a.1.1,0,0,0,.12,0h0l1.58,2.36a2,2,0,0,1-.61.58l-1.67-2.47h0s0-.07,0-.12" transform="translate(395.33 537.33)"/><path class="cls-39" d="M29,89.85l.84,1.23,1.06,1.55,0,0,.27.4h0a.09.09,0,0,1-.12,0l-.18-.26a.69.69,0,0,1-.24.27.65.65,0,0,1-.29.11l.17.25s0,.1,0,.12h0l-.26-.37,0-.07-1.07-1.59-.83-1.19a.43.43,0,0,1,.7-.47" transform="translate(395.33 537.33)"/><g class="cls-40"><g class="cls-47"><path class="cls-22" d="M28.76,89.92l3.8,5.63s.25-.06.14-.23l-3.54-5.23c-.11-.17-.29-.24-.4-.17" transform="translate(395.33 537.33)"/></g></g><path class="cls-38" d="M45.31,75.83l.13.29a.55.55,0,0,1,.25-.2.62.62,0,0,1,.36,0l-.14-.3a.12.12,0,0,1,0-.13h0l-1.25-2.79c-.09-.19-.85.15-.76.35l1.24,2.78h0a.09.09,0,0,1,.11,0" transform="translate(395.33 537.33)"/><path class="cls-39" d="M47.56,79.08l-.6-1.4-.78-1.75,0,0-.2-.45h0s0,.07,0,.12l.14.3a.62.62,0,0,0-.36,0,.6.6,0,0,0-.25.19l-.13-.28a.09.09,0,0,0-.11,0h0l.19.42,0,.07.8,1.79.44,1a2.82,2.82,0,0,0,.91.06" transform="translate(395.33 537.33)"/><g class="cls-40"><g class="cls-48"><path class="cls-22" d="M47.18,78.85,44.42,72.7s.19-.16.28,0l2.73,6.1c.08.19-.25,0-.25,0" transform="translate(395.33 537.33)"/></g></g><path class="cls-49" d="M36.15,84.74l.27.15a.61.61,0,0,1,.08-.3.65.65,0,0,1,.26-.26l-.28-.16a.08.08,0,0,1,0-.11s0,0,0,0l-2.61-1.49a4,4,0,0,0-.16.89L36,84.77h0a.1.1,0,0,1,.12,0" transform="translate(395.33 537.33)"/><path class="cls-50" d="M39.68,85.88l-1.14-.65L36.9,84.3l0,0-.42-.23s0,0,0,0a.08.08,0,0,0,0,.11l.28.16a.65.65,0,0,0-.26.26.64.64,0,0,0-.08.3l-.27-.15a.09.09,0,0,0-.12,0h0l.39.22.07,0,1.66,1,1.12.63c.18.11.38,0,.5-.19a.39.39,0,0,0-.09-.54" transform="translate(395.33 537.33)"/><g class="cls-40"><g class="cls-51"><path class="cls-22" d="M39.78,86.26l-6-3.38,0-.25,5.7,3.24c.18.11.27.28.21.39" transform="translate(395.33 537.33)"/></g></g><path class="cls-38" d="M37.46,82.7l.25.18a.56.56,0,0,1,.12-.3.67.67,0,0,1,.28-.22l-.26-.19s-.06-.09,0-.12h0L35.6,80.42a2.19,2.19,0,0,0-.76.48l2.5,1.82h0a.08.08,0,0,1,.12,0" transform="translate(395.33 537.33)"/><path class="cls-39" d="M40.85,84.22l-1.07-.78-1.53-1.1,0,0L37.83,82h0s0,.09,0,.12l.26.19a.67.67,0,0,0-.28.22.56.56,0,0,0-.12.3l-.25-.18a.08.08,0,0,0-.12,0h0l.36.26.06,0,1.56,1.13,1.23.9c.08,0,.25-.15.39-.34a.33.33,0,0,0-.09-.49" transform="translate(395.33 537.33)"/><g class="cls-40"><g class="cls-52"><path class="cls-22" d="M40.86,84.58l-5.52-4,.29-.08,5.07,3.67c.17.12.24.3.16.4" transform="translate(395.33 537.33)"/></g></g><path class="cls-49" d="M48.18,74.9l0,.12a.66.66,0,0,1,.36.11l.27.9.69,2.29c.06.2-.74.44-.8.24l-.66-2.18-.33-1.1a.49.49,0,0,1,.26-.21L48,75a.12.12,0,0,1,.06-.15.11.11,0,0,1,.14.09" transform="translate(395.33 537.33)"/><path class="cls-50" d="M47.61,72l1,3.16a.66.66,0,0,0-.36-.11l0-.12a.11.11,0,0,0-.14-.09A.12.12,0,0,0,48,75l0,.11a.49.49,0,0,0-.26.21l-1-3.16a.41.41,0,0,1,0-.19,7.1,7.1,0,0,1,.83,0" transform="translate(395.33 537.33)"/><g class="cls-40"><g class="cls-53"><path class="cls-22" d="M47.35,72.06l1.95,6.38c.12,0,.18-.22.12-.42l-1.82-6Z" transform="translate(395.33 537.33)"/></g></g><path class="cls-49" d="M28.55,93.61l0,.13a.57.57,0,0,1,.36.09l.3.88L30,96.9c.06.19-.08.37-.3.44a.36.36,0,0,1-.5-.18l-.7-2.09L28.13,94a.54.54,0,0,1,.26-.21l0-.11a.12.12,0,0,1,.06-.15.11.11,0,0,1,.14.08" transform="translate(395.33 537.33)"/><path class="cls-50" d="M27.8,90.38,29,93.83a.57.57,0,0,0-.36-.09l0-.13a.11.11,0,0,0-.14-.08.12.12,0,0,0-.06.15l0,.11a.54.54,0,0,0-.26.21l-1-3a2.81,2.81,0,0,1,.68-.66" transform="translate(395.33 537.33)"/><g class="cls-40"><g class="cls-54"><path class="cls-22" d="M27.68,90.89,29.75,97c.13,0,.17-.22.11-.41l-2-5.9c-.06-.19-.19.17-.19.17" transform="translate(395.33 537.33)"/></g></g><path class="cls-49" d="M18.94,95.81l.07.11a.67.67,0,0,1,.37,0l.49.79,1,1.58a3.67,3.67,0,0,1-.48.86l-1.16-1.91-.6-1a.6.6,0,0,1,.2-.27l-.06-.1a.12.12,0,0,1,0-.16.11.11,0,0,1,.15,0" transform="translate(395.33 537.33)"/><path class="cls-50" d="M17.57,93l1.81,2.93a.67.67,0,0,0-.37,0l-.07-.11a.11.11,0,1,0-.18.11l.06.1a.6.6,0,0,0-.2.27l-1.77-2.84c-.1-.18,0-.33.21-.45s.4-.17.51,0" transform="translate(395.33 537.33)"/><g class="cls-40"><g class="cls-55"><path class="cls-22" d="M17.23,93l3.47,5.56.12-.26-3.2-5.12c-.1-.17-.28-.25-.39-.18" transform="translate(395.33 537.33)"/></g></g><path class="cls-49" d="M16.85,97.26l.09.1a.68.68,0,0,1,.37,0l.62.69,1.62,1.83c.13.15,0,.27-.19.42a.38.38,0,0,1-.54,0l-1.45-1.65-.75-.84a.54.54,0,0,1,.15-.3l-.07-.09a.1.1,0,0,1,0-.16.1.1,0,0,1,.15,0" transform="translate(395.33 537.33)"/><path class="cls-50" d="M14.93,94.61l2.38,2.7a.68.68,0,0,0-.37,0l-.09-.1a.1.1,0,0,0-.15,0,.1.1,0,0,0,0,.16l.07.09a.54.54,0,0,0-.15.3l-2.16-2.45a4.15,4.15,0,0,1,.47-.73" transform="translate(395.33 537.33)"/><g class="cls-40"><g class="cls-56"><path class="cls-22" d="M14.84,94.93l4.57,5.17c.1-.08.17-.18-.29-.68L15,94.76c-.13-.15-.16.17-.16.17" transform="translate(395.33 537.33)"/></g></g><path class="cls-49" d="M62.73,72.11,62.67,72a.67.67,0,0,0,.18-.3l-.39-.56-1-1.47a.39.39,0,0,0-.52,0c-.19.13-.3.31-.21.44l1,1.47.48.68a.77.77,0,0,0,.31-.11l.05.07a.09.09,0,0,0,.13,0,.09.09,0,0,0,0-.13" transform="translate(395.33 537.33)"/><path class="cls-50" d="M63.62,72.84l-.77-1.11a.73.73,0,0,1-.18.3l.06.08a.09.09,0,0,1,0,.13.09.09,0,0,1-.13,0l-.05-.07a.77.77,0,0,1-.31.11l1.1,1.58a3.27,3.27,0,0,0,.32-1" transform="translate(395.33 537.33)"/><g class="cls-40"><g class="cls-57"><path class="cls-22" d="M63.52,73.18l-2.3-3.3a.26.26,0,0,1,.35.09l2,2.89Z" transform="translate(395.33 537.33)"/></g></g><path class="cls-49" d="M64.74,68.16h-.07a1,1,0,0,0,0-.33l-.48-.08-1.54-.27a6.24,6.24,0,0,0,.74,1l.61.12.58.1a.82.82,0,0,0,.11-.3h.06s.07,0,.08-.09,0-.11,0-.11" transform="translate(395.33 537.33)"/><path class="cls-50" d="M67.11,68.24l-2.49-.42a1,1,0,0,1,0,.33h.07s.05,0,0,.11,0,.1-.08.09h-.06a.82.82,0,0,1-.11.3l2.16.36a.55.55,0,0,0,.45-.32c.11-.2,0-.44,0-.45" transform="translate(395.33 537.33)"/><g class="cls-40"><g class="cls-58"><path class="cls-22" d="M67.11,68.53l-4.24-.73c0-.13.12-.22.22-.2l3.93.67c.11,0,.09.26.09.26" transform="translate(395.33 537.33)"/></g></g><path class="cls-49" d="M65,63l-.08,0a.7.7,0,0,0-.08-.33l-.59-.1-.93-.16a7.24,7.24,0,0,0-1,.67l1.77.3.71.13a.81.81,0,0,0,.13-.3h.07s.09,0,.1-.09S65,63,65,63" transform="translate(395.33 537.33)"/><path class="cls-50" d="M66.9,63l-2.11-.36a.7.7,0,0,1,.08.33L65,63s.07.06.06.11-.05.1-.1.09h-.07a.81.81,0,0,1-.13.3l2.39.37c.13,0,.08-.27,0-.43S67,63,66.9,63" transform="translate(395.33 537.33)"/><g class="cls-40"><g class="cls-59"><path class="cls-22" d="M67,63.26l-4-.69s.15-.22.27-.2l3.53.62a.24.24,0,0,1,.19.27" transform="translate(395.33 537.33)"/></g></g><path class="cls-38" d="M65.07,67l-.26,0a.77.77,0,0,0,.11-.3.83.83,0,0,0,0-.35l.27,0a.08.08,0,0,0,.09-.07h0l2.57.29a.38.38,0,0,1,.31.44c0,.23-.15.42-.33.4l-2.65-.3h0a.1.1,0,0,0-.07-.09" transform="translate(395.33 537.33)"/><path class="cls-39" d="M61.9,65.85l1.32.15,1.57.18h0l.4,0h0a.08.08,0,0,1-.09.07l-.27,0a.69.69,0,0,1,0,.35.63.63,0,0,1-.1.3l.26,0a.1.1,0,0,1,.07.09h0l-.37,0h-.07l-1.6-.19-.86-.1a4.21,4.21,0,0,1-.33-.88" transform="translate(395.33 537.33)"/><g class="cls-40"><g class="cls-60"><path class="cls-22" d="M62.24,66.17l5.75.67c0-.13-.11-.25-.27-.27L62.43,66c-.17,0-.19.22-.19.22" transform="translate(395.33 537.33)"/></g></g><path class="cls-38" d="M65.06,65.21l-.29,0a.69.69,0,0,0,.12-.29.64.64,0,0,0,0-.36l.32,0a.08.08,0,0,0,.1-.07h0l2.65.39a.4.4,0,0,1,.3.47c0,.23-.06.43-.26.4l-2.81-.43h0a.09.09,0,0,0-.08-.09" transform="translate(395.33 537.33)"/><path class="cls-39" d="M61.65,63.94l1.3.19,1.81.27h0l.47.07h0a.08.08,0,0,1-.1.07l-.32,0a.64.64,0,0,1,0,.36.69.69,0,0,1-.12.29l.29,0s.09.05.08.09h0l-.43-.07h-.08L62.79,65l-1.18-.17a1.25,1.25,0,0,1,0-.84" transform="translate(395.33 537.33)"/><g class="cls-40"><g class="cls-61"><path class="cls-22" d="M61.61,64.22l6.55,1c0-.13-.12-.26-.32-.29L61.77,64c-.2,0-.16.22-.16.22" transform="translate(395.33 537.33)"/></g></g><path class="cls-49" d="M31.72,91.37l.18.17a.74.74,0,0,1,.16-.27.86.86,0,0,1,.29-.21l-.19-.17a.08.08,0,0,1,0-.11s0,0,0,0l-1.78-1.62a.39.39,0,0,0-.51.11.38.38,0,0,0-.05.52l1.77,1.61h0a.09.09,0,0,1,.11,0" transform="translate(395.33 537.33)"/><path class="cls-50" d="M34.05,92.48l-.44-.41-1.13-1,0,0-.29-.26h0a.08.08,0,0,0,0,.11l.19.17a.86.86,0,0,0-.29.21.74.74,0,0,0-.16.27l-.18-.17a.09.09,0,0,0-.11,0h0l.27.24.05.05,1.15,1,.79.73c.12.12.19-1,.19-1" transform="translate(395.33 537.33)"/><g class="cls-40"><g class="cls-62"><path class="cls-22" d="M34,92.76l-3.8-3.44a.27.27,0,0,1,.38,0L34,92.47Z" transform="translate(395.33 537.33)"/></g></g><path class="cls-49" d="M20.6,94.75l0,.19a.92.92,0,0,1,.28-.14,1.1,1.1,0,0,1,.36,0l-.06-.2s0-.07.06-.08h0l-.48-1.68c0-.13-.24-.18-.47-.12S20,92.91,20,93l.48,1.68h0c.05,0,.09,0,.1,0" transform="translate(395.33 537.33)"/><path class="cls-50" d="M21.84,96.38,21.73,96l-.33-1.15v0l-.09-.29h0s-.07.05-.06.08l.06.2a1.1,1.1,0,0,0-.36,0,.92.92,0,0,0-.28.14l0-.19s-.05,0-.1,0h0l.08.27V95l.34,1.17.34,1.29a5.92,5.92,0,0,0,.57-1.12" transform="translate(395.33 537.33)"/><g class="cls-40"><g class="cls-63"><path class="cls-22" d="M21.66,96.74l-1.16-4a.22.22,0,0,1,.29.16l1,3.53Z" transform="translate(395.33 537.33)"/></g></g><path class="cls-49" d="M14.64,99.33l.14.13a.83.83,0,0,1,.18-.25.86.86,0,0,1,.29-.21l-.15-.14a.07.07,0,0,1,0-.1h0l-1.25-1.22c-.09-.1,0,1.14,0,1.14l.7.68h0s.08,0,.1,0" transform="translate(395.33 537.33)"/><path class="cls-50" d="M17.08,100.66l-.86-.84L15.36,99l0,0-.22-.21h0a.08.08,0,0,0,0,.1l.15.14a.86.86,0,0,0-.29.21.83.83,0,0,0-.18.25l-.14-.13s-.07,0-.1,0h0l.2.2,0,0,.87.85.85.83c.09.09.28,0,.44-.15s.24-.35.14-.45" transform="translate(395.33 537.33)"/><g class="cls-40"><g class="cls-64"><path class="cls-22" d="M14.09,97.83l2.87,2.8a.25.25,0,0,1,0,.34l-3-2.9s0-.34.09-.24" transform="translate(395.33 537.33)"/></g></g><path class="cls-38" d="M57.58,73.25l0,.3a.7.7,0,0,1,.66-.06l-.05-.32a.1.1,0,0,1,.07-.11h0l-.39-2.94a.39.39,0,0,0-.46-.32.41.41,0,0,0-.37.43l.39,2.94h0s.08,0,.09.08" transform="translate(395.33 537.33)"/><path class="cls-39" d="M58.82,76.79l-.19-1.35-.25-1.86v0l-.07-.48h0a.1.1,0,0,0-.07.11l.05.32a.76.76,0,0,0-.36-.06.79.79,0,0,0-.3.12l0-.3s0-.09-.09-.08h0l.06.45v.08l.26,1.89.14,1a4.44,4.44,0,0,0,.87.15" transform="translate(395.33 537.33)"/><g class="cls-40"><g class="cls-65"><path class="cls-22" d="M58.51,76.65l-.88-6.52c.13,0,.26.13.29.33l.85,6.25Z" transform="translate(395.33 537.33)"/></g></g><path class="cls-49" d="M35.25,86.44l.07,0a.87.87,0,0,1,.26-.22l.52.27,1.75.93c.11.06.09.27,0,.47s-.27.34-.38.28l-1.69-.91L35.14,87a.79.79,0,0,1,.08-.32l-.07,0a.12.12,0,0,1,0-.13s.08-.08.12,0" transform="translate(395.33 537.33)"/><path class="cls-50" d="M33.75,85.31l1.83.94a.87.87,0,0,0-.26.22l-.07,0a.09.09,0,0,0-.12,0,.12.12,0,0,0,0,.13l.07,0a.79.79,0,0,0-.08.32l-1.08-.57a2.72,2.72,0,0,1-.31-1.09" transform="translate(395.33 537.33)"/><g class="cls-40"><g class="cls-66"><path class="cls-22" d="M34.15,85.8l3.45,1.8a.22.22,0,0,0-.1-.31l-3.38-1.77Z" transform="translate(395.33 537.33)"/></g></g><path class="cls-49" d="M60.33,73l0-.12a.62.62,0,0,0,.23-.3l-.29-.9-.66-2a.37.37,0,0,0-.5-.2c-.22.08-.42.07-.36.27l.69,2.12.36,1.1a.56.56,0,0,0,.34,0l0,.11a.11.11,0,0,0,.14.08s.08-.08.06-.15" transform="translate(395.33 537.33)"/><path class="cls-50" d="M61.6,75.92l-1.08-3.33a.62.62,0,0,1-.23.3l0,.12c0,.07,0,.14-.06.15a.11.11,0,0,1-.14-.08l0-.11a.56.56,0,0,1-.34,0l1.11,3.43a1.92,1.92,0,0,0,.73-.46" transform="translate(395.33 537.33)"/><g class="cls-40"><g class="cls-67"><path class="cls-22" d="M61.35,76l-2.13-6.58c.12,0,.27.09.33.28l2,6c.06.19-.16.28-.16.28" transform="translate(395.33 537.33)"/></g></g><path class="cls-68" d="M77.66,57.32c14.4-3.9,25.89-20,27.35-34.3.7-6.84-.08-6.21-5.12-3.18-4.36,2.62-7.09,4-8.1,11.21a29.29,29.29,0,0,1-3.46,11C84.23,48.78,80,52.77,74.9,55.13c-9.78,4.52-9.28,5.45,2.76,2.19" transform="translate(395.33 537.33)"/><path class="cls-69" d="M75.88,31.56c2.23,6.27,1.39,14.55-3.29,19.61-3.41,3.7-6.59,5,1.13,1.41,4.6-2.12,8.43-5.78,12.23-12a25.66,25.66,0,0,0,3-9.08c1.37-8.64-4.57-5.26-11.22-4.66-6.37.57-3.89-1.08-1.81,4.74" transform="translate(395.33 537.33)"/><path class="cls-70" d="M83.25,6a47.27,47.27,0,0,1-8.57,13.71c-3.27,3.75-4.34,4.06,1.64,4.63a26.07,26.07,0,0,0,8.37-.63c6.71-1.55,5.18-10.39,2.76-17C85.16.38,85.55.36,83.25,6" transform="translate(395.33 537.33)"/><path class="cls-71" d="M97.78,11.64A57.15,57.15,0,0,1,92,7C89,4.11,89.38,3.61,90.37,7.8c.54,2.27,1,4.84,1.34,7,.55,3.67.76,6.24,4,4.4,1.08-.61,2.15-1.26,3.19-1.94,5-3.29,3.13-2.59-1.14-5.64" transform="translate(395.33 537.33)"/><path class="cls-72" d="M194.92,88.82a16.77,16.77,0,0,1-4.45-11.93c-1.76.31-2,3.62-1.62,5-.68-.41-1-1.21-1.45-1.75-1.36,1.87-.23,4.41.13,6.33a5.82,5.82,0,0,1-1.75-1.64c0,5.32,2.1,9.79,7.66,11.23Z" transform="translate(395.33 537.33)"/><path class="cls-72" d="M186.81,99.73a34.21,34.21,0,0,1-6.45-.3,12.71,12.71,0,0,1-2.62-.59,18.2,18.2,0,0,0-2-1c-2.67-.28,2.38,3,2.63,3.51a30.78,30.78,0,0,1-3.63.34c1.05,1.19,2.72,2.62,4.37,2.52-.43.6-2.87,1.81-2.38,2.52s3.16-.13,3.67-.32c-.5,1.22-1.19,2.33-1.1,3.65,1.53.77,3.67-1.2,4.84-2.07,1.56-1.16,4-1.73,5.17-2.33Z" transform="translate(395.33 537.33)"/><path class="cls-73" d="M206.73,90.42c.49-1.33,2.12-1.81,2.47-3.35a21.42,21.42,0,0,1-4.7.86l2.81,5.16a6.47,6.47,0,0,0,2.76-2.65,6.4,6.4,0,0,1-3.34,0" transform="translate(395.33 537.33)"/><path class="cls-74" d="M206.42,101.17c1.7-3.2,2.39-5.85,1.62-9.41-1.54-7-8.82-7.63-14-4.29-4.43,2.84-3.89,9.57-8.51,12.28-.95,3.49.87,5.48,4,6.76,6,2.47,13.75.63,16.92-5.34" transform="translate(395.33 537.33)"/><path class="cls-72" d="M209.14,97.66a6.84,6.84,0,0,1-4.33-.67c-.69-.35-1.26-.84-1.92-1.23-.36-.21-.45-.11-.81,0-.19.07-.6,0-.74.11s-.14.77-.08,1c-.69-.21-.92.68-.89,1.23-.8-.36-.68.79-.7,1.29-.68-.2-.52.35-.36.85a.6.6,0,0,0-.44,0c-.78.52.51,1.55.87,1.83a10.32,10.32,0,0,0,2.26,1.29,16.12,16.12,0,0,0,5.56,1.25c3.53.19,7.74-.56,10.19-3.35a14,14,0,0,0-3.3.39c1.17,0,3.35-3.44,3.24-4.64-.7,1.19-1.88,1-2.81,1.7a5.26,5.26,0,0,0,.86-4.53c-2.22,1.08-3.83,2.87-6.6,3.41" transform="translate(395.33 537.33)"/><path class="cls-22" d="M202,87.15a1.53,1.53,0,1,0,1.44,1.63A1.53,1.53,0,0,0,202,87.15" transform="translate(395.33 537.33)"/><path class="cls-75" d="M202,87.15a1.53,1.53,0,1,0,1.44,1.63A1.53,1.53,0,0,0,202,87.15Z" transform="translate(395.33 537.33)"/><path class="cls-76" d="M202.5,89.49a1,1,0,1,1-1.35-1.35,1,1,0,0,1,.46-.25,1,1,0,0,1,.89,1.6" transform="translate(395.33 537.33)"/><path class="cls-76" d="M201.21,88.2a.87.87,0,0,1,1.46.43.88.88,0,0,1-.23.81.94.94,0,0,1-.43.23.87.87,0,0,1-.8-1.47m-.12-.11h0a1,1,0,0,0-.28,1,1,1,0,0,0,.46.64,1,1,0,0,0,.78.14,1,1,0,0,0,.5-.28,1,1,0,0,0,.28-1,1,1,0,0,0-.45-.65,1.07,1.07,0,0,0-.78-.13,1,1,0,0,0-.51.28" transform="translate(395.33 537.33)"/><path class="cls-22" d="M202.61,87.77a.38.38,0,0,1-.29.46.38.38,0,0,1-.46-.29.4.4,0,0,1,.29-.46.38.38,0,0,1,.46.29" transform="translate(395.33 537.33)"/><rect class="cls-1" width="612" height="792"/></g></g></svg>