<svg xmlns="http://www.w3.org/2000/svg" xmlns:xlink="http://www.w3.org/1999/xlink" viewBox="0 0 207.53 211.01"><defs><style>.cls-1,.cls-18,.cls-20,.cls-23,.cls-26,.cls-33,.cls-40{fill:none;}.cls-2{isolation:isolate;}.cls-3{fill:#3b8840;}.cls-4{fill:#8d4e23;}.cls-5{fill:#f68e6e;}.cls-6{mix-blend-mode:multiply;}.cls-7{clip-path:url(#clip-path);}.cls-8{fill:#a0b1b8;}.cls-9{fill:#8a604f;}.cls-10{fill:#f9a44e;}.cls-11{fill:#2cace2;}.cls-12{fill:#0e86c1;}.cls-13{fill:#6e483a;}.cls-14{fill:#2e2426;}.cls-15{fill:#fab188;}.cls-16{fill:#bd202e;}.cls-17{fill:#fff;}.cls-18,.cls-33{stroke:#fff;}.cls-18,.cls-20,.cls-23,.cls-33,.cls-40{stroke-miterlimit:10;}.cls-18{stroke-width:0.17px;}.cls-19{fill:#432c28;}.cls-20{stroke:#8f3b26;stroke-width:0.56px;}.cls-20,.cls-26{stroke-linecap:round;}.cls-21{fill:#8f2b31;}.cls-22{fill:#d85566;}.cls-23,.cls-26{stroke:#fab188;}.cls-23{stroke-width:0.15px;}.cls-24{fill:#cc3736;}.cls-25{fill:#bc7e5d;}.cls-26{stroke-linejoin:round;stroke-width:6.23px;}.cls-27{fill:#1998d5;}.cls-28{fill:#6c4639;}.cls-29{fill:#f4e8e4;}.cls-30{fill:#f38aab;}.cls-31{fill:#ffcc5b;}.cls-32{fill:#f7acbc;}.cls-33{stroke-width:0.19px;}.cls-34{fill:#341a14;}.cls-35{fill:#412312;}.cls-36{fill:#603a17;}.cls-37{fill:#b9d871;}.cls-38{fill:#94b359;}.cls-39{fill:#f79421;}.cls-40{stroke:#f15b27;stroke-width:0.14px;}</style><clipPath id="clip-path" transform="translate(-9.42 -3.22)"><rect class="cls-1" x="152.89" y="203.65" width="64.06" height="9.63"/></clipPath></defs><title>illustration-boy-balloon-pinkbird</title><g class="cls-2"><g id="boy"><path class="cls-3" d="M122.23,193.51a9.7,9.7,0,0,1,2.86-.36,7,7,0,0,1,5.94-1.88c-.06-.45-.1-.89-.13-1.35a7.64,7.64,0,0,1,0-1.27c-.63-3.46-.59-7.19,1.38-10s5.94-4.2,8.8-2.43c0-.07,0-.14,0-.21-.2-1.35-.39-2.69-.55-4-.8-7-1.8-17.07,4.5-22.52a4.7,4.7,0,0,1,5.5-.7,9,9,0,0,1,3.25,3.33c.17.2.33.41.48.62,2.57,3.51,4,7.68,5.09,11.91a124.63,124.63,0,0,1,3.1,12.82,44.51,44.51,0,0,1,.5,4.89c.94-2.83,2.68-5.29,5.81-6.28A9,9,0,0,1,176,177.4q0-1.07,0-2.13c.09-2.67.55-5.86,2.37-8.07,1.37-1.65,4.11-2.63,5.6-.71a15.6,15.6,0,0,1,1.16,1.75,5.62,5.62,0,0,1,6.7.45c1.85,1.68,2.33,4.69,2.66,7.1a47.85,47.85,0,0,1,.35,9.05,9.27,9.27,0,0,1,3.45-1.85,5.23,5.23,0,0,1,1.72-.18,5.32,5.32,0,0,1,5,1,6.24,6.24,0,0,1,3.68,2.54c2.75,3.94.9,9.61-1.54,13.55a5.48,5.48,0,0,1-5.5,2.45,6.28,6.28,0,0,1-1.67.05,5.19,5.19,0,0,1-5.16,0c-1.65-1-2.14-2.55-2.26-4.4a2.93,2.93,0,0,1-3,1.45,3.42,3.42,0,0,1-3.91-2.71,3.39,3.39,0,0,1-2.58,0,3.67,3.67,0,0,1-1.41.61,12.64,12.64,0,0,1-5,6.18,4,4,0,0,1-5.61-1.5c-.05-.09-.09-.18-.13-.27a5.06,5.06,0,0,1-.87,0A4.63,4.63,0,0,1,168,202.9a4,4,0,0,1-5-2.92c-.33-1.3-2.83,3.5-3,2.12-.4,2.15,1.19-1.88,0,0a9.06,9.06,0,0,1-1.62,1.88A4.43,4.43,0,0,1,151,201.6a7.78,7.78,0,0,1-1.18-.51,6.62,6.62,0,0,1-2-1.78,9.59,9.59,0,0,1-1.79,3.6c-1.74,2.07-4.32,3.18-6.71,1.73a4.48,4.48,0,0,1-1.48-1.57,4.11,4.11,0,0,1-.94-.79l0,0-.23-.06c-.19.19-.4.38-.62.56-.17,1.17-.4,2.27-.63,3.19-1,4.16-6.79,4.47-8.73,1.48-1.37,1.05-2.76.58-4.1-1-2.56-3-2.12-4.28-1.82-6.52C118.87,197.36,120.83,194.14,122.23,193.51Z" transform="translate(-9.42 -3.22)"/><path class="cls-4" d="M155.51,196c.86,5.63,1.62,11.28,2,17,.08,1.25-1.85,1.24-1.92,0-.34-5.51-1.06-11-1.9-16.45-.18-1.21,1.67-1.74,1.86-.51" transform="translate(-9.42 -3.22)"/><path class="cls-4" d="M143.18,205.34c.24,1.63.73,3.21,1.07,4.82.25,1.21-1.61,1.73-1.86.51-.34-1.61-.83-3.19-1.07-4.82-.18-1.21,1.68-1.74,1.86-.51" transform="translate(-9.42 -3.22)"/><path class="cls-5" d="M154,160.64a4.28,4.28,0,1,0,4-4.51,4.28,4.28,0,0,0-4,4.51" transform="translate(-9.42 -3.22)"/><g class="cls-6"><g class="cls-7"><path class="cls-8" d="M152.89,212.62c.07,1.37,8.22.29,16.42-.51,7.83-.77,16.42-.12,23.91-.3,18.84-.47,25-2.74,23.51-5.41-1.21-2.12-12.85-3.34-29.94-2.47s-34,6.25-33.9,8.69" transform="translate(-9.42 -3.22)"/></g></g><path class="cls-5" d="M158.47,162.7c1-.06,1.44-.85,2.07-1.71l9.92-13.52c1.08-1.47,2.14-3.43,1.88-5.23l-1.56-10.89a3.4,3.4,0,1,0-6.74,1l1.56,10.85a2.16,2.16,0,0,1-.16.63l-10.88,14.75c-1.11,1.52.85,2.88,2.37,4,.66.48.78.21,1.54.17" transform="translate(-9.42 -3.22)"/><path class="cls-9" d="M200.87,172.5c3.21-2.1,4.15-2.63,5.52-1.86,2,1.12,7.12,8.75,6.51,12.53-.27,1.69-1.23,1.19-2.2,1.14-1.2-.06-2.5,0-3.46-1.14-1.24-1.44-4.71-4.93-5.09-5.36s-1.28-5.31-1.28-5.31" transform="translate(-9.42 -3.22)"/><path class="cls-9" d="M167.46,202.41c.44,1.41,2.53,5.12,1.63,6.56-.43.69-4,2.46-9.57,3.81-2.21.54-3.83.88-4.84.65-1.46-.34-2.23-1.43-1.43-2.56.93-1.29,2.19-1.75,5-3.41.82-.48,2.24-1.38,3-1.85,3.48-2.1.72-2.93-.21-3.88s6.42.68,6.42.68" transform="translate(-9.42 -3.22)"/><path class="cls-10" d="M167.55,203.93c.26.7.94,1.76-.94,2.48s-3.05.59-3.57-.61,4.51-1.87,4.51-1.87" transform="translate(-9.42 -3.22)"/><polygon class="cls-11" points="172.28 161.28 172.94 168.4 171.37 169.75 160.46 168.81 157.79 161.28 172.28 161.28"/><path class="cls-11" d="M190.57,186.43a61.38,61.38,0,0,0,14.8-6.12c1.54-1,1.22-3.53-.16-5.69s-3.14-3.17-4.85-2.12c-6.57,4-9.23,4.55-10.11,4.53-2-3.54-2.67-10.74-3-14.49-.26-2.68-2.29-5.08-3-7.77a4.64,4.64,0,0,0-9,2.31c.67,2.6-.14,5.62.46,8.19,2.86,12.13,5.7,18.58,9.6,20.74,1.5.83,3.51.67,5.26.42" transform="translate(-9.42 -3.22)"/><path class="cls-11" d="M164.43,205.92c3.08-1,4-1.79,3.18-4.22-2.72-8-3.87-16.83-3.62-18.06s.63-2.39,4.76-8c2.6-3.53,5.62-7,7.43-9.09a9.74,9.74,0,0,0,1.38-2.19,4.64,4.64,0,0,0-7.51-5.46c-.16.21-2-.12-2.54.49-8.25,9.8-12.95,18.78-13.2,23.47-.35,6.23,1.4,12.67,4.51,21.83.66,1.93,3.05,2,5.61,1.23" transform="translate(-9.42 -3.22)"/><path class="cls-12" d="M165.21,162.22l6.38-2.41,5.56.54,8,1.87,2.16,1.08c.19,1.95.47,4.56.94,7.1-.77-1.85.45-2.47-9.22-2.62s-15.47-1.86-15.81-2.9h0c.64-.87,1.31-1.76,2-2.65" transform="translate(-9.42 -3.22)"/><polygon class="cls-13" points="170.38 170.17 170.38 170.17 170.38 170.17 170.38 170.17"/><path class="cls-14" d="M178.13,102.11a2.63,2.63,0,1,0,2.63-2.63,2.62,2.62,0,0,0-2.63,2.63" transform="translate(-9.42 -3.22)"/><path class="cls-14" d="M177.14,97.47a2.63,2.63,0,1,0,2.63-2.63,2.62,2.62,0,0,0-2.63,2.63" transform="translate(-9.42 -3.22)"/><path class="cls-14" d="M174.93,93.71a2.63,2.63,0,1,0,2.63-2.62,2.63,2.63,0,0,0-2.63,2.62" transform="translate(-9.42 -3.22)"/><path class="cls-14" d="M171.75,92.15a2.63,2.63,0,1,0,2.62-2.63,2.62,2.62,0,0,0-2.62,2.63" transform="translate(-9.42 -3.22)"/><path class="cls-14" d="M168.23,90.19a2.63,2.63,0,1,0,2.63-2.63,2.62,2.62,0,0,0-2.63,2.63" transform="translate(-9.42 -3.22)"/><path class="cls-14" d="M164,90.44a2.63,2.63,0,1,0,2.63-2.62A2.63,2.63,0,0,0,164,90.44" transform="translate(-9.42 -3.22)"/><path class="cls-14" d="M159.43,90.51a2.63,2.63,0,1,0,2.62-2.63,2.62,2.62,0,0,0-2.62,2.63" transform="translate(-9.42 -3.22)"/><path class="cls-14" d="M155.49,92.15a2.63,2.63,0,1,0,2.62-2.63,2.62,2.62,0,0,0-2.62,2.63" transform="translate(-9.42 -3.22)"/><path class="cls-14" d="M152.63,94.77a2.63,2.63,0,1,0,2.62-2.62,2.62,2.62,0,0,0-2.62,2.62" transform="translate(-9.42 -3.22)"/><path class="cls-14" d="M151.46,97.68a2.63,2.63,0,1,0,2.63-2.63,2.62,2.62,0,0,0-2.63,2.63" transform="translate(-9.42 -3.22)"/><path class="cls-14" d="M150.67,101.39a2.63,2.63,0,1,0,2.62-2.63,2.62,2.62,0,0,0-2.62,2.63" transform="translate(-9.42 -3.22)"/><path class="cls-14" d="M150.92,105.59a2.63,2.63,0,1,0,2.63-2.63,2.63,2.63,0,0,0-2.63,2.63" transform="translate(-9.42 -3.22)"/><path class="cls-14" d="M151.46,109.59a2.63,2.63,0,1,0,2.63-2.62,2.63,2.63,0,0,0-2.63,2.62" transform="translate(-9.42 -3.22)"/><path class="cls-14" d="M178.06,106.36a2.9,2.9,0,1,0,2.9-2.89,2.9,2.9,0,0,0-2.9,2.89" transform="translate(-9.42 -3.22)"/><path class="cls-14" d="M178.33,110.51a2.63,2.63,0,1,0,2.63-2.63,2.62,2.62,0,0,0-2.63,2.63" transform="translate(-9.42 -3.22)"/><path class="cls-14" d="M177.14,114.14a2.63,2.63,0,1,0,2.63-2.63,2.62,2.62,0,0,0-2.63,2.63" transform="translate(-9.42 -3.22)"/><path class="cls-14" d="M152.13,109.93c.53,7.57,8.17,13.32,15.72,12.86s13.8-4.38,13.67-12l-.24-7.44c-.13-7.58-7.58-11.3-15.15-10.82l-1.45,2.59c-7.57.48-13.36,2.53-12.84,10.1Z" transform="translate(-9.42 -3.22)"/><path class="cls-15" d="M177.61,112.6a2.55,2.55,0,1,0,5.1-.13l-.05-2.16a2.55,2.55,0,0,0-5.1.12Z" transform="translate(-9.42 -3.22)"/><path class="cls-16" d="M165.07,126.28h10c2.36,0,7.61.34,8.77,5.52,2.5,11.17,5.15,33.08,5.15,33.08s-.25,1.41-11.86,1.41c-13.7,0-14-1.41-14-1.41l-5-26.75c-1.16-4.57-.88-11.85,6.85-11.85" transform="translate(-9.42 -3.22)"/><path class="cls-15" d="M165.37,125.64c0,2.06.37,3.55,2.54,3.55h.74c2.17,0,5.35-1.49,5.35-3.55v-2.88a3.86,3.86,0,0,0-3.94-3.75h-.74a3.87,3.87,0,0,0-3.95,3.75Z" transform="translate(-9.42 -3.22)"/><path class="cls-5" d="M174,123.67c0,1.23-3.13,2.74-4.72,2.85s-3.91.18-3.91-1.23v-7.15l8.63-.61Z" transform="translate(-9.42 -3.22)"/><path class="cls-15" d="M154.2,114.81c.71,6.83,5,10.58,11.81,10.15s14.08-6.92,13.93-13.79V107c-.15-6.87-5.6-10.74-12.46-10.31l-6.18.39c-6.86.43-8.43,4.75-7.72,11.58Z" transform="translate(-9.42 -3.22)"/><path class="cls-17" d="M170.6,108.89a1.82,1.82,0,1,1-1.93-1.71,1.83,1.83,0,0,1,1.93,1.71" transform="translate(-9.42 -3.22)"/><path class="cls-18" d="M170.6,108.89a1.82,1.82,0,1,1-1.93-1.71A1.83,1.83,0,0,1,170.6,108.89Z" transform="translate(-9.42 -3.22)"/><path class="cls-19" d="M169.31,109.56a.88.88,0,1,0,0-1.75.85.85,0,0,0-.47.13.89.89,0,0,0-.27,1.22.86.86,0,0,0,.74.4" transform="translate(-9.42 -3.22)"/><path class="cls-19" d="M169.31,107.88a.78.78,0,0,1,.67.38.8.8,0,0,1-.67,1.23.8.8,0,0,1-.43-1.48.75.75,0,0,1,.43-.13m0-.15a1,1,0,0,0-.81,1.47,1,1,0,0,0,.81.44,1,1,0,0,0,.51-.15,1,1,0,0,0,.42-.6,1,1,0,0,0-.13-.72.94.94,0,0,0-.8-.44h0" transform="translate(-9.42 -3.22)"/><path class="cls-17" d="M168.11,108.43a.36.36,0,1,0,.6-.38.35.35,0,0,0-.49-.11.35.35,0,0,0-.11.49" transform="translate(-9.42 -3.22)"/><path class="cls-14" d="M172.85,98.37c-2.07.13-10.92.58-14.81.93-3,.27-4.49,1.39-4.57,5.14a24.37,24.37,0,0,1-1.24,6.39s-1.53-7.92.63-14.14c1.38-4,6.43-5.9,10.68-6.16,12.28-.77,18.38,3.9,17.68,13.8-.12,1.8-8.37-6-8.37-6" transform="translate(-9.42 -3.22)"/><path class="cls-14" d="M167.33,97.37c.07,1-1.09,1.38,1.18,1.24s6.09.74,6.41,5.82c.13,2.12.26,4.2.32,5.14s2,1.26,2.35-.13a2.25,2.25,0,0,1,2.46-1.62c1,0-.17-7.75-.72-8.37a33.34,33.34,0,0,0-3.84-3.77c-.74-.41-6.25-1.86-6.25-1.86s-1.86-.46-2.44.5.53,3.05.53,3.05" transform="translate(-9.42 -3.22)"/><path class="cls-20" d="M167.78,105.32a2.86,2.86,0,0,1,3,.61" transform="translate(-9.42 -3.22)"/><path class="cls-20" d="M155.41,107.15a2.57,2.57,0,0,1,2.9-1.05" transform="translate(-9.42 -3.22)"/><path class="cls-15" d="M157.5,113.69a2.55,2.55,0,0,1-5.05.73l-.31-2.15a2.55,2.55,0,1,1,5.05-.72Z" transform="translate(-9.42 -3.22)"/><path class="cls-17" d="M159.49,109.59a1.83,1.83,0,1,1-1.94-1.71,1.84,1.84,0,0,1,1.94,1.71" transform="translate(-9.42 -3.22)"/><path class="cls-18" d="M159.49,109.59a1.83,1.83,0,1,1-1.94-1.71A1.84,1.84,0,0,1,159.49,109.59Z" transform="translate(-9.42 -3.22)"/><path class="cls-21" d="M169.55,115.72s-1.22,4.76-5.79,5.08a4.59,4.59,0,0,1-5.3-4.3l11.09-.78" transform="translate(-9.42 -3.22)"/><path class="cls-5" d="M162.36,114.13c-1.24.08-2.33-.55-2.33-1.27,0-.26.25-.59.75-.4a4,4,0,0,0,1.48.14,4.33,4.33,0,0,0,1.34-.33c.77-.29,1,0,1.07.27.1.71-1.07,1.5-2.31,1.59" transform="translate(-9.42 -3.22)"/><path class="cls-22" d="M161.06,120.37c1.17-1.65,4.43-1.81,7-1.8a5.94,5.94,0,0,1-4.28,2.23,5.65,5.65,0,0,1-2.72-.4l0,0" transform="translate(-9.42 -3.22)"/><path class="cls-23" d="M169.55,115.72s-1.22,4.76-5.79,5.08a4.59,4.59,0,0,1-5.3-4.3l11.09-.78" transform="translate(-9.42 -3.22)"/><path class="cls-5" d="M179.11,110.94a1,1,0,0,1,1-1h.1a1.33,1.33,0,0,1,.3-.06,1,1,0,0,1,1,1l0,1.31a1,1,0,0,1-1,1h-.1a1.33,1.33,0,0,1-.3.06,1,1,0,0,1-1-1Z" transform="translate(-9.42 -3.22)"/><path class="cls-24" d="M160.06,148l7.15-1.7,7.89-7,6.46-2.36c-1.77,3.4-7.34,14.54-9.71,17.43s-4.73,3.05-10.21,2.1Z" transform="translate(-9.42 -3.22)"/><path class="cls-25" d="M155.86,208.82a4.36,4.36,0,0,1,3.4.22c1.6.85,1.87,3.19,1.55,3.28l-2.23.68a10.22,10.22,0,0,1-3.9.43c-1.46-.34-2.23-1.43-1.43-2.56a7.39,7.39,0,0,1,2.61-2.05" transform="translate(-9.42 -3.22)"/><path class="cls-26" d="M178.33,134.89l-8.51,11.66a5.25,5.25,0,0,1-5,1.86l-12.69-3" transform="translate(-9.42 -3.22)"/><path class="cls-15" d="M170.61,115.48a27.89,27.89,0,0,1-7.3,1.74c-3.95.34-4.85-.72-4.85-.72l.12-1.41Z" transform="translate(-9.42 -3.22)"/><path class="cls-19" d="M158.11,110.24a.86.86,0,0,0,.47-.14.87.87,0,0,0,.27-1.21.85.85,0,0,0-.74-.41.89.89,0,0,0-.47.14.87.87,0,0,0-.27,1.21.89.89,0,0,0,.74.41" transform="translate(-9.42 -3.22)"/><path class="cls-19" d="M158.11,108.56a.8.8,0,0,1,.43,1.48.8.8,0,1,1-.86-1.36.85.85,0,0,1,.43-.12m0-.16a1,1,0,0,0-.51.15,1,1,0,0,0-.42.6,1,1,0,0,0,.13.72.95.95,0,0,0,1.31.29.9.9,0,0,0,.42-.59,1,1,0,0,0-.93-1.17h0" transform="translate(-9.42 -3.22)"/><path class="cls-17" d="M156.92,109.19a.35.35,0,0,0,.49.11.36.36,0,1,0-.49-.11" transform="translate(-9.42 -3.22)"/><path class="cls-14" d="M166.15,97.68a2.35,2.35,0,1,0,2.35-2.35,2.35,2.35,0,0,0-2.35,2.35" transform="translate(-9.42 -3.22)"/><path class="cls-14" d="M161.91,98.69a2.49,2.49,0,1,0,2.49-2.49,2.49,2.49,0,0,0-2.49,2.49" transform="translate(-9.42 -3.22)"/><path class="cls-14" d="M157.68,99A2.36,2.36,0,1,0,160,96.69,2.35,2.35,0,0,0,157.68,99" transform="translate(-9.42 -3.22)"/><path class="cls-14" d="M154.12,98.88a2.16,2.16,0,1,0,2.16-2.17,2.16,2.16,0,0,0-2.16,2.17" transform="translate(-9.42 -3.22)"/><path class="cls-27" d="M168.75,175.64c-.6.81-1.11,1.53-1.57,2.17,2.25-3.44.92-10,.92-10,1.21,2.63,5,4.53,10.12,5l-6.78-.59c-.9,1.13-1.82,2.3-2.69,3.48" transform="translate(-9.42 -3.22)"/><path class="cls-28" d="M154.7,213.14a16.77,16.77,0,0,0,4.87-.73c5.58-1.36,9.19-3.14,9.62-3.83.1-.17.1-.11.1-.11s.39.94.21,1.22c-.44.68-4,2.47-9.61,3.82a18.19,18.19,0,0,1-5,.7c-1.11-.1-1.74-.53-1.84-2,.22.61.81.8,1.69.92" transform="translate(-9.42 -3.22)"/><path class="cls-25" d="M208.26,182.46c2.5,0,3.68-1.56,3.43-2.26l1.06.74a5.83,5.83,0,0,1,.15,2.23c-.61,3.78-3.92,2-5.66,0-.29-.32-.68-.76-1.13-1.23.2.12.51.53,2.15.52" transform="translate(-9.42 -3.22)"/><path class="cls-29" d="M206,181.82" transform="translate(-9.42 -3.22)"/><path class="cls-27" d="M157.78,201.52c.65,1.93,3.05,2,5.6,1.23,3.09-1,4.07-1.8,3.24-4.22l1,3.17c.83,2.43-.1,3.24-3.18,4.22-2.56.81-5,.7-5.61-1.23Z" transform="translate(-9.42 -3.22)"/><path class="cls-27" d="M203.21,181.62c1.53-1,1.21-3.53-.17-5.69s-3.14-3.17-4.85-2.13l2.17-1.3c1.71-1.05,3.46,0,4.84,2.12s1.71,4.72.18,5.69" transform="translate(-9.42 -3.22)"/><path class="cls-16" d="M177.65,142.07c1-1.41-3.94-7.17-6.32-3.87,0,0,4.28-7.23,4.28-7.54s2.08-1.18,2.35-1.18,3.6.93,3.6.93l1.43,2-.59,4.33c-.34.51-4.75,5.32-4.75,5.32" transform="translate(-9.42 -3.22)"/><path class="cls-28" d="M212.4,183.41c.1-3.45-4.72-11.38-6.7-12.5a2.22,2.22,0,0,0-2-.18c1.19-.61,1.76-.76,2.62-.28,2,1.12,6.91,8.76,7,12.59a2.18,2.18,0,0,1-1.93,2.31c.73-.25,1-.64,1-1.94" transform="translate(-9.42 -3.22)"/><path class="cls-15" d="M153.41,142c-.86-.48-2.25-2-3.72-1.1-1.32.83-2.59,6.44-1.18,7.11a18.31,18.31,0,0,0,2.34.78c5.65,1.31,2.56-6.79,2.56-6.79" transform="translate(-9.42 -3.22)"/><path class="cls-15" d="M156,142.59a22.43,22.43,0,0,0-1.79-2.44,5.85,5.85,0,0,0-3.05-1.08,1.21,1.21,0,0,0,.27,2.05c2.38,1.24,2.77,3.46,3,3.33s1.6-1.86,1.6-1.86" transform="translate(-9.42 -3.22)"/><path class="cls-15" d="M151.9,141c-.76-.21-2.17-1.2-2.91-.33,0,0-1.23,1.29.24,2.07s2,.15,2.09,0,.58-1.74.58-1.74" transform="translate(-9.42 -3.22)"/><path class="cls-15" d="M150.91,142.37c-.76-.21-2.17-1.2-2.91-.33,0,0-1.24,1.29.23,2.07s2,.15,2.1,0,.58-1.74.58-1.74" transform="translate(-9.42 -3.22)"/><path class="cls-15" d="M150.52,144.06c-.77-.14-2.61-1.1-3-.12,0,0-.84,1.59.51,2.1,1.56.59,2,0,2.09-.19s.41-1.79.41-1.79" transform="translate(-9.42 -3.22)"/><path class="cls-15" d="M150.52,145.88c-.77-.14-2.5-1.07-3.15-.14a1.54,1.54,0,0,0,.77,2.17c1.54.63,1.87-.08,2-.25s.41-1.78.41-1.78" transform="translate(-9.42 -3.22)"/><path class="cls-30" d="M24.89,124.94a20,20,0,0,0-.07-14.65c1.95-.32,3.46,3.21,3.63,4.82a7.31,7.31,0,0,0,.81-2.44c2.15,1.53,2,4.72,2.35,6.94a6.57,6.57,0,0,0,1.17-2.43c2.09,5.79,1.66,11.45-3.54,15.09Z" transform="translate(-9.42 -3.22)"/><path class="cls-30" d="M40.27,136.55a35.47,35.47,0,0,0,7,1,14.64,14.64,0,0,0,3-.12,17.26,17.26,0,0,1,2.38-.75c2.94.23-3.24,3-3.62,3.43a34.3,34.3,0,0,0,3.85,1.15c-1.39,1.13-3.51,2.41-5.28,1.95.34.77,2.71,2.65,2,3.36s-3.39-.81-3.9-1.13c.27,1.5.77,2.9.39,4.37-1.82.57-3.7-2.13-4.77-3.35-1.43-1.65-4-2.82-5.07-3.74Z" transform="translate(-9.42 -3.22)"/><path class="cls-31" d="M14.62,127.54a22.66,22.66,0,0,1-5.2.8c1,1.55,2.85,1.47,3.87,2.73a6.66,6.66,0,0,1-3.45,1.27,7.19,7.19,0,0,0,3.9,1.86Z" transform="translate(-9.42 -3.22)"/><path class="cls-32" d="M17.81,142.68c-3-2.85-4.76-5.49-5.35-9.66-1.15-8.2,6.14-11.58,12.83-9.88,5.69,1.45,7.77,9,13.62,10.22,2.34,3.45,1.24,6.29-1.49,8.85-5.25,4.92-14,5.79-19.61.47" transform="translate(-9.42 -3.22)"/><path class="cls-30" d="M31.74,130.7a6.86,6.86,0,0,1-4.7,1.14c-.86-.09-1.67-.39-2.52-.53-.47-.08-.51.07-.82.38-.15.16-.59.28-.68.44-.19.33.23.93.41,1.17-.81.07-.61,1.16-.31,1.76-1-.05-.3,1.18-.08,1.75-.79.07-.36.62,0,1.11a.59.59,0,0,0-.43.22c-.53.92,1.26,1.51,1.77,1.66a11.54,11.54,0,0,0,2.9.46,16.56,16.56,0,0,0,6.21-1c3.66-1.33,7.54-4,8.68-8.18a13.05,13.05,0,0,0-3.15,1.87c1.21-.46,1.72-5.3,1-6.6-.13,1.64-1.43,1.92-2,3.12A6.9,6.9,0,0,0,36.75,124c-1.71,2.17-2.48,4.87-5,6.69" transform="translate(-9.42 -3.22)"/><path class="cls-17" d="M16.7,127a1.46,1.46,0,0,0,1.37,1.55A1.47,1.47,0,1,0,16.7,127" transform="translate(-9.42 -3.22)"/><path class="cls-33" d="M16.7,127a1.46,1.46,0,0,0,1.37,1.55A1.47,1.47,0,1,0,16.7,127Z" transform="translate(-9.42 -3.22)"/><path class="cls-34" d="M18.94,126.51a1,1,0,0,1,.25.45.91.91,0,0,1-.7,1.09.9.9,0,0,1-.84-.24.92.92,0,0,1,1.29-1.3" transform="translate(-9.42 -3.22)"/><path class="cls-34" d="M17.7,127.75a.78.78,0,0,1-.22-.41.84.84,0,0,1,.63-1,.83.83,0,0,1,.77.23.88.88,0,0,1,.23.41.84.84,0,0,1-.63,1,.85.85,0,0,1-.78-.23m-.11.11h0a1,1,0,0,0,.92.27,1,1,0,0,0,.62-.44,1,1,0,0,0-.13-1.23,1,1,0,0,0-1.55.17,1,1,0,0,0,.14,1.23" transform="translate(-9.42 -3.22)"/><path class="cls-17" d="M17.29,126.4a.37.37,0,1,1-.28.44.37.37,0,0,1,.28-.44" transform="translate(-9.42 -3.22)"/><polygon class="cls-35" points="82.97 71.49 82.38 63.56 82.7 63.53 83.29 71.46 82.97 71.49"/><rect class="cls-35" x="87.26" y="63.3" width="0.33" height="8.18"/><rect class="cls-35" x="94.22" y="66.36" width="0.33" height="8.09" transform="translate(-13.38 2.43) rotate(-3.36)"/><rect class="cls-35" x="97.47" y="70.57" width="7.95" height="0.33" transform="translate(14.08 163.52) rotate(-85.82)"/><rect class="cls-35" x="95.27" y="70.25" width="8.09" height="0.33" transform="translate(13.76 162.19) rotate(-86.62)"/><path class="cls-36" d="M92.37,74.83v5.56a.49.49,0,0,0,.49.49h8a.49.49,0,0,0,.49-.49V74.83Z" transform="translate(-9.42 -3.22)"/><path class="cls-37" d="M91.78,64.89h10.14c0-1,21.43-25.33,21.43-38,0-14.41-11.86-23.64-26.5-23.64s-26.5,9.23-26.5,23.64c0,12.7,20.82,37.42,21.43,38" transform="translate(-9.42 -3.22)"/><path class="cls-17" d="M93,64.89h7.68c0-1,16.23-25.33,16.23-38,0-14.41-9-23.64-20.07-23.64S76.79,12.45,76.79,26.86c0,12.7,15.76,37.42,16.22,38" transform="translate(-9.42 -3.22)"/><path class="cls-37" d="M94.37,64.89h5c0-1,10.47-25.33,10.47-38,0-14.41-5.8-23.64-13-23.64S83.9,12.45,83.9,26.86c0,12.7,10.17,37.42,10.47,38" transform="translate(-9.42 -3.22)"/><path class="cls-17" d="M95.81,64.89h2.08c0-1,4.39-25.33,4.39-38,0-14.41-2.43-23.64-5.43-23.64s-5.42,9.23-5.42,23.64c0,12.7,4.26,37.42,4.38,38" transform="translate(-9.42 -3.22)"/><path class="cls-38" d="M114.74,9A28.93,28.93,0,0,0,96.85,3.22,28.93,28.93,0,0,0,79,9s-.32,2.29,17.7,2.29S114.74,9,114.74,9" transform="translate(-9.42 -3.22)"/><path class="cls-38" d="M88.17,60.47c2,2.61,3.46,4.27,3.61,4.42h10.14a39.71,39.71,0,0,1,3.23-4.42s-1.18,1-8.3,1-8.68-1-8.68-1" transform="translate(-9.42 -3.22)"/><rect class="cls-38" x="82.36" y="61.67" width="10.13" height="2.11"/><path class="cls-35" d="M101.92,74.7a.44.44,0,0,1-.44.43H92.22a.44.44,0,1,1,0-.87h9.26a.44.44,0,0,1,.44.44" transform="translate(-9.42 -3.22)"/><path class="cls-39" d="M93.77,75.85c-.58,0-1,1.17-1,1.72a1.06,1.06,0,0,0,2.11,0c0-.55-.48-1.72-1.06-1.72" transform="translate(-9.42 -3.22)"/><path class="cls-39" d="M94.2,75.35c-.13-.22-.27,0-.27,0a.14.14,0,0,0-.16-.1.13.13,0,0,0-.15.1s-.15-.22-.27,0,.35.5.35.5h.14s.48-.29.36-.5" transform="translate(-9.42 -3.22)"/><path class="cls-39" d="M96.85,75.85c-.58,0-1,1.17-1,1.72a1.05,1.05,0,0,0,2.1,0c0-.55-.47-1.72-1.05-1.72" transform="translate(-9.42 -3.22)"/><path class="cls-39" d="M97.27,75.35c-.12-.22-.27,0-.27,0a.13.13,0,0,0-.15-.1.15.15,0,0,0-.16.1s-.14-.22-.27,0,.36.5.36.5h.14s.48-.29.35-.5" transform="translate(-9.42 -3.22)"/><path class="cls-39" d="M99.93,75.85c-.59,0-1.06,1.17-1.06,1.72a1.06,1.06,0,0,0,2.11,0c0-.55-.47-1.72-1-1.72" transform="translate(-9.42 -3.22)"/><path class="cls-39" d="M100.35,75.35c-.12-.22-.27,0-.27,0a.13.13,0,0,0-.15-.1.14.14,0,0,0-.16.1s-.15-.22-.27,0,.35.5.35.5H100s.48-.29.35-.5" transform="translate(-9.42 -3.22)"/><path class="cls-40" d="M96.85,75.85c0,.33-.59.6-1.47.6s-1.59-.27-1.59-.6" transform="translate(-9.42 -3.22)"/><path class="cls-40" d="M99.9,75.85c0,.33-.59.6-1.46.6s-1.59-.27-1.59-.6" transform="translate(-9.42 -3.22)"/><path class="cls-40" d="M101.33,76.45c-.79,0-1.41-.29-1.41-.6" transform="translate(-9.42 -3.22)"/><path class="cls-40" d="M92.37,76.45c.79,0,1.4-.29,1.4-.6" transform="translate(-9.42 -3.22)"/></g></g></svg>