<svg id="Layer_1" data-name="Layer 1" xmlns="http://www.w3.org/2000/svg" viewBox="0 0 268.1 55.9"><defs><style>.cls-1{fill:#36bfec;}.cls-2{fill:#005586;}</style></defs><title>logo-childrens-hospital-of-Philadelphia</title><path class="cls-1" d="M29.5,51.2h7.4V37a40.49,40.49,0,0,1-7.4,5.4Z" transform="translate(-0.1 -0.7)"/><path class="cls-1" d="M54.2,14V26.9a20.38,20.38,0,0,0-8.9-2,21.92,21.92,0,0,0-8.5,1.8V14H29.4V32.1c-.4.3-.7.5-.7.5A13.45,13.45,0,0,1,7.3,21.7,13.77,13.77,0,0,1,21,8.1a13.5,13.5,0,0,1,7.2,2.1V2A21.38,21.38,0,0,0,21,.7a20.9,20.9,0,0,0,0,41.8,20.28,20.28,0,0,0,7.9-1.6,4.88,4.88,0,0,1,.7-.3c2.6-1.3,6.7-4.9,7.4-5.4a.1.1,0,0,0,.1-.1,13.56,13.56,0,0,1,8.4-2.9,13.92,13.92,0,0,1,8.9,3.3V51.1h7.4V14Z" transform="translate(-0.1 -0.7)"/><path class="cls-1" d="M13.8,23.1a2.72,2.72,0,0,0,0-.9,13.55,13.55,0,0,0-.2-2,6.67,6.67,0,0,1,.7-4.6,5.5,5.5,0,0,1,.7-.9h.1A6.43,6.43,0,0,1,19.3,13a6.66,6.66,0,0,1,2.2.3,8.36,8.36,0,0,1,2,.8,5.58,5.58,0,0,1,.8.5,2.59,2.59,0,0,1,1,3l-.1.2-.1.2v-.4c0,.1-.2.4-.3.4h0c0,.2-.1.3-.1.4-.1.3-.2.4-.3.7v.1c.3,0,.3-.2.3-.1s-.2.2-.3.2a2.22,2.22,0,0,0,.6,1.2l.5.5c.2.3-.4.7-.5.8.1.2.2.2.2.4s-.4.3-.3.4a.45.45,0,0,1,0,.5c-.4.3-.3.4-.2.9s-.2.8-.7.9-1.5-.3-1.9-.1h0c-.8.6-1.5,1.9.7,5,.2.2.8.9.4.9-1.6,0-4.2-3.4-7.9-1.2-.5.3,1.6-2.7,2-4.3a1.87,1.87,0,0,1-1-.5c0,.2.2.3.3.5h-.4a3.08,3.08,0,0,1-1.3-.3c-.2-.1-.3-.4-.4-.6s-.1-.4-.1-.6a.54.54,0,0,1-.3.4.82.82,0,0,1-.7.1A3.58,3.58,0,0,0,13.8,23.1Z" transform="translate(-0.1 -0.7)"/><path class="cls-2" d="M84.7,25.6a1.42,1.42,0,0,1,1.3-.9,1.52,1.52,0,0,1,1.5,1.4,1.2,1.2,0,0,1-.2.8,6.15,6.15,0,0,1-5.8,3.5,6.52,6.52,0,0,1-6.6-6.2,20.44,20.44,0,0,1,0-3.5,6.6,6.6,0,0,1,6.6-6.3,6.25,6.25,0,0,1,5.8,3.5,4.5,4.5,0,0,1,.2.8A1.52,1.52,0,0,1,86,20.1a1.32,1.32,0,0,1-1.3-.9,3.43,3.43,0,0,0-3.1-1.9A3.61,3.61,0,0,0,78,21a13.1,13.1,0,0,0,0,2.8c.2,2.2,1.5,3.7,3.6,3.7A3.17,3.17,0,0,0,84.7,25.6Zm8.6-6.5a4.87,4.87,0,0,1,2.8-.9c2.8,0,4.4,1.7,4.4,4.8v5.7A1.5,1.5,0,0,1,99,30.3a1.56,1.56,0,0,1-1.5-1.6V23.2a1.92,1.92,0,0,0-2-2.1,3.43,3.43,0,0,0-2.3.9v6.7a1.47,1.47,0,0,1-1.5,1.5,1.54,1.54,0,0,1-1.5-1.5V15.9a1.42,1.42,0,0,1,1.5-1.5,1.54,1.54,0,0,1,1.5,1.5l.1,3.2Zm11.8-2a1.6,1.6,0,1,1,1.6-1.6A1.58,1.58,0,0,1,105.1,17.1Zm1.5,2.8v8.9a1.47,1.47,0,0,1-1.5,1.5,1.54,1.54,0,0,1-1.5-1.5V19.9a1.42,1.42,0,0,1,1.5-1.5A1.37,1.37,0,0,1,106.6,19.9Zm6.2-3.9V28.8a1.47,1.47,0,0,1-1.5,1.5,1.54,1.54,0,0,1-1.5-1.5V16a1.42,1.42,0,0,1,1.5-1.5A1.37,1.37,0,0,1,112.8,16Zm7.7,2.3a7.09,7.09,0,0,1,2.6.6V16a1.47,1.47,0,0,1,1.5-1.5,1.54,1.54,0,0,1,1.5,1.5V28c0,.5-.1.8-.5,1a8.82,8.82,0,0,1-4.6,1.4,4.81,4.81,0,0,1-5.2-4.6,15,15,0,0,1,0-3C116,20,117.6,18.3,120.5,18.3Zm.5,9.3a3.71,3.71,0,0,0,2.1-.7V21.7a5.37,5.37,0,0,0-2.3-.6,2,2,0,0,0-2.2,2.1v2.1A2.23,2.23,0,0,0,121,27.6ZM136.3,20a1.43,1.43,0,0,1-1.4,1.4c-.5,0-1-.2-1.7-.2s-1.1.4-1.1,1.4v6.2a1.47,1.47,0,0,1-1.5,1.5,1.54,1.54,0,0,1-1.5-1.5V22c0-2.3,1.3-3.8,3.9-3.8a9.2,9.2,0,0,1,1.9.2C135.8,18.7,136.3,19.2,136.3,20Zm11.5,3.9a1.32,1.32,0,0,1-1.5,1.5h-5.9v.2c0,1.4,1.1,2.1,2.5,2.1a6.87,6.87,0,0,0,2.4-.5,1.32,1.32,0,0,1,1.9,1.2,1.42,1.42,0,0,1-.7,1.2,7.38,7.38,0,0,1-3.6.8,5,5,0,0,1-5.3-4.7,26.08,26.08,0,0,1,0-2.8,4.93,4.93,0,0,1,5.2-4.7,4.75,4.75,0,0,1,5,5.1Zm-3.1-.6c.2,0,.2-.1.2-.3a2,2,0,0,0-2.2-2.2c-1.6,0-2.3,1-2.3,2.5Zm15.9,5.5a1.47,1.47,0,0,1-1.5,1.5,1.54,1.54,0,0,1-1.5-1.5V23.2a2,2,0,0,0-2.1-2.1,6,6,0,0,0-2.2.5v7.1a1.47,1.47,0,0,1-1.5,1.5,1.54,1.54,0,0,1-1.5-1.5V20.5a1.43,1.43,0,0,1,.5-1.1,8.37,8.37,0,0,1,4.7-1.2c3.3,0,5,1.7,5,4.8l.1,5.8Zm4.9-11.7a5,5,0,0,1-.6,2.6,1.69,1.69,0,0,1-1.4.9,1.22,1.22,0,0,1-1.2-1.2c0-.7.6-1,.6-2.2V15.9a1.3,1.3,0,0,1,2.6,0Zm10.2,9.5c0,2.5-2,3.8-4.6,3.8a6.14,6.14,0,0,1-4.2-1.3,1.32,1.32,0,1,1,1.6-2.1,5.28,5.28,0,0,0,2.6.7c1.1,0,1.7-.4,1.7-1s-.4-.8-1.3-1l-1.6-.4c-1.8-.5-3.2-1.5-3.2-3.4,0-2.4,1.9-3.7,4.5-3.7a6.4,6.4,0,0,1,3.6,1,1.42,1.42,0,0,1,.1,2,1.62,1.62,0,0,1-1.9.2,4.49,4.49,0,0,0-1.9-.5c-1.1,0-1.6.4-1.6.9s.3.8,1.3,1l1.6.4C174.6,23.7,175.7,24.8,175.7,26.6Zm8-10.5a1.5,1.5,0,1,1,3,0V21h7V16.1a1.5,1.5,0,1,1,3,0V28.7a1.5,1.5,0,0,1-1.5,1.6,1.56,1.56,0,0,1-1.5-1.6V23.9h-7v4.8a1.42,1.42,0,0,1-1.5,1.5,1.54,1.54,0,0,1-1.5-1.5Zm21.2,14.3c-2.9,0-5.1-1.8-5.3-4.5a16,16,0,0,1,0-3.1,5.37,5.37,0,0,1,10.6,0,16.05,16.05,0,0,1,0,3.1C210,28.5,207.9,30.4,204.9,30.4Zm2.4-7.2a2.1,2.1,0,0,0-2.3-2.1,2.32,2.32,0,0,0-2.4,2.1v2.2a2.19,2.19,0,0,0,2.4,2.1,2.16,2.16,0,0,0,2.3-2.1Zm14.4,3.4c0,2.5-2,3.8-4.6,3.8a6.14,6.14,0,0,1-4.2-1.3,1.32,1.32,0,1,1,1.6-2.1,5.28,5.28,0,0,0,2.6.7c1.1,0,1.7-.4,1.7-1s-.4-.8-1.3-1l-1.6-.4c-1.8-.5-3.2-1.5-3.2-3.4,0-2.4,1.9-3.7,4.5-3.7a6.4,6.4,0,0,1,3.6,1,1.42,1.42,0,0,1,.1,2,1.62,1.62,0,0,1-1.9.2,4.49,4.49,0,0,0-1.9-.5c-1.1,0-1.6.4-1.6.9s.3.8,1.3,1l1.6.4C220.6,23.7,221.7,24.8,221.7,26.6Zm7.8,3.8a5.14,5.14,0,0,1-2.5-.6v3.3a1.47,1.47,0,0,1-1.5,1.5,1.54,1.54,0,0,1-1.5-1.5V20.5a.67.67,0,0,1,.4-.7,8.78,8.78,0,0,1,4.8-1.4,4.93,4.93,0,0,1,5.2,4.6,15,15,0,0,1,0,3A4.57,4.57,0,0,1,229.5,30.4Zm-.3-9.3a4.4,4.4,0,0,0-2.2.7V27a5.3,5.3,0,0,0,2.2.6,2,2,0,0,0,2.2-2.1V23.4C231.3,21.9,230.6,21.1,229.2,21.1Zm9.6-4a1.6,1.6,0,1,1,1.6-1.6A1.58,1.58,0,0,1,238.8,17.1Zm1.5,2.8v8.9a1.47,1.47,0,0,1-1.5,1.5,1.54,1.54,0,0,1-1.5-1.5V19.9a1.5,1.5,0,1,1,3,0Zm7.1,10.5c-2.7,0-4-1.9-4-4.3V17.4a1.42,1.42,0,0,1,1.5-1.5,1.54,1.54,0,0,1,1.5,1.5v1.5h2.8a1.42,1.42,0,0,1,1.4,1.3,1.35,1.35,0,0,1-1.4,1.3h-2.8V26c0,1.1.5,1.6,1.4,1.6a5.9,5.9,0,0,0,1.4-.2,1.38,1.38,0,0,1,.9,2.6A8,8,0,0,1,247.4,30.4Zm14.8-2.3c0,.5-.1.8-.5,1a8.53,8.53,0,0,1-4.6,1.2c-3.2,0-4.6-1.8-4.6-3.9,0-1.9,1.3-3.6,4.5-3.6a8.75,8.75,0,0,1,2.4.3v-.6c0-1.1-.6-1.7-2.1-1.7a6,6,0,0,0-2.1.4c-1.3.4-2-.2-2-1.1a1.31,1.31,0,0,1,1-1.3,8.24,8.24,0,0,1,3.2-.6c3.1,0,4.9,1.4,4.9,4.5v5.4Zm-2.8-.8v-2a7.8,7.8,0,0,0-2.2-.4c-1.2,0-1.9.6-1.9,1.4,0,1,.8,1.5,2,1.5A3.62,3.62,0,0,0,259.4,27.3ZM268.2,16V28.8a1.47,1.47,0,0,1-1.5,1.5,1.54,1.54,0,0,1-1.5-1.5V16a1.5,1.5,0,0,1,3,0ZM80.3,52.4c-2.9,0-5.1-1.8-5.3-4.5V44.8a5.37,5.37,0,0,1,10.6,0,16.05,16.05,0,0,1,0,3.1A5.08,5.08,0,0,1,80.3,52.4Zm2.3-7.2a2.1,2.1,0,0,0-2.3-2.1,2.32,2.32,0,0,0-2.4,2.1v2.2a2.19,2.19,0,0,0,2.4,2.1,2.16,2.16,0,0,0,2.3-2.1A8.09,8.09,0,0,0,82.6,45.2Zm6.6-4.9c0-2.7,1.5-4.1,3.9-4.1a6.87,6.87,0,0,1,2.2.3,1.39,1.39,0,0,1,1.1,1.4A1.29,1.29,0,0,1,95,39.2c-.5,0-1-.2-1.7-.2A1.24,1.24,0,0,0,92,40.4v.5h2.6a1.26,1.26,0,0,1,1.3,1.3,1.32,1.32,0,0,1-1.3,1.3H92v7.3a1.5,1.5,0,0,1-1.5,1.6A1.56,1.56,0,0,1,89,50.8V43.5h-.5a1.35,1.35,0,0,1-1.4-1.3,1.29,1.29,0,0,1,1.4-1.3H89v-.6Zm18.4,6.9v3.6a1.63,1.63,0,0,1-1.5,1.6,1.56,1.56,0,0,1-1.5-1.6V38.6a1.89,1.89,0,0,1,2-2H111a5.09,5.09,0,0,1,5.4,5.2c0,3.3-2.4,5.2-5.6,5.2h-3.2Zm3.1-3c1.8,0,2.6-.9,2.6-2.3s-.8-2.3-2.6-2.3h-3.2v4.6Zm10.9-3.1a4.87,4.87,0,0,1,2.8-.9c2.8,0,4.4,1.7,4.4,4.8v5.7a1.5,1.5,0,0,1-1.5,1.6,1.56,1.56,0,0,1-1.5-1.6V45.2a1.92,1.92,0,0,0-2-2.1,3.43,3.43,0,0,0-2.3.9v6.7a1.47,1.47,0,0,1-1.5,1.5,1.54,1.54,0,0,1-1.5-1.5V37.9a1.42,1.42,0,0,1,1.5-1.5,1.54,1.54,0,0,1,1.5,1.5l.1,3.2Zm11.8-2a1.6,1.6,0,1,1,1.6-1.6A1.58,1.58,0,0,1,133.4,39.1Zm1.5,2.8v8.9a1.47,1.47,0,0,1-1.5,1.5,1.54,1.54,0,0,1-1.5-1.5V41.9a1.42,1.42,0,0,1,1.5-1.5A1.47,1.47,0,0,1,134.9,41.9Zm6.2-3.9V50.8a1.47,1.47,0,0,1-1.5,1.5,1.54,1.54,0,0,1-1.5-1.5V38a1.42,1.42,0,0,1,1.5-1.5A1.37,1.37,0,0,1,141.1,38Zm12.5,12.1c0,.5-.1.8-.5,1a8.53,8.53,0,0,1-4.6,1.2c-3.2,0-4.6-1.8-4.6-3.9,0-1.9,1.3-3.6,4.5-3.6a8.75,8.75,0,0,1,2.4.3v-.6c0-1.1-.6-1.7-2.1-1.7a6,6,0,0,0-2.1.4c-1.3.4-2-.2-2-1.1a1.31,1.31,0,0,1,1-1.3,8.24,8.24,0,0,1,3.2-.6c3.1,0,4.9,1.4,4.9,4.5l-.1,5.4Zm-2.9-.8v-2a7.8,7.8,0,0,0-2.2-.4c-1.2,0-1.9.6-1.9,1.4,0,1,.8,1.5,2,1.5A2.79,2.79,0,0,0,150.7,49.3Zm10.4-9a7.09,7.09,0,0,1,2.6.6V38a1.47,1.47,0,0,1,1.5-1.5,1.54,1.54,0,0,1,1.5,1.5V50c0,.5-.1.8-.5,1a8.82,8.82,0,0,1-4.6,1.4,4.81,4.81,0,0,1-5.2-4.6,15,15,0,0,1,0-3A4.31,4.31,0,0,1,161.1,40.3Zm.4,9.3a3.71,3.71,0,0,0,2.1-.7V43.7a5.37,5.37,0,0,0-2.3-.6,2,2,0,0,0-2.2,2.1v2.1A2.28,2.28,0,0,0,161.5,49.6Zm18.3-3.7a1.32,1.32,0,0,1-1.5,1.5h-5.9v.2c0,1.4,1.1,2.1,2.5,2.1a6.87,6.87,0,0,0,2.4-.5,1.32,1.32,0,0,1,1.9,1.2,1.42,1.42,0,0,1-.7,1.2,7.38,7.38,0,0,1-3.6.8,5,5,0,0,1-5.3-4.7,26.08,26.08,0,0,1,0-2.8,4.93,4.93,0,0,1,5.2-4.7,4.75,4.75,0,0,1,5,5.1Zm-3.1-.6c.2,0,.2-.1.2-.3a2,2,0,0,0-2.2-2.2c-1.6,0-2.3,1-2.3,2.5Zm8.7-7.3V50.8a1.47,1.47,0,0,1-1.5,1.5,1.54,1.54,0,0,1-1.5-1.5V38a1.5,1.5,0,0,1,3,0Zm8.5,14.4a5.14,5.14,0,0,1-2.5-.6v3.3a1.47,1.47,0,0,1-1.5,1.5,1.54,1.54,0,0,1-1.5-1.5V42.5a.67.67,0,0,1,.4-.7,8.78,8.78,0,0,1,4.8-1.4,4.93,4.93,0,0,1,5.2,4.6,15,15,0,0,1,0,3A4.51,4.51,0,0,1,193.9,52.4Zm-.3-9.3a4.4,4.4,0,0,0-2.2.7V49a5.3,5.3,0,0,0,2.2.6,2,2,0,0,0,2.2-2.1V45.4A2,2,0,0,0,193.6,43.1Zm11-2a4.87,4.87,0,0,1,2.8-.9c2.8,0,4.4,1.7,4.4,4.8v5.7a1.5,1.5,0,0,1-1.5,1.6,1.56,1.56,0,0,1-1.5-1.6V45.2a1.92,1.92,0,0,0-2-2.1,3.43,3.43,0,0,0-2.3.9v6.7a1.47,1.47,0,0,1-1.5,1.5,1.54,1.54,0,0,1-1.5-1.5V37.9a1.42,1.42,0,0,1,1.5-1.5,1.54,1.54,0,0,1,1.5,1.5v3.2Zm11.9-2a1.6,1.6,0,1,1,1.6-1.6A1.72,1.72,0,0,1,216.5,39.1Zm1.4,2.8v8.9a1.47,1.47,0,0,1-1.5,1.5,1.54,1.54,0,0,1-1.5-1.5V41.9a1.5,1.5,0,0,1,3,0Zm12.6,8.2c0,.5-.1.8-.5,1a8.53,8.53,0,0,1-4.6,1.2c-3.2,0-4.6-1.8-4.6-3.9,0-1.9,1.3-3.6,4.5-3.6a8.75,8.75,0,0,1,2.4.3v-.6c0-1.1-.6-1.7-2.1-1.7a6,6,0,0,0-2.1.4c-1.3.4-2-.2-2-1.1a1.31,1.31,0,0,1,1-1.3,8.24,8.24,0,0,1,3.2-.6c3.1,0,4.9,1.4,4.9,4.5v5.4Zm-2.9-.8v-2a7.8,7.8,0,0,0-2.2-.4c-1.2,0-1.9.6-1.9,1.4,0,1,.8,1.5,2,1.5A2.79,2.79,0,0,0,227.6,49.3Z" transform="translate(-0.1 -0.7)"/><path class="cls-2" d="M233.8,44.3a1.8,1.8,0,0,1-1.9-1.7V42a1.91,1.91,0,0,1,3.8,0v.6A1.8,1.8,0,0,1,233.8,44.3Zm1.5-2.3a1.52,1.52,0,0,0-1.5-1.4,1.45,1.45,0,0,0-1.5,1.4v.6a1.52,1.52,0,0,0,1.5,1.4,1.45,1.45,0,0,0,1.5-1.4Zm-1.5.6a.1.1,0,0,0-.1-.1h-.3v.6a.2.2,0,1,1-.4,0V41.4c0-.1.1-.2.3-.2h.7c.4,0,.8.2.8.6a.63.63,0,0,1-.5.6l.5.6.1.1a.22.22,0,0,1-.2.2c-.1,0-.1,0-.1-.1Zm.1-.4c.3,0,.4-.1.4-.3s-.1-.3-.4-.3h-.5v.6Z" transform="translate(-0.1 -0.7)"/></svg>