<svg id="Layer_1" data-name="Layer 1" xmlns="http://www.w3.org/2000/svg" viewBox="0 0 740.67 205.33"><defs><style>.cls-1{fill:#fff;}.cls-2{fill:#0d3050;}</style></defs><title>logo-SeventBridges</title><rect class="cls-1" width="740.67" height="205.33"/><path class="cls-2" d="M112.63,63.78l-5,10.54c-7.7-4.65-15.43-6.58-20.78-6.58-7,0-11.58,2.66-11.58,7.39,0,15.51,38.32,7.2,38.25,32.75,0,12.7-11.16,20.51-26.79,20.51a43.71,43.71,0,0,1-29-11.27l5.15-10.35c7.32,6.69,16.44,10.35,24.06,10.35,8.31,0,13.27-3.16,13.27-8.62,0-15.82-38.33-7-38.33-32.25,0-12.16,10.47-19.78,25.86-19.78A46.66,46.66,0,0,1,112.63,63.78Z"/><path class="cls-2" d="M170.44,105.84H130.26c1.81,8.2,8.08,13.28,16.47,13.28a20.74,20.74,0,0,0,15-6.2l6.08,6.51c-5.2,5.69-12.78,9-22,9-16.39,0-27.16-10.89-27.16-26.9s11.08-27,26.9-27.09C164.24,74.48,171.86,86.64,170.44,105.84Zm-10-8.39c-.39-8.58-6.08-13.77-14.78-13.77-8.39,0-14.27,5.31-15.58,13.77Z"/><path class="cls-2" d="M191.68,128.43l-20.9-53.95h12.16L198,117l14.82-42.48h11.66l-20.67,54Z"/><path class="cls-2" d="M276,105.84H235.86c1.8,8.2,8.08,13.28,16.47,13.28a20.65,20.65,0,0,0,15-6.2l6.08,6.51c-5.2,5.69-12.78,9-22,9-16.35,0-27.17-10.89-27.17-26.86s11.09-26.94,26.86-27C269.8,74.52,277.38,86.68,276,105.84Zm-10-8.39c-.39-8.58-6.08-13.77-14.78-13.77-8.39,0-14.28,5.27-15.59,13.77Z"/><path class="cls-2" d="M333.33,95.14v33.29H321.75V98.38c0-8-4.81-13-12.89-13-8.85.11-14.4,6.23-15.2,14.58v28.48H282.07v-54h11.59v10.7c3.81-7.43,10.66-10.66,19.7-10.66C325.9,74.52,333.33,82.37,333.33,95.14Z"/><path class="cls-2" d="M376.59,56.47c14.89,0,24.16,6.77,24.16,18,0,8.12-4.85,14.2-12.66,16,9.66,1.65,15.43,8.54,15.43,18.2,0,12.35-10,19.74-26.2,19.74h-32v-72ZM357.46,86.29H376c7.7,0,12.35-3.62,12.35-9.66s-4.61-9.35-12.35-9.35H357.46Zm0,31.37H376c9.47,0,15.12-3.7,15.12-10.51,0-6.39-5.65-10.16-15.12-10.16H357.46Z"/><path class="cls-2" d="M421.11,85.52c3.62-7.23,10.08-11.08,18.51-11.08V85.52c-10.77-.61-17.62,5.74-18.51,14.9v28H409.53V74.48h11.58Z"/><path class="cls-2" d="M457.13,62.47a5.77,5.77,0,1,1-5.77-6A5.71,5.71,0,0,1,457.13,62.47Z"/><rect class="cls-2" x="445.62" y="74.48" width="11.58" height="53.95"/><path class="cls-2" d="M518.59,128.43H507.16v-9.54c-3.77,6.15-10.16,9.54-18.59,9.54-15.24,0-25.36-11-25.36-27.17,0-15.93,10.24-26.74,25.17-26.74,8.54,0,14.93,3.46,18.82,9.66V56.47h11.43v72Zm-11.43-26.74c0-10.24-6.66-17.4-16.2-17.4s-16.2,7.27-16.32,17.4c.12,10,6.66,17.2,16.32,17.2S507.16,111.73,507.16,101.69Z"/><path class="cls-2" d="M637.77,105.84H597.59c1.81,8.2,8.08,13.28,16.47,13.28a20.57,20.57,0,0,0,15-6.2l6.08,6.51c-5.19,5.69-12.77,9-22,9-16.39,0-27.17-10.89-27.17-26.86s11.08-27,26.86-27.09C631.57,74.48,639.15,86.64,637.77,105.84Zm-10-8.39c-.38-8.58-6.08-13.77-14.77-13.77-8.39,0-14.28,5.31-15.59,13.77Z"/><path class="cls-2" d="M682,79.83l-4.19,8.46a31.4,31.4,0,0,0-15.28-4.69c-4.5,0-7.77,1.5-7.77,5.27,0,9.78,28.24,4.5,28.13,23.74,0,10.9-9.66,15.78-20.36,15.78-7.77,0-16-2.58-21.36-7.39l4.08-8.19A28.94,28.94,0,0,0,663,119.39c4.89,0,8.66-1.7,8.66-5.7,0-10.89-27.94-4.77-27.82-23.93,0-10.78,9.39-15.36,19.55-15.36C670.17,74.48,677.25,76.44,682,79.83Z"/><path class="cls-2" d="M568.58,74.48h-.12V84c-3.89-6-10.2-9.46-18.66-9.46-14.93,0-25.17,10.85-25.17,26.74,0,16.12,10.16,27.17,25.36,27.17,8.39,0,14.7-3.31,18.47-9.39v4.81c0,9.35-6.7,15.32-16.93,15.32a27.18,27.18,0,0,1-16.93-5.89l-5,8.43a39.3,39.3,0,0,0,22.44,7.12c16.93,0,28-9.74,28-25.25V74.48Zm-16.24,44.41c-9.66,0-16.2-7.16-16.32-17.2.12-10.16,6.77-17.4,16.32-17.4,8.85,0,15.2,6.12,16.08,15.16v4.47C567.54,112.77,561.19,118.89,552.34,118.89Z"/></svg>