<svg id="Layer_2" data-name="Layer 2" xmlns="http://www.w3.org/2000/svg" xmlns:xlink="http://www.w3.org/1999/xlink" viewBox="0 0 478.38 258.82"><defs><style>.cls-1{fill:#da291c;}.cls-2{fill:#fff;}.cls-3{fill:#5e514d;}.cls-4{fill:#786a65;}.cls-5{fill:url(#Taupe_radial_gradient);}</style><radialGradient id="Taupe_radial_gradient" cx="107.89" cy="81.62" r="47.5" gradientUnits="userSpaceOnUse"><stop offset="0.16" stop-color="#d6d2d1"/><stop offset="0.9" stop-color="#837672"/><stop offset="1" stop-color="#786a65"/></radialGradient></defs><title>logo-childrens-national-health-system</title><path class="cls-1" d="M213.13,171.15v-9h6.39S219.52,169.35,213.13,171.15Z"/><path class="cls-1" d="M21.35,157.55c10.12,0,15.32,6.16,15.32,6.16L33,169.82s-4.73-4.77-11.34-4.77c-8.77,0-13.92,7.12-13.92,15.51,0,8.58,5.32,16.15,14,16.15,7.19,0,12-5.72,12-5.72l4,5.91a21.69,21.69,0,0,1-16.32,7.31C8.77,204.21,0,194,0,180.69,0,167.59,9.12,157.55,21.35,157.55Z"/><path class="cls-1" d="M40.65,158.31h7.43V174c0,1.59-.12,2.73-.12,2.73h.12a11.39,11.39,0,0,1,10.29-6.42c6.61,0,10.35,3.75,10.35,12.33v20.86H61.35v-19.2c0-3.94-.93-6.61-4.73-6.61s-7,2.79-8.08,6.73a16,16,0,0,0-.46,4.2v14.88H40.65Z"/><path class="cls-1" d="M73.58,171H81v32.43H73.58Z"/><path class="cls-1" d="M73.58,158.31H81v6.07H73.58Z"/><path class="cls-1" d="M339.53,158.31H347v6.07h-7.43Z"/><path class="cls-1" d="M85.86,158.31h7.37v33.82c0,3.56,1.11,4.45,3,4.45.58,0,1.11-.06,1.11-.06v7a15.65,15.65,0,0,1-2.34.19c-4.09,0-9.18-1.14-9.18-10.42Z"/><path class="cls-1" d="M111.42,170.26c6.55,0,8.6,4.13,8.6,4.13h.11s-.06-.82-.06-1.84V158.31h7.43v45.14h-7v-2.67a17.42,17.42,0,0,1,.12-2.1h-.12a10.32,10.32,0,0,1-9.35,5.53c-8.08,0-13.22-6.93-13.22-17C97.91,176.94,103.52,170.26,111.42,170.26Zm1.4,27.15c3.86,0,7.49-3,7.49-10.24,0-5-2.46-10-7.43-10-4.09,0-7.49,3.62-7.49,10.05C105.39,193.4,108.44,197.41,112.82,197.41Z"/><path class="cls-1" d="M132.77,171h7.13v5.6c0,1.21-.12,2.29-.12,2.29h.12c1.35-4.64,4.91-8.33,9.48-8.33a7.61,7.61,0,0,1,1.34.13v7.94a12.46,12.46,0,0,0-1.75-.12c-3.16,0-6.73,2-8.13,6.8a18.7,18.7,0,0,0-.65,5.27v12.85h-7.42Z"/><path class="cls-1" d="M165.87,170.26c8.6,0,13.22,6.8,13.22,15.39,0,.95-.18,3.11-.18,3.11H158.32c.47,5.66,4.51,8.58,9,8.58,4.8,0,8.6-3.56,8.6-3.56l2.87,5.79a17.91,17.91,0,0,1-12,4.64c-9.89,0-16-7.76-16-17C150.72,177.25,157,170.26,165.87,170.26Zm5.73,13c-.12-4.39-2.63-6.74-5.91-6.74-3.8,0-6.43,2.54-7.13,6.74Z"/><path class="cls-1" d="M182.3,171h7.14v3.76a21.3,21.3,0,0,1-.12,2.22h.12A11.53,11.53,0,0,1,200,170.26c6.6,0,10.35,3.75,10.35,12.33v20.86H203v-19.2c0-3.94-.94-6.61-4.74-6.61-4,0-6.9,2.73-8,6.61a14.75,14.75,0,0,0-.53,4.32v14.88H182.3Z"/><path class="cls-1" d="M218.74,193.78a12,12,0,0,0,8.13,3.56c2.1,0,3.92-1,3.92-2.92,0-4.83-14.51-4.2-14.51-14.62,0-6,5-9.54,11.41-9.54,6.72,0,10,3.69,10,3.69l-2.75,6a10.88,10.88,0,0,0-7.31-2.79c-1.93,0-3.8.89-3.8,2.92,0,4.58,14.5,4,14.5,14.43,0,5.41-4.33,9.73-11.4,9.73a16.09,16.09,0,0,1-11.58-4.77Z"/><path class="cls-1" d="M251.73,158.31h7.54L275,184.37a70.56,70.56,0,0,1,3.45,7h.12s-.41-4.32-.41-7V158.31h7.49v45.14h-7.49l-15.73-26a70.56,70.56,0,0,1-3.45-7h-.12s.41,4.33.41,7v26h-7.54Z"/><path class="cls-1" d="M306.31,183.1h1v-.44c0-4.26-2.45-5.72-5.73-5.72-4.27,0-8.19,3.11-8.19,3.11l-2.8-5.78a19.13,19.13,0,0,1,11.69-4c7.84,0,12.4,4.71,12.4,12.91v20.28h-6.84v-2.67c0-1.28.11-2.29.11-2.29h-.11a9.7,9.7,0,0,1-9.07,5.72c-5.32,0-10.11-3.62-10.11-10.11C288.65,183.8,301.45,183.1,306.31,183.1Zm-5.68,14.82c3.92,0,6.73-4.58,6.73-8.52v-.77h-1.29c-3.8,0-9.94.58-9.94,5.09A4.12,4.12,0,0,0,300.63,197.92Z"/><path class="cls-1" d="M320.58,178h-3.86v-6.42h4v-9.34H328v9.34h6.78V178H328v12.59c0,5.34,3.86,6.1,5.9,6.1a6.73,6.73,0,0,0,1.35-.12v7a11.9,11.9,0,0,1-2.28.19c-4.15,0-12.4-1.33-12.4-12.2Z"/><path class="cls-1" d="M339.53,171H347v32.43h-7.43Z"/><path class="cls-1" d="M366.38,170.26c9.12,0,16.43,7.06,16.43,17s-7.31,17-16.38,17-16.43-7-16.43-17S357.31,170.26,366.38,170.26Zm.05,27.08c4.8,0,8.84-4.06,8.84-10.1s-4-10.11-8.84-10.11-8.89,4.13-8.89,10.11S361.58,197.34,366.43,197.34Z"/><path class="cls-1" d="M385.85,171H393v3.76a21.3,21.3,0,0,1-.12,2.22H393a11.52,11.52,0,0,1,10.58-6.74c6.61,0,10.36,3.75,10.36,12.33v20.86h-7.37v-19.2c0-3.94-.94-6.61-4.74-6.61-4,0-6.9,2.73-8,6.61a14.75,14.75,0,0,0-.53,4.32v14.88h-7.43Z"/><path class="cls-1" d="M433.93,183.1h1v-.44c0-4.26-2.45-5.72-5.73-5.72-4.27,0-8.18,3.11-8.18,3.11l-2.81-5.78a19.13,19.13,0,0,1,11.69-4c7.84,0,12.4,4.71,12.4,12.91v20.28h-6.84v-2.67a21.61,21.61,0,0,1,.12-2.29h-.12a9.69,9.69,0,0,1-9.06,5.72c-5.33,0-10.12-3.62-10.12-10.11C416.27,183.8,429.08,183.1,433.93,183.1Zm-5.67,14.82c3.92,0,6.72-4.58,6.72-8.52v-.77H433.7c-3.81,0-9.95.58-9.95,5.09A4.13,4.13,0,0,0,428.26,197.92Z"/><path class="cls-1" d="M446.68,158.31h7.37v33.82c0,3.56,1.11,4.45,3,4.45a10.9,10.9,0,0,0,1.11-.06v7a15.65,15.65,0,0,1-2.34.19c-4.09,0-9.18-1.14-9.18-10.42Z"/><path class="cls-1" d="M467.53,197.14H465v-.62h5.65v.62h-2.48v6.31h-.68Z"/><path class="cls-1" d="M472.1,196.52h.71l1.81,4.07c.15.36.33.85.33.85h0s.19-.49.35-.85l1.81-4.07h.7l.55,6.93h-.68l-.38-4.85c0-.37,0-1,0-1h0s-.21.61-.37,1l-1.62,3.56h-.64L473,198.6c-.16-.34-.37-1-.37-1h0s0,.61,0,1l-.38,4.85h-.69Z"/><path class="cls-1" d="M251.73,226H255v11.1h12.13V226h3.28V251.3h-3.28V240.2H255v11.1h-3.28Z"/><path class="cls-1" d="M281.13,232.75c4.74,0,7.26,3.79,7.26,8.48,0,.47-.1,1.51-.1,1.51H276.06c.16,4,2.78,6,5.76,6a7.73,7.73,0,0,0,5-2.12l1.32,2.55a9.61,9.61,0,0,1-6.49,2.57c-5.28,0-8.89-4.11-8.89-9.48C272.74,236.47,276.35,232.75,281.13,232.75Zm4,7.37c-.1-3.11-1.89-4.62-4.05-4.62-2.45,0-4.44,1.65-4.91,4.62Z"/><path class="cls-1" d="M300.25,240H301v-.32c0-3-1.56-4-3.68-4a8.14,8.14,0,0,0-4.67,1.76l-1.33-2.54a10.06,10.06,0,0,1,6.27-2.15c4.24,0,6.63,2.5,6.63,7.09V251.3h-3v-1.72a13.67,13.67,0,0,1,.07-1.43h-.07a5.85,5.85,0,0,1-5.37,3.57,5.41,5.41,0,0,1-5.7-5.51C290.14,240.23,297.43,240,300.25,240Zm-3.71,9c2.72,0,4.48-3.08,4.48-5.76v-.58h-.83c-2.42,0-6.8.18-6.8,3.44A2.9,2.9,0,0,0,296.54,248.93Z"/><path class="cls-1" d="M308,226h3.21v19.73c0,2.18.8,2.58,1.79,2.58a4.39,4.39,0,0,0,.57,0v3.08a8.62,8.62,0,0,1-1.06.07c-1.82,0-4.51-.54-4.51-5.08Z"/><path class="cls-1" d="M316.37,236.22h-2.19v-2.79h2.29V228.2h3.12v5.23h4v2.79h-4v8.06c0,3.62,2.35,4.08,3.57,4.08a3.73,3.73,0,0,0,.77-.07v3.08a8.49,8.49,0,0,1-1.13.07c-2.15,0-6.43-.72-6.43-6.77Z"/><path class="cls-1" d="M326.43,226h3.22v9.27c0,.86-.07,1.5-.07,1.5h.07a6.76,6.76,0,0,1,6.2-4c3.94,0,5.76,2.32,5.76,6.94V251.3H338.4V240.48c0-2.54-.5-4.55-3.19-4.55a5.66,5.66,0,0,0-5.3,4.48,9.11,9.11,0,0,0-.26,2.4v8.49h-3.22Z"/><path class="cls-1" d="M354.67,245.71a9,9,0,0,0,6,2.72c2.19,0,4-1.32,4-3.72,0-5.48-11.33-4.3-11.33-12.07,0-3.94,3.15-7.06,7.55-7.06a9.21,9.21,0,0,1,6.63,2.55L366,231.06a8,8,0,0,0-5.14-2.18c-2.48,0-4.24,1.68-4.24,3.69,0,5.23,11.34,3.83,11.34,12,0,3.9-2.78,7.12-7.43,7.12a10.65,10.65,0,0,1-7.76-3.32Z"/><path class="cls-1" d="M369.25,255.06a3.6,3.6,0,0,0,2,.75c1.29,0,2.38-1,3-2.65l.83-2.08-7-17.9h3.61L375.85,245c.33.93.63,2.18.63,2.18h.07s.26-1.21.56-2.14l4.08-11.89h3.48l-7.86,21.37c-1,2.8-3.08,4.27-5.44,4.27a5.56,5.56,0,0,1-3.24-1.11Z"/><path class="cls-1" d="M386.63,246.6a7,7,0,0,0,4.81,2.12c1.39,0,2.78-.79,2.78-2.26,0-3.33-8.62-2.65-8.62-8.56,0-3.29,2.72-5.15,6.07-5.15a7.26,7.26,0,0,1,5.4,2l-1.29,2.62a5.91,5.91,0,0,0-4.14-1.61c-1.4,0-2.75.64-2.75,2.21,0,3.26,8.62,2.55,8.62,8.49,0,3-2.39,5.26-6.07,5.26a8.77,8.77,0,0,1-6.37-2.64Z"/><path class="cls-1" d="M401.17,236.22H399v-2.79h2.29V228.2h3.11v5.23h4.05v2.79h-4.05v8.06c0,3.62,2.36,4.08,3.59,4.08a3.68,3.68,0,0,0,.76-.07v3.08a8.49,8.49,0,0,1-1.13.07c-2.16,0-6.43-.72-6.43-6.77Z"/><path class="cls-1" d="M418.1,232.75c4.74,0,7.26,3.79,7.26,8.48,0,.47-.1,1.51-.1,1.51H413c.16,4,2.78,6,5.77,6a7.72,7.72,0,0,0,5-2.12l1.33,2.55a9.65,9.65,0,0,1-6.5,2.57c-5.27,0-8.89-4.11-8.89-9.48C409.71,236.47,413.33,232.75,418.1,232.75Zm4,7.37c-.1-3.11-1.89-4.62-4-4.62-2.46,0-4.45,1.65-4.91,4.62Z"/><path class="cls-1" d="M428.55,233.18h3.11v2.4c0,.71-.06,1.32-.06,1.32h.06a6.58,6.58,0,0,1,5.77-4.15,4.65,4.65,0,0,1,5,4.11h.06a6.77,6.77,0,0,1,6-4.11c3.78,0,5.54,2.32,5.54,6.94V251.3h-3.22V240.45c0-2.55-.46-4.55-3-4.55-2.35,0-4.11,2.15-4.71,4.62a12,12,0,0,0-.23,2.5v8.28h-3.22V240.45c0-2.37-.33-4.55-2.91-4.55s-4.18,2.18-4.81,4.76a10.54,10.54,0,0,0-.2,2.36v8.28h-3.21Z"/><path class="cls-2" d="M73,125.27a91,91,0,0,0,36,15.19,80.87,80.87,0,0,0,11.36,1.22c10.34,5.64,26.94,6.38,31.73,6.38a84.53,84.53,0,0,0,15.26-1.4c4.14,4.31,17.75,9.53,35.31,9.53,2.06,0,4.17-.08,6.27-.23,20.8-1.52,30.55-15.59,31.82-24.1,1.11-7.47-.88-14-5.77-18.81,13.26,0,21.31-7.53,25.69-14.53a30.66,30.66,0,0,0,3.9-23.33,30.9,30.9,0,1,0-57.6,21.08,22.82,22.82,0,0,0-4.37-1.87c-6.64-2.23-14.66.13-19.43,3.26a64.48,64.48,0,0,0,2-16,72.48,72.48,0,0,0-1.35-13.75c8.57-3.91,16.65-11.83,17.82-22.64A28.67,28.67,0,0,0,195.25,24a28.42,28.42,0,0,0-19.77-10.67C164.87,12.5,157.4,16,152,21A74.12,74.12,0,0,0,107.52,6.73c-9.73.14-19.11,1.08-31.73,6.35C71.37,5.2,61.85,0,50.93,0a29,29,0,0,0-29,25.77c-1.13,10.36,5.12,20,12.43,25.7-.12,1.6-.18,3.2-.18,4.77a64.13,64.13,0,0,0,.7,9.77A60.58,60.58,0,0,0,38,99.93C44,115.14,56.38,123.1,73,125.27Z"/><path class="cls-3" d="M83.1,59.46c-1.45.51-2.21-.25-1.7-1.7l.89-2.47a6.92,6.92,0,0,0-5.35,1.77c-2.66,2.3-3.33,5.87-1.51,8s5.45,2,8.11-.34a6.54,6.54,0,0,0,2.39-6.24Z"/><path class="cls-3" d="M141.42,66.91c-1.45.51-2.21-.25-1.7-1.7l1-2.91a5,5,0,0,0-5.42.06c-2.23,1.67-2.33,5.3-.23,8.11s5.61,3.74,7.84,2.07c1.84-1.38,2.23-4.09,1.13-6.58Z"/><path class="cls-4" d="M69,119.44A94.71,94.71,0,0,1,59,110.13,86.5,86.5,0,0,1,39.36,75.92c-.29-1-.54-2-.79-3,0-.18-.13-.29-.3-.29A.33.33,0,0,0,38,73v0A62.35,62.35,0,0,0,39.7,89.72c.24,1,.49,2,.78,3,.53,1.83,1.16,3.62,1.84,5.38C47.58,110.24,58,118.6,68.74,120h0a.32.32,0,0,0,.3-.13.3.3,0,0,0-.07-.42Z"/><path class="cls-5" d="M260,76.25a26.21,26.21,0,1,0-40.58,27.36,91,91,0,0,1-6.28,7.61,17.2,17.2,0,0,0-2.07-4.69l-.25-.38a1.3,1.3,0,0,0-.1-.15,18.37,18.37,0,0,0-2.15-2.6,18.62,18.62,0,0,0-3-2.49l-.27-.17-.15-.09-.47-.3a14.72,14.72,0,0,0-3.38-1.45,14.57,14.57,0,0,0-5.23-.64,20.55,20.55,0,0,0-13.06,5.46c-10.88,9.69-13,25.46-13.35,33a77.41,77.41,0,0,1-17.22,2,74.18,74.18,0,0,1-13.1-1.16q-1.47-.27-2.91-.6l-2.79-.62,3-.63a56.32,56.32,0,0,0,24.12-11.21A52.26,52.26,0,0,0,178.5,96.79a59.71,59.71,0,0,0,1.9-15.11A68.68,68.68,0,0,0,178.28,65c8.68-2.64,17.51-10,18.62-20.21A24.4,24.4,0,0,0,175,18a25.1,25.1,0,0,0-22.42,9.25,73.79,73.79,0,0,0-16.05-9.52,79.14,79.14,0,0,0-21.74-6,79.15,79.15,0,0,0-22.51,1.16,73.41,73.41,0,0,0-18.43,6.23A25,25,0,0,0,53.72,4.84,24.36,24.36,0,0,0,26.57,26.27c-1,9.19,5.28,18.14,12.69,23a60.64,60.64,0,0,0-.41,7c0,18.07,7.72,36.75,22,52.21,13.27,14.36,30.64,24.09,49,27.4A75.57,75.57,0,0,0,121.23,137h.11l.09,0a74.4,74.4,0,0,0,16.71,5.07h0A78.29,78.29,0,0,0,152,143.37a86.65,86.65,0,0,0,50.14-16.54,12,12,0,0,0,5.73-1.49A94.43,94.43,0,0,1,196,133.55a90.66,90.66,0,0,1-24.72,9.93h0a.29.29,0,0,0-.22.18.3.3,0,0,0,.17.39c4.75,2.69,17.7,8.66,37.3,7.23,18-1.32,26.48-13.17,27.52-20.11s-1.23-11.62-4.45-14.79a10,10,0,0,0-7-2.63,9.57,9.57,0,0,0-6.89,2.43q-3.17,3.38-6.64,6.43a11.37,11.37,0,0,0,2.31-5.29,93.62,93.62,0,0,0,10.15-11.88l.67-.91c1.18-1.45,2.42-1.21,2.65.53l.22,2.27A26.21,26.21,0,0,0,260,76.25ZM134.78,56.6c3.51-2.63,9.07-1.12,12.42,3.37s3.22,10.24-.28,12.86S137.85,74,134.5,69.46,131.27,59.22,134.78,56.6ZM73.67,52c4.24-3.66,10-3.94,12.86-.63s1.75,9-2.48,12.63-10,3.94-12.85.63S69.44,55.66,73.67,52Zm37.2,79.24c-17.38-3.12-33.93-12.39-46.57-26.1C50.88,90.62,43.51,72.6,43.51,55.67c0-1.38.05-2.76.16-4.13a18.29,18.29,0,0,0,2.33.79c-1,17.28,6.21,36.1,20.09,51.12a85.28,85.28,0,0,0,16.52,13.92,3.34,3.34,0,0,0,.78-4.43l0-.08a38.69,38.69,0,0,1-3.31-28,33.16,33.16,0,0,1,8.53-15.13c5.61-5.58,12.81-6.26,20.51-5.52,7.69.92,14.58,3.13,18.87,9.79A33.07,33.07,0,0,1,133,90.58a38.72,38.72,0,0,1-9.23,26.67l0,.06c-1.53,1.6-1.18,3.78.5,5.24.33.26.66.51,1,.75a22.32,22.32,0,0,0,2.06,1.28,24.21,24.21,0,0,0,13.61,2.77A48,48,0,0,0,156.52,119a44.33,44.33,0,0,0,15.2-23.66A57.28,57.28,0,0,0,171.19,66a21.1,21.1,0,0,0,2.48-.12A64,64,0,0,1,175.78,82,54.65,54.65,0,0,1,174,95.88a46.76,46.76,0,0,1-16.08,25c-9.37,7.56-21.31,11.51-34.49,11.51A71.32,71.32,0,0,1,110.87,131.24Zm128.43-27.9a21.75,21.75,0,1,1,16.3-26.08A21.77,21.77,0,0,1,239.3,103.34Z"/><path class="cls-3" d="M120.19,103.18a.59.59,0,0,0-.82,0,8.76,8.76,0,0,1-1.15,1c-.72.38-1.5.61-4,.45s-5.83-2.35-6.65-3.11a2.3,2.3,0,0,1-.69-2c0-.31.3-4.35.59-5.61a9.88,9.88,0,0,1,.45-1.56l.13,0c3.23-.55,9.67-3.09,10.06-6.87.47-4.46-3.89-8.58-9.74-9.19s-11,2.51-11.43,7c-.41,3.83,5.45,7.68,8.49,8.84h0a10.35,10.35,0,0,1,.06,1.59c0,1.3-.73,5.28-.78,5.59a2.34,2.34,0,0,1-1.17,1.82c-1,.53-4.71,1.87-7.21,1.41s-3.2-.87-3.8-1.41a8.79,8.79,0,0,1-.87-1.27.6.6,0,0,0-.79-.22c-.33.17-.39.75-.36,1s.44,4.63,4.84,5.17a11.49,11.49,0,0,0,9.76-3.59h0a.42.42,0,0,1,.35-.15.35.35,0,0,1,.26.18,11.49,11.49,0,0,0,8.63,5.88c4.4.54,5.85-3.57,6-3.85S120.47,103.42,120.19,103.18Z"/></svg>