<svg id="Layer_1" data-name="Layer 1" xmlns="http://www.w3.org/2000/svg" viewBox="0 0 340.76 59.7"><defs><style>.cls-1{fill:#616366;}.cls-2{fill:#fff;}.cls-3{fill:#626467;}.cls-4{fill:#609baf;}</style></defs><title>logo-NICHD</title><path class="cls-1" d="M93.62,56.82h-1v-4H88.11v4h-1V48.25h1V51.9h4.51V48.25h1Z"/><path class="cls-1" d="M98.38,56.94a3,3,0,0,1-2.25-.87,3.35,3.35,0,0,1-.82-2.41,3.74,3.74,0,0,1,.76-2.47,2.53,2.53,0,0,1,2.05-.91,2.43,2.43,0,0,1,1.92.79,3.09,3.09,0,0,1,.7,2.1v.61H96.31a2.5,2.5,0,0,0,.58,1.72,2,2,0,0,0,1.52.59,5.15,5.15,0,0,0,2-.44v.87a4.77,4.77,0,0,1-1,.32A5.85,5.85,0,0,1,98.38,56.94Zm-.27-5.84a1.56,1.56,0,0,0-1.23.5A2.28,2.28,0,0,0,96.34,53h3.35a2.07,2.07,0,0,0-.41-1.4A1.42,1.42,0,0,0,98.11,51.1Z"/><path class="cls-1" d="M106.18,56.82l-.2-.92h0a2.6,2.6,0,0,1-1,.82,3,3,0,0,1-1.19.22,2.14,2.14,0,0,1-1.5-.5,1.78,1.78,0,0,1-.54-1.4c0-1.29,1-2,3.11-2L106,53v-.4a1.6,1.6,0,0,0-.33-1.11,1.32,1.32,0,0,0-1-.36,4.18,4.18,0,0,0-1.81.49l-.3-.75a4.59,4.59,0,0,1,1-.4,4.33,4.33,0,0,1,1.13-.15,2.43,2.43,0,0,1,1.7.51,2.14,2.14,0,0,1,.56,1.64v4.38Zm-2.2-.69a2,2,0,0,0,1.43-.49,1.89,1.89,0,0,0,.52-1.4v-.58l-1,0a3.6,3.6,0,0,0-1.67.36,1.09,1.09,0,0,0-.51,1,1,1,0,0,0,.32.81A1.33,1.33,0,0,0,104,56.13Z"/><path class="cls-1" d="M109.7,56.82h-1V47.7h1Z"/><path class="cls-1" d="M113.69,56.13a3.91,3.91,0,0,0,.49,0l.39-.08v.74a2.32,2.32,0,0,1-.47.13,4,4,0,0,1-.56,0c-1.24,0-1.86-.66-1.86-2V51.15h-.92v-.47l.92-.4.41-1.37h.57V50.4h1.86v.75h-1.86v3.78a1.3,1.3,0,0,0,.27.89A1,1,0,0,0,113.69,56.13Z"/><path class="cls-1" d="M120.08,56.82V52.67a1.68,1.68,0,0,0-.36-1.18,1.49,1.49,0,0,0-1.12-.38,1.82,1.82,0,0,0-1.48.55,2.77,2.77,0,0,0-.47,1.8v3.36h-1V47.7h1v2.76a6.47,6.47,0,0,1,0,.83h.06a2,2,0,0,1,.81-.73,2.66,2.66,0,0,1,1.21-.27,2.49,2.49,0,0,1,1.77.56,2.37,2.37,0,0,1,.59,1.78v4.19Z"/><path class="cls-1" d="M128.78,50.28a3.61,3.61,0,0,1,.77.07l-.14.9a3.2,3.2,0,0,0-.7-.09,1.69,1.69,0,0,0-1.33.64,2.29,2.29,0,0,0-.56,1.57v3.45h-1V50.4h.8l.12,1.18h0a2.89,2.89,0,0,1,.86-1A1.94,1.94,0,0,1,128.78,50.28Z"/><path class="cls-1" d="M133.29,56.94a2.93,2.93,0,0,1-2.24-.87,3.36,3.36,0,0,1-.83-2.41,3.74,3.74,0,0,1,.77-2.47,2.53,2.53,0,0,1,2-.91,2.41,2.41,0,0,1,1.91.79,3.05,3.05,0,0,1,.71,2.1v.61h-4.43a2.55,2.55,0,0,0,.57,1.72,2,2,0,0,0,1.53.59,5.18,5.18,0,0,0,2-.44v.87a4.65,4.65,0,0,1-1,.32A5.69,5.69,0,0,1,133.29,56.94ZM133,51.1a1.55,1.55,0,0,0-1.23.5,2.28,2.28,0,0,0-.54,1.39h3.35a2.07,2.07,0,0,0-.41-1.4A1.42,1.42,0,0,0,133,51.1Z"/><path class="cls-1" d="M141.29,55.07a1.59,1.59,0,0,1-.67,1.38,3.15,3.15,0,0,1-1.87.49,4.09,4.09,0,0,1-2-.41v-.9a4.58,4.58,0,0,0,1,.37,4.08,4.08,0,0,0,1,.13,2.32,2.32,0,0,0,1.17-.24.81.81,0,0,0,.41-.74.82.82,0,0,0-.32-.64,5,5,0,0,0-1.27-.63,7,7,0,0,1-1.28-.59,1.66,1.66,0,0,1-.56-.56,1.41,1.41,0,0,1-.19-.76,1.44,1.44,0,0,1,.64-1.23,2.94,2.94,0,0,1,1.76-.46,5.12,5.12,0,0,1,2,.42l-.34.79a4.77,4.77,0,0,0-1.76-.39,2.07,2.07,0,0,0-1,.21.69.69,0,0,0-.35.6.72.72,0,0,0,.13.44,1.33,1.33,0,0,0,.43.35,9.91,9.91,0,0,0,1.12.47,4.34,4.34,0,0,1,1.55.84A1.5,1.5,0,0,1,141.29,55.07Z"/><path class="cls-1" d="M145.42,56.94a3,3,0,0,1-2.25-.87,3.35,3.35,0,0,1-.82-2.41,3.74,3.74,0,0,1,.76-2.47,2.53,2.53,0,0,1,2-.91,2.4,2.4,0,0,1,1.91.79,3.05,3.05,0,0,1,.71,2.1v.61h-4.43a2.55,2.55,0,0,0,.57,1.72,2,2,0,0,0,1.53.59,5.15,5.15,0,0,0,2.05-.44v.87a4.77,4.77,0,0,1-1,.32A5.85,5.85,0,0,1,145.42,56.94Zm-.27-5.84a1.58,1.58,0,0,0-1.23.5,2.28,2.28,0,0,0-.54,1.39h3.35a2.07,2.07,0,0,0-.41-1.4A1.42,1.42,0,0,0,145.15,51.1Z"/><path class="cls-1" d="M153.22,56.82l-.2-.92h0a2.6,2.6,0,0,1-1,.82,3,3,0,0,1-1.19.22,2.14,2.14,0,0,1-1.5-.5,1.78,1.78,0,0,1-.54-1.4c0-1.29,1-2,3.11-2L153,53v-.4a1.6,1.6,0,0,0-.33-1.11,1.32,1.32,0,0,0-1-.36,4.18,4.18,0,0,0-1.81.49l-.3-.75a4.59,4.59,0,0,1,1-.4,4.39,4.39,0,0,1,1.13-.15,2.42,2.42,0,0,1,1.7.51,2.14,2.14,0,0,1,.56,1.64v4.38Zm-2.2-.69a2,2,0,0,0,1.43-.49,1.88,1.88,0,0,0,.51-1.4v-.58l-1,0a3.6,3.6,0,0,0-1.67.36,1.09,1.09,0,0,0-.51,1,1,1,0,0,0,.31.81A1.38,1.38,0,0,0,151,56.13Z"/><path class="cls-1" d="M158.7,50.28a3.61,3.61,0,0,1,.77.07l-.13.9a3.28,3.28,0,0,0-.71-.09,1.69,1.69,0,0,0-1.33.64,2.28,2.28,0,0,0-.55,1.57v3.45h-1V50.4h.81l.11,1.18h0a2.89,2.89,0,0,1,.86-1A1.94,1.94,0,0,1,158.7,50.28Z"/><path class="cls-1" d="M163.07,56.94a2.75,2.75,0,0,1-2.16-.86,3.52,3.52,0,0,1-.76-2.43,3.61,3.61,0,0,1,.77-2.49,2.79,2.79,0,0,1,2.21-.88,4.2,4.2,0,0,1,.93.1,3.32,3.32,0,0,1,.73.23l-.3.83a3.68,3.68,0,0,0-.71-.21,2.88,2.88,0,0,0-.67-.09c-1.3,0-2,.83-2,2.5a2.93,2.93,0,0,0,.48,1.81,1.68,1.68,0,0,0,1.42.64,4.32,4.32,0,0,0,1.64-.35v.86A3.41,3.41,0,0,1,163.07,56.94Z"/><path class="cls-1" d="M170.44,56.82V52.67a1.73,1.73,0,0,0-.35-1.18,1.5,1.5,0,0,0-1.12-.38,1.82,1.82,0,0,0-1.48.55,2.77,2.77,0,0,0-.47,1.8v3.36h-1V47.7h1v2.76a6.25,6.25,0,0,1-.05.83H167a2,2,0,0,1,.82-.73,2.63,2.63,0,0,1,1.21-.27,2.51,2.51,0,0,1,1.77.56,2.37,2.37,0,0,1,.59,1.78v4.19Z"/><path class="cls-1" d="M178.29,56.13a4.07,4.07,0,0,0,.5,0l.38-.08v.74a2,2,0,0,1-.47.13,3.74,3.74,0,0,1-.55,0c-1.24,0-1.86-.66-1.86-2V51.15h-.92v-.47l.92-.4.41-1.37h.56V50.4h1.86v.75h-1.86v3.78a1.25,1.25,0,0,0,.28.89A.93.93,0,0,0,178.29,56.13Z"/><path class="cls-1" d="M184.68,56.82V52.67a1.68,1.68,0,0,0-.36-1.18,1.47,1.47,0,0,0-1.12-.38,1.81,1.81,0,0,0-1.47.55,2.77,2.77,0,0,0-.47,1.8v3.36h-1V47.7h1v2.76a6.25,6.25,0,0,1,0,.83h.06a2,2,0,0,1,.82-.73,2.63,2.63,0,0,1,1.21-.27,2.52,2.52,0,0,1,1.77.56,2.37,2.37,0,0,1,.59,1.78v4.19Z"/><path class="cls-1" d="M190.43,50.28a3.51,3.51,0,0,1,.76.07l-.13.9a3.27,3.27,0,0,0-.7-.09,1.71,1.71,0,0,0-1.34.64,2.28,2.28,0,0,0-.55,1.57v3.45h-1V50.4h.8l.11,1.18h.05a2.69,2.69,0,0,1,.86-1A1.89,1.89,0,0,1,190.43,50.28Z"/><path class="cls-1" d="M197.77,53.6a3.51,3.51,0,0,1-.79,2.45,2.8,2.8,0,0,1-2.19.89,2.92,2.92,0,0,1-1.53-.41,2.65,2.65,0,0,1-1-1.16,4.05,4.05,0,0,1-.36-1.77,3.54,3.54,0,0,1,.78-2.44,2.77,2.77,0,0,1,2.18-.88,2.73,2.73,0,0,1,2.15.9A3.49,3.49,0,0,1,197.77,53.6Zm-4.89,0a3.05,3.05,0,0,0,.49,1.88,2,2,0,0,0,2.9,0,3.81,3.81,0,0,0,0-3.74,2,2,0,0,0-2.91,0A3.05,3.05,0,0,0,192.88,53.6Z"/><path class="cls-1" d="M200.23,50.4v4.16a1.68,1.68,0,0,0,.36,1.18,1.49,1.49,0,0,0,1.12.38,1.81,1.81,0,0,0,1.47-.55,2.79,2.79,0,0,0,.47-1.8V50.4h1v6.42h-.8l-.14-.86h-.05a2,2,0,0,1-.83.73,2.94,2.94,0,0,1-1.21.25,2.48,2.48,0,0,1-1.76-.56,2.35,2.35,0,0,1-.58-1.78V50.4Z"/><path class="cls-1" d="M211.78,50.4V51l-1.19.14a2.26,2.26,0,0,1,.3.54,2.18,2.18,0,0,1,.13.75,1.88,1.88,0,0,1-.65,1.5,2.58,2.58,0,0,1-1.77.57,3.1,3.1,0,0,1-.54,0,1,1,0,0,0-.62.82.41.41,0,0,0,.22.39,1.48,1.48,0,0,0,.74.13h1.14a2.56,2.56,0,0,1,1.6.44,1.51,1.51,0,0,1,.56,1.28,1.81,1.81,0,0,1-.85,1.62,4.61,4.61,0,0,1-2.5.56,3.33,3.33,0,0,1-1.94-.47,1.49,1.49,0,0,1-.68-1.32,1.51,1.51,0,0,1,.37-1,2,2,0,0,1,1.06-.58.92.92,0,0,1-.42-.34.94.94,0,0,1-.16-.55,1,1,0,0,1,.18-.61,2,2,0,0,1,.6-.51,1.74,1.74,0,0,1-.82-.7,2.12,2.12,0,0,1-.31-1.12,2.08,2.08,0,0,1,.63-1.63,2.61,2.61,0,0,1,1.8-.57,3.23,3.23,0,0,1,.91.12Zm-5.12,7.5a.89.89,0,0,0,.44.79,2.46,2.46,0,0,0,1.26.27,3.49,3.49,0,0,0,1.82-.37,1.11,1.11,0,0,0,.58-1,.76.76,0,0,0-.32-.72,2.41,2.41,0,0,0-1.21-.21h-1.17a1.55,1.55,0,0,0-1,.32A1.15,1.15,0,0,0,206.66,57.9Zm.53-5.45a1.32,1.32,0,0,0,.38,1,1.52,1.52,0,0,0,1.06.35,1.24,1.24,0,0,0,1.43-1.38A1.28,1.28,0,0,0,208.62,51a1.43,1.43,0,0,0-1.06.37A1.45,1.45,0,0,0,207.19,52.45Z"/><path class="cls-1" d="M217.34,56.82V52.67a1.68,1.68,0,0,0-.36-1.18,1.47,1.47,0,0,0-1.12-.38,1.83,1.83,0,0,0-1.48.55,2.78,2.78,0,0,0-.46,1.8v3.36h-1V47.7h1v2.76a6.25,6.25,0,0,1,0,.83h.06a2,2,0,0,1,.82-.73,2.63,2.63,0,0,1,1.21-.27,2.52,2.52,0,0,1,1.77.56,2.37,2.37,0,0,1,.58,1.78v4.19Z"/><path class="cls-1" d="M225.7,53.6a3.55,3.55,0,0,1-.79,2.45,2.8,2.8,0,0,1-2.19.89,2.92,2.92,0,0,1-1.53-.41,2.65,2.65,0,0,1-1-1.16,4.05,4.05,0,0,1-.36-1.77,3.54,3.54,0,0,1,.78-2.44,2.77,2.77,0,0,1,2.18-.88,2.73,2.73,0,0,1,2.15.9A3.49,3.49,0,0,1,225.7,53.6Zm-4.89,0a3.05,3.05,0,0,0,.49,1.88,1.7,1.7,0,0,0,1.44.64,1.73,1.73,0,0,0,1.46-.64,3.81,3.81,0,0,0,0-3.74,2,2,0,0,0-2.91,0A3.05,3.05,0,0,0,220.81,53.6Z"/><path class="cls-1" d="M228.16,50.4v4.16a1.68,1.68,0,0,0,.36,1.18,1.49,1.49,0,0,0,1.12.38,1.81,1.81,0,0,0,1.47-.55,2.79,2.79,0,0,0,.47-1.8V50.4h1v6.42h-.8l-.14-.86h-.06a2,2,0,0,1-.82.73,3,3,0,0,1-1.22.25,2.45,2.45,0,0,1-1.75-.56,2.35,2.35,0,0,1-.58-1.78V50.4Z"/><path class="cls-1" d="M236.53,56.13a4.07,4.07,0,0,0,.5,0l.38-.08v.74a2,2,0,0,1-.47.13,3.86,3.86,0,0,1-.55,0c-1.24,0-1.86-.66-1.86-2V51.15h-.92v-.47l.92-.4.41-1.37h.56V50.4h1.86v.75H235.5v3.78a1.3,1.3,0,0,0,.27.89A1,1,0,0,0,236.53,56.13Z"/><path class="cls-1" d="M243.56,56.13a4.07,4.07,0,0,0,.5,0l.38-.08v.74a2.15,2.15,0,0,1-.47.13,3.86,3.86,0,0,1-.55,0c-1.24,0-1.86-.66-1.86-2V51.15h-.92v-.47l.92-.4.41-1.37h.56V50.4h1.86v.75h-1.86v3.78a1.3,1.3,0,0,0,.27.89A1,1,0,0,0,243.56,56.13Z"/><path class="cls-1" d="M250,56.82V52.67a1.68,1.68,0,0,0-.36-1.18,1.49,1.49,0,0,0-1.12-.38,1.83,1.83,0,0,0-1.48.55,2.78,2.78,0,0,0-.46,1.8v3.36h-1V47.7h1v2.76a6.25,6.25,0,0,1-.05.83h.06a2,2,0,0,1,.82-.73,2.6,2.6,0,0,1,1.21-.27,2.48,2.48,0,0,1,1.76.56,2.33,2.33,0,0,1,.59,1.78v4.19Z"/><path class="cls-1" d="M255.48,56.94a3,3,0,0,1-2.25-.87,3.35,3.35,0,0,1-.82-2.41,3.74,3.74,0,0,1,.76-2.47,2.55,2.55,0,0,1,2.06-.91,2.42,2.42,0,0,1,1.91.79,3.09,3.09,0,0,1,.7,2.1v.61h-4.43A2.55,2.55,0,0,0,254,55.5a2,2,0,0,0,1.53.59,5.15,5.15,0,0,0,2.05-.44v.87a4.77,4.77,0,0,1-1,.32A5.85,5.85,0,0,1,255.48,56.94Zm-.27-5.84a1.58,1.58,0,0,0-1.23.5,2.28,2.28,0,0,0-.54,1.39h3.36a2.13,2.13,0,0,0-.41-1.4A1.46,1.46,0,0,0,255.21,51.1Z"/><path class="cls-1" d="M263.26,56.82h-1V47.7h1Z"/><path class="cls-1" d="M265.09,48.66a.63.63,0,0,1,.16-.49.6.6,0,0,1,.41-.16.58.58,0,0,1,.4.16.79.79,0,0,1,0,1,.58.58,0,0,1-.4.16.6.6,0,0,1-.41-.16A.66.66,0,0,1,265.09,48.66Zm1.05,8.16h-1V50.4h1Z"/><path class="cls-1" d="M270.94,51.15h-1.63v5.67h-1V51.15h-1.14v-.44l1.14-.35V50q0-2.37,2.07-2.37a4.53,4.53,0,0,1,1.2.2l-.26.78a3.19,3.19,0,0,0-1-.18.92.92,0,0,0-.81.37,2.06,2.06,0,0,0-.26,1.17v.42h1.63v.75Z"/><path class="cls-1" d="M274.67,56.94a3,3,0,0,1-2.25-.87,3.35,3.35,0,0,1-.82-2.41,3.74,3.74,0,0,1,.77-2.47,2.53,2.53,0,0,1,2.05-.91,2.42,2.42,0,0,1,1.91.79,3,3,0,0,1,.7,2.1v.61h-4.42a2.55,2.55,0,0,0,.57,1.72,2,2,0,0,0,1.52.59,5.19,5.19,0,0,0,2.06-.44v.87a4.85,4.85,0,0,1-1,.32A5.85,5.85,0,0,1,274.67,56.94Zm-.26-5.84a1.55,1.55,0,0,0-1.23.5,2.35,2.35,0,0,0-.55,1.39H276a2.13,2.13,0,0,0-.41-1.4A1.43,1.43,0,0,0,274.41,51.1Z"/><path class="cls-1" d="M282.66,55.07a1.6,1.6,0,0,1-.66,1.38,3.18,3.18,0,0,1-1.88.49,4.07,4.07,0,0,1-2-.41v-.9a4.69,4.69,0,0,0,1,.37,4.19,4.19,0,0,0,1,.13,2.39,2.39,0,0,0,1.18-.24.83.83,0,0,0,.08-1.38,5,5,0,0,0-1.27-.63,6.81,6.81,0,0,1-1.27-.59,1.66,1.66,0,0,1-.56-.56,1.54,1.54,0,0,1,.45-2,2.91,2.91,0,0,1,1.75-.46,5.16,5.16,0,0,1,2,.42l-.35.79a4.72,4.72,0,0,0-1.75-.39,2,2,0,0,0-1,.21.67.67,0,0,0-.35.6.72.72,0,0,0,.13.44,1.39,1.39,0,0,0,.42.35,10.32,10.32,0,0,0,1.13.47,4.27,4.27,0,0,1,1.54.84A1.46,1.46,0,0,1,282.66,55.07Z"/><path class="cls-1" d="M287.07,56.94a2.88,2.88,0,0,1-1.15-.23,2.31,2.31,0,0,1-.87-.72H285a8.11,8.11,0,0,1,.07,1.07V59.7h-1V50.4h.79l.13.88h.05a2.25,2.25,0,0,1,.87-.77,2.81,2.81,0,0,1,1.15-.23,2.37,2.37,0,0,1,2,.87,3.88,3.88,0,0,1,.69,2.45,3.81,3.81,0,0,1-.7,2.46A2.4,2.4,0,0,1,287.07,56.94Zm-.14-5.83a1.74,1.74,0,0,0-1.43.54,2.82,2.82,0,0,0-.45,1.73v.22a3.24,3.24,0,0,0,.45,1.94,1.71,1.71,0,0,0,1.45.58,1.49,1.49,0,0,0,1.3-.67,3.16,3.16,0,0,0,.47-1.86,3,3,0,0,0-.47-1.84A1.53,1.53,0,0,0,286.93,51.11Z"/><path class="cls-1" d="M295.23,56.82l-.2-.92h0a2.6,2.6,0,0,1-1,.82,3,3,0,0,1-1.19.22,2.14,2.14,0,0,1-1.5-.5,1.78,1.78,0,0,1-.54-1.4c0-1.29,1-2,3.11-2L295,53v-.4a1.6,1.6,0,0,0-.33-1.11,1.32,1.32,0,0,0-1-.36,4.18,4.18,0,0,0-1.81.49l-.3-.75a4.59,4.59,0,0,1,1-.4,4.33,4.33,0,0,1,1.13-.15,2.43,2.43,0,0,1,1.7.51,2.14,2.14,0,0,1,.56,1.64v4.38Zm-2.2-.69a2,2,0,0,0,1.43-.49,1.88,1.88,0,0,0,.51-1.4v-.58l-1,0a3.6,3.6,0,0,0-1.67.36,1.09,1.09,0,0,0-.51,1,1,1,0,0,0,.32.81A1.32,1.32,0,0,0,293,56.13Z"/><path class="cls-1" d="M302.18,56.82V52.67a1.68,1.68,0,0,0-.36-1.18,1.49,1.49,0,0,0-1.12-.38,1.88,1.88,0,0,0-1.48.54,2.76,2.76,0,0,0-.47,1.8v3.37h-1V50.4h.79l.16.88h0a2,2,0,0,1,.84-.74,2.75,2.75,0,0,1,1.2-.26,2.44,2.44,0,0,1,1.74.56,2.38,2.38,0,0,1,.59,1.79v4.19Z"/><path class="cls-2" d="M56,14V36.54h-4V26.37H41.82V36.54h-4V14h4v9H52.08V14h4ZM33.93,36.54H30V14h3.95Zm-7.84,0H21.93L11.66,20h-.09V36.54H7.81V14H12L22.27,30.6h.07V14h3.75Z"/><path class="cls-3" d="M56,14V36.54h-4V26.37H41.82V36.54h-4V14h4v9H52.08V14h4ZM33.93,36.54H30V14h3.95Zm-7.84,0H21.93L11.66,20h-.09V36.54H7.81V14H12L22.27,30.6h.07V14h3.75ZM69.93,25.19,56,0H4.64A4.64,4.64,0,0,0,0,4.64V45.78a4.64,4.64,0,0,0,4.64,4.64H56Z"/><path class="cls-4" d="M59.44,50.43l14-25.24L59.49,0H63a6.52,6.52,0,0,1,5.15,3L80.37,25.19,68.09,47.39a6.54,6.54,0,0,1-5.16,3Z"/><polygon class="cls-3" points="88.01 11.82 95.29 11.82 94.98 13.33 89.42 13.33 88.88 15.95 94.03 15.95 93.74 17.38 88.57 17.38 87.97 20.31 93.57 20.31 93.26 21.82 85.93 21.82 88.01 11.82"/><path class="cls-3" d="M100.66,21.82h-1.5l.22-1.05,0,0A3.07,3.07,0,0,1,96.86,22c-1.46,0-2.11-.75-2.11-1.91a4.44,4.44,0,0,1,.07-.9l1-4.62h1.6l-.92,4.47a2.88,2.88,0,0,0-.12.67c0,.24-.07,1,1.11,1a2.62,2.62,0,0,0,2.3-2.25l.81-3.92h1.6Z"/><path class="cls-3" d="M103.64,14.58h1.5l-.22,1.05,0,0a3,3,0,0,1,2.49-1.28c1.46,0,2.11.76,2.11,1.92a4.49,4.49,0,0,1-.07.9l-1,4.62h-1.6l.92-4.47a3,3,0,0,0,.12-.67c0-.24.05-1-1.11-1a2.11,2.11,0,0,0-1.51.7,3.35,3.35,0,0,0-.79,1.56l-.81,3.92h-1.6Z"/><path class="cls-3" d="M111.45,14.58H113l-1.5,7.24H110Zm.57-2.76h1.58l-.31,1.51h-1.58Z"/><path class="cls-3" d="M118.81,17c0-.89-.56-1.33-1.43-1.33-1.59,0-2.38,1.84-2.38,3.22,0,1.08.42,1.89,1.62,1.89a1.84,1.84,0,0,0,1.82-1.42H120A3.45,3.45,0,0,1,116.35,22a2.81,2.81,0,0,1-2.94-3.1c0-2.44,1.54-4.54,4.12-4.54,1.61,0,2.94.9,2.88,2.59Z"/><path class="cls-3" d="M127.57,19.58A3.29,3.29,0,0,1,124.08,22a3,3,0,0,1-3.16-3.16c0-2.23,1.43-4.47,4-4.47S128,16.3,128,17.71a4.47,4.47,0,0,1-.09.9h-5.39a2.53,2.53,0,0,0,0,.46,1.53,1.53,0,0,0,1.73,1.68A1.67,1.67,0,0,0,126,19.58Zm-1.16-2c0-.17,0-.31,0-.45a1.41,1.41,0,0,0-1.53-1.47,2.28,2.28,0,0,0-2.2,1.92Z"/><polygon class="cls-3" points="134.04 11.82 135.79 11.82 134.85 16.36 134.88 16.38 139.98 11.82 142.32 11.82 137.52 15.95 140.65 21.82 138.66 21.82 136.16 17.04 134.39 18.56 133.72 21.82 131.97 21.82 134.04 11.82"/><path class="cls-3" d="M148.11,19.58A3.3,3.3,0,0,1,144.62,22a3,3,0,0,1-3.17-3.16c0-2.23,1.43-4.47,4-4.47s3.08,1.92,3.08,3.33a5.34,5.34,0,0,1-.09.9h-5.39a2.53,2.53,0,0,0,0,.46,1.53,1.53,0,0,0,1.72,1.68,1.68,1.68,0,0,0,1.74-1.17Zm-1.16-2c0-.17,0-.31,0-.45a1.41,1.41,0,0,0-1.53-1.47,2.28,2.28,0,0,0-2.2,1.92Z"/><path class="cls-3" d="M150.18,14.58h1.5l-.22,1.05,0,0a3.08,3.08,0,0,1,2.5-1.28c1.45,0,2.11.76,2.11,1.92a4.49,4.49,0,0,1-.07.9l-1,4.62h-1.6l.93-4.47a3.58,3.58,0,0,0,.11-.67c0-.24.05-1-1.11-1a2.11,2.11,0,0,0-1.51.7,3.35,3.35,0,0,0-.79,1.56l-.81,3.92h-1.6Z"/><path class="cls-3" d="M158,14.58h1.49l-.22,1.05,0,0a3.06,3.06,0,0,1,2.49-1.28c1.46,0,2.12.76,2.12,1.92a5.37,5.37,0,0,1-.07.9l-1,4.62h-1.6l.93-4.47a3.58,3.58,0,0,0,.11-.67c0-.24.06-1-1.11-1a2.11,2.11,0,0,0-1.51.7,3.34,3.34,0,0,0-.78,1.56l-.82,3.92h-1.59Z"/><path class="cls-3" d="M171.25,19.58A3.29,3.29,0,0,1,167.76,22a3,3,0,0,1-3.16-3.16c0-2.23,1.43-4.47,4-4.47s3.08,1.92,3.08,3.33a5.46,5.46,0,0,1-.08.9h-5.4a2.53,2.53,0,0,0,0,.46,1.53,1.53,0,0,0,1.73,1.68,1.67,1.67,0,0,0,1.73-1.17Zm-1.16-2c0-.17,0-.31,0-.45a1.41,1.41,0,0,0-1.52-1.47,2.27,2.27,0,0,0-2.2,1.92Z"/><path class="cls-3" d="M178.55,21.82H177l.23-1,0,0A2.52,2.52,0,0,1,175,22c-.83,0-2.81-.26-2.81-3,0-2.34,1.44-4.67,3.93-4.67a2.16,2.16,0,0,1,2.19,1.19h0l.79-3.75h1.6Zm-2.28-6.18c-1.78,0-2.54,1.78-2.54,3.41a1.51,1.51,0,0,0,1.65,1.7c1.64,0,2.48-1.92,2.48-3.37a1.53,1.53,0,0,0-1.59-1.74"/><path class="cls-3" d="M180.72,14.58h1.69l.75,5.29h0l2.73-5.29h1.71L183.48,22c-.75,1.38-1.3,2.65-3.09,2.65a4.58,4.58,0,0,1-1-.11l.3-1.33a2.61,2.61,0,0,0,.61.11,1,1,0,0,0,1-.62l.63-1.16Z"/><path class="cls-3" d="M192.59,18.51c-.07,1.56.84,2.12,2.3,2.12,1,0,2.22-.44,2.22-1.6s-1.16-1.41-2.39-1.75c-.88-.24-2.73-.69-2.73-2.59s1.36-3.11,3.72-3.11c2.09,0,3.79.84,3.7,3.19h-1.68c0-1.24-.69-1.76-2-1.76-.48,0-1.95.14-1.95,1.47,0,1,1,1.22,2.09,1.5,1.41.36,3,.74,3,2.84,0,1.56-1.13,3.24-4.15,3.24-2.36,0-3.87-1-3.8-3.55Z"/><path class="cls-3" d="M201.47,11.82h1.6l-.79,3.78h0a3.08,3.08,0,0,1,2.38-1.22c1.46,0,2.12.76,2.12,1.92a5.37,5.37,0,0,1-.07.9l-1,4.62h-1.59l.92-4.47a3,3,0,0,0,.11-.67c0-.24.06-1-1.1-1a2.14,2.14,0,0,0-1.52.7,3.34,3.34,0,0,0-.78,1.56L201,21.82h-1.6Z"/><path class="cls-3" d="M208.7,14.58h1.51L209.92,16l0,0a2.94,2.94,0,0,1,2.31-1.64,5,5,0,0,1,.77,0L212.69,16a3.55,3.55,0,0,0-.56-.06c-1.65,0-2.35,1.27-2.66,2.72l-.67,3.21h-1.6Z"/><path class="cls-3" d="M213.65,14.58h1.59l-1.5,7.24h-1.59Zm.57-2.76h1.58l-.31,1.51h-1.58Z"/><polygon class="cls-3" points="215.92 14.58 217.57 14.58 218.17 19.86 218.2 19.86 221 14.58 222.68 14.58 218.68 21.82 216.9 21.82 215.92 14.58"/><path class="cls-3" d="M229,19.58A3.29,3.29,0,0,1,225.51,22a3,3,0,0,1-3.16-3.16c0-2.23,1.43-4.47,4-4.47s3.08,1.92,3.08,3.33a4.47,4.47,0,0,1-.09.9H224a2.53,2.53,0,0,0,0,.46,1.53,1.53,0,0,0,1.73,1.68,1.67,1.67,0,0,0,1.73-1.17Zm-1.16-2c0-.17,0-.31,0-.45a1.41,1.41,0,0,0-1.52-1.47,2.27,2.27,0,0,0-2.2,1.92Z"/><path class="cls-3" d="M231.09,14.58h1.51L232.31,16l0,0a2.94,2.94,0,0,1,2.31-1.64,5,5,0,0,1,.77,0L235.08,16a3.55,3.55,0,0,0-.56-.06c-1.65,0-2.35,1.27-2.66,2.72l-.67,3.21h-1.6Z"/><polygon class="cls-3" points="238.78 12.45 240.51 12.45 244.79 19.35 244.81 19.35 244.81 12.45 246.38 12.45 246.38 21.82 244.64 21.82 240.38 14.93 240.34 14.93 240.34 21.82 238.78 21.82 238.78 12.45"/><path class="cls-3" d="M253.56,20.31c0,.37.08.51.36.51a2.64,2.64,0,0,0,.36,0v1a3.63,3.63,0,0,1-.94.17c-.61,0-1-.21-1.16-.82a3.51,3.51,0,0,1-2.35.82,2.06,2.06,0,0,1-2.32-2c0-1.69,1.35-2,2.61-2.11,1.08-.2,2-.08,2-1s-.81-.92-1.41-.92c-.84,0-1.43.34-1.49,1.08h-1.5c.1-1.75,1.59-2.26,3.08-2.26,1.33,0,2.72.54,2.72,2v3.49Zm-1.49-1.89a5.48,5.48,0,0,1-1.84.41c-.65.1-1.22.34-1.22,1.13s.85.86,1.37.86,1.68-.34,1.68-1.28V18.42Z"/><path class="cls-3" d="M254.27,15h1.12V13h1.5v2h1.35v1.12h-1.35v3.62c0,.62.05.93.72.93a2.68,2.68,0,0,0,.63-.05v1.16c-.32,0-.64.08-1,.08-1.56,0-1.85-.61-1.87-1.74v-4h-1.13V15Z"/><path class="cls-3" d="M259.12,12.45h1.5v1.42h-1.5Zm0,2.58h1.5v6.79h-1.5Z"/><path class="cls-3" d="M261.7,18.42a3.43,3.43,0,1,1,6.85,0,3.43,3.43,0,1,1-6.85,0m5.36,0c0-1.17-.6-2.39-1.93-2.39s-1.93,1.22-1.93,2.39.59,2.4,1.93,2.4,1.93-1.22,1.93-2.4"/><path class="cls-3" d="M269.57,15H271v1l0,0a2.45,2.45,0,0,1,2.12-1.21,2.15,2.15,0,0,1,2.4,2.31v4.66H274V17.55c0-1.06-.44-1.52-1.32-1.52a1.66,1.66,0,0,0-1.64,1.79v4h-1.5V15Z"/><path class="cls-3" d="M282.56,20.31c0,.37.08.51.35.51a2.7,2.7,0,0,0,.37,0v1a3.71,3.71,0,0,1-.94.17c-.61,0-1-.21-1.16-.82a3.51,3.51,0,0,1-2.35.82,2.06,2.06,0,0,1-2.32-2c0-1.69,1.35-2,2.61-2.11,1.08-.2,2-.08,2-1s-.79-.92-1.4-.92c-.84,0-1.43.34-1.49,1.08h-1.5c.1-1.75,1.59-2.26,3.08-2.26,1.33,0,2.72.54,2.72,2v3.49Zm-1.5-1.89a5.42,5.42,0,0,1-1.84.41c-.64.1-1.22.34-1.22,1.13s.86.86,1.38.86,1.68-.34,1.68-1.28V18.42Z"/><rect class="cls-3" x="283.97" y="12.45" width="1.49" height="9.37"/><rect class="cls-3" x="290.49" y="12.45" width="1.64" height="9.37"/><path class="cls-3" d="M293.69,15h1.42v1l0,0a2.44,2.44,0,0,1,2.12-1.21,2.15,2.15,0,0,1,2.4,2.31v4.66h-1.5V17.55c0-1.06-.44-1.52-1.32-1.52a1.66,1.66,0,0,0-1.64,1.79v4h-1.5V15Z"/><path class="cls-3" d="M302.12,19.64c.08.87.74,1.18,1.54,1.18.56,0,1.55-.12,1.51-.89S304,19.05,303,18.8s-2.18-.63-2.18-2,1.6-1.94,2.84-1.94,2.65.58,2.83,2.09h-1.56c-.13-.71-.72-.91-1.38-.91-.43,0-1.23.11-1.23.7s1.1.84,2.2,1.09,2.19.64,2.19,2c0,1.61-1.62,2.2-3,2.2-1.7,0-3-.76-3-2.36Z"/><path class="cls-3" d="M306.9,15H308V13h1.49v2h1.35v1.12h-1.35v3.62c0,.62.06.93.72.93a2.68,2.68,0,0,0,.63-.05v1.16c-.32,0-.64.08-1,.08-1.56,0-1.85-.61-1.87-1.74v-4H306.9Z"/><path class="cls-3" d="M311.75,12.45h1.5v1.42h-1.5Zm0,2.58h1.5v6.79h-1.5Z"/><path class="cls-3" d="M314,15h1.13V13h1.5v2h1.35v1.12h-1.35v3.62c0,.62.05.93.72.93a2.68,2.68,0,0,0,.63-.05v1.16c-.33,0-.64.08-1,.08-1.56,0-1.85-.61-1.88-1.74v-4H314Z"/><path class="cls-3" d="M324.74,21.82h-1.47v-.95h0A2.25,2.25,0,0,1,321.31,22c-1.77,0-2.53-.89-2.53-2.66V15h1.5v4.16c0,1.2.48,1.63,1.3,1.63,1.24,0,1.66-.8,1.66-1.85V15h1.5v6.79Z"/><path class="cls-3" d="M325.4,15h1.13V13H328v2h1.35v1.12H328v3.62c0,.62.05.93.72.93a2.68,2.68,0,0,0,.63-.05v1.16c-.33,0-.64.08-1,.08-1.56,0-1.85-.61-1.88-1.74v-4H325.4Z"/><path class="cls-3" d="M331.4,18.81a1.8,1.8,0,0,0,1.82,2,1.56,1.56,0,0,0,1.65-1.13h1.42A3,3,0,0,1,333.22,22c-2.12,0-3.32-1.48-3.32-3.57a3.28,3.28,0,1,1,6.48.38Zm3.49-1a1.75,1.75,0,1,0-3.49,0Z"/><path class="cls-3" d="M86.42,35.94a3.66,3.66,0,1,1,7.32,0,3.66,3.66,0,1,1-7.32,0m5.72,0c0-1.25-.63-2.55-2.06-2.55S88,34.69,88,35.94s.63,2.56,2.06,2.56,2.06-1.3,2.06-2.56"/><path class="cls-3" d="M94.12,32.33h1.19v-.61c0-1.84,1-2.15,2-2.15a4.48,4.48,0,0,1,1.12.1v1.24a3,3,0,0,0-.74-.08c-.44,0-.79.15-.79.75v.75h1.36v1.19H96.9v6H95.31v-6H94.12Z"/><path class="cls-3" d="M109.64,32.75a2.4,2.4,0,0,0-2.5-2c-2.14,0-3,1.89-3,3.81s.9,3.81,3,3.81a2.57,2.57,0,0,0,2.55-2.62h1.71a4.09,4.09,0,0,1-4.26,4.05c-3,0-4.79-2.38-4.79-5.24s1.8-5.24,4.79-5.24c2.26,0,4,1.26,4.25,3.42Z"/><path class="cls-3" d="M112.54,29.57h1.6v3.71h0a2.54,2.54,0,0,1,2.17-1.15,2.3,2.3,0,0,1,2.57,2.47v5h-1.6V35c0-1.14-.48-1.63-1.41-1.63a1.76,1.76,0,0,0-1.75,1.91v4.27h-1.6Z"/><path class="cls-3" d="M120.38,29.57H122v1.51h-1.6Zm0,2.76H122v7.24h-1.6Z"/><rect class="cls-3" x="123.51" y="29.57" width="1.6" height="10"/><path class="cls-3" d="M133.43,39.57h-1.52v-1h0a2.4,2.4,0,0,1-2.24,1.18c-2.28,0-3.39-1.7-3.39-3.87,0-2.62,1.56-3.77,3.14-3.77a2.79,2.79,0,0,1,2.41,1.14h0v-3.7h1.6Zm-3.58-1.06c1.43,0,2-1.31,2-2.57,0-1.59-.76-2.55-2-2.55-1.5,0-2,1.33-2,2.64s.62,2.48,2,2.48"/><polygon class="cls-3" points="138.74 29.57 140.49 29.57 140.49 33.55 145.04 33.55 145.04 29.57 146.79 29.57 146.79 39.57 145.04 39.57 145.04 35.06 140.49 35.06 140.49 39.57 138.74 39.57 138.74 29.57"/><path class="cls-3" d="M149.68,36.36a1.92,1.92,0,0,0,1.94,2.15,1.68,1.68,0,0,0,1.77-1.21h1.51a3.17,3.17,0,0,1-3.28,2.47c-2.26,0-3.54-1.59-3.54-3.82a3.5,3.5,0,1,1,6.92.41Zm3.72-1a1.86,1.86,0,1,0-3.72,0Z"/><path class="cls-3" d="M162,38c0,.39.09.54.38.54a3,3,0,0,0,.39,0v1.1a3.69,3.69,0,0,1-1,.19,1.08,1.08,0,0,1-1.23-.89,3.69,3.69,0,0,1-2.5.89,2.2,2.2,0,0,1-2.48-2.12c0-1.81,1.44-2.1,2.78-2.25,1.15-.22,2.18-.09,2.18-1s-.86-1-1.5-1c-.9,0-1.53.37-1.6,1.15h-1.6c.12-1.86,1.7-2.41,3.29-2.41,1.42,0,2.9.58,2.9,2.1V38Zm-1.59-2a5.84,5.84,0,0,1-2,.44c-.68.11-1.3.36-1.3,1.2s.91.92,1.47.92,1.8-.36,1.8-1.37Z"/><rect class="cls-3" x="163.56" y="29.57" width="1.6" height="10"/><path class="cls-3" d="M165.91,32.33h1.21V30.16h1.6v2.17h1.44v1.19h-1.44v3.86c0,.66.05,1,.77,1a2.54,2.54,0,0,0,.67-.06v1.24c-.35,0-.69.08-1,.08-1.66,0-2-.65-2-1.85V33.52h-1.21V32.33Z"/><path class="cls-3" d="M171.06,29.57h1.59v3.71h0a2.53,2.53,0,0,1,2.17-1.15,2.3,2.3,0,0,1,2.57,2.47v5h-1.6V35c0-1.14-.48-1.63-1.41-1.63a1.77,1.77,0,0,0-1.76,1.91v4.27h-1.59v-10Z"/><path class="cls-3" d="M188.57,38c0,.39.08.54.38.54a3.13,3.13,0,0,0,.39,0v1.1a3.76,3.76,0,0,1-1,.19c-.64,0-1.11-.23-1.23-.89a3.7,3.7,0,0,1-2.51.89,2.2,2.2,0,0,1-2.48-2.12c0-1.81,1.44-2.1,2.79-2.25,1.15-.22,2.17-.09,2.17-1s-.85-1-1.5-1c-.89,0-1.52.37-1.6,1.15h-1.59c.11-1.86,1.69-2.41,3.29-2.41,1.41,0,2.9.58,2.9,2.1V38Zm-1.6-2a5.84,5.84,0,0,1-2,.44c-.69.11-1.31.36-1.31,1.2s.92.92,1.48.92,1.79-.36,1.79-1.37Z"/><path class="cls-3" d="M190,32.33h1.51v1.06l0,0a2.59,2.59,0,0,1,2.26-1.29,2.29,2.29,0,0,1,2.56,2.47v5h-1.6V35c0-1.13-.47-1.62-1.41-1.62a1.76,1.76,0,0,0-1.75,1.91v4.27H190Z"/><path class="cls-3" d="M204.66,39.57h-1.51v-1h0a2.4,2.4,0,0,1-2.24,1.18c-2.28,0-3.39-1.7-3.39-3.87,0-2.62,1.56-3.77,3.14-3.77A2.79,2.79,0,0,1,203,33.27h0v-3.7h1.59Zm-3.57-1.06c1.43,0,2-1.31,2-2.57,0-1.59-.77-2.55-2-2.55-1.5,0-2,1.33-2,2.64s.61,2.48,2,2.48"/><polygon class="cls-3" points="209.99 29.57 211.74 29.57 211.74 33.55 216.29 33.55 216.29 29.57 218.04 29.57 218.04 39.57 216.29 39.57 216.29 35.06 211.74 35.06 211.74 39.57 209.99 39.57 209.99 29.57"/><path class="cls-3" d="M226,39.57h-1.56v-1h0a2.44,2.44,0,0,1-2.06,1.21c-1.89,0-2.71-1-2.71-2.85V32.33h1.6v4.44c0,1.27.52,1.73,1.39,1.73,1.33,0,1.78-.85,1.78-2V32.32H226v7.25Z"/><path class="cls-3" d="M227.49,32.33H229v1h0a2.42,2.42,0,0,1,2.23-1.21,2,2,0,0,1,2,1.21,2.6,2.6,0,0,1,2.27-1.21A2.12,2.12,0,0,1,238,34.57v5H236.4V35.34c0-1.15-.07-2-1.32-2-1.08,0-1.54.72-1.54,1.94v4.24h-1.6V34.92c0-1-.31-1.53-1.27-1.53a1.68,1.68,0,0,0-1.58,1.88v4.3h-1.6V32.33Z"/><path class="cls-3" d="M245.5,38c0,.39.09.54.38.54a3,3,0,0,0,.39,0v1.1a3.69,3.69,0,0,1-1,.19,1.08,1.08,0,0,1-1.23-.89,3.69,3.69,0,0,1-2.5.89,2.2,2.2,0,0,1-2.48-2.12c0-1.81,1.44-2.1,2.78-2.25,1.15-.22,2.18-.09,2.18-1s-.86-1-1.5-1c-.9,0-1.53.37-1.6,1.15h-1.6c.11-1.86,1.7-2.41,3.29-2.41,1.42,0,2.9.58,2.9,2.1V38Zm-1.59-2a5.84,5.84,0,0,1-2,.44c-.68.11-1.3.36-1.3,1.2s.91.92,1.47.92,1.8-.36,1.8-1.37Z"/><path class="cls-3" d="M247,32.33h1.51v1.06l0,0a2.59,2.59,0,0,1,2.26-1.29,2.29,2.29,0,0,1,2.56,2.47v5h-1.6V35c0-1.13-.47-1.62-1.41-1.62a1.76,1.76,0,0,0-1.75,1.91v4.27H247Z"/><path class="cls-3" d="M258.66,29.57h4.14c3.09,0,4.42,2.24,4.42,5s-1.33,5-4.42,5h-4.14Zm1.75,8.57h1.72c2.75,0,3.34-1.57,3.34-3.57S264.88,31,262.13,31h-1.72Z"/><path class="cls-3" d="M269.56,36.36a1.93,1.93,0,0,0,1.95,2.15,1.68,1.68,0,0,0,1.76-1.21h1.51a3.17,3.17,0,0,1-3.27,2.47c-2.27,0-3.55-1.59-3.55-3.82a3.5,3.5,0,1,1,6.92.41Zm3.73-1a1.87,1.87,0,1,0-3.73,0Z"/><polygon class="cls-3" points="275.15 32.33 276.88 32.33 278.72 37.89 278.75 37.89 280.51 32.33 282.17 32.33 279.58 39.57 277.78 39.57 275.15 32.33"/><path class="cls-3" d="M284.14,36.36a1.93,1.93,0,0,0,1.95,2.15,1.68,1.68,0,0,0,1.76-1.21h1.52a3.18,3.18,0,0,1-3.28,2.47c-2.27,0-3.54-1.59-3.54-3.82a3.5,3.5,0,1,1,6.92.41Zm3.73-1a1.87,1.87,0,1,0-3.73,0Z"/><rect class="cls-3" x="290.49" y="29.57" width="1.6" height="10"/><path class="cls-3" d="M293.24,35.94a3.66,3.66,0,1,1,7.31,0,3.66,3.66,0,1,1-7.31,0m5.71,0c0-1.25-.63-2.55-2.06-2.55s-2.06,1.3-2.06,2.55.63,2.56,2.06,2.56S299,37.2,299,35.94"/><path class="cls-3" d="M301.68,32.33h1.52v1h0a2.42,2.42,0,0,1,2.24-1.18c2.29,0,3.4,1.74,3.4,3.85,0,2-1,3.79-3.13,3.79a2.81,2.81,0,0,1-2.42-1.14h0v3.62h-1.6Zm3.57,1.06c-1.34,0-2,1-2,2.56s.75,2.55,2,2.55c1.46,0,2-1.29,2-2.55s-.69-2.56-2-2.56"/><path class="cls-3" d="M310,32.33h1.51v1h0a2.42,2.42,0,0,1,2.23-1.21,2,2,0,0,1,2,1.21A2.6,2.6,0,0,1,318,32.13a2.13,2.13,0,0,1,2.43,2.44v5h-1.6V35.34c0-1.15-.07-2-1.32-2-1.08,0-1.54.72-1.54,1.94v4.24h-1.6V34.92c0-1-.3-1.53-1.27-1.53a1.68,1.68,0,0,0-1.58,1.88v4.3H310V32.33Z"/><path class="cls-3" d="M323.13,36.36a1.93,1.93,0,0,0,1.95,2.15,1.68,1.68,0,0,0,1.76-1.21h1.52a3.18,3.18,0,0,1-3.28,2.47c-2.27,0-3.54-1.59-3.54-3.82a3.5,3.5,0,1,1,6.92.41Zm3.73-1a1.87,1.87,0,1,0-3.73,0Z"/><path class="cls-3" d="M329.44,32.33H331v1.06l0,0a2.58,2.58,0,0,1,2.25-1.29,2.3,2.3,0,0,1,2.57,2.47v5h-1.6V35c0-1.13-.48-1.62-1.41-1.62A1.77,1.77,0,0,0,331,35.3v4.27h-1.59Z"/><path class="cls-3" d="M336.51,32.33h1.21V30.16h1.59v2.17h1.45v1.19h-1.45v3.86c0,.66.06,1,.77,1a2.61,2.61,0,0,0,.68-.06v1.24c-.36,0-.69.08-1,.08-1.67,0-2-.65-2-1.85V33.52h-1.21V32.33Z"/></svg>