<svg id="Layer_1" data-name="Layer 1" xmlns="http://www.w3.org/2000/svg" viewBox="0 0 307.54 93.6"><defs><style>.cls-1{fill:#8b0021;}.cls-2{font-size:21px;fill:#777677;font-family:MyriadPro-Bold, Myriad Pro;font-weight:700;}.cls-3{letter-spacing:-0.02em;}.cls-4{letter-spacing:-0.01em;}.cls-5{letter-spacing:0em;}.cls-6{letter-spacing:-0.01em;}.cls-7{letter-spacing:-0.01em;}.cls-8{letter-spacing:0em;}.cls-9{letter-spacing:-0.01em;}.cls-10{letter-spacing:-0.01em;}.cls-11{letter-spacing:0.01em;}.cls-12{letter-spacing:-0.01em;}</style></defs><title>logo-university-of-chicago</title><path class="cls-1" d="M18.25,13.85c-.2.14.23.35.19.34a3.58,3.58,0,0,0,.13,1.52c.13.19.54.33.61.15a2.48,2.48,0,0,1,.44-.62c.13-.11,0-.21-.09-.1s-.35.12-.51,0a2.27,2.27,0,0,1-.05-1s.4-.06.5-.06.07-.23,0-.23-.48,0-.5-.06a5.12,5.12,0,0,1,.09-.93c0-.18-.08-.24-.13-.07a3.55,3.55,0,0,1-.67,1Zm1.07-2.15c.24,0,.62.12,1,.09s.9-.82.69-1.42-.85-.48-1.28-.61-.56-.36-.13-.65,1.14.2,1.2.31.17.17.17-.05c0-.48,0-.21-.07-.66,0-.16-.14-.17-.15,0s-.2.11-.34.11a1.78,1.78,0,0,0-.94.14c-.24.13-.77.55-.47,1.05.17.3,1.2.53,1.46.7a.53.53,0,0,1,.07.8,1.41,1.41,0,0,1-1.27-.11,1,1,0,0,1-.27-.55c0-.22-.22-.21-.22,0a8.56,8.56,0,0,0,.09,1.05c0,.17.2.11.21,0s.1-.15.21-.16Zm1.18.66a1,1,0,0,1-.52.47,4.4,4.4,0,0,0,.53.42c.16-.18.31-.34.5-.52a.67.67,0,0,1-.51-.37Zm-2.56-.26a4.42,4.42,0,0,0,.37-.43c.13-.11,0-.22-.09-.11s-.33-.12-.34-.13a5,5,0,0,1-.13-1.29s.74-.09.84-.09.08-.23,0-.24a3.67,3.67,0,0,1-.71,0,1.33,1.33,0,0,1,.07-.9c.09-.16,0-.31-.06-.15a2.73,2.73,0,0,1-.83,1c-.25.1-.22.15-.06.19a.42.42,0,0,1,.23.18,4.17,4.17,0,0,0,.1,1.65c.12.2.45.41.6.28Zm-2.06,1.23c-.19.18-.34.34-.61.56a1.11,1.11,0,0,1,.36.58c0,.26,0,1.44,0,1.73.2,0,.17,0,.51,0,0-.2,0-1.73,0-2a2.35,2.35,0,0,1,.29-.26c.11.1.36.15.36.32a7.57,7.57,0,0,1,0,1.16,1.14,1.14,0,0,0,.14.89,8.72,8.72,0,0,1,.75-.59c.1-.09,0-.16-.09-.12s-.18.06-.18,0-.07-1-.08-1.49a.74.74,0,0,0-.41-.73,7.84,7.84,0,0,1-.67.53c-.15-.1-.22-.35-.38-.61Zm-2,.35a2.17,2.17,0,0,0,.5.72,7.87,7.87,0,0,1-.9.68c-.27-.34-.42-.9.4-1.4Zm-.93,1c-.13,1,.78,1.53,1.21,1.72a4.39,4.39,0,0,1,.55-.83c.17-.2,0-.25-.16-.1s-.8,0-1-.28c.29-.21,1-.84,1.37-1.11a2.46,2.46,0,0,1-.6-1c-.3.2-1.26.6-1.41,1.6Zm-.25-4.61A1.41,1.41,0,0,0,12.77,12a1.17,1.17,0,0,0,1.11.32,2.5,2.5,0,0,1,.37-.58,1.19,1.19,0,0,1-1-.23A1.12,1.12,0,0,1,13,10c.32-.48.78.21.87.3a2.93,2.93,0,0,1,.47-.45c-.18-.24-.33-.46-.45-.6a2.76,2.76,0,0,0-1.19.84Zm2.8-1.43a.44.44,0,0,1-.14-.27c0-.08,0-.9,0-1s-.2-.08-.2,0a1.06,1.06,0,0,1-.11.6c-.37.56-1.06.79-1.54.11a1.67,1.67,0,0,1-.23-.82,1.7,1.7,0,0,1,.24-.8.88.88,0,0,1,1.54.13,4.4,4.4,0,0,1,.09.62c0,.1.2.09.2,0s0-1.34,0-1.43-.16-.1-.17,0-.12.22-.27.17a2.06,2.06,0,0,0-1.41,0,1.66,1.66,0,0,0-.89,1.3,1.25,1.25,0,0,0,.84,1.37A2,2,0,0,0,15,8.56c.21-.05.23.08.33.22s.31.09.19-.1Zm.29,2.9a1.27,1.27,0,0,0,0,.2,1.15,1.15,0,0,0-.26.09c-.14-.12-.8-.33-.37-.68.27.15.37,0,.62-.13,0,.23,0,.44,0,.52Zm0-.69c-.38.25-.5.24-.76-.05A.57.57,0,0,1,15,10.3c.12-.19.32-.37.42-.37s.4.37.37.54a2.26,2.26,0,0,1,0,.42Zm0-1.38a1.47,1.47,0,0,0-1,.77,1.23,1.23,0,0,0,.09.68l.12.1c-.22.21-.43.38-.43.69a.87.87,0,0,0,.55.7,1.11,1.11,0,0,1,.7-.46.71.71,0,0,0,.23.53c.11-.13.56-.51.65-.6s0-.2-.09-.09-.22,0-.27-.11a13,13,0,0,1,.06-1.56c-.21-.22-.4-.68-.63-.65Zm2.48-3.34c.13-.13,0-.23-.13-.12-.09-.1-.31-.33-.43-.48A5,5,0,0,1,17.1,6c-.13-.15-.29-.15-.55-.35a4.18,4.18,0,0,0-.63.55c.3.08.53.1.55.36s0,1.5,0,1.73a2.26,2.26,0,0,0,.59,0c0-.18,0-1.8,0-2s.17-.09.22-.13a4.34,4.34,0,0,0,.43.43c.11-.09.41-.27.54-.4Zm.91.56c-.2-.63-.13-.85.27-1.17a1.15,1.15,0,0,0,.44.46c-.22.21-.57.61-.71.71Zm1.28.79a1,1,0,0,1-1.23-.6c.32-.32.86-.85,1.19-1.12-.22-.2-.31-.53-.69-.56a1.53,1.53,0,0,0-1.26,1.38,1.41,1.41,0,0,0,1.48,1.5c.23,0,.53-.3.68-.38.31-.15.19-.3-.17-.22Zm2.21-1.16-.33.26a.74.74,0,0,1-.26,0,.79.79,0,0,1-.52-.41c-.13-.17.2-.31.37-.29a1.9,1.9,0,0,1,.74.42Zm-.56.75a4.77,4.77,0,0,1,.55.28c.29.16.14.47-.17.61s-.87-.26-1-.43l.58-.46ZM23.43,6a1.57,1.57,0,0,0-1-.53,1.8,1.8,0,0,0-1.31.75c-.26.4.06.74.39,1-.21.18-.51.47-.79.72a2.12,2.12,0,0,0,1.06.4,2.16,2.16,0,0,0,1.27-.51c.54-.42.35-.87-.19-1.18a.44.44,0,0,0-.15,0,8.14,8.14,0,0,0,.7-.6Zm.65,3.06-.32-.33L23.44,9v.4l.2.2h.2l.23-.21V9.07Zm-.14-2.25c-.12,0-.32.34.43.31.12,0,.2-.27-.43-.31Zm0,.45c-.13,0-.32.22.43.3.11,0,.27-.26-.43-.3Zm.49,5,.27-.3c-.31-.06-.31,0-.47-.19V10.36L24,10l-.14,0-.63.57c-.16.15,0,.22.17.06l.32.19,0,1.35c0,.16.17.21.37.42l.35-.3Zm-1.91,2.54a.88.88,0,0,0,.66.11c0,.15,0,.3,0,.36a.59.59,0,0,0,.05.19,2.91,2.91,0,0,0-.5.16c-.13-.12-.62-.46-.19-.82Zm.67-.05a1,1,0,0,1-.74-.31.64.64,0,0,1,0-.46c.12-.19.12-.25.22-.25s.59.31.57.47a2.6,2.6,0,0,1,0,.55Zm-.88-.12a1.13,1.13,0,0,0-.38.81.76.76,0,0,0,.42.74,2.74,2.74,0,0,1,1-.51,3.23,3.23,0,0,0,.58.46,4.79,4.79,0,0,1,.54-.49c.09-.09,0-.22-.1-.1s-.31,0-.38-.08-.12-1.5-.07-1.57c-.19-.22-.54-.71-.77-.69a1.94,1.94,0,0,0-.94.67,1.26,1.26,0,0,0,.09.73l0,0Zm-.89-3.26a1.18,1.18,0,0,0,1.07.81,6.12,6.12,0,0,1,.42-.65c.17-.22,0-.35-.12-.1s-.56,0-.74-.18-.37-.78-.19-1,.46-.11.8-.12.28-.22.32-.33a4.65,4.65,0,0,1-.49-.27c-.22.14-.57.43-.72.55a1.26,1.26,0,0,0-.35,1.27Zm-.13,4.3.27-.3c-.31-.06-.17-.05-.33-.2V13.94l-.39-.57-.15,0-.62.57c-.16.15,0,.22.17.06l.41.21v1.31c0,.16.18.19.38.4l.26-.26Zm5.15,7.12a1,1,0,0,0,.25-.47.65.65,0,0,0-.25-.45,5.09,5.09,0,0,1,.9.46l-.9.46ZM28,22.32v0a7.56,7.56,0,0,1-1.49-.65,1.4,1.4,0,0,0-1.44.36c0,.19.19.28.76-.07a.64.64,0,0,0,.06.93,1.88,1.88,0,0,1-.61-.19c0,.19.22.26.34.34.94.38,1.56-.52,2.38-.68Zm6.36-8.6c-.14.14-.39.31-.63.57a.47.47,0,0,1,.45.25,5.79,5.79,0,0,1,0,1.27c0,.29.19.36.43.6a5.57,5.57,0,0,0,1.1-.48c0,.24.28.51.46.56.12-.13.26-.2.43-.37-.17-.11-.15-.13-.21-.36a11.35,11.35,0,0,1,0-1.41,2.74,2.74,0,0,0-.6-.63c-.16.15-.38.34-.64.61.19,0,.57.06.59.22a6.73,6.73,0,0,1,0,1c0,.36-1,.19-1-.05s0-.95.05-1.29a1.68,1.68,0,0,0-.47-.5ZM34.85,11a1,1,0,0,1,.43-.6c.17.17.33.38.57.38a.81.81,0,0,0,.56-.21c-.2-.16-.64-.62-.73-.71-.23.12-1.21.63-1.29,1.22-.12.86.16,1,.54,1.51a.75.75,0,0,0,.73.24,10.82,10.82,0,0,0,.89-.81c.06-.07,0-.14-.11-.07s0,.11-.15.12a1.5,1.5,0,0,1-.8,0,1,1,0,0,1-.64-1Zm-2.73-.1a2,2,0,0,1-.61,1.47c.57-.14.65-.48,1-.88a2.61,2.61,0,0,0,.72.69,7.38,7.38,0,0,0,.74-.74,2.06,2.06,0,0,1-1.15-.79.52.52,0,0,1,0-.61c.11.15.9.51,1.26-.09a1.81,1.81,0,0,1-.86-.61,6.46,6.46,0,0,1-.64.59.87.87,0,0,0-.63-.48,6.2,6.2,0,0,1-1,.69c-.09,0,0,.23.07.18s.3-.19.52-.3a.94.94,0,0,1,.56.88ZM32,13.66c-.23.12.31.33.27.32a5.63,5.63,0,0,0,.08,1.94.59.59,0,0,0,.63.25c.19-.08.44-.46.51-.52s0-.22-.1-.11a.39.39,0,0,1-.48-.08,8.28,8.28,0,0,1,0-1.49h.48c.08,0,.09-.24,0-.24s-.45,0-.47-.09a1.46,1.46,0,0,1,.09-.7c.08-.17-.07-.24-.13-.08a2.18,2.18,0,0,1-.88.8Zm-2.21.4c.13-.2.22-.24.32-.24s.46.26.44.43a4.38,4.38,0,0,1,0,.57.79.79,0,0,1-.77-.19.91.91,0,0,1,0-.57ZM30,15c.2.11.3,0,.61,0,0,.2,0,.38,0,.47a2.54,2.54,0,0,1-.5.28c-.15-.13-.38-.23-.1-.75Zm-.25-.19a1.52,1.52,0,0,0-.47.88,1.18,1.18,0,0,0,.34.78,3.86,3.86,0,0,1,1-.71c.07.24.24.28.44.43.12-.13.55-.67.65-.76s0-.19-.1-.09-.23,0-.46-.22c0-.13,0-1.22,0-1.28-.21-.23-.4-.54-.65-.51s-.82.65-.93.82a.82.82,0,0,0,.07.62l.06,0ZM27.61,12.7c0,.3.12,2.84.09,3.2,0,.2.25.41.5.58a4,4,0,0,1,.6-.69c.13-.1,0-.17-.06-.13s-.39,0-.41-.21,0-2.41,0-2.72c-.15,0-.57,0-.72,0Zm-.18-1.84c0,1,.43,1.13.9,1.4a2.66,2.66,0,0,0,1.77.05c.21-.06.33-.07.32.11s.16.09.16,0,0-1,0-1.06-.16-.09-.16,0a.54.54,0,0,1-.14.4,1.17,1.17,0,0,1-1.88-.15c-.18-.24-.34-.56-.14-.62a7.08,7.08,0,0,1,1.25.1,6.21,6.21,0,0,1,.89.12c.06,0,.16.1.16,0v-.65c0-.12-.09-.06-.16,0a8,8,0,0,1-.92.2,5,5,0,0,1-1.21,0c-.2-.07-.13-.48,0-.71a1.26,1.26,0,0,1,2-.07.55.55,0,0,1,.13.4c0,.09.15.1.15,0s0-1.15,0-1.24-.15-.11-.15,0-.17.13-.34.08a3.31,3.31,0,0,0-1.72.28,1.75,1.75,0,0,0-1,1.35Zm4.1-6a5.76,5.76,0,0,0-1.08.07c-.23,0-.23.14,0,.17s.23.06.33.32a5.26,5.26,0,0,1-.49,1.73,8.31,8.31,0,0,1-.63-1.44c0-.1.22-.21.31-.24s.18-.18,0-.2c-.38-.06-1.75-.18-2-.21s-.25.19,0,.19a.63.63,0,0,1,.68.29,16.42,16.42,0,0,1,1.35,3c.1-.16,1-2.66,1-2.93A.77.77,0,0,1,31.48,5c.27-.07.24-.19.05-.2Zm1.17.45L33,5.05V4.69l-.34-.33-.35.29v.41l.22.21Zm.39,3.26.46-.59a1,1,0,0,1-.7-.38V6.09l-.47-.47-.16,0-.73.64c-.07.11.12.11.22,0l.53.3,0,1.43a1.29,1.29,0,0,0,.39.54Zm3-2.52A7.4,7.4,0,0,1,35,6a1,1,0,0,1,.07-.78C35.18,5,35,5,35,5.13a2.52,2.52,0,0,1-1,1c-.25.1.3.32.26.31a7.89,7.89,0,0,0,.22,1.93c.08.22.34.58.51.47a6.89,6.89,0,0,0,.43-.61c.14-.11,0-.3-.11-.19S35,8,35,7.89a8,8,0,0,1-.1-1.5s1.1-.14,1.21-.14.08-.24,0-.24Zm1.7,2.65a1.32,1.32,0,0,0-.48.14,1,1,0,0,1-.26-1.18L37,7.55a5.27,5.27,0,0,0,.87.37c0,.23,0,.43,0,.5a1.77,1.77,0,0,0,0,.24Zm0-.87a4.57,4.57,0,0,1-1.08-.55c-.05,0-.06-.06,0-.17s.28-.37.39-.36.67.31.65.47a3.34,3.34,0,0,1,0,.61Zm.35,1.49.59-.65a3.24,3.24,0,0,1-.42-.39,12,12,0,0,1,.06-1.5,1.28,1.28,0,0,0-1-.42c-.36,0-.73.51-.84.67a.25.25,0,0,0,0,.33,2,2,0,0,0,.26.18l0,0a1.53,1.53,0,0,0-.4.92,1.6,1.6,0,0,0,.47.93,2.24,2.24,0,0,1,1-.52.77.77,0,0,0,.32.48Zm0,3.41a2.42,2.42,0,0,1-.83-.83.92.92,0,0,1,.3-1.22c.37.14.8.5.84.83a1.77,1.77,0,0,1-.31,1.22Zm.5-.18a2.45,2.45,0,0,0,.38-1.12,1.47,1.47,0,0,0-.94-1.31,1.89,1.89,0,0,0-1.35,1.71c0,.44.37,1.37,1.16,1.37a6.33,6.33,0,0,1,.75-.65Zm.78,2.23a4.59,4.59,0,0,0-.6-.5,3.24,3.24,0,0,1-.59.41,3.79,3.79,0,0,0-.57-.56c-.17.11-.63.53-.83.64.29,0,.71.1.72.36s0,1.54,0,1.79a2.64,2.64,0,0,0,.63,0c0-.19,0-1.72,0-1.9a2.21,2.21,0,0,0,.24-.14,5.91,5.91,0,0,0,.56.5,5.76,5.76,0,0,0,.56-.48c.15-.14,0-.23-.13-.12Zm0-2.8A2.47,2.47,0,0,0,40,12c.13,0,.09-.19,0-.23a1.44,1.44,0,0,0-.44-.08c-.14,0-.21.19,0,.24Zm.5-.62a1.57,1.57,0,0,0-.45-.08c-.14,0-.21.2,0,.24a2.48,2.48,0,0,0,.5.07c.13,0,.08-.19,0-.23Zm3.36,32.55a9.3,9.3,0,0,1-1.48,3.58c-.54.78-.76-.74-.3-2.21a4.41,4.41,0,0,0,1.78-1.37Zm-.74.26c-1.73,1.7-4.32,1.09-6.36,2-1.85.67-3.19,2.38-5.13,2.81-.57.19-.66.47-.3.46a3.16,3.16,0,0,0,3.29.28c.63-.32,2.59-1.41,2.92-1.47a15.25,15.25,0,0,1-2.54,2.44,9.16,9.16,0,0,1-5.31.72c-1.05-.21-1.85.76-1.58.73a1.43,1.43,0,0,1,1.56.42c.69.54,1.68,1.21,2.53.21a2.05,2.05,0,0,1,2.92.26c-1.36-.07-1.23,2.36-3.79,2.08-.95,0-3.05-2.18-3.65-1.51-1.06,1.19,2.28,2.32.83,3.82-1.3,1.35-2.86-1.08-2.86-1.08.81.34,2.32.56,1.65-.76a3.74,3.74,0,0,1-.76-2c-.12-.48-3.11,3.84-5.08,1.89a16,16,0,0,0-3.78-3.1c3.78-.32,4.35,1.19,4.53,1.43,1.21,1.63,2.32,0,2.58-.31.4-.45.95-1.06.75-1.16a5.34,5.34,0,0,0-4.38-.26c2.67-3.68,4.76-.24,4.75-.24.3.18-.07-2.18-2.72-2.31-1.65-.08-3.11,1.41-4.25,1.41-.92,0-3.73-1.9-4.39-3.58,1.63,1.22,3.72,1.92,5,1.15,2.44-1.46,5.52.73,5.67.47-.69-.53-2.24-2.61-6.44-1.43-1.63.94-2.31-.69-3.31-.72a3.21,3.21,0,0,1,3.47-.69c.14,0-.71-.7-1.3-.76A28,28,0,0,1,9.55,43.6s.39-.93,2.38-.26c0,0-1.79-1.09-1.77-2.49.06-.87.48-1.8-.19-2.52,2.69-.11.78,3.64,2.67,4.61a1.31,1.31,0,0,1,.29-1.61,3,3,0,0,0,2,1.85,1.41,1.41,0,0,0,.36-.42,6.24,6.24,0,0,1-.62-4.11l0,0c.16,0,.42.54.6.93.39.85.38,2.06,1.16,3.06A7.5,7.5,0,0,0,17.57,44a2.6,2.6,0,0,0,0-1.24,2.58,2.58,0,0,1,.6-2.74c.51,1.47,1.2,1,1.3,1.75a3.43,3.43,0,0,1,0,1.58c.06,1,1,1.34,1.85,2,1.9,1,3.17,1.59,4,2.92.41-2.24-5.63-2.68-4.85-7-.08-1.72.21-1.87-1-2.92,2.42.07,3.74,4,3.88,4.77.24,1.33,1.05,1.4,2.16,3.13.16.06-2-4.62.57-8.63a6.46,6.46,0,0,1,.46,3.45,5.56,5.56,0,0,0,0,2.25,4.67,4.67,0,0,1,1.72-3.16c.11.92,1,2.34.16,3.86-1,1.86-1.09,1.19-1.11,3.47a9.94,9.94,0,0,1,1.06-2.44c1.47-1.84.42-2.83,1.86-4.42.11.8.31.48.4,1.19.19,1.59-1.47,3.34-1.1,3.28s1.1-.43,1.33-1.63c0,0,.61,1.1.05,1.47a1.94,1.94,0,0,0-1.07,2.18c.82-1,1.93-2,1.74-3.43.09-.83,1-1.17,1.18-3.11a1.37,1.37,0,0,1,.67-.89c-.14,1.09.71,2.22-.26,3.56.22.11,1-1,2.23-.62-2.39.43-1.69,3-3.53,4.22-.55.36-.46.76-.62.81,1.64-.1,2.9-2,3.12-2.19,1.64-1.11,2-1.28,2.66-3.08.26-.69.07-1,1-1.91.4.91-.18,2.8-.32,3.2-.29.87-1.33,1.62-1.11,1.62C41,43.37,41,42.07,42,40.67a5.51,5.51,0,0,1,2.47-1.54c-.15.29-.76.78-.78,1.31a4.54,4.54,0,0,1-.86,2.35c.27.34.8-.64,1.33-.15-.71.23-1,1-1.58,1.49Zm-4-1.38a7.87,7.87,0,0,0,.19-1.17c0-.18,0-.16,0-.3s1.24,1,1.31,1.07a5.77,5.77,0,0,1-.87.81c-.21-.18-.68-.37-.67-.41Zm.38.67c-.58.51-1,.69-.83.44s.25-.52.33-.73.5.29.5.29Zm5.64-4.88a5,5,0,0,0-2.25,1.23,16.79,16.79,0,0,0-1.1-6.64c-.6-1.39.27,3.22.33,4.28,0,0-5-6.39-2-1.43a8.61,8.61,0,0,0,2,2.14,5.93,5.93,0,0,1-.21,2c-.3.24-6.77-8.6-3.2-2.47a38.52,38.52,0,0,0,3,3.1A4.06,4.06,0,0,1,40.32,42c-.07-.07-1.49-1.12-1.5-1.18-.11-.68-.11-1.33-1-.84,0,0-3.19-3.71-1.71-1.11a4.41,4.41,0,0,0,1.24,1.46,4.35,4.35,0,0,0-.65,1.38c-.07.29-2.77-3-1.71-.93.34.66,1.58,1.38,1.56,1.42a6.52,6.52,0,0,1-.39,1.12,27.45,27.45,0,0,1-2.53,2.22,4.9,4.9,0,0,1,1.47-2.22,6.44,6.44,0,0,1,1-.57.9.9,0,0,0-.5-.68,5.07,5.07,0,0,0-1.47.08c.11-.56-.39-1.77-.38-3.09a2.46,2.46,0,0,0-1.34,1.06c-.13,2.2-.61,1.54-1.06,3.13-.49-.67,0-1.62-.44-2.24a4,4,0,0,1-.86-2.49c.15-.08.83-.82.22-2.38-.1-2.44,1-3.37-1-5.08.17-.05.29-1.27.29-1.27,1.44.76,1.15-.89,1.71-1.21.89-.52.73-1.05.33-1.72,2.54.72-.12,2.46,1,2.5a1.81,1.81,0,0,0,1.75-.75c.39-.59-.06-.95,1-1.92.1-.09.39-.73-.46-.91-.19,0,0-.77,0-.77-.69.58-.9,1.4-2,.88a1.12,1.12,0,0,0-1.16.11.53.53,0,0,1,.35-.62c1.21-.4,1.51-.88,1.44-1.15-.16-.62-.21,0-.18-.66a2.24,2.24,0,0,1,.58-.92c.81-1,1.39-.61,1.6-.53a2.79,2.79,0,0,1,1-.51c.76-.3,2.4.19,3.32.62a2.43,2.43,0,0,0,1.49.21.48.48,0,0,1-.38.46c-.28.09-.62,0-.6.21s.4.14.65.21c1.36.37,3.12,1.59,2,1.33-.13,0,.84.72,1.57,1.7l2.59,2.52c-.12.14-1,0-3.91-2.68-.41.36,3.5,3.3,5.12,6.43a6.69,6.69,0,0,1-2.88-1.38c-1.12-1.16-2.4-4.09-2.93-3.66-.06,0,2.13,3.42,3.21,5.44a9.3,9.3,0,0,1,1,3.58c.17,5.44-.65,5-.65,5-1.27-4.28-1.87-9.25-3.73-11.55-.74-.91,2,4,2.11,8.46Zm2-29.11c0-.09,0-.21-.06-.39s-.84-.45-1.41-.2c-.8.35-2.8,1.49-3.53,1.27V7.31c1.8.78,2.5.07,3.08.07A1.78,1.78,0,0,1,46.53,9c0,.18,0,.3,0,.39Zm-1.85,3.84c1.56-.22,1.8,1.61,1.8,1.61h0a1.58,1.58,0,0,0-1.68-.1,6.81,6.81,0,0,1-3.31,1.13V13.1s.33.59,3.2.17ZM41,19c-2.83.19-8.71-1.42-10.2-1.42a7.62,7.62,0,0,0-4.57,1.2V4.29s4.05-1.89,7-.81A18.32,18.32,0,0,0,41,4.22V19ZM29.27,21.16a.61.61,0,0,1-.43.7,1.11,1.11,0,0,0,1.35-.6c.32,1.29-1,1.37-1.39,1.44,0,0,.66.19.69.62.09,1.09.79,1,.94.91,0,.13-.24.79-1,.2-.13.13.22.33.28.87s.07,1.32.86,1.74c-.48.38-1.05-.62-1.1-.5s.67.5-.13,2.4c-.37-.21-.17-.17-.59-.68-.33-.27-.45-.33-.18.12a3.22,3.22,0,0,1,.42,2.3c-.39-.17-.29-.48-.75-.9a2.29,2.29,0,0,0,.62,1.51A3.66,3.66,0,0,1,30,33.1a16.43,16.43,0,0,1-.23,2.43c-.4-.06-.73-1.17-.83-1.11a2.25,2.25,0,0,0,.8,1.79c.36,1,.21,1.62.12,1.65s-.53-1.07-.75-.88c1.06,2.7.32,3.63,0,4.46-.22-.85-.33-1.48-.61-2.45-.57.46-.71,1.13-1.42,1.74a11,11,0,0,0-1.14-4.36s-.91,2.37-1.31,3.44a6.06,6.06,0,0,0,0,4.47c-1.31-1.86-1.45-5.32-.32-5.78.09-.25-.07-1.06-.32-1a2,2,0,0,1-.36,1.12c-.86-.25-.47-1.31-.39-1.66,1.12-1.34.42-1.65.37-1.62-.12.31-.23.69-.57.83-.73-1.24-.26-3.18,1.11-4.63.05-.54-.62.4-1,.37A2.4,2.4,0,0,1,25.3,29c-.37-.11-.57-.18-.66-.49.59-.08,2.42-.22,2.12-1.67-.18.18-.23.44-.71.73-.32.19-.67.21-.85-.07.85-.28.57-1.32-.55-1a.79.79,0,0,1-.86-.66c.25.25.75.06,1-.12a1.49,1.49,0,0,1,2.18.61s.56-1.17-1.21-1.49A1.57,1.57,0,0,0,24,23.81c-.4-1.4-1.6-.71-1.56-.07-1.27-.94,0-2.12.54-2.31.36,0,.28,1.16.9,1,.16,0-.48-.78-.24-1.11.58-.33.56.42.85.14a1.33,1.33,0,0,1,1.17-.81c1.3-.19,2.32,1.24,3.57.54Zm-3.72-2.41a11.45,11.45,0,0,0-4.18-1.19c-2.18-.14-6.58,1.6-10,1.37V4.1s3.86.51,5.44-.1c5.38-2.07,8.7.24,8.7.24V18.75Zm-14.82-3.1H8.89v-1.8h1.84v1.8Zm0-6.28H8.89V7.57h1.84v1.8Zm-4,6.8a1.58,1.58,0,1,1,0-3.15,1.58,1.58,0,0,1,0,3.15Zm0-6.29a1.58,1.58,0,0,1,0-3.15,1.58,1.58,0,0,1,0,3.15ZM20.6,24.59c-.38-.66.46-1.28.46-1.28,0,1.84,2.33.57,3.56,1.16a1.28,1.28,0,0,1,.63.67c-1.33-.92-3.77.94-4.65-.55ZM14.23,40.18a5.73,5.73,0,0,0,.15,1.74c.3,1,.15.67-.26.33a3.41,3.41,0,0,1-.78-1.07c0-.3.2-.31.89-1Zm-4.75-13,0,0s-3.06,1.9-5,1c1.46-.81,6.52-4,7.91-4.93A1.22,1.22,0,0,0,13.46,23c-.53,0-2.29.3-1.4-1.26.34,1.4,2.8.11,3.68-.1,2.47-.56,2.45,2.07,2.24,3.15-.08.41.75.69,1.16.64-.7,1.73-1.91.09-2.05.76-.06.26-.87.47-.86,1.14,0,.91.36.41.39,1.12s-.29.15-.22.89c.12,1.18,2.07-.15,2.87.16.41.16.67.52,1.07.45.11-.09.06-.54,0-.7,0-.37-.73-.41-1.05-.92s.31-1.78.64-2.17c.46,2.2,2.53,1.51,2.84,3.83.2.66-.71,1.39,0,2.45-.55.53-1.21,3-.06,4.22a2.08,2.08,0,0,0,.57,2.49,3.43,3.43,0,0,0,0,2.52c-.63,0-.51-3.54-4.31-3.66-.08,0-.1.4,0,.6.45.8,1.06.75.93,2.63,0,.64-.42-.11-.62-.29a2.09,2.09,0,0,1-1-1.78,3.37,3.37,0,0,0-1.29,3.41s-.34-.93-.73-1.88c0,0,1.57-2,1.82-2.41,3.2-5.76-2.07,1.86-2.08,1.83a7.55,7.55,0,0,0-.7-1.4,12.55,12.55,0,0,0,1.32-1.88c2.48-5.15-1.48,1.71-1.62,1.59-.3-.27-.54-.61-.73-.49,0,.8-.23.69-.18,1.5a10.2,10.2,0,0,1-1.92,1.84s-.15-1.43-.11-1.48c.31-.38,1.53-1.68,1.78-2.07C18,31.31,12,39.21,12,39.14a2.58,2.58,0,0,0-.71-1,29,29,0,0,0,1.64-2.46c2.47-5.07-2,2.25-2,2.22a1.34,1.34,0,0,0-.24-.09A9.49,9.49,0,0,1,11,35.47c.33-1.69-.56-.33-.81,2.35a2.4,2.4,0,0,0-1,.29c.13.71.3.16.6.85s-.5,2.17.25,3.16c.29.38.31.31.25.56-.46,0-.74,0-1,.36a19.75,19.75,0,0,1-.42-6.41c.06-1.18.45-3,.27-3s-2.86,6.89-3.51,8.24c-1.13-.38.71-6.37,3-9.25.22-.92-1.23.93-2.09,1.66s-1.8,1.56-2.89,1.26c1.4-1.49,4.62-4.26,5-5s-2.2,1.85-4.83.94c1.7-.91,5.68-2.94,5.69-4.36ZM9.45,44a7.67,7.67,0,0,0,1.44.63c.59,1.54,0,3.06-.32,2.43A15,15,0,0,1,9.45,44Zm40.64-8.55V1.18a240.66,240.66,0,0,0-48.4,0V35.46c2.2,23.24,24,26,24.21,25.93,3.89-.7,22.17-4.37,24.2-25.93Zm12.81,8.3a15.86,15.86,0,0,0,7,13.53,21.65,21.65,0,0,0,12.28,3.3A29.35,29.35,0,0,0,90,59.46a9.74,9.74,0,0,1,1.72-.5,18.49,18.49,0,0,0,2.37-6.74A1,1,0,0,0,92.78,52a10.52,10.52,0,0,1-10.31,7c-8.08,0-14.64-5.71-14.64-16s6.41-15,14-15c7.15,0,9.37,3.84,10.11,7.19a1.05,1.05,0,0,0,1.33-.1c-.4-3-.64-6.1-.69-7.24a3.85,3.85,0,0,1-1.38-.19,38.09,38.09,0,0,0-8.73-1.18,21.25,21.25,0,0,0-13.31,4.18,16.35,16.35,0,0,0-6.21,13Zm14-42.62,0-.06,0-.05c-.08-.16-.31-.17-.37-.17l-.2,0,0,0,0,0c-.26.46-.37.49-1.46.49H66.28c-.92,0-1.33,0-1.42-.5v0l0,0a.44.44,0,0,0-.29-.08.64.64,0,0,0-.3.07l-.06,0V1a21.75,21.75,0,0,1-.77,3l0,.06,0,.06a.57.57,0,0,0,.77.2l0,0v0a3.59,3.59,0,0,1,.89-1.36,4,4,0,0,1,2.42-.47h1.13c.46,0,.46,0,.46.49v9.17c0,2.22-.13,2.32-1.13,2.41l-.74.06-.07,0a.51.51,0,0,0,0,.79h.08c1.26,0,2-.06,2.85-.06s1.46,0,2.68.06h.08a.49.49,0,0,0,.2-.4.43.43,0,0,0-.14-.39l-.73-.08c-1-.09-1.09-.23-1.09-2.41V2.88a1.41,1.41,0,0,1,0-.44,1.44,1.44,0,0,1,.41,0H73a3.94,3.94,0,0,1,2.29.48,2.29,2.29,0,0,1,.45,1.39v0l0,0a.47.47,0,0,0,.37.14.44.44,0,0,0,.42-.21l0,0v0a12.3,12.3,0,0,1,.3-3.06ZM93.78,12.07V4.69c0-2.19.06-2.32,1.09-2.43l.43,0,.07,0a.38.38,0,0,0,.15-.38c0-.07,0-.32-.2-.4l0,0h0c-1,.05-1.67.06-2.42.06s-1.61,0-2.48-.06h0l0,0a.46.46,0,0,0-.2.39.4.4,0,0,0,.14.39l.46.07c1,.11,1.11.24,1.11,2.43V7.05c0,.49,0,.49-.87.49H85c-.87,0-.87,0-.87-.49V4.69c0-2.19.06-2.32,1.09-2.43l.39,0,.07,0a.39.39,0,0,0,.14-.38.46.46,0,0,0-.2-.4l0,0h0c-.94.05-1.63.06-2.38.06-.54,0-1,0-1.51,0l-1.07,0h0l0,0c-.17.08-.19.32-.2.39a.42.42,0,0,0,.14.39l0,0,.57,0c.91.07,1.07.26,1.07,2.43v7.38c0,2.13,0,2.22-1.06,2.41l-.4.07,0,0a.54.54,0,0,0-.12.45.44.44,0,0,0,.2.32h.07l.82,0c.49,0,1,0,1.56,0,.77,0,1.43,0,2.6.06h.08a.49.49,0,0,0,.2-.4.43.43,0,0,0-.14-.39l-.67-.08c-1-.11-1.11-.21-1.11-2.41V9.18c0-.5,0-.5.87-.5h5.87c.87,0,.87,0,.87.5v2.89c0,2.18,0,2.23-1.12,2.41l-.44.07,0,0a.57.57,0,0,0-.11.45.44.44,0,0,0,.2.32h.07c1,0,1.71-.06,2.48-.06s1.52,0,2.48.06h.08a.48.48,0,0,0,.2-.4.43.43,0,0,0-.14-.39l-.56-.08c-1-.13-1.1-.24-1.1-2.41Zm17.17.32v-.05l0-.05a.53.53,0,0,0-.49-.28.44.44,0,0,0-.26.07l0,.06a4.94,4.94,0,0,1-1.39,1.92,6,6,0,0,1-2.56.29c-1.71,0-2.15-.2-2.37-.42s-.35-1-.35-2V9c0-.39,0-.39.53-.39h1.19a6.53,6.53,0,0,1,1.54.1c.29.07.43.25.52.66l.19.8,0,.06a.49.49,0,0,0,.38.15.45.45,0,0,0,.41-.19l0,0v0c0-.2,0-.46,0-.76s0-.8,0-1.21,0-.87,0-1.25,0-.6,0-.82V6l0,0a.48.48,0,0,0-.41-.19.49.49,0,0,0-.38.15l-.2.91c-.09.47-.21.54-.39.6a7.68,7.68,0,0,1-1.69.12H104c-.53,0-.53,0-.53-.42V3.07c0-.66,0-.66.46-.66h1.48a10.86,10.86,0,0,1,2,.11c.93.24,1.12.83,1.41,1.72l0,.13,0,0a.44.44,0,0,0,.34.13.55.55,0,0,0,.43-.18l0,0,0-.3a16.92,16.92,0,0,0-.31-2.52l0-.14-.14,0c-.23.05-1.5.05-2.73.05h-3.86c-.8,0-1.47,0-2.42-.06h0l0,0c-.16.08-.19.32-.2.39a.42.42,0,0,0,.14.39l.4.07c1,.13,1.12.26,1.12,2.43v7.38c0,2.22-.13,2.32-1.13,2.41l-.74.06,0,0a.53.53,0,0,0-.11.45.4.4,0,0,0,.19.32h.08c1.19,0,1.9-.06,2.79-.06h1.85c1.79,0,3.59,0,5.5.06h.1l0-.1a18,18,0,0,0,.94-2.88Zm2,16c.29-.2.19-1.09-.1-1.23-2.12.09-3.8.14-5.72.14-2.12,0-3.8-.09-6.21-.14-.3.14-.4,1-.1,1.23l1.28.09c2.56.2,2.91,1,2.91,6.2V52.42c0,5.17-.1,5.66-2.86,6.15l-.84.15a1,1,0,0,0,.1,1.23c1.92-.05,3.6-.15,5.72-.15,1.92,0,3.6.05,6.26.15.3-.15.39-1,.1-1.23l-1.43-.15c-2.76-.29-3-1-3-6.15V45.48c0-1.47.1-1.57,2.47-1.57H125.6c2.37,0,2.47.1,2.47,1.57v6.94c0,5.17,0,5.66-3,6.15l-.93.15a1,1,0,0,0,.09,1.23c2.17-.1,3.95-.15,6-.15s3.6.05,6,.15c.3-.15.4-1,.1-1.23l-1.18-.15c-2.86-.34-3-1-3-6.15V34.7c0-5.16.1-5.9,3-6.2l1-.09c.3-.2.2-1.09-.1-1.23-2.21.09-3.89.14-5.81.14s-3.7-.05-6-.14c-.29.14-.39,1-.09,1.23l.93.09c2.91.3,3,1,3,6.2v5.66c0,1.53-.1,1.58-2.47,1.58H111.51c-2.37,0-2.47,0-2.47-1.58V34.7c0-5.16.1-5.9,3-6.2l.94-.09ZM136.55,2.14a.59.59,0,0,0,.11-.43.4.4,0,0,0-.19-.29l0,0h-.05c-.72,0-1.27.06-2.15.06s-1.55,0-2.34-.06h0l0,0a.43.43,0,0,0-.18.32.58.58,0,0,0,.1.41l.05.05.58,0c.47,0,.79.16.9.35a13.06,13.06,0,0,1,.37,4.17V9.12c0,2.41-.69,5.29-4,5.29-2.74,0-4-1.69-4-5.31V4.67c0-2.18.07-2.34,1.08-2.43l.54,0,0,0a.37.37,0,0,0,.14-.37.43.43,0,0,0-.2-.39l0,0h0c-1,0-1.67.06-2.52.06s-1.57,0-2.54-.06h0l0,0a.47.47,0,0,0-.2.38.4.4,0,0,0,.14.38l0,0,.55,0c1,.09,1.09.25,1.09,2.43V9.51c0,2.48.51,4,1.65,5a6,6,0,0,0,3.95,1.16,5.57,5.57,0,0,0,4-1.55c1-1.06,1.48-2.7,1.48-5V6.76a19.19,19.19,0,0,1,.27-4.12c.09-.21.45-.36.89-.4l.56,0,.05-.06Zm18.41,0a.49.49,0,0,0,.13-.41.46.46,0,0,0-.2-.34l0,0h0c-.68,0-1.21.06-2.11.06-.72,0-1.4,0-2.42-.06h-.06a.4.4,0,0,0-.23.31.51.51,0,0,0,.14.47l0,0,.4,0c.7.09,1.06.19,1.16.34a12.76,12.76,0,0,1,.38,4.16v4.39c0,.19,0,.42,0,.58-.71-.73-1.46-1.57-2.38-2.6l-2.86-3.2a23.51,23.51,0,0,1-3.46-4.44l0-.11-.12,0a8.09,8.09,0,0,1-.92.05c-.36,0-1.45,0-2.31-.06h0l0,0a.41.41,0,0,0-.21.31.53.53,0,0,0,.12.45l0,0,.41,0a2.06,2.06,0,0,1,1.17.44,1.71,1.71,0,0,1,.41,1.37v6.11a18.22,18.22,0,0,1-.25,4c0,.1-.22.24-.78.32l-.61.06,0,0a.51.51,0,0,0-.12.39.45.45,0,0,0,.19.36l0,0h.06c.71,0,1.26-.06,2.12-.06.7,0,1.39,0,2.4.06h0l.05,0a.44.44,0,0,0,.18-.3.6.6,0,0,0-.11-.43l0-.06-.71-.06c-.49,0-.83-.16-.92-.32A13.84,13.84,0,0,1,143,10V5.53c0-.37,0-.76,0-1,.33.37.87,1,1.36,1.59l.85,1L150,12.48c1.58,1.8,2.34,2.69,2.61,3.08l.05.07h.08a.53.53,0,0,0,.54-.33v-.07c0-.24-.06-1.05-.06-3.57V6.48a15.16,15.16,0,0,1,.29-3.87c0-.06.27-.23,1-.35l.34,0,0,0Zm-2.54,50.15V34.8c0-5.21.1-6,3-6.3l1.23-.09c.29-.2.19-1.09-.1-1.23-2.47.09-4.14.14-6.11.14s-3.75-.05-6.21-.14c-.3.14-.4,1-.1,1.23l1.23.09c2.91.25,3,1.09,3,6.3V52.32c0,5.22-.1,5.91-3,6.25l-1.23.15a1,1,0,0,0,.1,1.23c2.46-.1,4.14-.15,6.21-.15s3.64.05,6.11.15c.29-.15.39-1,.1-1.23l-1.23-.15c-2.91-.34-3-1-3-6.25ZM162.73,12V4.73c0-2.22.07-2.38,1.11-2.47l.55,0,0,0a.4.4,0,0,0,.15-.39c0-.07,0-.31-.21-.39l0,0h0c-1,0-1.7.06-2.54.06s-1.59,0-2.58-.06h0l0,0a.46.46,0,0,0-.2.4.41.41,0,0,0,.14.38l0,0,.55,0c1,.09,1.11.25,1.11,2.47V12c0,2.21,0,2.32-1.12,2.45l-.56.06,0,0a.5.5,0,0,0-.11.45.4.4,0,0,0,.19.32h.08c1,0,1.73-.06,2.58-.06s1.52,0,2.54.06h.07a.53.53,0,0,0,.21-.4.41.41,0,0,0-.15-.39l-.58-.08c-1.06-.13-1.11-.24-1.11-2.45ZM169,30.72a16.32,16.32,0,0,0-6.21,13,15.86,15.86,0,0,0,7,13.53,21.64,21.64,0,0,0,12.27,3.3,29.21,29.21,0,0,0,7.79-1.13,9.61,9.61,0,0,1,1.73-.5A18.51,18.51,0,0,0,194,52.22a1,1,0,0,0-1.28-.19,10.5,10.5,0,0,1-10.3,7c-8.09,0-14.64-5.71-14.64-16s6.41-15,13.95-15c7.15,0,9.36,3.84,10.1,7.19a1.05,1.05,0,0,0,1.33-.1c-.39-3-.64-6.1-.69-7.24a3.85,3.85,0,0,1-1.38-.19,38,38,0,0,0-8.72-1.18A21.23,21.23,0,0,0,169,30.72ZM182.44,2.17a.53.53,0,0,0,.11-.43.43.43,0,0,0-.18-.33l-.05,0h0c-.69,0-1.32.06-2,.06s-1.58,0-2.12-.06h0l0,0a.51.51,0,0,0-.21.37.49.49,0,0,0,.14.4l0,0,.42,0c.72.08.78.23.78.23a2.11,2.11,0,0,1-.17.75c-.35.89-1.33,3.24-1.91,4.58l-.55,1.31c-.39.92-.87,2-1.27,2.92-1-2.22-1.87-4.46-2.78-6.75a28.57,28.57,0,0,1-1-2.81c0-.06.21-.15.83-.23l.35,0,0,0a.46.46,0,0,0,.14-.4.48.48,0,0,0-.21-.37l0,0h0c-.92.05-1.64.06-2.48.06s-1.51,0-2.13-.06H168l0,0a.46.46,0,0,0-.21.37.46.46,0,0,0,.15.39l0,0,.42,0c.8.09,1.07.46,1.54,1.59l3.61,8.89a23.54,23.54,0,0,1,.94,2.71l0,.08.07,0a1,1,0,0,0,.37.07.57.57,0,0,0,.32-.09l0,0,0,0c.35-1.1,1.34-3.52,2.13-5.34l1.11-2.52a49.17,49.17,0,0,1,2.29-4.7,1.15,1.15,0,0,1,.94-.64l.68,0,0-.05Zm14.09,10.22v-.05l0-.05A.52.52,0,0,0,196,12a.45.45,0,0,0-.27.07l-.05.06a4.94,4.94,0,0,1-1.39,1.92,6,6,0,0,1-2.56.29c-1.71,0-2.15-.2-2.36-.42s-.35-1-.35-2V9c0-.39,0-.39.52-.39h1.19a6.48,6.48,0,0,1,1.54.1c.29.07.43.25.52.66l.19.8,0,.06a.52.52,0,0,0,.39.15.44.44,0,0,0,.4-.19l0,0v0c0-.2,0-.46,0-.76s-.05-.8-.05-1.21,0-.87.05-1.25,0-.6,0-.82V6l0,0a.46.46,0,0,0-.41-.19.51.51,0,0,0-.38.15l-.2.91c-.09.47-.21.54-.39.6a7.68,7.68,0,0,1-1.69.12h-1.19c-.52,0-.52,0-.52-.42V3.07c0-.66,0-.66.46-.66H191a10.74,10.74,0,0,1,1.95.11c.94.24,1.12.83,1.41,1.72l0,.13,0,0a.42.42,0,0,0,.33.13.55.55,0,0,0,.43-.18l0,0,0-.3a17.91,17.91,0,0,0-.32-2.52l0-.14-.14,0c-.22.05-1.5.05-2.73.05H188.1c-.79,0-1.47,0-2.42-.06h0l0,0c-.17.08-.2.32-.21.39a.4.4,0,0,0,.15.39l.39.07c1.06.13,1.12.26,1.12,2.43v7.38c0,2.22-.13,2.32-1.13,2.41l-.74.06,0,0A.57.57,0,0,0,185,15a.46.46,0,0,0,.19.32h.08c1.19,0,1.9-.06,2.79-.06H190c1.79,0,3.59,0,5.5.06h.1l0-.1a17.05,17.05,0,0,0,.94-2.88Zm10.62-4.63a3.32,3.32,0,0,1-2,.5,6.24,6.24,0,0,1-1.3-.06,2.61,2.61,0,0,1,0-.56V2.84c0-.46,0-.5,1.18-.5a2.88,2.88,0,0,1,3.13,3,2.83,2.83,0,0,1-1,2.42Zm6.18,7.63a.32.32,0,0,0,.13-.32.31.31,0,0,0-.19-.24h0a2.29,2.29,0,0,1-1.33-.53,22.47,22.47,0,0,1-4.09-5.42c-.11-.17-.13-.25-.12-.29A4,4,0,0,0,210.3,5a3.2,3.2,0,0,0-1.79-3A7.5,7.5,0,0,0,205,1.39c-1.88,0-3.34.06-4.59.17h-.06a.42.42,0,0,0-.21.36.5.5,0,0,0,.17.43l0,0,.7.09c.67.08.76.22.76,2.24v7.36c0,2.17-.05,2.28-1.09,2.41l-.57.06,0,.05a.55.55,0,0,0-.1.47.37.37,0,0,0,.19.29h.07c.92,0,1.66-.06,2.56-.06s1.57,0,2.44.06h.08a.48.48,0,0,0,.2-.36.47.47,0,0,0-.13-.42l0,0-.48-.06c-1.06-.15-1.1-.24-1.1-2.41V9.49c0-.3,0-.3.81-.3s1.06.19,1.33.59.68,1,1,1.58.71,1.13,1,1.52c1.42,2,2.48,2.65,4.38,2.65a3.36,3.36,0,0,0,1-.11l0,0ZM218.51,4.2c0-.8.3-2.12,2.29-2.12a2.53,2.53,0,0,1,2.64,2.2l0,.06a.37.37,0,0,0,.31.12.56.56,0,0,0,.45-.2l0,0v0a8.92,8.92,0,0,0-.38-2.56l0-.1h-.11a2.7,2.7,0,0,1-.68-.12,8.26,8.26,0,0,0-2-.27c-2.6,0-4.34,1.48-4.34,3.68a4.58,4.58,0,0,0,2.29,3.66L221,9.74a2.94,2.94,0,0,1,1.61,2.74,2.19,2.19,0,0,1-2.41,2.2c-2.08,0-3-1.6-3.38-2.94l0-.05a.36.36,0,0,0-.32-.14.53.53,0,0,0-.43.2l0,.05v0a9.69,9.69,0,0,0,.57,2.94l0,0,0,0a6.63,6.63,0,0,0,3.28.78c2.71,0,4.54-1.59,4.54-4,0-1.64-.87-3-2.65-4.07l-1.64-1a3.1,3.1,0,0,1-1.67-2.38Zm-2,41h-6.07c-1.38,0-1.43,0-1-1.18l3.1-8.57c.55-1.47,1-2.65,1.19-2.9h.1a33,33,0,0,1,1.13,3.1l2.66,8c.45,1.33.35,1.53-1.08,1.53Zm12.71,13.38c-2.12-.25-2.76-1-4.19-5.22l-6.75-19.78c-.74-2.16-1.53-4.43-2.17-6.59a.69.69,0,0,0-.74-.44,5.56,5.56,0,0,1-2.56,1.87c.15.78-.15,1.72-.84,3.49l-5,13.29c-2.07,5.51-3.45,8.71-4.33,11a3.28,3.28,0,0,1-3,2.41l-1.63.15a1,1,0,0,0,.1,1.23c1.33-.05,3.11-.15,4.73-.15,2.32.05,3.85.05,5.13.15a.8.8,0,0,0,.1-1.23l-1.63-.15c-1.18-.1-1.43-.39-1.43-1a18.88,18.88,0,0,1,1.09-4.09l1.72-5.16c.35-1,.64-1.19,1.87-1.19h7.45c1.48,0,1.67.15,2,1.23l2.17,6.7a10.21,10.21,0,0,1,.64,2.6c0,.5-.69.79-1.73.89l-1.43.15a.83.83,0,0,0,.1,1.23c1.43-.05,3.3-.15,5.67-.15,2.22,0,3.94.05,6,.15.24-.2.34-1,0-1.23l-1.34-.15ZM232.6,12V4.73c0-2.24.06-2.38,1.1-2.47l.56,0,0,0a.39.39,0,0,0,.15-.38c0-.08,0-.32-.2-.4l0,0h0c-1,0-1.7.06-2.54.06s-1.59,0-2.58-.06h0l0,0c-.17.08-.2.33-.2.4a.4.4,0,0,0,.14.38l0,0,.55,0c1,.09,1.11.23,1.11,2.47V12c0,2.21,0,2.32-1.12,2.45l-.56.06,0,0a.5.5,0,0,0-.11.45.4.4,0,0,0,.19.32H229c1,0,1.73-.06,2.58-.06s1.49,0,2.54.06h.08c.17-.09.19-.33.2-.4a.41.41,0,0,0-.15-.39l-.58-.08c-1.06-.13-1.11-.24-1.11-2.45ZM251.32,1.14l0-.06,0-.05c-.07-.15-.28-.17-.37-.17l-.2,0-.05,0,0,0c-.26.46-.37.49-1.46.49h-8.49c-.92,0-1.33,0-1.42-.5v0l0,0A.44.44,0,0,0,239,.78a.55.55,0,0,0-.3.07l-.06,0V1a21.4,21.4,0,0,1-.77,3l0,.06,0,.06a.57.57,0,0,0,.77.2l0,0v0a3.59,3.59,0,0,1,.89-1.36A4,4,0,0,1,242,2.41h1.13c.46,0,.46,0,.46.49v9.17c0,2.22-.13,2.32-1.13,2.41l-.74.06-.07,0a.45.45,0,0,0-.18.41.44.44,0,0,0,.19.38h.08c1.25,0,2-.06,2.85-.06s1.46,0,2.68.06h.08a.48.48,0,0,0,.2-.4.43.43,0,0,0-.14-.39l-.73-.08c-1-.09-1.09-.23-1.09-2.41V2.88a1.41,1.41,0,0,1,0-.44,1.44,1.44,0,0,1,.41,0h1.45a3.94,3.94,0,0,1,2.29.48,2.36,2.36,0,0,1,.45,1.39v0l0,0a.55.55,0,0,0,.8-.07l0,0v0a12.3,12.3,0,0,1,.3-3.06Zm8.41,26.13a30.16,30.16,0,0,0-6.26-.73c-7.45,0-12.33,2.31-15.63,5.75A16.87,16.87,0,0,0,233.4,44a15.48,15.48,0,0,0,4.54,11.17c3.79,3.83,9.17,5.46,15,5.46a38.58,38.58,0,0,0,8.83-1.28,10.71,10.71,0,0,1,2.41-.44.4.4,0,0,0,.05-.59c-.89-.35-1.18-1.53-1.18-3.5V52c0-2.51.05-3.89,2.12-4.14l.79-.1a.87.87,0,0,0-.05-1.23c-1.63.1-3.31.15-5.23.15-2.91,0-5.62-.05-7-.15a.83.83,0,0,0,0,1.23l2.17.25c3.06.34,3.21.64,3.21,4.77v2a5.43,5.43,0,0,1-.5,2.81c-.54.83-2.36,1.47-5.42,1.47-9.91,0-14.79-7.43-14.79-16.88,0-7.38,4.19-14.17,13.76-14.17,5,0,8.72,1.68,10.1,7,.3.29,1.18.25,1.33-.15a55.92,55.92,0,0,1-.74-7.13,12.76,12.76,0,0,1-3-.45Zm7.2-25.09a.45.45,0,0,0,.14-.39.46.46,0,0,0-.21-.37l0,0h-.05a27.62,27.62,0,0,1-3.86,0h0l0,0a.4.4,0,0,0-.22.32.51.51,0,0,0,.14.44l0,0,.43,0a2,2,0,0,1,.72.2,25.78,25.78,0,0,1-1.22,2.43l-.1.18c-.49.95-1.06,2-1.78,3.22-.54-1-1.07-2-1.58-3.09L258.64,4A11.84,11.84,0,0,1,258,2.47s.1-.12.73-.21l.32,0,0,0a.52.52,0,0,0,.11-.49A.36.36,0,0,0,259,1.4h-.06c-.5,0-1.24.06-2.18.06s-1.71,0-2.38-.06h0l0,0a.46.46,0,0,0-.2.31.64.64,0,0,0,.11.45l0,0,.63.11c.55.09.82.14,1.51,1.48l2.42,4.71a4,4,0,0,1,.64,2.47v1c0,2.22-.05,2.34-1.09,2.45l-.69.06,0,0a.53.53,0,0,0-.11.45.46.46,0,0,0,.19.32h.08c1.11,0,1.83-.06,2.68-.06s1.57,0,2.79.06h.08a.4.4,0,0,0,.19-.32.5.5,0,0,0-.11-.45l0,0-.84-.06c-.95-.08-1.09-.23-1.09-2.45V11a4.57,4.57,0,0,1,.95-3.24l1.29-2.24L264,4.9c.81-1.41,1.39-2.43,2.26-2.58l.62-.11,0,0Zm10.89,40.15c0-10.77,6.65-14.27,11.78-14.27,9.41,0,13,8.76,13,16.88,0,9.69-5.62,14.12-11.53,14.12-9.71,0-13.26-9.45-13.26-16.73Zm-4.93,1.58c0,8.85,6.6,16.68,17.54,16.68a16.82,16.82,0,0,0,17.11-17.18c0-8.66-5.72-16.87-17.11-16.87-10.15,0-17.54,7.53-17.54,17.37Zm16.8-35c0,4.23-2.51,5.73-4.65,5.73-4.24,0-5.37-4.28-5.37-6.81,0-4.28,2.56-5.79,4.75-5.79,3.89,0,5.27,3.7,5.27,6.87Zm2.37-.63a6.93,6.93,0,0,0-7.29-7.19,7.27,7.27,0,0,0-7.47,7.39,7.06,7.06,0,0,0,7.47,7.11,7.14,7.14,0,0,0,7.29-7.31Zm13.78-4,0,0v0c0-.74-.06-1.7-.06-2.7v-.2l-.2,0c-.25.05-1.51.05-2.73.05h-3.78c-.78,0-1.46,0-2.38-.06h0l0,0c-.17.08-.2.32-.21.4a.39.39,0,0,0,.15.38l.39.07c1,.13,1.1.24,1.1,2.43v7.38c0,2.17-.05,2.28-1.1,2.41l-.56.06,0,0a.54.54,0,0,0-.12.45.44.44,0,0,0,.2.32h.08c1,0,1.65-.06,2.56-.06s1.54,0,2.72.06h.08a.49.49,0,0,0,.2-.4.43.43,0,0,0-.14-.39l-.77-.08c-1.05-.09-1.11-.23-1.11-2.41V9.22c0-.4,0-.4.52-.4H302a7,7,0,0,1,1.54.1.83.83,0,0,1,.55.67l.22.84,0,0a.6.6,0,0,0,.77,0l0,0v0c0-.22,0-.49,0-.79s0-.8,0-1.2,0-.86,0-1.24,0-.61,0-.83v0l0,0A.45.45,0,0,0,304.7,6a.51.51,0,0,0-.4.15l-.21.88c-.12.5-.26.55-.41.6a7.24,7.24,0,0,1-1.7.12h-1.39c-.52,0-.52,0-.52-.4V3.07c0-.66,0-.66.46-.66h1.25a9.31,9.31,0,0,1,2,.11c.88.23,1.14.82,1.32,1.83V4.4l0,0a.46.46,0,0,0,.31.1.47.47,0,0,0,.43-.21Z" transform="translate(0 0)"/><text class="cls-2" transform="translate(0.21 88.35)"><tspan class="cls-3">C</tspan><tspan x="12.1" y="0">e</tspan><tspan class="cls-4" x="23.18" y="0">n</tspan><tspan class="cls-5" x="35.36" y="0">t</tspan><tspan x="42.97" y="0">er </tspan><tspan class="cls-6" x="66.28" y="0">f</tspan><tspan x="73.23" y="0">or D</tspan><tspan class="cls-7" x="112.18" y="0">a</tspan><tspan x="123.1" y="0">ta </tspan><tspan class="cls-8" x="146.14" y="0">I</tspan><tspan class="cls-9" x="152.19" y="0">n</tspan><tspan class="cls-5" x="164.37" y="0">t</tspan><tspan x="171.97" y="0">ensi</tspan><tspan class="cls-10" x="210.23" y="0">v</tspan><tspan x="221.04" y="0">e </tspan><tspan class="cls-11" x="236.37" y="0">S</tspan><tspan x="247.86" y="0">cien</tspan><tspan class="cls-12" x="286.48" y="0">c</tspan><tspan x="295.72" y="0">e</tspan></text></svg>