<svg id="Layer_1" data-name="Layer 1" xmlns="http://www.w3.org/2000/svg" viewBox="0 0 130.31 223.21"><defs><style>.cls-1{fill:#585e60;}.cls-2{fill:#ffca38;}.cls-3{fill:#5d97c9;}.cls-4{fill:#56b146;}</style></defs><title>logo-OHSU</title><path class="cls-1" d="M77.83,180.47c-24.73,0-48.61,2.67-67.9,7.09l.84,2.39a307.3,307.3,0,0,1,64.08-4.74A327.91,327.91,0,0,1,118.18,190l2.52-7.14a335.52,335.52,0,0,0-42.87-2.34" transform="translate(0.04)"/><path class="cls-2" d="M32.59,46.88C87.9,12.94,82.73,9,80.65,5.91l.15-.11c4,3.45,14.1,18.07-31.13,46.2C8.57,77.55,5.93,93.45,24.26,109.87,28.9,114,30.38,114.6,38,119.22l-5.9,7.66c-8.95-5.66-67.85-36.64.47-80" transform="translate(0.04)"/><path class="cls-3" d="M72.88,98.28C18.74,64.31,23.49,61,25.54,58l-.15-.11c-4,3.39-13.42,17.8,31.14,45.46C99.42,130,94.9,146.72,79.09,171.62c0,.17-.2.3-.19.43,21.63-14.72,38.47-45.87-6-73.77" transform="translate(0.04)"/><path class="cls-2" d="M41.88,107.25h0c-6.76-15.14-4-24.44,27.26-43.72C117.43,33.77,89,6.34,81.32.09L81.47,0c9,5,46,37.49-4.42,69.11-23.13,14.52-37.27,23-35.17,38.14" transform="translate(0.04)"/><path class="cls-4" d="M84.68,134.41c-27.79,17.13-38.14,30.93-30,42-2.38-15.22,19.17-22.08,41.32-36.1,66.14-41.88,18.5-79.89,5.92-86.15l-.21.12c10.81,7.8,44.63,42-17,80.15" transform="translate(0.04)"/><path class="cls-3" d="M75.88,169v-.16c6.75-15.14-10.08-32.5-41.34-51.78C-13.78,87.26,16.46,58.9,24.15,52.66L22.2,54.09c-10.76,8.07-46.34,37.53,4.09,69.16C49.42,137.77,78,153.85,75.88,169" transform="translate(0.04)"/><path class="cls-4" d="M58.87,101.87c51-33.94,45.62-39,43.7-42.09l.15-.1c3.72,3.44,14.74,18.11-27,46.22-48.36,32.6-48.22,43.92-23,66.86l2,3.69C43.94,170.66-4.29,144,58.92,101.93" transform="translate(0.04)"/><path class="cls-1" d="M26.36,223.21a13.42,13.42,0,1,1,0-26.83,13.42,13.42,0,1,1,0,26.83Zm0-22.2c-4.59,0-7.93,3.86-7.93,8.78s3.34,8.78,7.93,8.78,7.89-3.85,7.89-8.78S30.92,201,26.36,201Z" transform="translate(0.04)"/><path class="cls-1" d="M60.83,222.76V211.65h-11v11.11H44.53V196.83h5.29v10.33h11V196.83h5.3v25.93Z" transform="translate(0.04)"/><path class="cls-1" d="M81.28,200.9c-1.78,0-3.37.89-3.37,2.6,0,2,2.45,2.55,4.45,3.26,3.66,1.26,8.07,3,8.07,8.41,0,5.63-5.29,8-9.81,8a13.35,13.35,0,0,1-9.93-4.34l3.52-3.45c2.11,2,3.74,3.27,6.44,3.27,2.08,0,4.12-1,4.12-3.3s-2.38-3.08-5-4c-3.37-1.26-7.15-2.74-7.15-7.71s4.19-7.26,8.49-7.26a13.5,13.5,0,0,1,8.59,3.08l-3,3.78A8.72,8.72,0,0,0,81.28,200.9Z" transform="translate(0.04)"/><path class="cls-1" d="M115.73,210.54c0,8.15-3.11,12.67-10.52,12.67-7.26,0-10.37-4.52-10.37-12.67V196.83h5.29v14.41c0,5,2,7.33,5.15,7.33s5.15-2.37,5.15-7.33V196.83h5.3Z" transform="translate(0.04)"/></svg>