<svg id="Layer_1" data-name="Layer 1" xmlns="http://www.w3.org/2000/svg" xmlns:xlink="http://www.w3.org/1999/xlink" viewBox="0 0 175.19 55.06"><defs><style>.cls-1{fill:#00609f;}.cls-2{clip-path:url(#clip-path);}.cls-3{fill:#fff;}</style><clipPath id="clip-path" transform="translate(0.97 5.3)"><polyline class="cls-1" points="0 0.78 39.65 0.78 39.65 43.73 0 43.73 0 0.78"/></clipPath></defs><title>logo-broadinstitute</title><polyline points="54.26 48.92 50.25 48.92 50.25 48.32 51.34 48.32 51.34 40.08 50.25 40.08 50.25 39.48 54.26 39.48 54.26 40.08 53.19 40.08 53.19 48.32 54.26 48.32 54.26 48.92"/><polyline points="69.88 49.08 68.88 49.08 63.89 42.07 63.89 48.32 65.03 48.32 65.03 48.92 61.79 48.92 61.79 48.32 62.98 48.32 62.98 40.81 62.52 40.08 61.49 40.08 61.49 39.48 64.34 39.48 68.98 46.08 68.98 40.08 67.85 40.08 67.85 39.48 71.08 39.48 71.08 40.08 69.88 40.08 69.88 49.08"/><path d="M78.73,43.76h-.79V41.18h.79v1.06a2.66,2.66,0,0,0,1.83.7,1.37,1.37,0,0,0,1.53-1.27c0-.65-.41-1.11-1.75-2a6.76,6.76,0,0,1-1.94-1.46,2.42,2.42,0,0,1-.55-1.61A2.62,2.62,0,0,1,80.76,34a3.7,3.7,0,0,1,1.55.31v-.43h.77v2.45h-.77v-1a2.64,2.64,0,0,0-1.52-.53A1.25,1.25,0,0,0,79.47,36c0,.58.33.94,1.71,1.81l1.23.8a3.12,3.12,0,0,1,.87.93,2.74,2.74,0,0,1,.4,1.48,2.7,2.7,0,0,1-2.86,2.77,3.79,3.79,0,0,1-2.09-.56v.51" transform="translate(0.97 5.3)"/><polyline points="98.41 48.92 93.8 48.92 93.8 48.32 95.19 48.32 95.19 40.32 92.71 40.32 92.71 41.51 91.93 41.51 91.93 39.08 92.71 39.08 92.71 39.48 99.5 39.48 99.5 39.08 100.29 39.08 100.29 41.51 99.5 41.51 99.5 40.32 97.04 40.32 97.04 48.32 98.41 48.32 98.41 48.92"/><polyline points="110.47 48.92 106.47 48.92 106.47 48.32 107.55 48.32 107.55 40.08 106.47 40.08 106.47 39.48 110.47 39.48 110.47 40.08 109.4 40.08 109.4 48.32 110.47 48.32 110.47 48.92"/><polyline points="122.87 48.92 118.26 48.92 118.26 48.32 119.65 48.32 119.65 40.32 117.17 40.32 117.17 41.51 116.38 41.51 116.38 39.08 117.17 39.08 117.17 39.48 123.95 39.48 123.95 39.08 124.74 39.08 124.74 41.51 123.95 41.51 123.95 40.32 121.49 40.32 121.49 48.32 122.87 48.32 122.87 48.92"/><path d="M140.66,34.78h-1.2v5.38a3.13,3.13,0,0,1-1.78,3.21,5,5,0,0,1-2.07.44c-2.32,0-3.82-1.27-3.82-3.25V34.78H130.7v-.6h4v.6h-1.08v5.34c0,1.45.26,2.1,1,2.49a2.71,2.71,0,0,0,1.19.27,2.5,2.5,0,0,0,2.72-2.76V34.79h-1.19v-.61h3.32v.6" transform="translate(0.97 5.3)"/><polyline points="154.82 48.92 150.21 48.92 150.21 48.32 151.6 48.32 151.6 40.32 149.12 40.32 149.12 41.51 148.34 41.51 148.34 39.08 149.12 39.08 149.12 39.48 155.91 39.48 155.91 39.08 156.7 39.08 156.7 41.51 155.91 41.51 155.91 40.32 153.44 40.32 153.44 48.32 154.82 48.32 154.82 48.92"/><polyline points="170.44 48.92 163.63 48.92 163.63 48.32 164.71 48.32 164.71 40.08 163.63 40.08 163.63 39.48 169.52 39.48 169.52 39.08 170.3 39.08 170.3 41.35 169.54 41.35 169.54 40.32 166.56 40.32 166.56 43.7 168.85 43.7 168.85 42.73 169.62 42.71 169.62 45.53 168.85 45.55 168.85 44.54 166.56 44.54 166.56 48.08 169.67 48.08 169.67 47.02 170.44 47.02 170.44 48.92"/><path d="M47.65,27.07V25.6h3V2.31h-3V.83H59.73a6.54,6.54,0,0,1,6.56,6.52,6.26,6.26,0,0,1-5.84,5.89,8.37,8.37,0,0,1,3.22.83,6.63,6.63,0,0,1,3.89,6.16,6.79,6.79,0,0,1-7.07,6.84Zm6.48-14.51h4c2.58,0,4.41-2.11,4.41-5.05,0-2.78-1.71-4.85-4.05-4.85H54.13v9.9Zm0,12.72h4.45c3.34,0,5.36-2,5.36-5.25a5.34,5.34,0,0,0-5.36-5.68H54.13V25.28" transform="translate(0.97 5.3)"/><path d="M94.59,27.07H91.21c-2.34,0-2.78-.24-4.09-2.35L81.19,15.3h-3.1V25.6h3v1.47H71.62V25.6h3V2.31h-3V.83h11c3.85,0,6,1.08,7.23,3.54a8.09,8.09,0,0,1,.79,3.54c0,3.86-2.14,6.32-6,6.88l5.73,8.82c1,1.47,1.58,1.95,2.58,1.95h1.55v1.51Zm-16.5-13.6h3.82c3,0,5.13-2.22,5.13-5.48,0-3.42-1.87-5.33-5.21-5.33H78.09V13.47" transform="translate(0.97 5.3)"/><path d="M95.66,14c0-7.47,5.8-13.63,12.84-13.63S121.22,6.56,121.22,14s-5.8,13.63-12.72,13.63S95.66,21.38,95.66,14Zm3.94,0c0,6.72,3.73,11.57,8.9,11.57s8.78-4.89,8.78-11.57-3.69-11.52-8.74-11.52c-5.21,0-8.94,4.76-8.94,11.52" transform="translate(0.97 5.3)"/><path d="M147,27.07h-9.06V25.6h3.18l-2.78-7.16-10.17,0-2.91,7.16h3.3v1.51H121V25.56H123L133.36,0h1.43l9.94,25.56H147v1.51Zm-9.34-10.54L133.4,5.37l-4.49,11.16h8.74" transform="translate(0.97 5.3)"/><path d="M149.5,27.07V25.6h3V2.31h-3V.83h11.72a13.07,13.07,0,0,1,13,13.08,13,13,0,0,1-13,13.16Zm6.48-2h4.77c5.44,0,9.57-4.81,9.53-11.13,0-6.12-4.21-11.09-9.45-11.09H156V25.08" transform="translate(0.97 5.3)"/><polyline class="cls-1" points="0.97 6.08 40.62 6.08 40.62 49.02 0.97 49.02 0.97 6.08"/><g class="cls-2"><path class="cls-3" d="M130.75,32.79q-3-3.09-6.17-5.9,2.57-2.27,5-4.72c.4.37.81.73,1.2,1.11-.37-.4-.76-.78-1.14-1.17l.46-.46-.49.43q-2.4-2.43-5-4.67c1.88-1.67,3.71-3.4,5.46-5.22-1.85,1.73-3.79,3.36-5.78,4.93-1.79-1.54-3.62-3-5.51-4.42a95.21,95.21,0,0,0,11.29-10,91.39,91.39,0,0,1-12,9.43,90,90,0,0,0-106.64,0A91.73,91.73,0,0,1-1,2.44,94.75,94.75,0,0,0,10.66,12.75q-2.84,2.1-5.5,4.42C3,15.5,1,13.74-1,11.9c1.85,1.94,3.79,3.79,5.8,5.56q-2.56,2.23-5,4.67L-1,21.35c.26.28.53.55.8.82L-1,23c.27-.26.57-.5.85-.76q2.42,2.46,5,4.72c-2,1.77-4,3.61-5.83,5.55,2-1.84,4-3.58,6.17-5.25q2.68,2.34,5.53,4.47A96,96,0,0,0-1,42a91.75,91.75,0,0,1,12.46-9.73A89.78,89.78,0,0,0,64.7,49.76a89.68,89.68,0,0,0,53.24-17.53A92.54,92.54,0,0,1,130.75,42.3a94.12,94.12,0,0,0-12-10.63q2.85-2.13,5.52-4.47Q127.63,29.85,130.75,32.79Zm-1.23-10.65c-1.7,1.55-3.45,3-5.27,4.47-1.78-1.55-3.62-3-5.51-4.43,1.89-1.41,3.73-2.91,5.52-4.46C126.07,19.13,127.82,20.61,129.52,22.14Zm-5.62-4.7c-1.9,1.48-3.87,2.87-5.9,4.21-2-1.47-4.1-2.87-6.24-4.17q3.21-2,6.26-4.21Q121.05,15.25,123.9,17.44ZM64.74,13.72a89.68,89.68,0,0,0-36,7.51q-4.24-1.66-8.26-3.71a98.76,98.76,0,0,1,88.41,0q-4,2-8.23,3.71A89.62,89.62,0,0,0,64.74,13.72Zm33.11,8.55A97.91,97.91,0,0,1,64.7,28a97.87,97.87,0,0,1-33.11-5.72,99.13,99.13,0,0,1,66.26,0Zm-71.38,0q-3.81,1.78-7.42,3.92c-2.32-1.23-4.58-2.56-6.77-4,2.18-1.39,4.43-2.69,6.73-3.91Q22.64,20.47,26.47,22.28Zm2.3,1A89.33,89.33,0,0,0,64.7,30.85a89.1,89.1,0,0,0,36-7.54c2.81,1.11,5.55,2.33,8.21,3.68A97.08,97.08,0,0,1,64.7,37.47,97.14,97.14,0,0,1,20.57,27C23.23,25.65,26,24.43,28.77,23.33ZM103,22.25c2.55-1.2,5-2.53,7.45-4q3.47,1.83,6.74,3.92-3.28,2.12-6.77,4C108,24.76,105.5,23.44,103,22.25ZM64.74-2.44A97.1,97.1,0,0,1,117.2,12.73q-3.28,2.12-6.76,4a89.89,89.89,0,0,0-91.44,0c-2.32-1.23-4.58-2.56-6.76-4A97.05,97.05,0,0,1,64.74-2.44ZM11.41,13.3q3,2.23,6.27,4.21-3.21,2-6.24,4.18-3-2-5.91-4.23C7.43,16,9.4,14.62,11.41,13.3ZM-.07,22.18c1.69-1.53,3.43-3,5.24-4.42q2.69,2.34,5.53,4.47C8.81,23.63,7,25.11,5.2,26.65Q2.47,24.51-.07,22.18Zm5.64,4.76c1.89-1.46,3.87-2.84,5.88-4.16,2,1.49,4.13,2.9,6.28,4.21-2.14,1.31-4.23,2.7-6.25,4.18C9.45,29.83,7.47,28.42,5.57,26.94Zm59.13,20a96.62,96.62,0,0,1-52.38-15.2c2.18-1.4,4.44-2.7,6.74-3.92A89.41,89.41,0,0,0,64.7,40.31a89.35,89.35,0,0,0,45.67-12.54q3.47,1.83,6.74,3.92A96.55,96.55,0,0,1,64.7,46.92ZM118,31.13c-2-1.47-4.11-2.86-6.25-4.17q3.23-2,6.27-4.21,3,2,5.88,4.17Q121,29.14,118,31.13Z" transform="translate(0.97 5.3)"/></g></svg>