<svg id="Layer_1" data-name="Layer 1" xmlns="http://www.w3.org/2000/svg" viewBox="0 0 493.52 135.71"><defs><style>.cls-1{fill:#8b0021;}.cls-2{fill:#777677;}</style></defs><title>UChicago CDIS Logo</title><path class="cls-1" d="M26.73,22.35c-.32.23.37.56.31.54a5.77,5.77,0,0,0,.21,2.46c.21.31.87.54,1,.24a4.54,4.54,0,0,1,.71-1c.21-.18,0-.35-.14-.17-.36.38-.56.21-.83,0a4,4,0,0,1-.08-1.55s.66-.09.82-.09.11-.38,0-.38-.78,0-.82-.09A9.87,9.87,0,0,1,28,20.76c0-.29-.13-.38-.21-.11a5.67,5.67,0,0,1-1.08,1.7Zm1.74-3.47a16.72,16.72,0,0,0,1.68.14c.81-.06,1.44-1.31,1.09-2.29s-1.36-.77-2.06-1-.9-.58-.2-1,1.84.32,1.94.49.27.27.27-.08c0-.77,0-.34-.12-1.06,0-.26-.22-.28-.23,0s-.33.17-.56.17a2.8,2.8,0,0,0-1.52.22c-.37.22-1.24.9-.75,1.71.28.47,1.94.85,2.35,1.12a.84.84,0,0,1,.11,1.29,2.25,2.25,0,0,1-2-.18,1.58,1.58,0,0,1-.43-.89c-.06-.36-.36-.33-.36,0a14.81,14.81,0,0,0,.14,1.69c0,.28.32.19.35,0s.16-.25.34-.26ZM30.36,20a1.64,1.64,0,0,1-.83.76c.27.23.62.53.84.68.27-.3.51-.57.81-.85a1.07,1.07,0,0,1-.82-.59Zm-4.13-.43a6,6,0,0,0,.59-.69c.22-.17,0-.35-.14-.18s-.52-.19-.54-.21a7.76,7.76,0,0,1-.22-2.08s1.21-.15,1.36-.14.14-.38,0-.38a5.1,5.1,0,0,1-1.15,0,2.21,2.21,0,0,1,.13-1.45c.14-.25,0-.49-.1-.23a4.41,4.41,0,0,1-1.34,1.62c-.4.16-.36.25-.1.32a.66.66,0,0,1,.38.28,6.49,6.49,0,0,0,.16,2.67c.19.32.72.65,1,.44Zm-3.33,2a11.62,11.62,0,0,1-1,.9c.2.24.55.53.58.94s0,2.32,0,2.79c.33,0,.27,0,.83,0-.06-.33,0-2.8,0-3.15a3.83,3.83,0,0,1,.48-.41c.17.15.57.24.57.5a13.18,13.18,0,0,1,0,1.88,1.82,1.82,0,0,0,.22,1.44c.22-.24,1-.81,1.2-1s.09-.26-.14-.2-.28.1-.28-.06-.11-1.57-.13-2.39a1.16,1.16,0,0,0-.67-1.18,13.16,13.16,0,0,1-1.08.86,4.78,4.78,0,0,1-.62-1Zm-3.19.57a3.68,3.68,0,0,0,.79,1.16,14.27,14.27,0,0,1-1.45,1.1c-.44-.55-.68-1.45.66-2.26Zm-1.52,1.67c-.2,1.55,1.26,2.47,2,2.77A7.56,7.56,0,0,1,21,25.18c.27-.31,0-.39-.27-.15s-1.29,0-1.54-.45c.46-.35,1.68-1.37,2.21-1.8a3.94,3.94,0,0,1-1-1.61c-.48.32-2,1-2.28,2.58Zm-.4-7.44c-.56.86-.87,2.22.11,3a1.81,1.81,0,0,0,1.78.52,4.31,4.31,0,0,1,.6-.92,2,2,0,0,1-1.62-.37,1.83,1.83,0,0,1-.39-2.38c.53-.78,1.27.33,1.41.48a6,6,0,0,1,.76-.73c-.29-.38-.52-.74-.72-1a4.52,4.52,0,0,0-1.93,1.36ZM22.31,14a.77.77,0,0,1-.22-.44c0-.13,0-1.46,0-1.62s-.31-.14-.31,0a1.9,1.9,0,0,1-.19,1c-.59.9-1.7,1.28-2.48.17a2.77,2.77,0,0,1-.37-1.32,2.7,2.7,0,0,1,.38-1.28,1.43,1.43,0,0,1,2.49.19,7,7,0,0,1,.15,1c0,.15.32.13.32,0s0-2.17,0-2.31-.26-.17-.27,0c0,.32-.2.35-.44.27a3.39,3.39,0,0,0-2.27,0,2.69,2.69,0,0,0-1.43,2.11A2,2,0,0,0,19,13.92a3.25,3.25,0,0,0,2.44-.1c.34-.09.38.12.54.35s.49.14.3-.16Zm.48,4.67c0,.12,0,.22,0,.33a2,2,0,0,0-.42.14c-.22-.19-1.29-.54-.59-1.1.43.25.59.06,1-.2v.83Zm0-1.1c-.61.4-.81.38-1.23-.09a.92.92,0,0,1-.09-.88c.19-.29.52-.6.68-.59a1.37,1.37,0,0,1,.6.87c0,.14,0,.41,0,.69Zm0-2.24a2.39,2.39,0,0,0-1.58,1.24,2,2,0,0,0,.14,1.11l.19.15c-.36.34-.7.62-.69,1.12a1.4,1.4,0,0,0,.89,1.13,1.83,1.83,0,0,1,1.12-.75,1.09,1.09,0,0,0,.38.86c.18-.2.9-.83,1-1s0-.31-.14-.14-.37-.05-.44-.17a22.57,22.57,0,0,1,.09-2.52c-.33-.35-.64-1.1-1-1.06Zm4-5.39c.22-.21,0-.36-.2-.18-.15-.17-.51-.55-.71-.78a6.74,6.74,0,0,1-.95.61c-.2-.24-.46-.24-.88-.56a6.32,6.32,0,0,0-1,.88c.48.14.85.17.88.58s0,2.42,0,2.8a3.63,3.63,0,0,0,.94,0c0-.29,0-2.9,0-3.19a2.76,2.76,0,0,0,.35-.22,6.59,6.59,0,0,0,.7.7,7.85,7.85,0,0,0,.87-.65Zm1.47.91c-.32-1-.2-1.37.44-1.88a1.72,1.72,0,0,0,.71.73c-.36.35-.92,1-1.15,1.15Zm2.07,1.27a1.69,1.69,0,0,1-2-1c.51-.52,1.38-1.38,1.91-1.81-.35-.32-.49-.86-1.12-.9a2.46,2.46,0,0,0-2,2.23,2.29,2.29,0,0,0,2.39,2.42c.38,0,.86-.5,1.09-.61.51-.25.32-.5-.26-.37Zm3.57-1.87-.53.43a1.48,1.48,0,0,1-.42,0,1.31,1.31,0,0,1-.85-.65c-.2-.27.33-.5.59-.47a3,3,0,0,1,1.21.67Zm-.92,1.22a6.73,6.73,0,0,1,.9.44c.46.26.23.76-.27,1s-1.41-.42-1.55-.69c.18-.16.53-.44.92-.74ZM35.1,9.7a2.61,2.61,0,0,0-1.58-.86,2.93,2.93,0,0,0-2.13,1.21c-.41.64.1,1.2.64,1.62-.35.29-.83.75-1.27,1.16a3.26,3.26,0,0,0,1.7.64,3.54,3.54,0,0,0,2.06-.82c.86-.68.56-1.4-.32-1.91a.75.75,0,0,0-.24-.08,13.93,13.93,0,0,0,1.14-1Zm1,4.93-.52-.54-.52.47v.64l.32.33h.32l.39-.35v-.55ZM35.92,11c-.2,0-.52.54.69.49.19,0,.33-.43-.69-.49Zm0,.72c-.2,0-.52.36.69.49.19,0,.44-.42-.69-.49Zm.79,8.06.44-.48c-.5-.09-.5-.06-.76-.3l0-2.3L36,16.07l-.23,0-1,.92c-.27.24,0,.36.28.09l.51.32,0,2.17c.06.26.28.35.6.68l.57-.49Zm-3.08,4.1a1.3,1.3,0,0,0,1.06.18c0,.25,0,.48,0,.59a1,1,0,0,0,.07.3,8,8,0,0,0-.79.25c-.21-.19-1-.73-.31-1.32Zm1.08-.07a1.67,1.67,0,0,1-1.2-.51,1.06,1.06,0,0,1-.07-.74c.2-.31.2-.4.37-.4s1,.49.91.76a5.39,5.39,0,0,1,0,.89Zm-1.42-.19a1.81,1.81,0,0,0-.62,1.3,1.25,1.25,0,0,0,.68,1.2,4.38,4.38,0,0,1,1.57-.82,5.68,5.68,0,0,0,.93.73c.17-.21.72-.65.87-.79s0-.35-.15-.16-.5.05-.61-.13-.2-2.42-.12-2.53c-.32-.35-.87-1.15-1.24-1.11a3.16,3.16,0,0,0-1.52,1.07,2,2,0,0,0,.15,1.19l.06.05Zm-1.44-5.26a1.91,1.91,0,0,0,1.73,1.3,9.1,9.1,0,0,1,.68-1.05c.26-.36,0-.57-.19-.16s-.91,0-1.19-.3-.61-1.26-.31-1.58.73-.17,1.29-.19c.36,0,.44-.35.5-.53a8.72,8.72,0,0,1-.78-.44,12.54,12.54,0,0,0-1.15.9,2,2,0,0,0-.58,2.05Zm-.21,6.93.43-.48c-.49-.1-.26-.09-.52-.33v-2l-.64-.93-.24,0-1,.93c-.27.23,0,.34.28.09l.66.34v2.11c.06.26.29.32.61.65l.42-.42Zm8.31,11.48s.41-.43.4-.74a1,1,0,0,0-.4-.73,7.61,7.61,0,0,1,1.45.74l-1.45.73ZM42.49,36v0a12.34,12.34,0,0,1-2.41-1.06,2.3,2.3,0,0,0-2.33.58c0,.3.32.46,1.23-.12a1,1,0,0,0,.1,1.51,3.44,3.44,0,0,1-1-.3c-.06.3.35.41.55.54,1.52.62,2.52-.84,3.85-1.1ZM52.75,22.13c-.23.24-.64.51-1,.94a.77.77,0,0,1,.73.39,10.46,10.46,0,0,1,0,2.05c0,.47.32.57.69,1A9.26,9.26,0,0,0,55,25.7c0,.39.46.83.75.91.19-.21.41-.33.69-.59-.28-.19-.24-.21-.35-.58a20,20,0,0,1,0-2.29,4.32,4.32,0,0,0-1-1c-.27.24-.62.56-1,1,.31,0,.92.08.95.34a9.87,9.87,0,0,1,0,1.64c-.07.57-1.61.31-1.63-.08s.07-1.54.08-2.08a2.71,2.71,0,0,0-.75-.82Zm.77-4.45a1.69,1.69,0,0,1,.7-1c.26.29.52.61.91.61A1.25,1.25,0,0,0,56,17c-.31-.25-1-1-1.17-1.15-.37.2-2,1-2.08,2a2.46,2.46,0,0,0,.86,2.43,1.21,1.21,0,0,0,1.19.39c.28-.19,1.31-1.17,1.43-1.3s0-.23-.18-.1-.07.16-.24.19a2.44,2.44,0,0,1-1.29-.07,1.71,1.71,0,0,1-1-1.67Zm-4.41-.15a3.17,3.17,0,0,1-1,2.37c.92-.24,1-.78,1.54-1.43a4.16,4.16,0,0,0,1.18,1.12A13.18,13.18,0,0,0,52,18.4a3.35,3.35,0,0,1-1.85-1.29.84.84,0,0,1,0-1c.18.24,1.46.83,2-.15a2.85,2.85,0,0,1-1.38-1,10.49,10.49,0,0,1-1.05.94,1.38,1.38,0,0,0-1-.77,10,10,0,0,1-1.57,1.12c-.14.06-.09.36.1.29s.49-.31.84-.48a1.48,1.48,0,0,1,.91,1.42ZM48.93,22c-.37.19.51.54.45.52,0,1-.22,2.62.13,3.13a.94.94,0,0,0,1,.4c.31-.12.7-.74.82-.84s0-.35-.16-.18a.62.62,0,0,1-.77-.12,13.9,13.9,0,0,1,0-2.4h.79c.13,0,.13-.39,0-.39s-.73,0-.76-.14a2.3,2.3,0,0,1,.15-1.13c.13-.27-.12-.39-.22-.13A3.43,3.43,0,0,1,48.93,22Zm-3.56.65c.22-.32.35-.38.52-.38s.74.41.71.68a6.07,6.07,0,0,1,0,.93,1.31,1.31,0,0,1-1.24-.32,1.46,1.46,0,0,1,0-.91Zm.27,1.46c.32.18.49.07,1,0,0,.32,0,.6,0,.76a8.15,8.15,0,0,1-.81.45c-.25-.21-.61-.38-.17-1.22Zm-.41-.3a2.42,2.42,0,0,0-.74,1.42A1.82,1.82,0,0,0,45,26.53a6.23,6.23,0,0,1,1.64-1.15c.1.39.37.45.7.69.19-.21.89-1.07,1.05-1.22s.07-.3-.16-.15-.37.05-.74-.34a17.29,17.29,0,0,1,.06-2.08c-.34-.37-.65-.86-1-.82-.58,0-1.32,1.06-1.5,1.32a1.3,1.3,0,0,0,.11,1l.09.07ZM41.84,20.5c0,.48.2,4.58.15,5.15,0,.32.4.67.8.94a6.71,6.71,0,0,1,1-1.1c.2-.17.06-.28-.1-.22s-.63,0-.66-.33,0-3.9,0-4.41c-.25,0-.93,0-1.16,0Zm-.29-3c0,1.68.68,1.82,1.45,2.26a4.25,4.25,0,0,0,2.85.09c.34-.1.53-.12.52.17s.26.15.26,0,0-1.54,0-1.7-.25-.15-.25,0a.84.84,0,0,1-.23.64,1.9,1.9,0,0,1-3-.24c-.29-.39-.55-.9-.22-1a10.83,10.83,0,0,1,2,.16,8.89,8.89,0,0,1,1.44.19c.1.08.26.17.26,0s0-.84,0-1-.15-.1-.26,0a11.57,11.57,0,0,1-1.5.31,7.08,7.08,0,0,1-1.94.06c-.32-.11-.21-.77.08-1.14a2,2,0,0,1,3.19-.11.88.88,0,0,1,.21.64c0,.15.25.17.25,0s0-1.85,0-2-.25-.18-.25,0-.27.2-.54.13a5.22,5.22,0,0,0-2.79.45,2.8,2.8,0,0,0-1.54,2.17Zm6.61-9.75a11.78,11.78,0,0,0-1.74.11c-.38.06-.38.24-.06.28s.37.1.53.52a9,9,0,0,1-.79,2.8,13,13,0,0,1-1-2.33c0-.17.35-.34.51-.38s.29-.29.06-.34c-.62-.09-2.83-.28-3.22-.33s-.41.3-.06.3a1,1,0,0,1,1.1.47,27.12,27.12,0,0,1,2.18,4.9c.16-.27,1.55-4.3,1.63-4.73a1.3,1.3,0,0,1,.81-.95c.42-.11.38-.29.07-.32Zm1.89.73.41-.35V7.57L49.9,7l-.55.47v.66l.34.34Zm.63,5.26.74-.95a1.55,1.55,0,0,1-1.13-.61l0-2.37-.76-.75-.25,0-1.18,1c-.12.18.19.18.35,0l.86.49,0,2.29a2.15,2.15,0,0,0,.64.88ZM55.57,9.7a12,12,0,0,1-1.76,0,1.57,1.57,0,0,1,.12-1.26c.12-.27-.12-.39-.22-.11a4.14,4.14,0,0,1-1.63,1.64c-.41.16.49.53.42.51a12.3,12.3,0,0,0,.36,3.11c.13.36.54.94.82.76s.57-.89.7-1,0-.48-.18-.3-.37-.1-.43-.28a13,13,0,0,1-.15-2.42s1.78-.22,2-.22.13-.39,0-.39ZM58.31,14a1.93,1.93,0,0,0-.77.23,1.59,1.59,0,0,1-.43-1.91l-.2-.12a9.07,9.07,0,0,0,1.39.61c0,.35,0,.68,0,.79s0,.28,0,.4Zm0-1.41a7.8,7.8,0,0,1-1.73-.88c-.09-.07-.1-.11,0-.29s.45-.59.62-.58,1.09.51,1.06.77a8.12,8.12,0,0,1,0,1Zm.57,2.4.95-1a5,5,0,0,1-.67-.64,20.61,20.61,0,0,1,.09-2.41,2,2,0,0,0-1.55-.68c-.58.09-1.17.83-1.36,1.08a.43.43,0,0,0,0,.53,3.82,3.82,0,0,0,.42.29l-.08,0A2.56,2.56,0,0,0,56,13.54a2.66,2.66,0,0,0,.76,1.5,3.6,3.6,0,0,1,1.56-.83,1.19,1.19,0,0,0,.53.76Zm0,5.5a3.78,3.78,0,0,1-1.34-1.34,1.48,1.48,0,0,1,.49-2c.59.22,1.28.8,1.34,1.34a2.74,2.74,0,0,1-.49,2Zm.81-.28a4.12,4.12,0,0,0,.62-1.81,2.37,2.37,0,0,0-1.52-2.11A3,3,0,0,0,56.64,19c0,.72.59,2.21,1.86,2.22a9,9,0,0,1,1.22-1ZM61,23.79A6.42,6.42,0,0,0,60,23a7,7,0,0,1-1,.66,6.58,6.58,0,0,0-.92-.91c-.26.18-1,.86-1.33,1,.46,0,1.14.16,1.16.59s0,2.48,0,2.87a4.24,4.24,0,0,0,1,0c0-.3,0-2.77,0-3.07a3.62,3.62,0,0,0,.37-.22,11.39,11.39,0,0,0,.91.81c.19-.14.69-.58.91-.78s0-.38-.22-.19Zm0-4.53a4.14,4.14,0,0,0,.8.12c.2,0,.14-.31,0-.37a2.49,2.49,0,0,0-.71-.13c-.23,0-.34.3-.07.38Zm.81-1a2.37,2.37,0,0,0-.73-.13c-.22,0-.34.31-.07.38a3.78,3.78,0,0,0,.81.12c.21,0,.14-.31,0-.37ZM67.2,70.79a15,15,0,0,1-2.39,5.77c-.87,1.27-1.23-1.19-.47-3.57a7,7,0,0,0,2.86-2.2ZM66,71.21C63.22,74,59,73,55.75,74.43c-3,1.09-5.15,3.85-8.28,4.54-.92.3-1.07.76-.49.74.35,0,2.26,2,5.31.45,1-.51,4.18-2.27,4.72-2.38-1.71,1.63-2.57,3.09-4.11,4a14.66,14.66,0,0,1-8.56,1.15c-1.69-.32-3,1.23-2.56,1.19a2.32,2.32,0,0,1,2.53.68c1.1.87,2.7,1.94,4.08.34a3.3,3.3,0,0,1,4.7.41c-2.18-.11-2,3.82-6.11,3.35-1.53,0-4.92-3.51-5.89-2.43-1.71,1.93,3.68,3.75,1.35,6.16-2.11,2.18-4.63-1.73-4.63-1.73,1.32.55,3.74.9,2.68-1.23-.43-.85-1.24-1.61-1.24-3.18-.18-.78-5,6.2-8.2,3-1.25-1.24-3.79-4-6.09-5,6.09-.51,7,1.92,7.31,2.31,1.95,2.63,3.75,0,4.16-.51.64-.72,1.54-1.71,1.22-1.86A8.64,8.64,0,0,0,30.57,84c4.32-5.93,7.68-.38,7.68-.38.47.29-.13-3.52-4.4-3.73-2.66-.13-5,2.27-6.85,2.27-1.5,0-6-3.06-7.1-5.78,2.64,2,6,3.1,8.1,1.85,3.95-2.34,8.91,1.2,9.15.77-1.1-.86-3.61-4.21-10.38-2.3-2.63,1.5-3.74-1.12-5.35-1.16,2.75-2.43,4.65-1.2,5.61-1.12.22,0-1.15-1.13-2.11-1.23A45.53,45.53,0,0,1,12.7,70.36s.62-1.51,3.84-.42c0,0-2.89-1.76-2.86-4,.09-1.4.77-2.89-.3-4.06,4.34-.17,1.26,5.87,4.3,7.43a2.1,2.1,0,0,1,.46-2.58,4.86,4.86,0,0,0,3.27,3A2.38,2.38,0,0,0,22,69c-1.15-1.89-1.3-4.1-1-6.63l0,0c.25,0,.67.87,1,1.5.63,1.36.62,3.31,1.88,4.93A11.28,11.28,0,0,0,25.64,71a4.36,4.36,0,0,0,0-2c-.14-1-.79-2.82,1-4.41.82,2.37,1.94,1.68,2.09,2.82a5.86,5.86,0,0,1,0,2.56c.08,1.68,1.62,2.16,3,3.24,3.07,1.66,5.1,2.57,6.44,4.7.65-3.6-9.09-4.32-7.83-11.28-.13-2.77.34-3-1.63-4.7,3.91.11,6,6.52,6.25,7.69.39,2.15,1.7,2.26,3.5,5.06.25.09-3.21-7.47.92-13.94,0,0,1.39,3.37.74,5.57a9.23,9.23,0,0,0,0,3.63c.08.85-.17-3.07,2.78-5.09.19,1.48,1.61,3.77.26,6.23-1.64,3-1.76,1.92-1.78,5.6.15-.06.57-2.54,1.69-3.94,2.38-3,.68-4.57,3-7.14.19,1.29.52.78.66,1.93.31,2.57-2.38,5.38-1.79,5.29s1.79-.69,2.15-2.64c0,0,1,1.78.09,2.37-1.64,1.08-2,2.24-1.73,3.54,1.32-1.57,3.12-3.31,2.8-5.54.15-1.35,1.62-1.9,1.91-5a2.15,2.15,0,0,1,1.08-1.42c-.22,1.76,1.15,3.57-.41,5.73.35.19,1.67-1.68,3.6-1-3.87.69-2.74,4.87-5.7,6.8-.89.59-.74,1.24-1,1.31,2.64-.14,4.67-3.29,5-3.52,2.65-1.8,3.23-2.07,4.29-5,.42-1.1.12-1.59,1.59-3.08.65,1.47-.29,4.51-.52,5.17-.47,1.4-2.14,2.62-1.79,2.62,7.12-3.14,7-5.24,8.73-7.49a9,9,0,0,1,4-2.49c-.24.47-1.22,1.26-1.27,2.11A7.09,7.09,0,0,1,66.4,69c.45.55,1.3-1,2.16-.24-1.14.38-1.66,1.66-2.55,2.41ZM59.49,69a11.8,11.8,0,0,0,.3-1.9,3.09,3.09,0,0,0,.07-.48c0-.07,2,1.67,2.12,1.74a10.47,10.47,0,0,1-1.42,1.31c-.34-.3-1.09-.6-1.07-.67Zm.61,1.09c-.93.81-1.53,1.1-1.33.7s.39-.84.52-1.17c0-.12.81.47.81.47Zm9.1-7.88c-.85.22-3.09,1.11-3.63,2A27.18,27.18,0,0,0,63.8,53.45c-1-2.23.43,5.2.53,6.91,0,.08-8-10.31-3.18-2.31a13.84,13.84,0,0,0,3.22,3.46A9.76,9.76,0,0,1,64,64.79c-.49.39-10.94-13.88-5.16-4,.71,1.23,4.9,4.94,4.86,5a6.71,6.71,0,0,1-1.38,2c-.11-.11-2.41-1.8-2.43-1.91-.17-1.1-.18-2.14-1.54-1.36,0,0-5.15-6-2.76-1.79a6.87,6.87,0,0,0,2,2.36,7,7,0,0,0-1.06,2.23c-.1.46-4.46-4.82-2.75-1.51.55,1.07,2.54,2.23,2.52,2.3a11.87,11.87,0,0,1-.63,1.8,41.58,41.58,0,0,1-4.09,3.59A8,8,0,0,1,54,69.91,11.55,11.55,0,0,1,55.53,69a1.41,1.41,0,0,0-.8-1.09,8,8,0,0,0-2.37.13c.17-.9-.63-2.85-.62-5a4,4,0,0,0-2.16,1.72c-.21,3.56-1,2.49-1.71,5-.79-1.07.05-2.61-.72-3.62a6.39,6.39,0,0,1-1.37-4c.24-.13,1.33-1.33.34-3.83-.16-3.94,1.6-5.44-1.55-8.2.27-.08.46-2.06.46-2.06,2.32,1.24,1.86-1.43,2.76-1.95,1.44-.83,1.18-1.7.53-2.77,4.11,1.16-.18,4,1.68,4a2.9,2.9,0,0,0,2.83-1.21c.63-1-.11-1.54,1.64-3.09.17-.16.63-1.19-.75-1.48-.3-.06,0-1.24,0-1.24-1.1.94-1.45,2.25-3.23,1.42a1.86,1.86,0,0,0-1.87.17.82.82,0,0,1,.56-1c2-.65,2.43-1.43,2.32-1.85-.26-1-.34,0-.28-1.07a3.45,3.45,0,0,1,.92-1.48c1.32-1.59,2.25-1,2.59-.86a4.39,4.39,0,0,1,1.62-.83c1.22-.48,3.87.32,5.35,1a3.94,3.94,0,0,0,2.41.33.79.79,0,0,1-.61.75c-.47.14-1,0-1,.34,0,.19.65.23,1,.34,2.19.59,5,2.55,3.17,2.14-.22,0,1.34,1.17,2.52,2.75l4.18,4.05c-.19.23-1.65,0-6.3-4.32-.66.59,5.65,5.34,8.25,10.37a10.49,10.49,0,0,1-4.64-2.22c-1.8-1.87-3.87-6.6-4.72-5.91-.11,0,3.42,5.53,5.17,8.78a14.83,14.83,0,0,1,1.66,5.79c.28,8.77-1,8.09-1,8.09-2.06-6.91-3-14.93-6-18.63C64.6,47.06,69,55,69.2,62.19Zm3.24-47c0-.13,0-.34-.08-.63-.07-.45-1.37-.71-2.29-.31-1.29.56-4.52,2.4-5.69,2.05V11.79c2.9,1.26,4,.12,5,.12a2.85,2.85,0,0,1,3,2.67c0,.29.07.5.08.63Zm-3,6.21c2.52-.37,2.9,2.6,2.9,2.6h0a2.53,2.53,0,0,0-2.72-.17,11.07,11.07,0,0,1-5.35,1.82V21.14s.54.95,5.17.28Zm-6,9.2c-4.57.32-14-2.28-16.46-2.28-5,0-7.38,1.94-7.38,1.94s0-22.54,0-23.35c0,0,6.54-3.06,11.29-1.31,5.83,2.15,12.55,1.2,12.55,1.2v23.8ZM44.51,34.14a1,1,0,0,1-.68,1.13,1.82,1.82,0,0,0,2.18-1c.5,2.08-1.6,2.2-2.26,2.32,0,0,1.07.31,1.12,1,.14,1.76,1.28,1.61,1.52,1.47,0,.21-.39,1.27-1.66.32-.22.21.34.54.45,1.41.15,1.1.11,2.13,1.39,2.8-.78.62-1.71-1-1.79-.8s1.09.81-.2,3.86c-.6-.34-.27-.27-.95-1.09-.53-.44-.73-.54-.3.19A5.16,5.16,0,0,1,44,49.51c-.63-.27-.47-.78-1.22-1.46a3.72,3.72,0,0,0,1,2.43,5.78,5.78,0,0,1,1.82,2.93,24.46,24.46,0,0,1-.36,3.92c-.64-.09-1.18-1.9-1.34-1.79s.08,1.76,1.29,2.89c.58,1.69.34,2.6.19,2.66s-.85-1.73-1.21-1.41c1.71,4.34.52,5.85.06,7.19-.35-1.37-.53-2.4-1-4-.93.73-1.16,1.81-2.3,2.81,0-1.78-1-6.05-1.84-7.05,0,0-1.47,3.83-2.12,5.56a9.81,9.81,0,0,0,0,7.21c-2.11-3-2.34-8.58-.51-9.33.15-.4-.11-1.71-.52-1.55a3.14,3.14,0,0,1-.57,1.82c-1.4-.41-.76-2.12-.64-2.68,1.82-2.17.68-2.68.6-2.62-.2.5-.37,1.11-.92,1.34-1.17-2-.42-5.14,1.79-7.48.09-.87-1,.65-1.7.6-.18-1.68.43-4.61,3.55-4.71-.59-.18-.91-.29-1.06-.78,1-.14,3.91-.37,3.42-2.7a3.92,3.92,0,0,1-1.14,1.17c-.52.31-1.09.34-1.38-.11,1.37-.46.92-2.12-.87-1.63a1.28,1.28,0,0,1-1.39-1.06c.4.4,1.2.1,1.67-.2a2.41,2.41,0,0,1,3.52,1c.08,0,.91-1.89-2-2.4a2.51,2.51,0,0,0-2.83-1.7c-.65-2.25-2.58-1.14-2.52-.12-2.06-1.51,0-3.42.87-3.72.57.05.45,1.87,1.46,1.57.24-.08-.79-1.26-.39-1.79.93-.53.91.67,1.36.22a2.17,2.17,0,0,1,1.89-1.31c2.11-.3,3.74,2,5.76.87Zm-6-3.88a18.44,18.44,0,0,0-6.74-1.92c-3.51-.24-10.62,2.57-16.07,2.2V6.61s6.22.83,8.77-.16c8.69-3.34,14,.4,14,.4V30.26Zm-23.92-5h-3V22.34h3v2.91Zm0-10.13h-3v-2.9h3v2.9Zm-6.44,11a2.54,2.54,0,1,1,0-5.08c3.34,0,3.36,5.08,0,5.08Zm0-10.15c-3.4,0-3.32-5.08,0-5.08s3.34,5.08,0,5.08ZM30.53,39.67c-.62-1.05.74-2.06.74-2.06,0,3,3.76.93,5.75,1.87a2.16,2.16,0,0,1,1,1.08c-2.14-1.47-6.09,1.52-7.5-.89ZM20.24,64.83a9.62,9.62,0,0,0,.25,2.81c.48,1.56.24,1.08-.42.54a5.68,5.68,0,0,1-1.26-1.73c-.06-.48.32-.51,1.43-1.62Zm-7.66-21-.05-.06c-.07,0-4.95,3.07-8.11,1.6,2.35-1.3,10.53-6.49,12.76-8A1.94,1.94,0,0,0,19,37c-.85,0-3.69.49-2.25-2,.55,2.27,4.52.18,5.94-.15,4-.91,3.94,3.33,3.61,5.08-.13.65,1.21,1.12,1.87,1-1.13,2.8-3.08.16-3.31,1.23-.09.44-1.39.77-1.39,1.85,0,1.47.58.67.64,1.81s-.47.24-.35,1.44c.19,1.89,3.33-.26,4.63.26.64.25,1.07.83,1.71.72.18-.15.1-.87.07-1.13-.07-.6-1.18-.67-1.7-1.49s.51-2.87,1-3.51c.74,3.56,4.09,2.45,4.59,6.19.31,1.06-1.15,2.24,0,4-.88.85-1.94,4.91-.09,6.81-.32.86-.73,2.85.92,4a5.55,5.55,0,0,0,0,4.07c-1,0-.82-5.72-6.95-5.91-.14,0-.17.65,0,1,.74,1.29,1.72,1.22,1.51,4.25-.07,1-.68-.18-1-.47-.75-.65-1.32-.74-1.64-2.87a5.46,5.46,0,0,0-2.09,5.51s-.55-1.5-1.18-3c0-.08,2.53-3.16,2.94-3.89,5.17-9.29-3.34,3-3.36,3A11.59,11.59,0,0,0,22.1,62.4a19.31,19.31,0,0,0,2.13-3c4-8.31-2.38,2.77-2.61,2.56-.48-.43-.88-1-1.18-.78-.07,1.28-.38,1.11-.29,2.41a16.59,16.59,0,0,1-3.1,3s-.25-2.31-.18-2.39c.5-.61,2.47-2.72,2.87-3.35,6.56-10.27-3.07,2.48-3.08,2.37a4.35,4.35,0,0,0-1.16-1.65,46.18,46.18,0,0,0,2.65-4c4-8.18-3.21,3.63-3.29,3.59a2,2,0,0,0-.39-.16c-.2-.06.22-2.35.5-3.73.54-2.73-.91-.53-1.3,3.79a3.8,3.8,0,0,0-1.61.46c.22,1.15.49.26,1,1.37.58,1.33-.81,3.51.4,5.1.46.62.49.51.4.92-.74-.06-1.2-.07-1.66.57a31.55,31.55,0,0,1-.67-10.34c.09-1.91.72-4.81.43-4.86S7.33,65.36,6.28,67.55c-1.83-.62,1.14-10.28,4.91-14.93.36-1.48-2,1.5-3.37,2.68s-2.9,2.51-4.66,2c2.26-2.4,7.46-6.87,8-8,.49-1-3.54,3-7.79,1.52,2.75-1.47,9.17-4.75,9.18-7Zm0,27.19a13.29,13.29,0,0,0,2.32,1c1,2.48,0,4.92-.51,3.91A24.33,24.33,0,0,1,12.54,71ZM78.1,57.21V1.9C33.59-2.38,0,1.9,0,1.9V57.22c3.55,37.49,38.72,41.9,39.06,41.84,6.28-1.14,35.77-7.06,39-41.85Zm20.69,13.4a25.6,25.6,0,0,0,11.29,21.84c5.81,3.88,12.65,5.31,19.81,5.31a47.16,47.16,0,0,0,12.56-1.82,16,16,0,0,1,2.79-.8c1.19-1.5,3.26-6.75,3.81-10.87A1.66,1.66,0,0,0,147,84c-1.83,4.68-6.37,11.35-16.63,11.35-13,0-23.62-9.21-23.62-25.88,0-16.44,10.34-24.14,22.51-24.14,11.53,0,15.11,6.19,16.3,11.59a1.67,1.67,0,0,0,2.15-.16c-.63-4.84-1-9.84-1.11-11.67a6,6,0,0,1-2.23-.32,61.59,61.59,0,0,0-14.08-1.9c-8.27,0-15.67,2.22-21.47,6.75a26.34,26.34,0,0,0-10,21ZM121.36,1.84l0-.09,0-.09c-.13-.25-.5-.27-.61-.27a1,1,0,0,0-.31.05l-.08,0,0,.08c-.43.74-.61.8-2.37.8h-13.7c-1.48,0-2.15-.08-2.29-.82V1.45l-.06-.05a.58.58,0,0,0-.45-.14,1.16,1.16,0,0,0-.5.1l-.09.07,0,.1a33.83,33.83,0,0,1-1.25,4.89l0,.1,0,.1a.92.92,0,0,0,1.24.32l.05,0,0-.06a5.77,5.77,0,0,1,1.43-2.2c.73-.67,2.38-.76,3.9-.76h1.83c.74,0,.74,0,.74.8v14.8c0,3.58-.21,3.74-1.83,3.88l-1.19.1-.11,0a.72.72,0,0,0-.3.66.7.7,0,0,0,.32.61l.06,0h.06c2-.06,3.26-.1,4.6-.1s2.36,0,4.33.1h.07l.06,0a.76.76,0,0,0,.32-.64.67.67,0,0,0-.23-.62l-1.18-.14c-1.66-.14-1.76-.36-1.76-3.88V4.65a1.85,1.85,0,0,1,.06-.71,1.77,1.77,0,0,1,.65-.06h2.35a6.45,6.45,0,0,1,3.7.78,3.91,3.91,0,0,1,.72,2.24V7l0,.06a.77.77,0,0,0,.6.24.73.73,0,0,0,.68-.36l0-.06V6.78a19.93,19.93,0,0,1,.49-4.94Zm27.25,17.64V7.57c0-3.53.1-3.75,1.76-3.92l.69-.07.12,0a.68.68,0,0,0,.23-.62c0-.12,0-.51-.32-.64l-.06,0H151c-1.6.07-2.69.1-3.9.1-1.44,0-2.59,0-4-.1H143l-.06,0a.82.82,0,0,0-.33.64.68.68,0,0,0,.23.63l.75.11c1.69.17,1.79.39,1.79,3.92v3.8c0,.8,0,.8-1.4.8H134.5c-1.4,0-1.4,0-1.4-.8V7.57c0-3.53.1-3.75,1.76-3.92l.63-.07.11,0a.69.69,0,0,0,.24-.63.82.82,0,0,0-.33-.64l-.06,0h-.07c-1.5.07-2.61.1-3.83.1-.86,0-1.62,0-2.44-.05l-1.73,0h-.06l0,0a.78.78,0,0,0-.33.64.66.66,0,0,0,.23.63l0,0,.93.07c1.46.11,1.72.41,1.72,3.92V19.48c0,3.44-.06,3.59-1.71,3.88l-.64.11-.06.06a.84.84,0,0,0-.18.72.65.65,0,0,0,.31.51l.06,0h.06l1.33,0c.78,0,1.59-.06,2.51-.06,1.25,0,2.3,0,4.2.1h.07l.06,0a.76.76,0,0,0,.32-.64.67.67,0,0,0-.23-.62l-1.08-.14c-1.59-.17-1.79-.33-1.79-3.88V14.81c0-.8,0-.8,1.4-.8H144c1.4,0,1.4,0,1.4.8v4.67c0,3.52,0,3.59-1.8,3.88l-.72.11-.05.06a.85.85,0,0,0-.18.73.65.65,0,0,0,.31.5l.06,0h.06c1.59-.07,2.75-.1,4-.1s2.46,0,4,.1h.07l.05,0c.28-.13.32-.52.33-.64a.65.65,0,0,0-.23-.62l-.91-.14c-1.68-.2-1.76-.39-1.76-3.88Zm27.7.51,0-.08,0-.08a.86.86,0,0,0-.78-.46.78.78,0,0,0-.43.13l-.08.09a8,8,0,0,1-2.24,3.1c-.71.35-1.71.47-4.12.47-2.77,0-3.48-.33-3.83-.68-.47-.5-.56-1.58-.56-3.27V14.55c0-.64,0-.64.84-.64H167a11.64,11.64,0,0,1,2.49.15c.46.12.7.42.84,1.07l.3,1.29.05.11a.85.85,0,0,0,.62.23.73.73,0,0,0,.66-.3l0-.06v-.07c0-.32,0-.75-.06-1.23s-.08-1.28-.08-1.94,0-1.41.08-2,.06-1,.06-1.32V9.75l0-.06a.73.73,0,0,0-.66-.31.82.82,0,0,0-.62.24l-.32,1.47c-.15.76-.33.87-.62,1a12.19,12.19,0,0,1-2.74.19h-1.92c-.84,0-.84,0-.84-.67V5c0-1.07,0-1.07.74-1.07h2.39a15.86,15.86,0,0,1,3.15.19c1.51.38,1.82,1.33,2.27,2.78l.07.2,0,.08a.69.69,0,0,0,.54.21.89.89,0,0,0,.7-.29l0-.08,0-.49a29.47,29.47,0,0,0-.51-4.06l-.08-.22-.22.06c-.37.09-2.43.09-4.42.09H162.7c-1.27,0-2.37,0-3.89-.1h-.07l-.06,0a.78.78,0,0,0-.32.64.68.68,0,0,0,.22.63l.65.11c1.69.2,1.79.42,1.79,3.92V19.48c0,3.58-.2,3.74-1.82,3.88l-1.18.11-.07.06a.84.84,0,0,0-.18.72.65.65,0,0,0,.31.51l.06,0h.06c1.92-.06,3.07-.1,4.5-.1h3c2.89,0,5.79,0,8.87.1h.17l.07-.14A29.59,29.59,0,0,0,176.31,20Zm3.21,25.85c.47-.32.31-1.75-.16-2-3.42.16-6.13.24-9.23.24-3.42,0-6.12-.16-10-.24-.48.24-.64,1.67-.16,2L162,46c4.13.32,4.69,1.67,4.69,10V84.58c0,8.34-.16,9.13-4.61,9.93l-1.35.24a1.54,1.54,0,0,0,.15,2c3.11-.08,5.81-.24,9.23-.24,3.1,0,5.81.08,10.1.24.48-.24.64-1.67.16-2l-2.3-.24c-4.46-.48-4.86-1.59-4.86-9.93V73.39c0-2.38.16-2.54,4-2.54H200c3.82,0,4,.16,4,2.54V84.58c0,8.34,0,9.13-4.86,9.93l-1.51.24a1.53,1.53,0,0,0,.16,2c3.5-.16,6.36-.24,9.62-.24s5.81.08,9.63.24c.48-.24.63-1.67.16-2l-1.91-.24c-4.62-.56-4.77-1.59-4.77-9.93V56c0-8.34.15-9.53,4.77-10l1.67-.15c.48-.32.32-1.75-.16-2-3.58.16-6.28.24-9.39.24s-6-.08-9.62-.24c-.48.24-.64,1.67-.16,2l1.51.15c4.7.48,4.86,1.67,4.86,10v9.13c0,2.46-.16,2.54-4,2.54H177.21c-3.82,0-4-.08-4-2.54V56c0-8.34.16-9.53,4.78-10l1.51-.15ZM217.61,3.46a.9.9,0,0,0,.18-.7.66.66,0,0,0-.3-.47l-.07,0h-.08c-1.15.06-2.05.1-3.47.1s-2.5,0-3.76-.1H210l-.07,0a.73.73,0,0,0-.29.52.85.85,0,0,0,.17.65l.07.08.94.07c.76.07,1.27.27,1.45.57.39.68.6,3.07.6,6.73v3.8c0,3.9-1.11,8.55-6.37,8.55-4.42,0-6.48-2.73-6.48-8.58V7.53c0-3.52.12-3.77,1.76-3.92l.86-.06.05,0a.63.63,0,0,0,.23-.61.76.76,0,0,0-.32-.63l-.06,0h-.06c-1.58.06-2.69.1-4.07.1s-2.53,0-4.1-.1h-.06l-.06,0a.75.75,0,0,0-.33.62.68.68,0,0,0,.23.62l.06,0,.89.06c1.64.15,1.76.4,1.76,3.92v7.81c0,4,.82,6.47,2.67,8,1.46,1.25,3.6,1.88,6.36,1.88a9,9,0,0,0,6.52-2.5c1.61-1.72,2.39-4.36,2.39-8.08V10.91c0-1.68,0-5.61.44-6.65a1.76,1.76,0,0,1,1.44-.65l.91-.07.06-.08Zm29.71,0a.88.88,0,0,0,.22-.68.74.74,0,0,0-.33-.54l-.06,0h-.09c-1.08.06-1.95.1-3.4.1-1.16,0-2.26,0-3.89-.1h-.1a.65.65,0,0,0-.38.5.83.83,0,0,0,.23.76l.06,0,.64.08c1.14.14,1.72.31,1.87.54.4.63.62,3.07.62,6.72V18c0,.32,0,.69,0,.94-1.15-1.19-2.35-2.53-3.84-4.2l-4.61-5.16c-3.28-3.67-5.16-6.08-5.58-7.16l-.08-.19-.2,0a10.55,10.55,0,0,1-1.48.1c-.58,0-2.35,0-3.73-.1h-.07l-.06,0a.64.64,0,0,0-.34.49.92.92,0,0,0,.2.74l.07.06.65.08a3.31,3.31,0,0,1,1.89.71,2.81,2.81,0,0,1,.67,2.21v9.86c0,1.6,0,5.35-.41,6.41-.08.17-.36.4-1.26.52l-1,.11-.06.06a.79.79,0,0,0-.2.63.77.77,0,0,0,.3.58l.07.05h.09c1.15-.06,2-.1,3.43-.1,1.12,0,2.24,0,3.87.1h.09l.07-.05a.73.73,0,0,0,.29-.49.93.93,0,0,0-.17-.69l-.07-.09-1.14-.11c-.8-.07-1.35-.25-1.49-.5-.36-.63-.56-3.08-.56-6.73V8.92a14.11,14.11,0,0,1,.07-1.67c.52.59,1.4,1.62,2.19,2.55l1.37,1.61,7.69,8.73c2.55,2.9,3.77,4.34,4.22,5l.08.11h.13a.85.85,0,0,0,.87-.54l0-.05v-.06c0-.38-.1-1.69-.1-5.76V10.46c0-1.7,0-5.22.47-6.26,0-.08.44-.36,1.67-.55l.55-.08,0-.06Zm-4.1,80.91V56.16c0-8.42.16-9.77,4.86-10.17l2-.15c.48-.32.32-1.75-.16-2-4,.16-6.68.24-9.86.24-3.34,0-6-.08-10-.24-.48.24-.64,1.67-.16,2l2,.15c4.69.4,4.85,1.75,4.85,10.17V84.42c0,8.42-.16,9.53-4.85,10.09l-2,.24a1.53,1.53,0,0,0,.16,2c4-.16,6.68-.24,10-.24,3.18,0,5.89.08,9.86.24.48-.24.64-1.67.16-2l-2-.24c-4.7-.56-4.86-1.67-4.86-10.09Zm16.64-65V7.63c0-3.58.12-3.84,1.79-4l.89-.07.06,0a.68.68,0,0,0,.23-.63.82.82,0,0,0-.33-.64l-.06,0h-.06c-1.57.06-2.74.1-4.1.1s-2.56,0-4.17-.1h-.06l-.06,0a.82.82,0,0,0-.33.64.69.69,0,0,0,.24.63l0,0,.89.07c1.68.14,1.79.4,1.79,4V19.41c0,3.56-.08,3.75-1.79,3.95l-.92.11-.06.06a.84.84,0,0,0-.18.72.65.65,0,0,0,.31.51l.06,0h.06c1.69-.07,2.79-.1,4.17-.1s2.45,0,4.1.1h.06l.06,0c.27-.13.32-.52.33-.64a.68.68,0,0,0-.23-.62l-.94-.14c-1.72-.2-1.8-.39-1.8-3.95ZM270,49.57a26.35,26.35,0,0,0-10,21,25.61,25.61,0,0,0,11.3,21.84c5.81,3.88,12.65,5.31,19.81,5.31a47.16,47.16,0,0,0,12.56-1.82,16,16,0,0,1,2.79-.8c1.19-1.5,3.26-6.75,3.81-10.87a1.65,1.65,0,0,0-2.06-.32c-1.83,4.68-6.37,11.35-16.63,11.35-13,0-23.62-9.21-23.62-25.88C268,53,278.3,45.28,290.47,45.28c11.53,0,15.11,6.19,16.3,11.59a1.67,1.67,0,0,0,2.15-.16c-.63-4.84-1-9.84-1.11-11.67a6,6,0,0,1-2.23-.32,61.59,61.59,0,0,0-14.08-1.9c-8.27,0-15.67,2.22-21.47,6.75ZM291.67,3.51a.89.89,0,0,0,.18-.71.69.69,0,0,0-.3-.52l-.07,0h-.08c-1.11.07-2.12.1-3.2.1-1.3,0-2.55,0-3.42-.1h-.08l-.07,0a.75.75,0,0,0-.33.59.73.73,0,0,0,.23.65l.05,0,.68.08c1.16.13,1.26.37,1.27.37a3.31,3.31,0,0,1-.29,1.2c-.57,1.44-2.15,5.23-3.07,7.41-.25.56-.56,1.29-.9,2.1-.63,1.49-1.39,3.3-2,4.72-1.57-3.6-3-7.2-4.48-10.89A43.44,43.44,0,0,1,274.12,4c.05-.11.33-.25,1.33-.38l.57-.08.06,0a.76.76,0,0,0,.22-.65.75.75,0,0,0-.33-.59l-.06,0h-.08c-1.47.07-2.63.1-4,.1s-2.44,0-3.43-.1h-.08l-.07,0a.77.77,0,0,0-.34.59.76.76,0,0,0,.24.64l.06,0,.68.08c1.29.15,1.73.74,2.48,2.56l5.83,14.35a38.6,38.6,0,0,1,1.51,4.37l0,.12.12.05a1.57,1.57,0,0,0,.6.12.89.89,0,0,0,.5-.14l.08,0,0-.09c.57-1.77,2.16-5.67,3.44-8.61l1.79-4.06A77,77,0,0,1,289,4.69a1.84,1.84,0,0,1,1.52-1l1.09-.07.07-.07ZM314.4,20l0-.08,0-.08a.86.86,0,0,0-.77-.46.73.73,0,0,0-.43.13l-.08.09a8.05,8.05,0,0,1-2.24,3.1c-.71.35-1.72.47-4.13.47-2.76,0-3.47-.33-3.82-.68-.47-.5-.57-1.58-.57-3.27V14.55c0-.64,0-.64.84-.64h1.93a11.69,11.69,0,0,1,2.49.15c.46.12.69.42.84,1.07l.3,1.29.05.11a.79.79,0,0,0,.62.23.74.74,0,0,0,.66-.3l0-.06v-.07c0-.32,0-.75-.05-1.23s-.08-1.28-.08-1.94,0-1.41.07-2,.06-1,.06-1.32V9.75l0-.06a.74.74,0,0,0-.66-.31.79.79,0,0,0-.62.24l-.32,1.47c-.15.76-.34.87-.63,1a12.08,12.08,0,0,1-2.73.19h-1.93c-.84,0-.84,0-.84-.67V5c0-1.07,0-1.07.75-1.07h2.38a16,16,0,0,1,3.16.19c1.5.38,1.81,1.33,2.27,2.78l.06.2.05.08a.66.66,0,0,0,.54.21.86.86,0,0,0,.69-.29l.05-.08,0-.49a27.91,27.91,0,0,0-.51-4.06l-.08-.22-.22.06c-.37.09-2.42.09-4.41.09H300.8c-1.28,0-2.37,0-3.9-.1h-.07l-.05,0c-.28.14-.32.53-.33.64a.66.66,0,0,0,.23.63l.64.11c1.7.2,1.8.42,1.8,3.92V19.48c0,3.58-.21,3.74-1.83,3.88l-1.18.11-.07.06a.9.9,0,0,0-.18.72.66.66,0,0,0,.32.51l.05,0h.07c1.91-.06,3.07-.1,4.5-.1h3c2.89,0,5.8,0,8.88.1h.16l.07-.15A28.15,28.15,0,0,0,314.4,20Zm17.13-7.47a5.39,5.39,0,0,1-3.26.81,9.65,9.65,0,0,1-2.09-.1,5.08,5.08,0,0,1,0-.9V4.59c0-.75,0-.81,1.9-.81,3.73,0,5,2.61,5,4.84a4.53,4.53,0,0,1-1.56,3.9Zm10,12.32a.57.57,0,0,0,.2-.52.48.48,0,0,0-.3-.38l-.07,0a3.79,3.79,0,0,1-2.15-.87c-2.28-1.91-4.09-4.7-6.6-8.74a1,1,0,0,1-.2-.46c1.1-.46,4.21-2.08,4.21-5.72a5.17,5.17,0,0,0-2.88-4.86,12.12,12.12,0,0,0-5.66-1c-3,0-5.39.08-7.41.26l-.09,0a.69.69,0,0,0-.34.57.75.75,0,0,0,.27.69l.05,0,1.13.14c1.08.13,1.23.36,1.23,3.62V19.48c0,3.49-.08,3.68-1.76,3.88l-.93.11-.06.07a.9.9,0,0,0-.16.76.61.61,0,0,0,.3.46l.06,0h.07c1.47-.06,2.68-.1,4.13-.1s2.52,0,3.93.1h.07l.06,0a.75.75,0,0,0,.32-.57.78.78,0,0,0-.21-.68l-.05,0-.77-.11c-1.71-.24-1.77-.38-1.77-3.88V15.31c0-.48,0-.48,1.3-.48s1.71.31,2.15.95,1.09,1.66,1.65,2.55,1.16,1.82,1.6,2.45c2.27,3.24,4,4.27,7.06,4.27a5.54,5.54,0,0,0,1.54-.17l.08,0Zm8.35-18.07c0-1.28.48-3.42,3.69-3.42,2.92,0,3.81,1.9,4.26,3.55l.05.1a.61.61,0,0,0,.5.2.91.91,0,0,0,.73-.32l0-.07V6.74a14.72,14.72,0,0,0-.6-4.13l-.07-.16h-.17a4.2,4.2,0,0,1-1.1-.19,12.78,12.78,0,0,0-3.15-.44c-4.19,0-7,2.39-7,5.94,0,3,2.31,5,3.69,5.91l3.15,2.05c2.29,1.47,2.6,3,2.6,4.42a3.52,3.52,0,0,1-3.88,3.55c-3.36,0-4.82-2.59-5.46-4.75l0-.07a.58.58,0,0,0-.51-.23.89.89,0,0,0-.71.32l-.05.07v.09a15.24,15.24,0,0,0,.92,4.74l0,.07.07,0a10.57,10.57,0,0,0,5.29,1.26c4.38,0,7.32-2.56,7.32-6.38,0-2.64-1.4-4.79-4.26-6.56l-2.66-1.66c-1-.62-2.69-1.95-2.69-3.85Zm-3.25,66.14h-9.78c-2.23,0-2.31-.08-1.67-1.9l5-13.82a47.45,47.45,0,0,1,1.91-4.69h.16c.47,1,1.19,3.1,1.82,5l4.3,12.94c.72,2.14.56,2.46-1.75,2.46Zm20.52,21.6c-3.42-.4-4.45-1.59-6.76-8.42l-10.9-31.92C348.29,50.68,347,47,346,43.53a1.13,1.13,0,0,0-1.19-.71,9,9,0,0,1-4.14,3c.24,1.27-.23,2.77-1.35,5.63l-8.11,21.44c-3.34,8.89-5.57,14.06-7,17.71-1.11,2.86-2.86,3.73-4.77,3.89l-2.63.24a1.57,1.57,0,0,0,.16,2c2.15-.08,5-.24,7.64-.24,3.74.08,6.2.08,8.27.24a1.27,1.27,0,0,0,.16-2l-2.63-.24c-1.9-.16-2.3-.64-2.3-1.59s.56-3,1.75-6.59L332.62,78c.56-1.67,1-1.9,3-1.9h12c2.39,0,2.71.23,3.27,2l3.49,10.8a16.16,16.16,0,0,1,1,4.21c0,.79-1.11,1.27-2.78,1.43l-2.31.24a1.32,1.32,0,0,0,.16,2c2.31-.08,5.33-.24,9.14-.24,3.58,0,6.37.08,9.63.24.39-.32.55-1.59,0-2l-2.15-.24Zm5.46-75.1V7.63c0-3.62.1-3.84,1.79-4l.89-.07.06,0a.68.68,0,0,0,.23-.63c0-.11-.06-.5-.33-.63l-.05,0h-.07c-1.57.06-2.74.1-4.1.1s-2.56,0-4.17-.1h-.06l-.06,0a.75.75,0,0,0-.32.64.65.65,0,0,0,.23.62l.05,0,.9.07c1.69.14,1.78.36,1.78,4V19.41c0,3.56-.08,3.75-1.79,3.95l-.92.11-.06.06a.84.84,0,0,0-.18.72.65.65,0,0,0,.31.51l.06,0h.06c1.69-.07,2.8-.1,4.17-.1s2.41,0,4.1.1h.07l.05,0c.28-.13.32-.52.33-.64a.67.67,0,0,0-.23-.62l-.94-.14c-1.72-.2-1.8-.39-1.8-3.95ZM402.82,1.84l0-.09,0-.09c-.12-.24-.47-.27-.61-.27a1,1,0,0,0-.31.05l-.08,0-.05.08c-.42.74-.6.8-2.36.8h-13.7c-1.49,0-2.15-.08-2.29-.82V1.45l-.06-.05a.59.59,0,0,0-.46-.14,1.12,1.12,0,0,0-.49.1l-.09.06,0,.11A33.51,33.51,0,0,1,381,6.42l0,.1,0,.1a.93.93,0,0,0,1.25.32l.05,0,0-.06a5.74,5.74,0,0,1,1.42-2.2c.74-.67,2.39-.76,3.91-.76h1.82c.74,0,.74,0,.74.8v14.8c0,3.58-.2,3.74-1.82,3.88l-1.19.1-.11,0a.72.72,0,0,0-.3.67.68.68,0,0,0,.32.6l.05,0h.07c2-.06,3.25-.1,4.6-.1s2.36,0,4.33.1h.06l.06,0c.27-.13.32-.52.33-.64a.7.7,0,0,0-.23-.62l-1.18-.14c-1.66-.14-1.76-.36-1.76-3.88V4.64a2.16,2.16,0,0,1,0-.7,1.87,1.87,0,0,1,.66-.06h2.35a6.44,6.44,0,0,1,3.69.78A3.89,3.89,0,0,1,401,6.9V7L401,7a.8.8,0,0,0,.61.24.75.75,0,0,0,.68-.35l0-.07V6.78a19.5,19.5,0,0,1,.49-4.94ZM416.38,44a47.59,47.59,0,0,0-10.11-1.19c-12,0-19.88,3.73-25.21,9.29a27.23,27.23,0,0,0-7.16,18.82,25,25,0,0,0,7.32,18c6.12,6.19,14.79,8.81,24.26,8.81a62.45,62.45,0,0,0,14.24-2.06,17.71,17.71,0,0,1,3.89-.72.65.65,0,0,0,.08-1c-1.43-.55-1.91-2.46-1.91-5.64V84c0-4,.08-6.27,3.42-6.67l1.28-.16a1.4,1.4,0,0,0-.08-2c-2.63.16-5.33.24-8.43.24-4.7,0-9.07-.08-11.38-.24a1.32,1.32,0,0,0,0,2l3.5.4c4.93.55,5.17,1,5.17,7.7v3.17c0,2.54-.4,4-.79,4.53-.88,1.35-3.82,2.38-8.75,2.38-16,0-23.87-12-23.87-27.23,0-11.91,6.77-22.87,22.2-22.87,8.11,0,14.07,2.7,16.3,11.27.48.48,1.91.4,2.15-.23a88.87,88.87,0,0,1-1.2-11.52,20.74,20.74,0,0,1-4.92-.71ZM428,3.52a.76.76,0,0,0,.24-.64.77.77,0,0,0-.34-.59l-.07,0h-.08a46.25,46.25,0,0,1-6.23,0h-.07l-.06,0a.65.65,0,0,0-.35.51.85.85,0,0,0,.21.72l.07.06.68.08a3,3,0,0,1,1.16.32,35.24,35.24,0,0,1-2,3.92l-.15.29c-.8,1.54-1.72,3.2-2.88,5.19-.87-1.57-1.73-3.31-2.55-5l-1-2a17.32,17.32,0,0,1-1-2.44c0-.06.15-.2,1.17-.34l.52-.08.06-.06a.87.87,0,0,0,.18-.79.58.58,0,0,0-.39-.46h-.09c-.82.06-2,.1-3.53.1s-2.75,0-3.83-.1h-.07l-.07,0a.71.71,0,0,0-.31.49.89.89,0,0,0,.18.73l.06.06,1,.18c.87.15,1.31.23,2.43,2.38l3.91,7.62a6.4,6.4,0,0,1,1,4v1.69c0,3.59-.08,3.77-1.76,3.95l-1.12.11-.06.06a.85.85,0,0,0-.18.73.66.66,0,0,0,.32.5l0,0h.07c1.78-.07,2.94-.1,4.33-.1s2.53,0,4.5.1h.06l.06,0a.65.65,0,0,0,.31-.51.84.84,0,0,0-.18-.72l-.07-.07-1.35-.1c-1.53-.12-1.75-.37-1.75-3.95V17.69c0-2.48.07-2.73,1.52-5.23l2.09-3.61c.19-.33.37-.64.54-.95,1.31-2.27,2.25-3.91,3.66-4.16l1-.17.05,0Zm17.57,64.79c0-17.39,10.74-23,19-23,15.19,0,21,14.13,21,27.23,0,15.65-9.07,22.79-18.61,22.79-15.67,0-21.4-15.24-21.4-27Zm-7.95,2.54c0,14.29,10.66,26.91,28.31,26.91,15.36,0,27.6-11.67,27.6-27.71,0-14-9.22-27.23-27.6-27.23-16.38,0-28.31,12.15-28.31,28Zm27.11-56.4c0,6.82-4,9.24-7.5,9.24-6.84,0-8.67-6.91-8.67-11,0-6.89,4.14-9.34,7.67-9.34,6.27,0,8.5,6,8.5,11.1Zm3.82-1c0-5.59-3.68-11.6-11.75-11.6a11.73,11.73,0,0,0-12.06,11.93c0,5.7,4.14,11.47,12.06,11.47a11.51,11.51,0,0,0,11.75-11.8ZM490.79,7l0-.06V6.86c-.06-1.2-.1-2.75-.1-4.36V2.18l-.31.07c-.4.1-2.44.1-4.42.1h-6.1c-1.24,0-2.35,0-3.83-.1H476l-.06,0a.82.82,0,0,0-.33.64.67.67,0,0,0,.24.63l.63.11c1.69.2,1.77.38,1.77,3.92V19.48c0,3.49-.08,3.68-1.77,3.88l-.91.11-.06.06a.87.87,0,0,0-.19.72.66.66,0,0,0,.32.51l.06,0h.06c1.55-.06,2.67-.1,4.13-.1s2.49,0,4.4.1h.07l.06,0a.76.76,0,0,0,.32-.64.67.67,0,0,0-.23-.62l-1.25-.14c-1.69-.15-1.79-.36-1.79-3.88v-4.6c0-.64,0-.64.84-.64h2.26a11.26,11.26,0,0,1,2.47.15,1.31,1.31,0,0,1,.89,1.08l.35,1.37.07.05a1,1,0,0,0,1.24-.05l0-.07V16.7c0-.35,0-.79-.06-1.28s-.07-1.28-.07-1.93,0-1.38.07-2,.06-1,.06-1.34v-.07l0-.07a.8.8,0,0,0-.63-.26.86.86,0,0,0-.65.24L488,11.41c-.19.8-.41.88-.67,1a12.21,12.21,0,0,1-2.73.19H482.3c-.84,0-.84,0-.84-.64V5c0-1.07,0-1.07.75-1.07h2a14.13,14.13,0,0,1,3.15.19c1.42.37,1.84,1.32,2.13,2.94l0,.09.06.06a.78.78,0,0,0,.51.17.79.79,0,0,0,.69-.35Z"/><path class="cls-2" d="M1.4,126.24a9.14,9.14,0,0,1,9.34-9.46,8.25,8.25,0,0,1,7,3.62l-1.93,1.07a6.21,6.21,0,0,0-5.11-2.66c-3.93,0-7,3.07-7,7.43s3.05,7.44,7,7.44A6.16,6.16,0,0,0,15.85,131l2,1.07a8.36,8.36,0,0,1-7.07,3.62A9.14,9.14,0,0,1,1.4,126.24Z"/><path class="cls-2" d="M20.72,117.08h12v2H23V125h9.53v2H23v6.31h9.73v2h-12Z"/><path class="cls-2" d="M38.63,120.62v14.76H36.35v-18.3h2.34l10.55,14.46V117.08h2.28v18.3h-2.2Z"/><path class="cls-2" d="M60.34,119.11h-5.8v-2H68.45v2H62.62v16.27H60.34Z"/><path class="cls-2" d="M71.47,117.08h12v2H73.75V125h9.54v2H73.75v6.31h9.73v2h-12Z"/><path class="cls-2" d="M93,128.11H89.38v7.27H87.1v-18.3h7.37c3.35,0,5.74,2.14,5.74,5.51a5.06,5.06,0,0,1-4.75,5.33l4.94,7.46H97.71Zm1.15-9H89.38v7h4.81a3.5,3.5,0,1,0,0-7Z"/><path class="cls-2" d="M110.9,117.08h12v2h-9.73V125h9.54v2h-9.54v8.34H110.9Z"/><path class="cls-2" d="M134.36,116.78c5.42,0,9.1,4.06,9.1,9.46s-3.68,9.47-9.1,9.47-9.09-4.06-9.09-9.47S128.92,116.78,134.36,116.78Zm0,2c-4.12,0-6.73,3.15-6.73,7.43s2.61,7.44,6.73,7.44,6.74-3.19,6.74-7.44S138.46,118.81,134.36,118.81Z"/><path class="cls-2" d="M153,128.11h-3.66v7.27H147v-18.3h7.37c3.35,0,5.74,2.14,5.74,5.51a5.06,5.06,0,0,1-4.75,5.33l4.94,7.46h-2.69Zm1.15-9h-4.81v7h4.81a3.5,3.5,0,1,0,0-7Z"/><path class="cls-2" d="M170.83,117.08h6.26c5.69,0,9.4,4,9.4,9.16s-3.71,9.14-9.4,9.14h-6.26Zm6.26,16.27a6.74,6.74,0,0,0,7-7.11c0-3.95-2.5-7.13-7-7.13h-4v14.24Z"/><path class="cls-2" d="M200.59,131.32H191.3l-1.62,4.06h-2.53l7.36-18.3h2.83l7.4,18.3h-2.53Zm-8.63-2h7.94l-4-10.18Z"/><path class="cls-2" d="M209.82,119.11H204v-2h13.91v2H212.1v16.27h-2.28Z"/><path class="cls-2" d="M230.65,131.32h-9.29l-1.62,4.06h-2.53l7.37-18.3h2.83l7.39,18.3h-2.53Zm-8.63-2H230l-4-10.18Z"/><path class="cls-2" d="M244.28,117.08h2.28v18.3h-2.28Z"/><path class="cls-2" d="M253.13,120.62v14.76h-2.29v-18.3h2.34l10.55,14.46V117.08H266v18.3h-2.2Z"/><path class="cls-2" d="M274.83,119.11H269v-2h13.91v2h-5.83v16.27h-2.28Z"/><path class="cls-2" d="M286,117.08h12v2h-9.73V125h9.54v2h-9.54v6.31H298v2H286Z"/><path class="cls-2" d="M303.88,120.62v14.76H301.6v-18.3h2.33l10.55,14.46V117.08h2.28v18.3h-2.2Z"/><path class="cls-2" d="M321.3,131.07a7.76,7.76,0,0,0,5.77,2.61c3.27,0,4.31-1.76,4.31-3.16,0-2.19-2.22-2.8-4.64-3.45-2.94-.77-6.21-1.59-6.21-5.19,0-3,2.69-5.07,6.29-5.07a8.62,8.62,0,0,1,6.51,2.55L332,121a7,7,0,0,0-5.3-2.19c-2.2,0-3.77,1.18-3.77,2.9s2.12,2.39,4.45,3c3,.8,6.4,1.73,6.4,5.57,0,2.66-1.81,5.38-6.76,5.38a9.09,9.09,0,0,1-7-2.91Z"/><path class="cls-2" d="M337.15,117.08h2.28v18.3h-2.28Z"/><path class="cls-2" d="M341.82,117.08h2.61l6.19,15.8,6.18-15.8h2.61L352,135.38h-2.83Z"/><path class="cls-2" d="M361.8,117.08h12v2h-9.73V125h9.53v2h-9.53v6.31h9.73v2h-12Z"/><path class="cls-2" d="M384.77,131.07a7.78,7.78,0,0,0,5.77,2.61c3.27,0,4.31-1.76,4.31-3.16,0-2.19-2.22-2.8-4.64-3.45-2.94-.77-6.21-1.59-6.21-5.19,0-3,2.69-5.07,6.29-5.07a8.59,8.59,0,0,1,6.51,2.55L395.43,121a7,7,0,0,0-5.3-2.19c-2.2,0-3.77,1.18-3.77,2.9s2.12,2.39,4.46,3c3,.8,6.4,1.73,6.4,5.57,0,2.66-1.82,5.38-6.76,5.38a9.09,9.09,0,0,1-7-2.91Z"/><path class="cls-2" d="M399.88,126.24a9.14,9.14,0,0,1,9.34-9.46,8.25,8.25,0,0,1,7,3.62l-1.92,1.07a6.23,6.23,0,0,0-5.12-2.66c-3.92,0-7,3.07-7,7.43s3.05,7.44,7,7.44a6.17,6.17,0,0,0,5.12-2.66l2,1.07a8.36,8.36,0,0,1-7.07,3.62A9.14,9.14,0,0,1,399.88,126.24Z"/><path class="cls-2" d="M419.2,117.08h2.28v18.3H419.2Z"/><path class="cls-2" d="M425.77,117.08h12v2h-9.72V125h9.53v2h-9.53v6.31h9.72v2h-12Z"/><path class="cls-2" d="M443.68,120.62v14.76H441.4v-18.3h2.34l10.55,14.46V117.08h2.28v18.3h-2.2Z"/><path class="cls-2" d="M460.11,126.24a9.14,9.14,0,0,1,9.35-9.46,8.24,8.24,0,0,1,7,3.62l-1.92,1.07a6.22,6.22,0,0,0-5.11-2.66c-3.93,0-7,3.07-7,7.43s3,7.44,7,7.44a6.17,6.17,0,0,0,5.11-2.66l1.95,1.07a8.35,8.35,0,0,1-7.06,3.62A9.14,9.14,0,0,1,460.11,126.24Z"/><path class="cls-2" d="M479.43,117.08h12v2h-9.73V125h9.54v2h-9.54v6.31h9.73v2h-12Z"/></svg>